  0
SECTION
  2
HEADER
  9
$ACADVER
  1
AC1024
  9
$ACADMAINTVER
 70
     6
  9
$DWGCODEPAGE
  3
ANSI_1252
  9
$INSBASE
 10
0.0
 20
0.0
 30
0.0
  9
$EXTMIN
 10
1.000000000000000E+20
 20
1.000000000000000E+20
 30
1.000000000000000E+20
  9
$EXTMAX
 10
-1.000000000000000E+20
 20
-1.000000000000000E+20
 30
-1.000000000000000E+20
  9
$LIMMIN
 10
0.0
 20
0.0
  9
$LIMMAX
 10
12.0
 20
9.0
  9
$ORTHOMODE
 70
     0
  9
$REGENMODE
 70
     1
  9
$FILLMODE
 70
     1
  9
$QTEXTMODE
 70
     0
  9
$MIRRTEXT
 70
     1
  9
$LTSCALE
 40
1.0
  9
$ATTMODE
 70
     1
  9
$TEXTSIZE
 40
0.2
  9
$TRACEWID
 40
0.05
  9
$TEXTSTYLE
  7
Standard
  9
$CLAYER
  8
0
  9
$CELTYPE
  6
ByLayer
  9
$CECOLOR
 62
   256
  9
$CELTSCALE
 40
1.0
  9
$DISPSILH
 70
     0
  9
$DIMSCALE
 40
1.0
  9
$DIMASZ
 40
0.18
  9
$DIMEXO
 40
0.0625
  9
$DIMDLI
 40
0.38
  9
$DIMRND
 40
0.0
  9
$DIMDLE
 40
0.0
  9
$DIMEXE
 40
0.18
  9
$DIMTP
 40
0.0
  9
$DIMTM
 40
0.0
  9
$DIMTXT
 40
0.18
  9
$DIMCEN
 40
0.09
  9
$DIMTSZ
 40
0.0
  9
$DIMTOL
 70
     0
  9
$DIMLIM
 70
     0
  9
$DIMTIH
 70
     1
  9
$DIMTOH
 70
     1
  9
$DIMSE1
 70
     0
  9
$DIMSE2
 70
     0
  9
$DIMTAD
 70
     0
  9
$DIMZIN
 70
     0
  9
$DIMBLK
  1

  9
$DIMASO
 70
     1
  9
$DIMSHO
 70
     1
  9
$DIMPOST
  1

  9
$DIMAPOST
  1

  9
$DIMALT
 70
     0
  9
$DIMALTD
 70
     2
  9
$DIMALTF
 40
25.4
  9
$DIMLFAC
 40
1.0
  9
$DIMTOFL
 70
     0
  9
$DIMTVP
 40
0.0
  9
$DIMTIX
 70
     0
  9
$DIMSOXD
 70
     0
  9
$DIMSAH
 70
     0
  9
$DIMBLK1
  1

  9
$DIMBLK2
  1

  9
$DIMSTYLE
  2
Standard
  9
$DIMCLRD
 70
     0
  9
$DIMCLRE
 70
     0
  9
$DIMCLRT
 70
     0
  9
$DIMTFAC
 40
1.0
  9
$DIMGAP
 40
0.09
  9
$DIMJUST
 70
     0
  9
$DIMSD1
 70
     0
  9
$DIMSD2
 70
     0
  9
$DIMTOLJ
 70
     1
  9
$DIMTZIN
 70
     0
  9
$DIMALTZ
 70
     0
  9
$DIMALTTZ
 70
     0
  9
$DIMUPT
 70
     0
  9
$DIMDEC
 70
     4
  9
$DIMTDEC
 70
     4
  9
$DIMALTU
 70
     2
  9
$DIMALTTD
 70
     2
  9
$DIMTXSTY
  7
Standard
  9
$DIMAUNIT
 70
     0
  9
$DIMADEC
 70
     0
  9
$DIMALTRND
 40
0.0
  9
$DIMAZIN
 70
     0
  9
$DIMDSEP
 70
    46
  9
$DIMATFIT
 70
     3
  9
$DIMFRAC
 70
     0
  9
$DIMLDRBLK
  1

  9
$DIMLUNIT
 70
     2
  9
$DIMLWD
 70
    -2
  9
$DIMLWE
 70
    -2
  9
$DIMTMOVE
 70
     0
  9
$DIMFXL
 40
1.0
  9
$DIMFXLON
 70
     0
  9
$DIMJOGANG
 40
0.7853981633974483
  9
$DIMTFILL
 70
     0
  9
$DIMTFILLCLR
 70
     0
  9
$DIMARCSYM
 70
     0
  9
$DIMLTYPE
  6

  9
$DIMLTEX1
  6

  9
$DIMLTEX2
  6

  9
$DIMTXTDIRECTION
 70
     0
  9
$LUNITS
 70
     2
  9
$LUPREC
 70
     4
  9
$SKETCHINC
 40
0.1
  9
$FILLETRAD
 40
0.5
  9
$AUNITS
 70
     0
  9
$AUPREC
 70
     0
  9
$MENU
  1
.
  9
$ELEVATION
 40
0.0
  9
$PELEVATION
 40
0.0
  9
$THICKNESS
 40
0.0
  9
$LIMCHECK
 70
     0
  9
$CHAMFERA
 40
0.5
  9
$CHAMFERB
 40
0.5
  9
$CHAMFERC
 40
1.0
  9
$CHAMFERD
 40
0.0
  9
$SKPOLY
 70
     0
  9
$TDCREATE
 40
2457989.396767315
  9
$TDUCREATE
 40
2457989.521767315
  9
$TDUPDATE
 40
2457989.3967675
  9
$TDUUPDATE
 40
2457989.5217675
  9
$TDINDWG
 40
0.0000000116
  9
$TDUSRTIMER
 40
0.0000000116
  9
$USRTIMER
 70
     1
  9
$ANGBASE
 50
0.0
  9
$ANGDIR
 70
     0
  9
$PDMODE
 70
     0
  9
$PDSIZE
 40
0.0
  9
$PLINEWID
 40
0.0
  9
$SPLFRAME
 70
     0
  9
$SPLINETYPE
 70
     6
  9
$SPLINESEGS
 70
     8
  9
$HANDSEED
  5
6E
  9
$SURFTAB1
 70
     6
  9
$SURFTAB2
 70
     6
  9
$SURFTYPE
 70
     6
  9
$SURFU
 70
     6
  9
$SURFV
 70
     6
  9
$UCSBASE
  2

  9
$UCSNAME
  2

  9
$UCSORG
 10
0.0
 20
0.0
 30
0.0
  9
$UCSXDIR
 10
1.0
 20
0.0
 30
0.0
  9
$UCSYDIR
 10
0.0
 20
1.0
 30
0.0
  9
$UCSORTHOREF
  2

  9
$UCSORTHOVIEW
 70
     0
  9
$UCSORGTOP
 10
0.0
 20
0.0
 30
0.0
  9
$UCSORGBOTTOM
 10
0.0
 20
0.0
 30
0.0
  9
$UCSORGLEFT
 10
0.0
 20
0.0
 30
0.0
  9
$UCSORGRIGHT
 10
0.0
 20
0.0
 30
0.0
  9
$UCSORGFRONT
 10
0.0
 20
0.0
 30
0.0
  9
$UCSORGBACK
 10
0.0
 20
0.0
 30
0.0
  9
$PUCSBASE
  2

  9
$PUCSNAME
  2

  9
$PUCSORG
 10
0.0
 20
0.0
 30
0.0
  9
$PUCSXDIR
 10
1.0
 20
0.0
 30
0.0
  9
$PUCSYDIR
 10
0.0
 20
1.0
 30
0.0
  9
$PUCSORTHOREF
  2

  9
$PUCSORTHOVIEW
 70
     0
  9
$PUCSORGTOP
 10
0.0
 20
0.0
 30
0.0
  9
$PUCSORGBOTTOM
 10
0.0
 20
0.0
 30
0.0
  9
$PUCSORGLEFT
 10
0.0
 20
0.0
 30
0.0
  9
$PUCSORGRIGHT
 10
0.0
 20
0.0
 30
0.0
  9
$PUCSORGFRONT
 10
0.0
 20
0.0
 30
0.0
  9
$PUCSORGBACK
 10
0.0
 20
0.0
 30
0.0
  9
$USERI1
 70
     0
  9
$USERI2
 70
     0
  9
$USERI3
 70
     0
  9
$USERI4
 70
     0
  9
$USERI5
 70
     0
  9
$USERR1
 40
0.0
  9
$USERR2
 40
0.0
  9
$USERR3
 40
0.0
  9
$USERR4
 40
0.0
  9
$USERR5
 40
0.0
  9
$WORLDVIEW
 70
     1
  9
$SHADEDGE
 70
     3
  9
$SHADEDIF
 70
    70
  9
$TILEMODE
 70
     1
  9
$MAXACTVP
 70
    64
  9
$PINSBASE
 10
0.0
 20
0.0
 30
0.0
  9
$PLIMCHECK
 70
     0
  9
$PEXTMIN
 10
1.000000000000000E+20
 20
1.000000000000000E+20
 30
1.000000000000000E+20
  9
$PEXTMAX
 10
-1.000000000000000E+20
 20
-1.000000000000000E+20
 30
-1.000000000000000E+20
  9
$PLIMMIN
 10
0.0
 20
0.0
  9
$PLIMMAX
 10
12.0
 20
9.0
  9
$UNITMODE
 70
     0
  9
$VISRETAIN
 70
     1
  9
$PLINEGEN
 70
     0
  9
$PSLTSCALE
 70
     1
  9
$TREEDEPTH
 70
  3020
  9
$CMLSTYLE
  2
Standard
  9
$CMLJUST
 70
     0
  9
$CMLSCALE
 40
1.0
  9
$PROXYGRAPHICS
 70
     1
  9
$MEASUREMENT
 70
     0
  9
$CELWEIGHT
370
    -1
  9
$ENDCAPS
280
     0
  9
$JOINSTYLE
280
     0
  9
$LWDISPLAY
290
     1
  9
$INSUNITS
 70
     1
  9
$HYPERLINKBASE
  1

  9
$STYLESHEET
  1

  9
$XEDIT
290
     1
  9
$CEPSNTYPE
380
     0
  9
$PSTYLEMODE
290
     1
  9
$FINGERPRINTGUID
  2
{F9F9FD15-7F48-401B-B956-42A764B67FE5}
  9
$VERSIONGUID
  2
{FAEB1C32-E019-11D5-929B-00C0DF256EC4}
  9
$EXTNAMES
290
     1
  9
$PSVPSCALE
 40
0.0
  9
$OLESTARTUP
290
     0
  9
$SORTENTS
280
   127
  9
$INDEXCTL
280
     0
  9
$HIDETEXT
280
     1
  9
$XCLIPFRAME
280
     2
  9
$HALOGAP
280
     0
  9
$OBSCOLOR
 70
   257
  9
$OBSLTYPE
280
     0
  9
$INTERSECTIONDISPLAY
280
     0
  9
$INTERSECTIONCOLOR
 70
   257
  9
$DIMASSOC
280
     2
  9
$PROJECTNAME
  1

  9
$CAMERADISPLAY
290
     0
  9
$LENSLENGTH
 40
50.0
  9
$CAMERAHEIGHT
 40
0.0
  9
$STEPSPERSEC
 40
2.0
  9
$STEPSIZE
 40
6.0
  9
$3DDWFPREC
 40
2.0
  9
$PSOLWIDTH
 40
0.25
  9
$PSOLHEIGHT
 40
4.0
  9
$LOFTANG1
 40
1.570796326794897
  9
$LOFTANG2
 40
1.570796326794897
  9
$LOFTMAG1
 40
0.0
  9
$LOFTMAG2
 40
0.0
  9
$LOFTPARAM
 70
     7
  9
$LOFTNORMALS
280
     1
  9
$LATITUDE
 40
37.795
  9
$LONGITUDE
 40
-122.394
  9
$NORTHDIRECTION
 40
0.0
  9
$TIMEZONE
 70
 -8000
  9
$LIGHTGLYPHDISPLAY
280
     1
  9
$TILEMODELIGHTSYNCH
280
     1
  9
$CMATERIAL
347
3C
  9
$SOLIDHIST
280
     1
  9
$SHOWHIST
280
     1
  9
$DWFFRAME
280
     2
  9
$DGNFRAME
280
     2
  9
$REALWORLDSCALE
290
     1
  9
$INTERFERECOLOR
 62
   256
  9
$CSHADOW
280
     0
  9
$SHADOWPLANELOCATION
 40
0.0
  0
ENDSEC
  0
SECTION
  2
CLASSES
  0
CLASS
  1
ACDBDICTIONARYWDFLT
  2
AcDbDictionaryWithDefault
  3
ObjectDBX Classes
 90
        0
 91
        4
280
     0
281
     0
  0
CLASS
  1
VISUALSTYLE
  2
AcDbVisualStyle
  3
ObjectDBX Classes
 90
     4095
 91
        4
280
     0
281
     0
  0
CLASS
  1
MATERIAL
  2
AcDbMaterial
  3
ObjectDBX Classes
 90
     1153
 91
        4
280
     0
281
     0
  0
CLASS
  1
SUN
  2
AcDbSun
  3
SCENEOE
 90
     1024
 91
        4
280
     0
281
     0
  0
ENDSEC
  0
SECTION
  2
TABLES
  0
TABLE
  2
VPORT
  5
8
330
0
100
AcDbSymbolTable
 70
     1
  0
VPORT
  5
29
330
8
100
AcDbSymbolTableRecord
100
AcDbViewportTableRecord
  2
*Active
 70
     0
 10
0.0
 20
0.0
 11
1.0
 21
1.0
 12
0.0
 22
0.0
 13
0.0
 23
0.0
 14
0.5
 24
0.5
 15
0.5
 25
0.5
 16
0.0
 26
0.0
 36
1.0
 17
4.999919443194448
 27
-4.999919443194448
 37
0.0
 40
9.999838886388897
 41
1.0
 42
50.0
 43
0.0
 44
0.0
 50
0.0
 51
0.0
 71
     0
 72
   100
 73
     1
 74
     3
 75
     0
 76
     0
 77
     0
 78
     0
281
     0
 65
     1
110
0.0
120
0.0
130
0.0
111
1.0
121
0.0
131
0.0
112
0.0
122
1.0
132
0.0
 79
     0
146
0.0
 60
     3
 61
     5
292
     1
282
     1
141
0.0
142
0.0
 63
   250
361
3F
  0
ENDTAB
  0
TABLE
  2
LTYPE
  5
5
330
0
100
AcDbSymbolTable
 70
     1
  0
LTYPE
  5
14
330
5
100
AcDbSymbolTableRecord
100
AcDbLinetypeTableRecord
  2
ByBlock
 70
     0
  3

 72
    65
 73
     0
 40
0.0
  0
LTYPE
  5
15
330
5
100
AcDbSymbolTableRecord
100
AcDbLinetypeTableRecord
  2
ByLayer
 70
     0
  3

 72
    65
 73
     0
 40
0.0
  0
LTYPE
  5
16
330
5
100
AcDbSymbolTableRecord
100
AcDbLinetypeTableRecord
  2
Continuous
 70
     0
  3
Solid line
 72
    65
 73
     0
 40
0.0
  0
ENDTAB
  0
TABLE
  2
LAYER
  5
2
330
0
100
AcDbSymbolTable
 70
     2
  0
LAYER
  5
10
330
2
100
AcDbSymbolTableRecord
100
AcDbLayerTableRecord
  2
0
 70
     0
 62
     7
  6
Continuous
370
    -3
390
F
347
3E
  0
LAYER
  5
40
330
2
100
AcDbSymbolTableRecord
100
AcDbLayerTableRecord
  2
Capa 1
 70
     0
 62
     7
  6
Continuous
370
    -3
390
F
347
3E
  0
ENDTAB
  0
TABLE
  2
STYLE
  5
3
330
0
100
AcDbSymbolTable
 70
     1
  0
STYLE
  5
11
330
3
100
AcDbSymbolTableRecord
100
AcDbTextStyleTableRecord
  2
Standard
 70
     0
 40
0.0
 41
1.0
 50
0.0
 71
     0
 42
0.2
  3
txt
  4

  0
ENDTAB
  0
TABLE
  2
VIEW
  5
6
330
0
100
AcDbSymbolTable
 70
     0
  0
ENDTAB
  0
TABLE
  2
UCS
  5
7
330
0
100
AcDbSymbolTable
 70
     0
  0
ENDTAB
  0
TABLE
  2
APPID
  5
9
330
0
100
AcDbSymbolTable
 70
     1
  0
APPID
  5
12
330
9
100
AcDbSymbolTableRecord
100
AcDbRegAppTableRecord
  2
ACAD
 70
     0
  0
ENDTAB
  0
TABLE
  2
DIMSTYLE
  5
A
330
0
100
AcDbSymbolTable
 70
     1
100
AcDbDimStyleTable
  0
DIMSTYLE
105
27
330
A
100
AcDbSymbolTableRecord
100
AcDbDimStyleTableRecord
  2
Standard
 70
     0
178
     0
340
11
  0
ENDTAB
  0
TABLE
  2
BLOCK_RECORD
  5
1
330
0
100
AcDbSymbolTable
 70
     2
  0
BLOCK_RECORD
  5
1F
330
1
100
AcDbSymbolTableRecord
100
AcDbBlockTableRecord
  2
*Model_Space
340
22
 70
     0
280
     1
281
     0
  0
BLOCK_RECORD
  5
1B
330
1
100
AcDbSymbolTableRecord
100
AcDbBlockTableRecord
  2
*Paper_Space
340
1E
 70
     0
280
     1
281
     0
  0
BLOCK_RECORD
  5
23
330
1
100
AcDbSymbolTableRecord
100
AcDbBlockTableRecord
  2
*Paper_Space0
340
26
 70
     0
280
     1
281
     0
  0
BLOCK_RECORD
  5
41
330
1
100
AcDbSymbolTableRecord
100
AcDbBlockTableRecord
  2
block 2
340
0
102
{BLKREFS
331
42
102
}
 70
     0
280
     1
281
     0
  0
ENDTAB
  0
ENDSEC
  0
SECTION
  2
BLOCKS
  0
BLOCK
  5
20
330
1F
100
AcDbEntity
  8
0
100
AcDbBlockBegin
  2
*Model_Space
 70
     0
 10
0.0
 20
0.0
 30
0.0
  3
*Model_Space
  1

  0
ENDBLK
  5
21
330
1F
100
AcDbEntity
  8
0
100
AcDbBlockEnd
  0
BLOCK
  5
1C
330
1B
100
AcDbEntity
 67
     1
  8
0
100
AcDbBlockBegin
  2
*Paper_Space
 70
     0
 10
0.0
 20
0.0
 30
0.0
  3
*Paper_Space
  1

  0
ENDBLK
  5
1D
330
1B
100
AcDbEntity
 67
     1
  8
0
100
AcDbBlockEnd
  0
BLOCK
  5
24
330
23
100
AcDbEntity
  8
0
100
AcDbBlockBegin
  2
*Paper_Space0
 70
     0
 10
0.0
 20
0.0
 30
0.0
  3
*Paper_Space0
  1

  0
ENDBLK
  5
25
330
23
100
AcDbEntity
  8
0
100
AcDbBlockEnd
  0
BLOCK
  5
43
330
41
100
AcDbEntity
  8
0
100
AcDbBlockBegin
  2
block 2
 70
     0
 10
0.0
 20
0.0
 30
0.0
  3
block 2
  1

  0
SPLINE
  5
45
330
41
100
AcDbEntity
  8
Capa 1
370
     0
100
AcDbSpline
210
0.0
220
0.0
230
1.0
 70
    11
 71
     3
 72
    95
 73
    91
 74
     0
 42
0.0000000001
 43
0.0000000001
 12
1.0
 22
0.0
 32
0.0
 13
1.0
 23
0.0
 33
0.0
 40
0.0
 40
0.0
 40
0.0
 40
0.0
 40
1.0
 40
1.0
 40
1.0
 40
2.0
 40
2.0
 40
2.0
 40
3.0
 40
3.0
 40
3.0
 40
4.0
 40
4.0
 40
4.0
 40
5.0
 40
5.0
 40
5.0
 40
6.0
 40
6.0
 40
6.0
 40
7.0
 40
7.0
 40
7.0
 40
8.0
 40
8.0
 40
8.0
 40
9.0
 40
9.0
 40
9.0
 40
10.0
 40
10.0
 40
10.0
 40
11.0
 40
11.0
 40
11.0
 40
12.0
 40
12.0
 40
12.0
 40
13.0
 40
13.0
 40
13.0
 40
14.0
 40
14.0
 40
14.0
 40
15.0
 40
15.0
 40
15.0
 40
16.0
 40
16.0
 40
16.0
 40
17.0
 40
17.0
 40
17.0
 40
18.0
 40
18.0
 40
18.0
 40
19.0
 40
19.0
 40
19.0
 40
20.0
 40
20.0
 40
20.0
 40
21.0
 40
21.0
 40
21.0
 40
22.0
 40
22.0
 40
22.0
 40
23.0
 40
23.0
 40
23.0
 40
24.0
 40
24.0
 40
24.0
 40
25.0
 40
25.0
 40
25.0
 40
26.0
 40
26.0
 40
26.0
 40
27.0
 40
27.0
 40
27.0
 40
28.0
 40
28.0
 40
28.0
 40
29.0
 40
29.0
 40
29.0
 40
30.0
 40
30.0
 40
30.0
 40
30.0
 10
8.045934378413863
 20
-1.478075154252877
 30
0.0
 10
7.958017694814965
 20
-1.409804127658617
 30
0.0
 10
7.831403976177999
 20
-1.425729081539184
 30
0.0
 10
7.763132949583738
 20
-1.513645765138081
 30
0.0
 10
7.75312279401441
 20
-1.526534728622272
 30
0.0
 10
7.745474682037155
 20
-1.540401237950403
 30
0.0
 10
7.739047425772486
 20
-1.554648860966589
 30
0.0
 10
7.739047425772486
 20
-1.554648860966589
 30
0.0
 10
4.82957385472251
 20
-0.7053036327718077
 30
0.0
 10
4.82957385472251
 20
-0.7053036327718077
 30
0.0
 10
4.839599082584588
 20
-0.6358914182980584
 30
0.0
 10
4.813961112620294
 20
-0.5632989500544877
 30
0.0
 10
4.754608576963474
 20
-0.5172078788312015
 30
0.0
 10
4.666691893364577
 20
-0.4489368522369411
 30
0.0
 10
4.54007817472761
 20
-0.4648639593021868
 30
0.0
 10
4.471807148133382
 20
-0.5527784897164061
 30
0.0
 10
4.418543818746709
 20
-0.6213703408277302
 30
0.0
 10
4.417170086921966
 20
-0.7131821355096385
 30
0.0
 10
4.460608434621609
 20
-0.7827989025278245
 30
0.0
 10
4.460608434621609
 20
-0.7827989025278245
 30
0.0
 10
2.619263033741885
 20
-2.358529594679465
 30
0.0
 10
2.619263033741885
 20
-2.358529594679465
 30
0.0
 10
2.507749599253705
 20
-2.305365311788025
 30
0.0
 10
2.370503454675386
 20
-2.334717525322354
 30
0.0
 10
2.291623687171235
 20
-2.436294012520267
 30
0.0
 10
2.200595651712221
 20
-2.55351553959057
 30
0.0
 10
2.221830359009429
 20
-2.722333831106526
 30
0.0
 10
2.339051886079734
 20
-2.813359713380861
 30
0.0
 10
2.351919317717142
 20
-2.823352643472764
 30
0.0
 10
2.365490840744348
 20
-2.831752216902739
 30
0.0
 10
2.37943055835154
 20
-2.839060125700825
 30
0.0
 10
2.37943055835154
 20
-2.839060125700825
 30
0.0
 10
2.075937024763133
 20
-4.295762768837116
 30
0.0
 10
2.075937024763133
 20
-4.295762768837116
 30
0.0
 10
2.016423000255443
 20
-4.296279533159903
 30
0.0
 10
1.957673356308542
 20
-4.322158659808132
 30
0.0
 10
1.918334672236345
 20
-4.372816635734052
 30
0.0
 10
1.850063645642085
 20
-4.460731166148304
 30
0.0
 10
1.865988599522652
 20
-4.587347037969948
 30
0.0
 10
1.95390528312155
 20
-4.655615911379498
 30
0.0
 10
2.014099713987577
 20
-4.702359397560304
 30
0.0
 10
2.092105288512347
 20
-4.708747896500764
 30
0.0
 10
2.157432911651397
 20
-4.680470122120898
 30
0.0
 10
2.157432911651397
 20
-4.680470122120898
 30
0.0
 10
4.003864134741221
 20
-6.716521553903552
 30
0.0
 10
4.003864134741221
 20
-6.716521553903552
 30
0.0
 10
3.95626368105846
 20
-6.801987913338565
 30
0.0
 10
3.976100971499496
 20
-6.911442903274309
 30
0.0
 10
4.055747272749084
 20
-6.973290979973257
 30
0.0
 10
4.143663956347981
 20
-7.041562006567517
 30
0.0
 10
4.27027767498498
 20
-7.02563705268695
 30
0.0
 10
4.338548701579208
 20
-6.937720369088052
 30
0.0
 10
4.365844623745811
 20
-6.902567476030434
 30
0.0
 10
4.379091015886596
 20
-6.861247862054219
 30
0.0
 10
4.3802472760588
 20
-6.819926094893325
 30
0.0
 10
4.3802472760588
 20
-6.819926094893325
 30
0.0
 10
5.67755611701594
 20
-6.346942476169341
 30
0.0
 10
5.67755611701594
 20
-6.346942476169341
 30
0.0
 10
5.692755447659927
 20
-6.399723492188046
 30
0.0
 10
5.723940021355473
 20
-6.448409150948661
 30
0.0
 10
5.770644750212069
 20
-6.484677393669629
 30
0.0
 10
5.887866277282373
 20
-6.575705429128643
 30
0.0
 10
6.056684568798328
 20
-6.554470721831434
 30
0.0
 10
6.147712604257342
 20
-6.437251347945808
 30
0.0
 10
6.224247553646846
 20
-6.338691472482167
 30
0.0
 10
6.221134048602051
 20
-6.203820290603993
 30
0.0
 10
6.148616941822221
 20
-6.109215815394354
 30
0.0
 10
6.148616941822221
 20
-6.109215815394354
 30
0.0
 10
7.505459185949156
 20
-5.163862235579693
 30
0.0
 10
7.505459185949156
 20
-5.163862235579693
 30
0.0
 10
7.507956880175962
 20
-5.166004654334584
 30
0.0
 10
7.50990120594045
 20
-5.16855187180899
 30
0.0
 10
7.512528091247953
 20
-5.170590937699322
 30
0.0
 10
7.600442621662172
 20
-5.238859811108904
 30
0.0
 10
7.727056340299138
 20
-5.222934857228337
 30
0.0
 10
7.795327366893399
 20
-5.135020326814118
 30
0.0
 10
7.863598393487659
 20
-5.047103643215221
 30
0.0
 10
7.847673439607092
 20
-4.920489924578254
 30
0.0
 10
7.759756756008194
 20
-4.852218897983994
 30
0.0
 10
7.742206147695525
 20
-4.838589238970506
 30
0.0
 10
7.722885621577308
 20
-4.829240111097377
 30
0.0
 10
7.703022492920164
 20
-4.82222503541557
 30
0.0
 10
7.703022492920164
 20
-4.82222503541557
 30
0.0
 10
7.961038612918594
 20
-1.834188215009118
 30
0.0
 10
7.961038612918594
 20
-1.834188215009118
 30
0.0
 10
8.007123224587845
 20
-1.825146992545015
 30
0.0
 10
8.050438840760828
 20
-1.800880601220787
 30
0.0
 10
8.081504989299068
 20
-1.760874429898323
 30
0.0
 10
8.149776015893329
 20
-1.672959899484104
 30
0.0
 10
8.133848908828082
 20
-1.546344027662459
 30
0.0
 10
8.045934378413863
 20
-1.478075154252877
 30
0.0
  0
SPLINE
  5
46
330
41
100
AcDbEntity
  8
Capa 1
370
     0
100
AcDbSpline
210
0.0
220
0.0
230
1.0
 70
    11
 71
     3
 72
    29
 73
    25
 74
     0
 42
0.0000000001
 43
0.0000000001
 12
1.0
 22
0.0
 32
0.0
 13
1.0
 23
0.0
 33
0.0
 40
0.0
 40
0.0
 40
0.0
 40
0.0
 40
1.0
 40
1.0
 40
1.0
 40
2.0
 40
2.0
 40
2.0
 40
3.0
 40
3.0
 40
3.0
 40
4.0
 40
4.0
 40
4.0
 40
5.0
 40
5.0
 40
5.0
 40
6.0
 40
6.0
 40
6.0
 40
7.0
 40
7.0
 40
7.0
 40
8.0
 40
8.0
 40
8.0
 40
8.0
 10
7.798703560468943
 20
-1.796445040783528
 30
0.0
 10
7.80177615500485
 20
-1.798830769407063
 30
0.0
 10
7.805214790936065
 20
-1.80032507957379
 30
0.0
 10
7.80837781922846
 20
-1.802506255652889
 30
0.0
 10
7.80837781922846
 20
-1.802506255652889
 30
0.0
 10
7.314811908164786
 20
-3.156049820852697
 30
0.0
 10
7.314811908164786
 20
-3.156049820852697
 30
0.0
 10
7.250041959857411
 20
-3.142967070747461
 30
0.0
 10
7.182199417014129
 20
-3.154105495088209
 30
0.0
 10
7.124905325909745
 20
-3.187899728613832
 30
0.0
 10
7.124905325909745
 20
-3.187899728613832
 30
0.0
 10
5.95366114149661
 20
-1.729971923395632
 30
0.0
 10
5.95366114149661
 20
-1.729971923395632
 30
0.0
 10
5.962366467150901
 20
-1.721460384362387
 30
0.0
 10
5.970774653319589
 20
-1.712516055208807
 30
0.0
 10
5.978450756697661
 20
-1.702630784350818
 30
0.0
 10
5.992862021749397
 20
-1.684072485608713
 30
0.0
 10
6.004138249909555
 20
-1.664131842303151
 30
0.0
 10
6.012985685752612
 20
-1.643502179900539
 30
0.0
 10
6.012985685752612
 20
-1.643502179900539
 30
0.0
 10
7.732975444979733
 20
-1.705076802145345
 30
0.0
 10
7.732975444979733
 20
-1.705076802145345
 30
0.0
 10
7.745442384266981
 20
-1.739988538518996
 30
0.0
 10
7.767254145057969
 20
-1.772023620162463
 30
0.0
 10
7.798703560468943
 20
-1.796445040783528
 30
0.0
  0
SPLINE
  5
47
330
41
100
AcDbEntity
  8
Capa 1
370
     0
100
AcDbSpline
210
0.0
220
0.0
230
1.0
 70
    11
 71
     3
 72
    17
 73
    13
 74
     0
 42
0.0000000001
 43
0.0000000001
 12
1.0
 22
0.0
 32
0.0
 13
1.0
 23
0.0
 33
0.0
 40
0.0
 40
0.0
 40
0.0
 40
0.0
 40
1.0
 40
1.0
 40
1.0
 40
2.0
 40
2.0
 40
2.0
 40
3.0
 40
3.0
 40
3.0
 40
4.0
 40
4.0
 40
4.0
 40
4.0
 10
4.677834624074682
 20
-3.536431426117845
 30
0.0
 10
4.633812763327255
 20
-3.674329985653683
 30
0.0
 10
4.652170815894249
 20
-3.825212248799556
 30
0.0
 10
4.727838031858437
 20
-3.948473458892439
 30
0.0
 10
4.727838031858437
 20
-3.948473458892439
 30
0.0
 10
4.527105237040966
 20
-4.10175006340056
 30
0.0
 10
4.527105237040966
 20
-4.10175006340056
 30
0.0
 10
4.39735002195842
 20
-3.905416224880883
 30
0.0
 10
4.366966432963163
 20
-3.657440405037245
 30
0.0
 10
4.446100276259352
 20
-3.435539651647625
 30
0.0
 10
4.446100276259352
 20
-3.435539651647625
 30
0.0
 10
4.677834624074682
 20
-3.536431426117845
 30
0.0
 10
4.677834624074682
 20
-3.536431426117845
 30
0.0
  0
SPLINE
  5
48
330
41
100
AcDbEntity
  8
Capa 1
370
     0
100
AcDbSpline
210
0.0
220
0.0
230
1.0
 70
    11
 71
     3
 72
    23
 73
    19
 74
     0
 42
0.0000000001
 43
0.0000000001
 12
1.0
 22
0.0
 32
0.0
 13
1.0
 23
0.0
 33
0.0
 40
0.0
 40
0.0
 40
0.0
 40
0.0
 40
1.0
 40
1.0
 40
1.0
 40
2.0
 40
2.0
 40
2.0
 40
3.0
 40
3.0
 40
3.0
 40
4.0
 40
4.0
 40
4.0
 40
5.0
 40
5.0
 40
5.0
 40
6.0
 40
6.0
 40
6.0
 40
6.0
 10
4.48643803802227
 20
-3.343187407611468
 30
0.0
 10
4.507106457749091
 20
-3.303310427369702
 30
0.0
 10
4.53108432232643
 20
-3.264546643606606
 30
0.0
 10
4.559596793836261
 20
-3.2278262321032
 30
0.0
 10
4.742994298808826
 20
-2.991522826400557
 30
0.0
 10
5.040650548734412
 20
-2.895962337193761
 30
0.0
 10
5.315035178657135
 20
-2.956675685567255
 30
0.0
 10
5.315035178657135
 20
-2.956675685567255
 30
0.0
 10
5.243758306251994
 20
-3.198480478122906
 30
0.0
 10
5.243758306251994
 20
-3.198480478122906
 30
0.0
 10
5.066215310419643
 20
-3.165362344586264
 30
0.0
 10
4.876885781658382
 20
-3.229843766146749
 30
0.0
 10
4.758482156199734
 20
-3.382315079585194
 30
0.0
 10
4.743121336704844
 20
-3.402096387224562
 30
0.0
 10
4.730081650293173
 20
-3.422883232108689
 30
0.0
 10
4.718146547621461
 20
-3.444068416158297
 30
0.0
 10
4.718146547621461
 20
-3.444068416158297
 30
0.0
 10
4.48643803802227
 20
-3.343187407611468
 30
0.0
 10
4.48643803802227
 20
-3.343187407611468
 30
0.0
  0
SPLINE
  5
49
330
41
100
AcDbEntity
  8
Capa 1
370
     0
100
AcDbSpline
210
0.0
220
0.0
230
1.0
 70
    11
 71
     3
 72
    23
 73
    19
 74
     0
 42
0.0000000001
 43
0.0000000001
 12
1.0
 22
0.0
 32
0.0
 13
1.0
 23
0.0
 33
0.0
 40
0.0
 40
0.0
 40
0.0
 40
0.0
 40
1.0
 40
1.0
 40
1.0
 40
2.0
 40
2.0
 40
2.0
 40
3.0
 40
3.0
 40
3.0
 40
4.0
 40
4.0
 40
4.0
 40
5.0
 40
5.0
 40
5.0
 40
6.0
 40
6.0
 40
6.0
 40
6.0
 10
4.789053072261938
 20
-4.028459963321227
 30
0.0
 10
4.806676888853669
 20
-4.047207742315053
 30
0.0
 10
4.825459118802315
 20
-4.065182528009344
 30
0.0
 10
4.846422524830061
 20
-4.081460604177149
 30
0.0
 10
4.965329995503459
 20
-4.173797775920558
 30
0.0
 10
5.112799460934256
 20
-4.203416984354994
 30
0.0
 10
5.249692483225337
 20
-4.176095223972252
 30
0.0
 10
5.249692483225337
 20
-4.176095223972252
 30
0.0
 10
5.324001039657498
 20
-4.417312197110732
 30
0.0
 10
5.324001039657498
 20
-4.417312197110732
 30
0.0
 10
5.110889586124621
 20
-4.467311298525131
 30
0.0
 10
4.877871940241067
 20
-4.424667475971741
 30
0.0
 10
4.691927217794031
 20
-4.280365345202695
 30
0.0
 10
4.653439041669756
 20
-4.250481295052831
 30
0.0
 10
4.618983780447901
 20
-4.217345936038762
 30
0.0
 10
4.587990840188723
 20
-4.18198849043674
 30
0.0
 10
4.587990840188723
 20
-4.18198849043674
 30
0.0
 10
4.789053072261938
 20
-4.028459963321227
 30
0.0
 10
4.789053072261938
 20
-4.028459963321227
 30
0.0
  0
SPLINE
  5
4A
330
41
100
AcDbEntity
  8
Capa 1
370
     0
100
AcDbSpline
210
0.0
220
0.0
230
1.0
 70
    11
 71
     3
 72
    29
 73
    25
 74
     0
 42
0.0000000001
 43
0.0000000001
 12
1.0
 22
0.0
 32
0.0
 13
1.0
 23
0.0
 33
0.0
 40
0.0
 40
0.0
 40
0.0
 40
0.0
 40
1.0
 40
1.0
 40
1.0
 40
2.0
 40
2.0
 40
2.0
 40
3.0
 40
3.0
 40
3.0
 40
4.0
 40
4.0
 40
4.0
 40
5.0
 40
5.0
 40
5.0
 40
6.0
 40
6.0
 40
6.0
 40
7.0
 40
7.0
 40
7.0
 40
8.0
 40
8.0
 40
8.0
 40
8.0
 10
4.479950492586609
 20
-3.166023372282496
 30
0.0
 10
4.446192863200549
 20
-3.20951124322974
 30
0.0
 10
4.417512443285845
 20
-3.255335319552919
 30
0.0
 10
4.393446298136664
 20
-3.302701076105748
 30
0.0
 10
4.393446298136664
 20
-3.302701076105748
 30
0.0
 10
4.142656265918546
 20
-3.193513081070111
 30
0.0
 10
4.142656265918546
 20
-3.193513081070111
 30
0.0
 10
4.176217955498946
 20
-3.1253561732638
 30
0.0
 10
4.216814099423226
 20
-3.060052235156211
 30
0.0
 10
4.264496374123762
 20
-2.998660633609059
 30
0.0
 10
4.448589357747444
 20
-2.761554090021417
 30
0.0
 10
4.713971522530306
 20
-2.610396219236724
 30
0.0
 10
5.011763423090592
 20
-2.57293295901931
 30
0.0
 10
5.059458616899198
 20
-2.566897582366088
 30
0.0
 10
5.107024619627106
 20
-2.563945566172165
 30
0.0
 10
5.154327933824264
 20
-2.563945566172165
 30
0.0
 10
5.24495332374844
 20
-2.563945566172165
 30
0.0
 10
5.334392308914882
 20
-2.575116288283087
 30
0.0
 10
5.4212065619585
 20
-2.596495258953741
 30
0.0
 10
5.4212065619585
 20
-2.596495258953741
 30
0.0
 10
5.34377804092751
 20
-2.859170870595971
 30
0.0
 10
5.34377804092751
 20
-2.859170870595971
 30
0.0
 10
5.03068130367397
 20
-2.787220051386528
 30
0.0
 10
4.689578093310027
 20
-2.896031239103466
 30
0.0
 10
4.479950492586609
 20
-3.166023372282496
 30
0.0
  0
SPLINE
  5
4B
330
41
100
AcDbEntity
  8
Capa 1
370
     0
100
AcDbSpline
210
0.0
220
0.0
230
1.0
 70
    11
 71
     3
 72
    23
 73
    19
 74
     0
 42
0.0000000001
 43
0.0000000001
 12
1.0
 22
0.0
 32
0.0
 13
1.0
 23
0.0
 33
0.0
 40
0.0
 40
0.0
 40
0.0
 40
0.0
 40
1.0
 40
1.0
 40
1.0
 40
2.0
 40
2.0
 40
2.0
 40
3.0
 40
3.0
 40
3.0
 40
4.0
 40
4.0
 40
4.0
 40
5.0
 40
5.0
 40
5.0
 40
6.0
 40
6.0
 40
6.0
 40
6.0
 10
5.411962940134639
 20
-2.984402244669481
 30
0.0
 10
5.482279492173267
 20
-3.010330894565342
 30
0.0
 10
5.54987011240919
 20
-3.047146046194594
 30
0.0
 10
5.612135906935724
 20
-3.095495808145396
 30
0.0
 10
5.76310214428405
 20
-3.212715182031022
 30
0.0
 10
5.856171398818074
 20
-3.376751250376515
 30
0.0
 10
5.888441177591474
 20
-3.551393906447221
 30
0.0
 10
5.888441177591474
 20
-3.551393906447221
 30
0.0
 10
5.638499500136598
 20
-3.580513576036295
 30
0.0
 10
5.638499500136598
 20
-3.580513576036295
 30
0.0
 10
5.614347227600319
 20
-3.470838961263366
 30
0.0
 10
5.553259225092805
 20
-3.368638050508752
 30
0.0
 10
5.457627680791625
 20
-3.294376864139513
 30
0.0
 10
5.420948179797106
 20
-3.26589453721521
 30
0.0
 10
5.381404943180473
 20
-3.243839466555576
 30
0.0
 10
5.340429838752783
 20
-3.227068311096445
 30
0.0
 10
5.340429838752783
 20
-3.227068311096445
 30
0.0
 10
5.411962940134639
 20
-2.984402244669481
 30
0.0
 10
5.411962940134639
 20
-2.984402244669481
 30
0.0
  0
SPLINE
  5
4C
330
41
100
AcDbEntity
  8
Capa 1
370
     0
100
AcDbSpline
210
0.0
220
0.0
230
1.0
 70
    11
 71
     3
 72
    23
 73
    19
 74
     0
 42
0.0000000001
 43
0.0000000001
 12
1.0
 22
0.0
 32
0.0
 13
1.0
 23
0.0
 33
0.0
 40
0.0
 40
0.0
 40
0.0
 40
0.0
 40
1.0
 40
1.0
 40
1.0
 40
2.0
 40
2.0
 40
2.0
 40
3.0
 40
3.0
 40
3.0
 40
4.0
 40
4.0
 40
4.0
 40
5.0
 40
5.0
 40
5.0
 40
6.0
 40
6.0
 40
6.0
 40
6.0
 10
5.67393661357175
 20
-3.015849506895777
 30
0.0
 10
5.601423813161276
 20
-2.959558799851473
 30
0.0
 10
5.522554811580515
 20
-2.917050627932846
 30
0.0
 10
5.440512015783969
 20
-2.887547691471038
 30
0.0
 10
5.440512015783969
 20
-2.887547691471038
 30
0.0
 10
5.51795130273835
 20
-2.624835475689277
 30
0.0
 10
5.51795130273835
 20
-2.624835475689277
 30
0.0
 10
5.633131610733644
 20
-2.664594030773738
 30
0.0
 10
5.742252857044254
 20
-2.723408270260988
 30
0.0
 10
5.841301505429866
 20
-2.800328639707904
 30
0.0
 10
6.07459691213695
 20
-2.981516977200584
 30
0.0
 10
6.216651118101869
 20
-3.2371452153908
 30
0.0
 10
6.260509336813779
 20
-3.508043839319386
 30
0.0
 10
6.260509336813779
 20
-3.508043839319386
 30
0.0
 10
5.989457836773035
 20
-3.539624598995768
 30
0.0
 10
5.989457836773035
 20
-3.539624598995768
 30
0.0
 10
5.954037948815309
 20
-3.338993003858177
 30
0.0
 10
5.847130176353972
 20
-3.150343881455252
 30
0.0
 10
5.67393661357175
 20
-3.015849506895777
 30
0.0
  0
SPLINE
  5
4D
330
41
100
AcDbEntity
  8
Capa 1
370
     0
100
AcDbSpline
210
0.0
220
0.0
230
1.0
 70
    11
 71
     3
 72
    32
 73
    28
 74
     0
 42
0.0000000001
 43
0.0000000001
 12
1.0
 22
0.0
 32
0.0
 13
1.0
 23
0.0
 33
0.0
 40
0.0
 40
0.0
 40
0.0
 40
0.0
 40
1.0
 40
1.0
 40
1.0
 40
2.0
 40
2.0
 40
2.0
 40
3.0
 40
3.0
 40
3.0
 40
4.0
 40
4.0
 40
4.0
 40
5.0
 40
5.0
 40
5.0
 40
6.0
 40
6.0
 40
6.0
 40
7.0
 40
7.0
 40
7.0
 40
8.0
 40
8.0
 40
8.0
 40
9.0
 40
9.0
 40
9.0
 40
9.0
 10
5.449731952576369
 20
-2.499722526773072
 30
0.0
 10
5.304404905900461
 20
-2.463327246156086
 30
0.0
 10
5.152213506470193
 20
-2.453573319563473
 30
0.0
 10
4.999231888262996
 20
-2.472947675298647
 30
0.0
 10
4.674671595782319
 20
-2.513756984506109
 30
0.0
 10
4.385475208457668
 20
-2.6784971442414
 30
0.0
 10
4.184847919689497
 20
-2.936857773788355
 30
0.0
 10
4.131959244436845
 20
-3.004967311531744
 30
0.0
 10
4.08713209261971
 20
-3.077523175635784
 30
0.0
 10
4.050194209463797
 20
-3.153257140324967
 30
0.0
 10
4.050194209463797
 20
-3.153257140324967
 30
0.0
 10
2.772425519462058
 20
-2.596940968182145
 30
0.0
 10
2.772425519462058
 20
-2.596940968182145
 30
0.0
 10
2.771936746540089
 20
-2.566716714853112
 30
0.0
 10
2.766245879435391
 20
-2.536763762793543
 30
0.0
 10
2.755781401898945
 20
-2.508277129499884
 30
0.0
 10
2.755781401898945
 20
-2.508277129499884
 30
0.0
 10
5.552503457270728
 20
-1.700320417191022
 30
0.0
 10
5.552503457270728
 20
-1.700320417191022
 30
0.0
 10
5.566348434752076
 20
-1.718506214983785
 30
0.0
 10
5.582475787992402
 20
-1.735376416938118
 30
0.0
 10
5.601382902652388
 20
-1.750058983259317
 30
0.0
 10
5.61994550776385
 20
-1.764474554680409
 30
0.0
 10
5.639894763808125
 20
-1.775752936025246
 30
0.0
 10
5.660530885764771
 20
-1.784602525052981
 30
0.0
 10
5.660530885764771
 20
-1.784602525052981
 30
0.0
 10
5.449731952576369
 20
-2.499722526773072
 30
0.0
 10
5.449731952576369
 20
-2.499722526773072
 30
0.0
  0
SPLINE
  5
4E
330
41
100
AcDbEntity
  8
Capa 1
370
     0
100
AcDbSpline
210
0.0
220
0.0
230
1.0
 70
    11
 71
     3
 72
    20
 73
    16
 74
     0
 42
0.0000000001
 43
0.0000000001
 12
1.0
 22
0.0
 32
0.0
 13
1.0
 23
0.0
 33
0.0
 40
0.0
 40
0.0
 40
0.0
 40
0.0
 40
1.0
 40
1.0
 40
1.0
 40
2.0
 40
2.0
 40
2.0
 40
3.0
 40
3.0
 40
3.0
 40
4.0
 40
4.0
 40
4.0
 40
5.0
 40
5.0
 40
5.0
 40
5.0
 10
4.102133330273294
 20
-3.285783504088493
 30
0.0
 10
4.102133330273294
 20
-3.285783504088493
 30
0.0
 10
4.353179591468129
 20
-3.395083464727401
 30
0.0
 10
4.353179591468129
 20
-3.395083464727401
 30
0.0
 10
4.259744295538828
 20
-3.650576052282885
 30
0.0
 10
4.294813214393962
 20
-3.93781088836559
 30
0.0
 10
4.446477083578083
 20
-4.163316072906685
 30
0.0
 10
4.446477083578083
 20
-4.163316072906685
 30
0.0
 10
4.228904231391775
 20
-4.32945149631347
 30
0.0
 10
4.228904231391775
 20
-4.32945149631347
 30
0.0
 10
4.126287755994253
 20
-4.182180123873074
 30
0.0
 10
4.060077327137107
 20
-4.011367983345031
 30
0.0
 10
4.037033944710142
 20
-3.828198715948332
 30
0.0
 10
4.013574997640301
 20
-3.641668327268868
 30
0.0
 10
4.036504261279285
 20
-3.456432002580987
 30
0.0
 10
4.102133330273294
 20
-3.285783504088493
 30
0.0
  0
SPLINE
  5
4F
330
41
100
AcDbEntity
  8
Capa 1
370
     0
100
AcDbSpline
210
0.0
220
0.0
230
1.0
 70
    11
 71
     3
 72
    26
 73
    22
 74
     0
 42
0.0000000001
 43
0.0000000001
 12
1.0
 22
0.0
 32
0.0
 13
1.0
 23
0.0
 33
0.0
 40
0.0
 40
0.0
 40
0.0
 40
0.0
 40
1.0
 40
1.0
 40
1.0
 40
2.0
 40
2.0
 40
2.0
 40
3.0
 40
3.0
 40
3.0
 40
4.0
 40
4.0
 40
4.0
 40
5.0
 40
5.0
 40
5.0
 40
6.0
 40
6.0
 40
6.0
 40
7.0
 40
7.0
 40
7.0
 40
7.0
 10
4.507457426851651
 20
-4.243483444848449
 30
0.0
 10
4.543725669572619
 20
-4.285543754353961
 30
0.0
 10
4.584608187059175
 20
-4.324667119958361
 30
0.0
 10
4.630124357973328
 20
-4.360011646452315
 30
0.0
 10
4.785024463728874
 20
-4.480269163918995
 30
0.0
 10
4.968725567741108
 20
-4.538463286218899
 30
0.0
 10
5.151113229099591
 20
-4.538463286218899
 30
0.0
 10
5.219386408878529
 20
-4.538463286218899
 30
0.0
 10
5.287420585158179
 20
-4.530029261834104
 30
0.0
 10
5.353755898726665
 20
-4.513899755409068
 30
0.0
 10
5.353755898726665
 20
-4.513899755409068
 30
0.0
 10
5.43419672512257
 20
-4.775016461344223
 30
0.0
 10
5.43419672512257
 20
-4.775016461344223
 30
0.0
 10
5.108475866100267
 20
-4.859130620801309
 30
0.0
 10
4.748555974832826
 20
-4.797347139642676
 30
0.0
 10
4.462761619299891
 20
-4.575465764915161
 30
0.0
 10
4.398732366521845
 20
-4.525753037063006
 30
0.0
 10
4.341210037841564
 20
-4.469938183832634
 30
0.0
 10
4.290261381984075
 20
-4.409330341508376
 30
0.0
 10
4.290261381984075
 20
-4.409330341508376
 30
0.0
 10
4.507457426851651
 20
-4.243483444848449
 30
0.0
 10
4.507457426851651
 20
-4.243483444848449
 30
0.0
  0
SPLINE
  5
50
330
41
100
AcDbEntity
  8
Capa 1
370
     0
100
AcDbSpline
210
0.0
220
0.0
230
1.0
 70
    11
 71
     3
 72
    23
 73
    19
 74
     0
 42
0.0000000001
 43
0.0000000001
 12
1.0
 22
0.0
 32
0.0
 13
1.0
 23
0.0
 33
0.0
 40
0.0
 40
0.0
 40
0.0
 40
0.0
 40
1.0
 40
1.0
 40
1.0
 40
2.0
 40
2.0
 40
2.0
 40
3.0
 40
3.0
 40
3.0
 40
4.0
 40
4.0
 40
4.0
 40
5.0
 40
5.0
 40
5.0
 40
6.0
 40
6.0
 40
6.0
 40
6.0
 10
5.420194565159708
 20
-4.38727527084871
 30
0.0
 10
5.420194565159708
 20
-4.38727527084871
 30
0.0
 10
5.346064723055845
 20
-4.146641810758076
 30
0.0
 10
5.346064723055845
 20
-4.146641810758076
 30
0.0
 10
5.422121665446769
 20
-4.114555052682299
 30
0.0
 10
5.491335786930117
 20
-4.063360933771486
 30
0.0
 10
5.545568049421984
 20
-3.993522388731437
 30
0.0
 10
5.617811701747673
 20
-3.900487585152265
 30
0.0
 10
5.6516253139354
 20
-3.789930164661241
 30
0.0
 10
5.649963055363767
 20
-3.680656042238473
 30
0.0
 10
5.649963055363767
 20
-3.680656042238473
 30
0.0
 10
5.900369820709152
 20
-3.651480389847763
 30
0.0
 10
5.900369820709152
 20
-3.651480389847763
 30
0.0
 10
5.908907197958537
 20
-3.824350974928243
 30
0.0
 10
5.858705697184412
 20
-4.000916424916654
 30
0.0
 10
5.744466330893527
 20
-4.148034921244892
 30
0.0
 10
5.657324793778811
 20
-4.260211536613983
 30
0.0
 10
5.544136181610927
 20
-4.340019326714474
 30
0.0
 10
5.420194565159708
 20
-4.38727527084871
 30
0.0
  0
SPLINE
  5
51
330
41
100
AcDbEntity
  8
Capa 1
370
     0
100
AcDbSpline
210
0.0
220
0.0
230
1.0
 70
    11
 71
     3
 72
    23
 73
    19
 74
     0
 42
0.0000000001
 43
0.0000000001
 12
1.0
 22
0.0
 32
0.0
 13
1.0
 23
0.0
 33
0.0
 40
0.0
 40
0.0
 40
0.0
 40
0.0
 40
1.0
 40
1.0
 40
1.0
 40
2.0
 40
2.0
 40
2.0
 40
3.0
 40
3.0
 40
3.0
 40
4.0
 40
4.0
 40
4.0
 40
5.0
 40
5.0
 40
5.0
 40
6.0
 40
6.0
 40
6.0
 40
6.0
 10
5.824112632143147
 20
-4.209835627880918
 30
0.0
 10
5.955144685739946
 20
-4.041032408657743
 30
0.0
 10
6.012296666655563
 20
-3.838017238081294
 30
0.0
 10
6.000930004738916
 20
-3.639764912013268
 30
0.0
 10
6.000930004738916
 20
-3.639764912013268
 30
0.0
 10
6.272285103819298
 20
-3.608149701382033
 30
0.0
 10
6.272285103819298
 20
-3.608149701382033
 30
0.0
 10
6.291429068793896
 20
-3.875099384610684
 30
0.0
 10
6.216246319382353
 20
-4.149710098924595
 30
0.0
 10
6.039566750605993
 20
-4.377200519739032
 30
0.0
 10
5.903573759510434
 20
-4.552448220704368
 30
0.0
 10
5.725488161139157
 20
-4.676041021237705
 30
0.0
 10
5.530534513998226
 20
-4.745451082526777
 30
0.0
 10
5.530534513998226
 20
-4.745451082526777
 30
0.0
 10
5.450089381232964
 20
-4.484321457483552
 30
0.0
 10
5.450089381232964
 20
-4.484321457483552
 30
0.0
 10
5.593190034951529
 20
-4.431040902619453
 30
0.0
 10
5.72378068568928
 20
-4.339013789469717
 30
0.0
 10
5.824112632143147
 20
-4.209835627880918
 30
0.0
  0
SPLINE
  5
52
330
41
100
AcDbEntity
  8
Capa 1
370
     0
100
AcDbSpline
210
0.0
220
0.0
230
1.0
 70
    11
 71
     3
 72
    26
 73
    22
 74
     0
 42
0.0000000001
 43
0.0000000001
 12
1.0
 22
0.0
 32
0.0
 13
1.0
 23
0.0
 33
0.0
 40
0.0
 40
0.0
 40
0.0
 40
0.0
 40
1.0
 40
1.0
 40
1.0
 40
2.0
 40
2.0
 40
2.0
 40
3.0
 40
3.0
 40
3.0
 40
4.0
 40
4.0
 40
4.0
 40
5.0
 40
5.0
 40
5.0
 40
6.0
 40
6.0
 40
6.0
 40
7.0
 40
7.0
 40
7.0
 40
7.0
 10
5.903104365250569
 20
-2.720682338458284
 30
0.0
 10
5.793940055246393
 20
-2.635960980921956
 30
0.0
 10
5.673503823451416
 20
-2.571537695347784
 30
0.0
 10
5.546444395586045
 20
-2.528181168665915
 30
0.0
 10
5.546444395586045
 20
-2.528181168665915
 30
0.0
 10
5.759273781926066
 20
-1.806164516421289
 30
0.0
 10
5.759273781926066
 20
-1.806164516421289
 30
0.0
 10
5.796851160931429
 20
-1.807103304941019
 30
0.0
 10
5.834338106180304
 20
-1.800288475434259
 30
0.0
 10
5.869234770261206
 20
-1.78583199350428
 30
0.0
 10
5.869234770261206
 20
-1.78583199350428
 30
0.0
 10
7.049098152941501
 20
-3.254486964789677
 30
0.0
 10
7.049098152941501
 20
-3.254486964789677
 30
0.0
 10
7.010282692746126
 20
-3.304529129897609
 30
0.0
 10
6.99207751629126
 20
-3.363952720648812
 30
0.0
 10
6.992889266914972
 20
-3.422715283703783
 30
0.0
 10
6.992889266914972
 20
-3.422715283703783
 30
0.0
 10
6.360623811615139
 20
-3.496380037917137
 30
0.0
 10
6.360623811615139
 20
-3.496380037917137
 30
0.0
 10
6.31367146652054
 20
-3.199537691799942
 30
0.0
 10
6.158635710130262
 20
-2.919158595732884
 30
0.0
 10
5.903104365250569
 20
-2.720682338458284
 30
0.0
  0
SPLINE
  5
53
330
41
100
AcDbEntity
  8
Capa 1
370
     0
100
AcDbSpline
210
0.0
220
0.0
230
1.0
 70
    11
 71
     3
 72
    20
 73
    16
 74
     0
 42
0.0000000001
 43
0.0000000001
 12
1.0
 22
0.0
 32
0.0
 13
1.0
 23
0.0
 33
0.0
 40
0.0
 40
0.0
 40
0.0
 40
0.0
 40
1.0
 40
1.0
 40
1.0
 40
2.0
 40
2.0
 40
2.0
 40
3.0
 40
3.0
 40
3.0
 40
4.0
 40
4.0
 40
4.0
 40
5.0
 40
5.0
 40
5.0
 40
5.0
 10
7.523550243616073
 20
-1.596681179071316
 30
0.0
 10
7.523550243616073
 20
-1.596681179071316
 30
0.0
 10
6.034579974891094
 20
-1.543376939175788
 30
0.0
 10
6.034579974891094
 20
-1.543376939175788
 30
0.0
 10
6.036212088877232
 20
-1.461403045288946
 30
0.0
 10
6.000757749964654
 20
-1.379715524964316
 30
0.0
 10
5.931022557789162
 20
-1.325562930305545
 30
0.0
 10
5.818387314083597
 20
-1.238098415489086
 30
0.0
 10
5.658310952361464
 20
-1.254544440061798
 30
0.0
 10
5.565187868210482
 20
-1.359940676878982
 30
0.0
 10
5.565187868210482
 20
-1.359940676878982
 30
0.0
 10
4.874019892851591
 20
-0.8232163321238399
 30
0.0
 10
4.874019892851591
 20
-0.8232163321238399
 30
0.0
 10
4.874019892851591
 20
-0.8232163321238399
 30
0.0
 10
7.523550243616073
 20
-1.596681179071316
 30
0.0
 10
7.523550243616073
 20
-1.596681179071316
 30
0.0
  0
SPLINE
  5
54
330
41
100
AcDbEntity
  8
Capa 1
370
     0
100
AcDbSpline
210
0.0
220
0.0
230
1.0
 70
    11
 71
     3
 72
    20
 73
    16
 74
     0
 42
0.0000000001
 43
0.0000000001
 12
1.0
 22
0.0
 32
0.0
 13
1.0
 23
0.0
 33
0.0
 40
0.0
 40
0.0
 40
0.0
 40
0.0
 40
1.0
 40
1.0
 40
1.0
 40
2.0
 40
2.0
 40
2.0
 40
3.0
 40
3.0
 40
3.0
 40
4.0
 40
4.0
 40
4.0
 40
5.0
 40
5.0
 40
5.0
 40
5.0
 10
4.534264576096251
 20
-0.8524285886540803
 30
0.0
 10
4.599320897965838
 20
-0.888238203038574
 30
0.0
 10
4.677614999237497
 20
-0.8846897546887668
 30
0.0
 10
4.738763290916003
 20
-0.845824771245792
 30
0.0
 10
4.738763290916003
 20
-0.845824771245792
 30
0.0
 10
5.513283198355837
 20
-1.447276000614743
 30
0.0
 10
5.513283198355837
 20
-1.447276000614743
 30
0.0
 10
5.494535419362043
 20
-1.49963068606715
 30
0.0
 10
5.492948522254149
 20
-1.555953690881628
 30
0.0
 10
5.507239208963902
 20
-1.608487090662331
 30
0.0
 10
5.507239208963902
 20
-1.608487090662331
 30
0.0
 10
2.704621733942985
 20
-2.418146972051713
 30
0.0
 10
2.704621733942985
 20
-2.418146972051713
 30
0.0
 10
2.704621733942985
 20
-2.418146972051713
 30
0.0
 10
4.534264576096251
 20
-0.8524285886540803
 30
0.0
 10
4.534264576096251
 20
-0.8524285886540803
 30
0.0
  0
SPLINE
  5
55
330
41
100
AcDbEntity
  8
Capa 1
370
     0
100
AcDbSpline
210
0.0
220
0.0
230
1.0
 70
    11
 71
     3
 72
    32
 73
    28
 74
     0
 42
0.0000000001
 43
0.0000000001
 12
1.0
 22
0.0
 32
0.0
 13
1.0
 23
0.0
 33
0.0
 40
0.0
 40
0.0
 40
0.0
 40
0.0
 40
1.0
 40
1.0
 40
1.0
 40
2.0
 40
2.0
 40
2.0
 40
3.0
 40
3.0
 40
3.0
 40
4.0
 40
4.0
 40
4.0
 40
5.0
 40
5.0
 40
5.0
 40
6.0
 40
6.0
 40
6.0
 40
7.0
 40
7.0
 40
7.0
 40
8.0
 40
8.0
 40
8.0
 40
9.0
 40
9.0
 40
9.0
 40
9.0
 10
2.716119740125006
 20
-2.765933667657041
 30
0.0
 10
2.732378437630707
 20
-2.744993946660756
 30
0.0
 10
2.744901359719591
 20
-2.7223661288767
 30
0.0
 10
2.754088998741816
 20
-2.698872730851974
 30
0.0
 10
2.754088998741816
 20
-2.698872730851974
 30
0.0
 10
4.009694958850006
 20
-3.245536176082062
 30
0.0
 10
4.009694958850006
 20
-3.245536176082062
 30
0.0
 10
3.936947461309632
 20
-3.43265223099405
 30
0.0
 10
3.911300878606593
 20
-3.635979613348817
 30
0.0
 10
3.937048660989479
 20
-3.840730250775928
 30
0.0
 10
3.962342121405248
 20
-4.041895835713701
 30
0.0
 10
4.035341541553013
 20
-4.229416689345206
 30
0.0
 10
4.148637812954811
 20
-4.390741898180743
 30
0.0
 10
4.148637812954811
 20
-4.390741898180743
 30
0.0
 10
3.604655082649183
 20
-4.806119214022027
 30
0.0
 10
3.604655082649183
 20
-4.806119214022027
 30
0.0
 10
3.600019276036844
 20
-4.801978639885659
 30
0.0
 10
3.595456677703566
 20
-4.797782082947721
 30
0.0
 10
3.590474208358056
 20
-4.793912810080818
 30
0.0
 10
3.528372055867039
 20
-4.745687932841355
 30
0.0
 10
3.451839259662214
 20
-4.729276359223529
 30
0.0
 10
3.380013325164111
 20
-4.7416485583849
 30
0.0
 10
3.380013325164111
 20
-4.7416485583849
 30
0.0
 10
2.657994519734807
 20
-2.821304964843719
 30
0.0
 10
2.657994519734807
 20
-2.821304964843719
 30
0.0
 10
2.679504834670835
 20
-2.806239131649785
 30
0.0
 10
2.699167717152899
 20
-2.787762653925455
 30
0.0
 10
2.716119740125006
 20
-2.765933667657041
 30
0.0
  0
SPLINE
  5
56
330
41
100
AcDbEntity
  8
Capa 1
370
     0
100
AcDbSpline
210
0.0
220
0.0
230
1.0
 70
    11
 71
     3
 72
    29
 73
    25
 74
     0
 42
0.0000000001
 43
0.0000000001
 12
1.0
 22
0.0
 32
0.0
 13
1.0
 23
0.0
 33
0.0
 40
0.0
 40
0.0
 40
0.0
 40
0.0
 40
1.0
 40
1.0
 40
1.0
 40
2.0
 40
2.0
 40
2.0
 40
3.0
 40
3.0
 40
3.0
 40
4.0
 40
4.0
 40
4.0
 40
5.0
 40
5.0
 40
5.0
 40
6.0
 40
6.0
 40
6.0
 40
7.0
 40
7.0
 40
7.0
 40
8.0
 40
8.0
 40
8.0
 40
8.0
 10
2.201133947881791
 20
-4.337246024848848
 30
0.0
 10
2.192458766812996
 20
-4.330508709990506
 30
0.0
 10
2.183161315372178
 20
-4.325242020267431
 30
0.0
 10
2.173825106607151
 20
-4.320132513025869
 30
0.0
 10
2.173825106607151
 20
-4.320132513025869
 30
0.0
 10
2.476332481612904
 20
-2.868169029366508
 30
0.0
 10
2.476332481612904
 20
-2.868169029366508
 30
0.0
 10
2.506334956920074
 20
-2.871233011163702
 30
0.0
 10
2.536574282541855
 20
-2.869389885079093
 30
0.0
 10
2.565810224103556
 20
-2.862480315446489
 30
0.0
 10
2.565810224103556
 20
-2.862480315446489
 30
0.0
 10
3.285660772561831
 20
-4.777053374049877
 30
0.0
 10
3.285660772561831
 20
-4.777053374049877
 30
0.0
 10
3.258644764403437
 20
-4.793551075054867
 30
0.0
 10
3.233971421175014
 20
-4.814856837446459
 30
0.0
 10
3.213406354312751
 20
-4.841341008989317
 30
0.0
 10
3.206421423216407
 20
-4.850334861390498
 30
0.0
 10
3.200327910576871
 20
-4.859716287033801
 30
0.0
 10
3.194658575318956
 20
-4.869259201527942
 30
0.0
 10
3.194658575318956
 20
-4.869259201527942
 30
0.0
 10
2.274178584907801
 20
-4.537020652484451
 30
0.0
 10
2.274178584907801
 20
-4.537020652484451
 30
0.0
 10
2.289125992944428
 20
-4.464189180741592
 30
0.0
 10
2.263828226159303
 20
-4.385927377240106
 30
0.0
 10
2.201133947881791
 20
-4.337246024848848
 30
0.0
  0
SPLINE
  5
57
330
41
100
AcDbEntity
  8
Capa 1
370
     0
100
AcDbSpline
210
0.0
220
0.0
230
1.0
 70
    11
 71
     3
 72
    20
 73
    16
 74
     0
 42
0.0000000001
 43
0.0000000001
 12
1.0
 22
0.0
 32
0.0
 13
1.0
 23
0.0
 33
0.0
 40
0.0
 40
0.0
 40
0.0
 40
0.0
 40
1.0
 40
1.0
 40
1.0
 40
2.0
 40
2.0
 40
2.0
 40
3.0
 40
3.0
 40
3.0
 40
4.0
 40
4.0
 40
4.0
 40
5.0
 40
5.0
 40
5.0
 40
5.0
 10
2.253886972499679
 20
-4.636794924106643
 30
0.0
 10
2.253886972499679
 20
-4.636794924106643
 30
0.0
 10
3.160285135114876
 20
-4.963949804124681
 30
0.0
 10
3.160285135114876
 20
-4.963949804124681
 30
0.0
 10
3.145481990451693
 20
-5.057565967566989
 30
0.0
 10
3.180684406756912
 20
-5.156168906724195
 30
0.0
 10
3.260834553221249
 20
-5.21840886303459
 30
0.0
 10
3.323927170664243
 20
-5.2674024272042
 30
0.0
 10
3.401917672896265
 20
-5.28358576324616
 30
0.0
 10
3.47472976597702
 20
-5.270074529389946
 30
0.0
 10
3.47472976597702
 20
-5.270074529389946
 30
0.0
 10
3.964773066907027
 20
-6.523378735077054
 30
0.0
 10
3.964773066907027
 20
-6.523378735077054
 30
0.0
 10
3.964773066907027
 20
-6.523378735077054
 30
0.0
 10
2.253886972499679
 20
-4.636794924106643
 30
0.0
 10
2.253886972499679
 20
-4.636794924106643
 30
0.0
  0
SPLINE
  5
58
330
41
100
AcDbEntity
  8
Capa 1
370
     0
100
AcDbSpline
210
0.0
220
0.0
230
1.0
 70
    11
 71
     3
 72
    29
 73
    25
 74
     0
 42
0.0000000001
 43
0.0000000001
 12
1.0
 22
0.0
 32
0.0
 13
1.0
 23
0.0
 33
0.0
 40
0.0
 40
0.0
 40
0.0
 40
0.0
 40
1.0
 40
1.0
 40
1.0
 40
2.0
 40
2.0
 40
2.0
 40
3.0
 40
3.0
 40
3.0
 40
4.0
 40
4.0
 40
4.0
 40
5.0
 40
5.0
 40
5.0
 40
6.0
 40
6.0
 40
6.0
 40
7.0
 40
7.0
 40
7.0
 40
8.0
 40
8.0
 40
8.0
 40
8.0
 10
5.668641932447857
 20
-6.242872601113977
 30
0.0
 10
5.668641932447857
 20
-6.242872601113977
 30
0.0
 10
4.357563475473109
 20
-6.720879599692393
 30
0.0
 10
4.357563475473109
 20
-6.720879599692393
 30
0.0
 10
4.344573312309039
 20
-6.695995244365498
 30
0.0
 10
4.326598526614748
 20
-6.673264073716883
 30
0.0
 10
4.302978090694004
 20
-6.654921093442606
 30
0.0
 10
4.2467864301449
 20
-6.611286805937238
 30
0.0
 10
4.174913125583876
 20
-6.60240276595465
 30
0.0
 10
4.112442778512905
 20
-6.624369556042475
 30
0.0
 10
4.112442778512905
 20
-6.624369556042475
 30
0.0
 10
3.568584932918617
 20
-5.233427326165601
 30
0.0
 10
3.568584932918617
 20
-5.233427326165601
 30
0.0
 10
3.594438221350739
 20
-5.217175088213935
 30
0.0
 10
3.618086648672333
 20
-5.196498055748402
 30
0.0
 10
3.637902407266522
 20
-5.170980664126091
 30
0.0
 10
3.639306283676762
 20
-5.169174142181014
 30
0.0
 10
3.640438858817538
 20
-5.16724919507863
 30
0.0
 10
3.641788905610852
 20
-5.165418988102091
 30
0.0
 10
3.641788905610852
 20
-5.165418988102091
 30
0.0
 10
5.697199620835899
 20
-6.148560959020585
 30
0.0
 10
5.697199620835899
 20
-6.148560959020585
 30
0.0
 10
5.681589031918361
 20
-6.178516064264833
 30
0.0
 10
5.672196840351699
 20
-6.210480090813916
 30
0.0
 10
5.668641932447857
 20
-6.242872601113977
 30
0.0
  0
SPLINE
  5
59
330
41
100
AcDbEntity
  8
Capa 1
370
     0
100
AcDbSpline
210
0.0
220
0.0
230
1.0
 70
    11
 71
     3
 72
    29
 73
    25
 74
     0
 42
0.0000000001
 43
0.0000000001
 12
1.0
 22
0.0
 32
0.0
 13
1.0
 23
0.0
 33
0.0
 40
0.0
 40
0.0
 40
0.0
 40
0.0
 40
1.0
 40
1.0
 40
1.0
 40
2.0
 40
2.0
 40
2.0
 40
3.0
 40
3.0
 40
3.0
 40
4.0
 40
4.0
 40
4.0
 40
5.0
 40
5.0
 40
5.0
 40
6.0
 40
6.0
 40
6.0
 40
7.0
 40
7.0
 40
7.0
 40
8.0
 40
8.0
 40
8.0
 40
8.0
 10
5.761491562144696
 20
-6.067607674671248
 30
0.0
 10
5.761491562144696
 20
-6.067607674671248
 30
0.0
 10
3.685543771458171
 20
-5.074642875250436
 30
0.0
 10
3.685543771458171
 20
-5.074642875250436
 30
0.0
 10
3.702144825327719
 20
-5.011515806852621
 30
0.0
 10
3.694843376083699
 20
-4.944360129921678
 30
0.0
 10
3.665811987066403
 20
-4.886150935329026
 30
0.0
 10
3.665811987066403
 20
-4.886150935329026
 30
0.0
 10
4.210089703672955
 20
-4.470549688281266
 30
0.0
 10
4.210089703672955
 20
-4.470549688281266
 30
0.0
 10
4.266317968361588
 20
-4.537955134634825
 30
0.0
 10
4.329961801082223
 20
-4.599981925662102
 30
0.0
 10
4.400958759479219
 20
-4.655114219349459
 30
0.0
 10
4.623893041514382
 20
-4.828185050605051
 30
0.0
 10
4.888157703449184
 20
-4.911965466436939
 30
0.0
 10
5.150719196303466
 20
-4.911965466436939
 30
0.0
 10
5.256356589804617
 20
-4.911965466436939
 30
0.0
 10
5.361597797324965
 20
-4.897950387366007
 30
0.0
 10
5.463809474002971
 20
-4.871145391306117
 30
0.0
 10
5.463809474002971
 20
-4.871145391306117
 30
0.0
 10
5.820701987612749
 20
-6.029664254270578
 30
0.0
 10
5.820701987612749
 20
-6.029664254270578
 30
0.0
 10
5.799676139229334
 20
-6.039581822898741
 30
0.0
 10
5.77968812586085
 20
-6.052119817280373
 30
0.0
 10
5.761491562144696
 20
-6.067607674671248
 30
0.0
  0
SPLINE
  5
5A
330
41
100
AcDbEntity
  8
Capa 1
370
     0
100
AcDbSpline
210
0.0
220
0.0
230
1.0
 70
    11
 71
     3
 72
    29
 73
    25
 74
     0
 42
0.0000000001
 43
0.0000000001
 12
1.0
 22
0.0
 32
0.0
 13
1.0
 23
0.0
 33
0.0
 40
0.0
 40
0.0
 40
0.0
 40
0.0
 40
1.0
 40
1.0
 40
1.0
 40
2.0
 40
2.0
 40
2.0
 40
3.0
 40
3.0
 40
3.0
 40
4.0
 40
4.0
 40
4.0
 40
5.0
 40
5.0
 40
5.0
 40
6.0
 40
6.0
 40
6.0
 40
7.0
 40
7.0
 40
7.0
 40
8.0
 40
8.0
 40
8.0
 40
8.0
 10
5.918402742389756
 20
-6.004525823151646
 30
0.0
 10
5.918402742389756
 20
-6.004525823151646
 30
0.0
 10
5.560239849819792
 20
-4.841883611528244
 30
0.0
 10
5.560239849819792
 20
-4.841883611528244
 30
0.0
 10
5.774328849196609
 20
-4.766537220081152
 30
0.0
 10
5.969973668619268
 20
-4.631181571650364
 30
0.0
 10
6.119215205040291
 20
-4.439003379559737
 30
0.0
 10
6.312721912077418
 20
-4.189823929480973
 30
0.0
 10
6.394588146730346
 20
-3.888774260502415
 30
0.0
 10
6.372543841994103
 20
-3.59646867450239
 30
0.0
 10
6.372543841994103
 20
-3.59646867450239
 30
0.0
 10
7.013264853525546
 20
-3.521817761706351
 30
0.0
 10
7.013264853525546
 20
-3.521817761706351
 30
0.0
 10
7.030505403244543
 20
-3.563621842235179
 30
0.0
 10
7.058339621580684
 20
-3.60170521963997
 30
0.0
 10
7.096612479237131
 20
-3.631425627754253
 30
0.0
 10
7.101418387439055
 20
-3.635157096801746
 30
0.0
 10
7.106435307739449
 20
-3.63840625248124
 30
0.0
 10
7.111404857976923
 20
-3.641760914210002
 30
0.0
 10
7.111404857976923
 20
-3.641760914210002
 30
0.0
 10
5.966001042887839
 20
-6.005718687463414
 30
0.0
 10
5.966001042887839
 20
-6.005718687463414
 30
0.0
 10
5.950147144101655
 20
-6.003920778257049
 30
0.0
 10
5.934243722067871
 20
-6.003509519983497
 30
0.0
 10
5.918402742389756
 20
-6.004525823151646
 30
0.0
  0
SPLINE
  5
5B
330
41
100
AcDbEntity
  8
Capa 1
370
     0
100
AcDbSpline
210
0.0
220
0.0
230
1.0
 70
    11
 71
     3
 72
    26
 73
    22
 74
     0
 42
0.0000000001
 43
0.0000000001
 12
1.0
 22
0.0
 32
0.0
 13
1.0
 23
0.0
 33
0.0
 40
0.0
 40
0.0
 40
0.0
 40
0.0
 40
1.0
 40
1.0
 40
1.0
 40
2.0
 40
2.0
 40
2.0
 40
3.0
 40
3.0
 40
3.0
 40
4.0
 40
4.0
 40
4.0
 40
5.0
 40
5.0
 40
5.0
 40
6.0
 40
6.0
 40
6.0
 40
7.0
 40
7.0
 40
7.0
 40
7.0
 10
7.47695532717807
 20
-4.887789508869198
 30
0.0
 10
7.432610488728869
 20
-4.944896272906603
 30
0.0
 10
7.424353025487661
 20
-5.018132543368948
 30
0.0
 10
7.447710772877655
 20
-5.081300522275681
 30
0.0
 10
7.447710772877655
 20
-5.081300522275681
 30
0.0
 10
6.070858983535453
 20
-6.040591666512855
 30
0.0
 10
6.070858983535453
 20
-6.040591666512855
 30
0.0
 10
6.068309612876368
 20
-6.039099509530806
 30
0.0
 10
6.065732250816466
 20
-6.037695633120567
 30
0.0
 10
6.063152735571885
 20
-6.036296063079684
 30
0.0
 10
6.063152735571885
 20
-6.036296063079684
 30
0.0
 10
7.204136062516457
 20
-3.681467792862217
 30
0.0
 10
7.204136062516457
 20
-3.681467792862217
 30
0.0
 10
7.226132997189777
 20
-3.686254322402004
 30
0.0
 10
7.248487360519692
 20
-3.688467796251277
 30
0.0
 10
7.270744830539084
 20
-3.687684037028383
 30
0.0
 10
7.270744830539084
 20
-3.687684037028383
 30
0.0
 10
7.542209742038058
 20
-4.833514182683765
 30
0.0
 10
7.542209742038058
 20
-4.833514182683765
 30
0.0
 10
7.517596687980626
 20
-4.846484967185731
 30
0.0
 10
7.495130359047441
 20
-4.864384391416314
 30
0.0
 10
7.47695532717807
 20
-4.887789508869198
 30
0.0
  0
SPLINE
  5
5C
330
41
100
AcDbEntity
  8
Capa 1
370
     0
100
AcDbSpline
210
0.0
220
0.0
230
1.0
 70
    11
 71
     3
 72
    23
 73
    19
 74
     0
 42
0.0000000001
 43
0.0000000001
 12
1.0
 22
0.0
 32
0.0
 13
1.0
 23
0.0
 33
0.0
 40
0.0
 40
0.0
 40
0.0
 40
0.0
 40
1.0
 40
1.0
 40
1.0
 40
2.0
 40
2.0
 40
2.0
 40
3.0
 40
3.0
 40
3.0
 40
4.0
 40
4.0
 40
4.0
 40
5.0
 40
5.0
 40
5.0
 40
6.0
 40
6.0
 40
6.0
 40
6.0
 10
7.612890182287315
 20
-4.694900765834738
 30
0.0
 10
7.612890182287315
 20
-4.694900765834738
 30
0.0
 10
7.369001106963088
 20
-3.665467477517878
 30
0.0
 10
7.369001106963088
 20
-3.665467477517878
 30
0.0
 10
7.408886699943568
 20
-3.64808912397947
 30
0.0
 10
7.445116185340327
 20
-3.620780282704831
 30
0.0
 10
7.473680333282404
 20
-3.583997428845786
 30
0.0
 10
7.564708368741418
 20
-3.466778054960128
 30
0.0
 10
7.543473661444209
 20
-3.297957610259495
 30
0.0
 10
7.426252134373905
 20
-3.206931727985159
 30
0.0
 10
7.420382552940911
 20
-3.202373436021238
 30
0.0
 10
7.414293346670732
 20
-3.198303916979287
 30
0.0
 10
7.408180455369092
 20
-3.194305453031719
 30
0.0
 10
7.408180455369092
 20
-3.194305453031719
 30
0.0
 10
7.846187742179078
 20
-1.993127695221119
 30
0.0
 10
7.846187742179078
 20
-1.993127695221119
 30
0.0
 10
7.846187742179078
 20
-1.993127695221119
 30
0.0
 10
7.612890182287315
 20
-4.694900765834738
 30
0.0
 10
7.612890182287315
 20
-4.694900765834738
 30
0.0
  0
HATCH
  5
5D
330
41
100
AcDbEntity
  8
Capa 1
 62
   178
420
   262150
100
AcDbHatch
 10
0.0
 20
0.0
 30
0.0
210
0.0
220
0.0
230
1.0
  2
SOLID
 70
     1
 71
     0
 91
       24
 92
        1
 93
        1
 72
     4
 94
        3
 73
     0
 74
     1
 95
       95
 96
       91
 40
0.0
 40
0.0
 40
0.0
 40
0.0
 40
1.0
 40
1.0
 40
1.0
 40
2.0
 40
2.0
 40
2.0
 40
3.0
 40
3.0
 40
3.0
 40
4.0
 40
4.0
 40
4.0
 40
5.0
 40
5.0
 40
5.0
 40
6.0
 40
6.0
 40
6.0
 40
7.0
 40
7.0
 40
7.0
 40
8.0
 40
8.0
 40
8.0
 40
9.0
 40
9.0
 40
9.0
 40
10.0
 40
10.0
 40
10.0
 40
11.0
 40
11.0
 40
11.0
 40
12.0
 40
12.0
 40
12.0
 40
13.0
 40
13.0
 40
13.0
 40
14.0
 40
14.0
 40
14.0
 40
15.0
 40
15.0
 40
15.0
 40
16.0
 40
16.0
 40
16.0
 40
17.0
 40
17.0
 40
17.0
 40
18.0
 40
18.0
 40
18.0
 40
19.0
 40
19.0
 40
19.0
 40
20.0
 40
20.0
 40
20.0
 40
21.0
 40
21.0
 40
21.0
 40
22.0
 40
22.0
 40
22.0
 40
23.0
 40
23.0
 40
23.0
 40
24.0
 40
24.0
 40
24.0
 40
25.0
 40
25.0
 40
25.0
 40
26.0
 40
26.0
 40
26.0
 40
27.0
 40
27.0
 40
27.0
 40
28.0
 40
28.0
 40
28.0
 40
29.0
 40
29.0
 40
29.0
 40
30.0
 40
30.0
 40
30.0
 40
30.0
 10
8.045934378413863
 20
-1.478075154252877
 10
7.958017694814965
 20
-1.409804127658617
 10
7.831403976177999
 20
-1.425729081539184
 10
7.763132949583738
 20
-1.513645765138081
 10
7.75312279401441
 20
-1.526534728622272
 10
7.745474682037155
 20
-1.540401237950403
 10
7.739047425772486
 20
-1.554648860966589
 10
7.739047425772486
 20
-1.554648860966589
 10
4.82957385472251
 20
-0.7053036327718077
 10
4.82957385472251
 20
-0.7053036327718077
 10
4.839599082584588
 20
-0.6358914182980584
 10
4.813961112620294
 20
-0.5632989500544877
 10
4.754608576963474
 20
-0.5172078788312015
 10
4.666691893364577
 20
-0.4489368522369411
 10
4.54007817472761
 20
-0.4648639593021868
 10
4.471807148133382
 20
-0.5527784897164061
 10
4.418543818746709
 20
-0.6213703408277302
 10
4.417170086921966
 20
-0.7131821355096385
 10
4.460608434621609
 20
-0.7827989025278245
 10
4.460608434621609
 20
-0.7827989025278245
 10
2.619263033741885
 20
-2.358529594679465
 10
2.619263033741885
 20
-2.358529594679465
 10
2.507749599253705
 20
-2.305365311788025
 10
2.370503454675386
 20
-2.334717525322354
 10
2.291623687171235
 20
-2.436294012520267
 10
2.200595651712221
 20
-2.55351553959057
 10
2.221830359009429
 20
-2.722333831106526
 10
2.339051886079734
 20
-2.813359713380861
 10
2.351919317717142
 20
-2.823352643472764
 10
2.365490840744348
 20
-2.831752216902739
 10
2.37943055835154
 20
-2.839060125700825
 10
2.37943055835154
 20
-2.839060125700825
 10
2.075937024763133
 20
-4.295762768837116
 10
2.075937024763133
 20
-4.295762768837116
 10
2.016423000255443
 20
-4.296279533159903
 10
1.957673356308542
 20
-4.322158659808132
 10
1.918334672236345
 20
-4.372816635734052
 10
1.850063645642085
 20
-4.460731166148304
 10
1.865988599522652
 20
-4.587347037969948
 10
1.95390528312155
 20
-4.655615911379498
 10
2.014099713987577
 20
-4.702359397560304
 10
2.092105288512347
 20
-4.708747896500764
 10
2.157432911651397
 20
-4.680470122120898
 10
2.157432911651397
 20
-4.680470122120898
 10
4.003864134741221
 20
-6.716521553903552
 10
4.003864134741221
 20
-6.716521553903552
 10
3.95626368105846
 20
-6.801987913338565
 10
3.976100971499496
 20
-6.911442903274309
 10
4.055747272749084
 20
-6.973290979973257
 10
4.143663956347981
 20
-7.041562006567517
 10
4.27027767498498
 20
-7.02563705268695
 10
4.338548701579208
 20
-6.937720369088052
 10
4.365844623745811
 20
-6.902567476030434
 10
4.379091015886596
 20
-6.861247862054219
 10
4.3802472760588
 20
-6.819926094893325
 10
4.3802472760588
 20
-6.819926094893325
 10
5.67755611701594
 20
-6.346942476169341
 10
5.67755611701594
 20
-6.346942476169341
 10
5.692755447659927
 20
-6.399723492188046
 10
5.723940021355473
 20
-6.448409150948661
 10
5.770644750212069
 20
-6.484677393669629
 10
5.887866277282373
 20
-6.575705429128643
 10
6.056684568798328
 20
-6.554470721831434
 10
6.147712604257342
 20
-6.437251347945808
 10
6.224247553646846
 20
-6.338691472482167
 10
6.221134048602051
 20
-6.203820290603993
 10
6.148616941822221
 20
-6.109215815394354
 10
6.148616941822221
 20
-6.109215815394354
 10
7.505459185949156
 20
-5.163862235579693
 10
7.505459185949156
 20
-5.163862235579693
 10
7.507956880175962
 20
-5.166004654334584
 10
7.50990120594045
 20
-5.16855187180899
 10
7.512528091247953
 20
-5.170590937699322
 10
7.600442621662172
 20
-5.238859811108904
 10
7.727056340299138
 20
-5.222934857228337
 10
7.795327366893399
 20
-5.135020326814118
 10
7.863598393487659
 20
-5.047103643215221
 10
7.847673439607092
 20
-4.920489924578254
 10
7.759756756008194
 20
-4.852218897983994
 10
7.742206147695525
 20
-4.838589238970506
 10
7.722885621577308
 20
-4.829240111097377
 10
7.703022492920164
 20
-4.82222503541557
 10
7.703022492920164
 20
-4.82222503541557
 10
7.961038612918594
 20
-1.834188215009118
 10
7.961038612918594
 20
-1.834188215009118
 10
8.007123224587845
 20
-1.825146992545015
 10
8.050438840760828
 20
-1.800880601220787
 10
8.081504989299068
 20
-1.760874429898323
 10
8.149776015893329
 20
-1.672959899484104
 10
8.133848908828082
 20
-1.546344027662459
 10
8.045934378413863
 20
-1.478075154252877
 97
        0
 97
        0
 92
        1
 93
        1
 72
     4
 94
        3
 73
     0
 74
     1
 95
       29
 96
       25
 40
0.0
 40
0.0
 40
0.0
 40
0.0
 40
1.0
 40
1.0
 40
1.0
 40
2.0
 40
2.0
 40
2.0
 40
3.0
 40
3.0
 40
3.0
 40
4.0
 40
4.0
 40
4.0
 40
5.0
 40
5.0
 40
5.0
 40
6.0
 40
6.0
 40
6.0
 40
7.0
 40
7.0
 40
7.0
 40
8.0
 40
8.0
 40
8.0
 40
8.0
 10
7.798703560468943
 20
-1.796445040783528
 10
7.80177615500485
 20
-1.798830769407063
 10
7.805214790936065
 20
-1.80032507957379
 10
7.80837781922846
 20
-1.802506255652889
 10
7.80837781922846
 20
-1.802506255652889
 10
7.314811908164786
 20
-3.156049820852697
 10
7.314811908164786
 20
-3.156049820852697
 10
7.250041959857411
 20
-3.142967070747461
 10
7.182199417014129
 20
-3.154105495088209
 10
7.124905325909745
 20
-3.187899728613832
 10
7.124905325909745
 20
-3.187899728613832
 10
5.95366114149661
 20
-1.729971923395632
 10
5.95366114149661
 20
-1.729971923395632
 10
5.962366467150901
 20
-1.721460384362387
 10
5.970774653319589
 20
-1.712516055208807
 10
5.978450756697661
 20
-1.702630784350818
 10
5.992862021749397
 20
-1.684072485608713
 10
6.004138249909555
 20
-1.664131842303151
 10
6.012985685752612
 20
-1.643502179900539
 10
6.012985685752612
 20
-1.643502179900539
 10
7.732975444979733
 20
-1.705076802145345
 10
7.732975444979733
 20
-1.705076802145345
 10
7.745442384266981
 20
-1.739988538518996
 10
7.767254145057969
 20
-1.772023620162463
 10
7.798703560468943
 20
-1.796445040783528
 97
        0
 97
        0
 92
        1
 93
        1
 72
     4
 94
        3
 73
     0
 74
     1
 95
       17
 96
       13
 40
0.0
 40
0.0
 40
0.0
 40
0.0
 40
1.0
 40
1.0
 40
1.0
 40
2.0
 40
2.0
 40
2.0
 40
3.0
 40
3.0
 40
3.0
 40
4.0
 40
4.0
 40
4.0
 40
4.0
 10
4.677834624074682
 20
-3.536431426117845
 10
4.633812763327255
 20
-3.674329985653683
 10
4.652170815894249
 20
-3.825212248799556
 10
4.727838031858437
 20
-3.948473458892439
 10
4.727838031858437
 20
-3.948473458892439
 10
4.527105237040966
 20
-4.10175006340056
 10
4.527105237040966
 20
-4.10175006340056
 10
4.39735002195842
 20
-3.905416224880883
 10
4.366966432963163
 20
-3.657440405037245
 10
4.446100276259352
 20
-3.435539651647625
 10
4.446100276259352
 20
-3.435539651647625
 10
4.677834624074682
 20
-3.536431426117845
 10
4.677834624074682
 20
-3.536431426117845
 97
        0
 97
        0
 92
        1
 93
        1
 72
     4
 94
        3
 73
     0
 74
     1
 95
       23
 96
       19
 40
0.0
 40
0.0
 40
0.0
 40
0.0
 40
1.0
 40
1.0
 40
1.0
 40
2.0
 40
2.0
 40
2.0
 40
3.0
 40
3.0
 40
3.0
 40
4.0
 40
4.0
 40
4.0
 40
5.0
 40
5.0
 40
5.0
 40
6.0
 40
6.0
 40
6.0
 40
6.0
 10
4.48643803802227
 20
-3.343187407611468
 10
4.507106457749091
 20
-3.303310427369702
 10
4.53108432232643
 20
-3.264546643606606
 10
4.559596793836261
 20
-3.2278262321032
 10
4.742994298808826
 20
-2.991522826400557
 10
5.040650548734412
 20
-2.895962337193761
 10
5.315035178657135
 20
-2.956675685567255
 10
5.315035178657135
 20
-2.956675685567255
 10
5.243758306251994
 20
-3.198480478122906
 10
5.243758306251994
 20
-3.198480478122906
 10
5.066215310419643
 20
-3.165362344586264
 10
4.876885781658382
 20
-3.229843766146749
 10
4.758482156199734
 20
-3.382315079585194
 10
4.743121336704844
 20
-3.402096387224562
 10
4.730081650293173
 20
-3.422883232108689
 10
4.718146547621461
 20
-3.444068416158297
 10
4.718146547621461
 20
-3.444068416158297
 10
4.48643803802227
 20
-3.343187407611468
 10
4.48643803802227
 20
-3.343187407611468
 97
        0
 97
        0
 92
        1
 93
        1
 72
     4
 94
        3
 73
     0
 74
     1
 95
       23
 96
       19
 40
0.0
 40
0.0
 40
0.0
 40
0.0
 40
1.0
 40
1.0
 40
1.0
 40
2.0
 40
2.0
 40
2.0
 40
3.0
 40
3.0
 40
3.0
 40
4.0
 40
4.0
 40
4.0
 40
5.0
 40
5.0
 40
5.0
 40
6.0
 40
6.0
 40
6.0
 40
6.0
 10
4.789053072261938
 20
-4.028459963321227
 10
4.806676888853669
 20
-4.047207742315053
 10
4.825459118802315
 20
-4.065182528009344
 10
4.846422524830061
 20
-4.081460604177149
 10
4.965329995503459
 20
-4.173797775920558
 10
5.112799460934256
 20
-4.203416984354994
 10
5.249692483225337
 20
-4.176095223972252
 10
5.249692483225337
 20
-4.176095223972252
 10
5.324001039657498
 20
-4.417312197110732
 10
5.324001039657498
 20
-4.417312197110732
 10
5.110889586124621
 20
-4.467311298525131
 10
4.877871940241067
 20
-4.424667475971741
 10
4.691927217794031
 20
-4.280365345202695
 10
4.653439041669756
 20
-4.250481295052831
 10
4.618983780447901
 20
-4.217345936038762
 10
4.587990840188723
 20
-4.18198849043674
 10
4.587990840188723
 20
-4.18198849043674
 10
4.789053072261938
 20
-4.028459963321227
 10
4.789053072261938
 20
-4.028459963321227
 97
        0
 97
        0
 92
        1
 93
        1
 72
     4
 94
        3
 73
     0
 74
     1
 95
       29
 96
       25
 40
0.0
 40
0.0
 40
0.0
 40
0.0
 40
1.0
 40
1.0
 40
1.0
 40
2.0
 40
2.0
 40
2.0
 40
3.0
 40
3.0
 40
3.0
 40
4.0
 40
4.0
 40
4.0
 40
5.0
 40
5.0
 40
5.0
 40
6.0
 40
6.0
 40
6.0
 40
7.0
 40
7.0
 40
7.0
 40
8.0
 40
8.0
 40
8.0
 40
8.0
 10
4.479950492586609
 20
-3.166023372282496
 10
4.446192863200549
 20
-3.20951124322974
 10
4.417512443285845
 20
-3.255335319552919
 10
4.393446298136664
 20
-3.302701076105748
 10
4.393446298136664
 20
-3.302701076105748
 10
4.142656265918546
 20
-3.193513081070111
 10
4.142656265918546
 20
-3.193513081070111
 10
4.176217955498946
 20
-3.1253561732638
 10
4.216814099423226
 20
-3.060052235156211
 10
4.264496374123762
 20
-2.998660633609059
 10
4.448589357747444
 20
-2.761554090021417
 10
4.713971522530306
 20
-2.610396219236724
 10
5.011763423090592
 20
-2.57293295901931
 10
5.059458616899198
 20
-2.566897582366088
 10
5.107024619627106
 20
-2.563945566172165
 10
5.154327933824264
 20
-2.563945566172165
 10
5.24495332374844
 20
-2.563945566172165
 10
5.334392308914882
 20
-2.575116288283087
 10
5.4212065619585
 20
-2.596495258953741
 10
5.4212065619585
 20
-2.596495258953741
 10
5.34377804092751
 20
-2.859170870595971
 10
5.34377804092751
 20
-2.859170870595971
 10
5.03068130367397
 20
-2.787220051386528
 10
4.689578093310027
 20
-2.896031239103466
 10
4.479950492586609
 20
-3.166023372282496
 97
        0
 97
        0
 92
        1
 93
        1
 72
     4
 94
        3
 73
     0
 74
     1
 95
       23
 96
       19
 40
0.0
 40
0.0
 40
0.0
 40
0.0
 40
1.0
 40
1.0
 40
1.0
 40
2.0
 40
2.0
 40
2.0
 40
3.0
 40
3.0
 40
3.0
 40
4.0
 40
4.0
 40
4.0
 40
5.0
 40
5.0
 40
5.0
 40
6.0
 40
6.0
 40
6.0
 40
6.0
 10
5.411962940134639
 20
-2.984402244669481
 10
5.482279492173267
 20
-3.010330894565342
 10
5.54987011240919
 20
-3.047146046194594
 10
5.612135906935724
 20
-3.095495808145396
 10
5.76310214428405
 20
-3.212715182031022
 10
5.856171398818074
 20
-3.376751250376515
 10
5.888441177591474
 20
-3.551393906447221
 10
5.888441177591474
 20
-3.551393906447221
 10
5.638499500136598
 20
-3.580513576036295
 10
5.638499500136598
 20
-3.580513576036295
 10
5.614347227600319
 20
-3.470838961263366
 10
5.553259225092805
 20
-3.368638050508752
 10
5.457627680791625
 20
-3.294376864139513
 10
5.420948179797106
 20
-3.26589453721521
 10
5.381404943180473
 20
-3.243839466555576
 10
5.340429838752783
 20
-3.227068311096445
 10
5.340429838752783
 20
-3.227068311096445
 10
5.411962940134639
 20
-2.984402244669481
 10
5.411962940134639
 20
-2.984402244669481
 97
        0
 97
        0
 92
        1
 93
        1
 72
     4
 94
        3
 73
     0
 74
     1
 95
       23
 96
       19
 40
0.0
 40
0.0
 40
0.0
 40
0.0
 40
1.0
 40
1.0
 40
1.0
 40
2.0
 40
2.0
 40
2.0
 40
3.0
 40
3.0
 40
3.0
 40
4.0
 40
4.0
 40
4.0
 40
5.0
 40
5.0
 40
5.0
 40
6.0
 40
6.0
 40
6.0
 40
6.0
 10
5.67393661357175
 20
-3.015849506895777
 10
5.601423813161276
 20
-2.959558799851473
 10
5.522554811580515
 20
-2.917050627932846
 10
5.440512015783969
 20
-2.887547691471038
 10
5.440512015783969
 20
-2.887547691471038
 10
5.51795130273835
 20
-2.624835475689277
 10
5.51795130273835
 20
-2.624835475689277
 10
5.633131610733644
 20
-2.664594030773738
 10
5.742252857044254
 20
-2.723408270260988
 10
5.841301505429866
 20
-2.800328639707904
 10
6.07459691213695
 20
-2.981516977200584
 10
6.216651118101869
 20
-3.2371452153908
 10
6.260509336813779
 20
-3.508043839319386
 10
6.260509336813779
 20
-3.508043839319386
 10
5.989457836773035
 20
-3.539624598995768
 10
5.989457836773035
 20
-3.539624598995768
 10
5.954037948815309
 20
-3.338993003858177
 10
5.847130176353972
 20
-3.150343881455252
 10
5.67393661357175
 20
-3.015849506895777
 97
        0
 97
        0
 92
        1
 93
        1
 72
     4
 94
        3
 73
     0
 74
     1
 95
       32
 96
       28
 40
0.0
 40
0.0
 40
0.0
 40
0.0
 40
1.0
 40
1.0
 40
1.0
 40
2.0
 40
2.0
 40
2.0
 40
3.0
 40
3.0
 40
3.0
 40
4.0
 40
4.0
 40
4.0
 40
5.0
 40
5.0
 40
5.0
 40
6.0
 40
6.0
 40
6.0
 40
7.0
 40
7.0
 40
7.0
 40
8.0
 40
8.0
 40
8.0
 40
9.0
 40
9.0
 40
9.0
 40
9.0
 10
5.449731952576369
 20
-2.499722526773072
 10
5.304404905900461
 20
-2.463327246156086
 10
5.152213506470193
 20
-2.453573319563473
 10
4.999231888262996
 20
-2.472947675298647
 10
4.674671595782319
 20
-2.513756984506109
 10
4.385475208457668
 20
-2.6784971442414
 10
4.184847919689497
 20
-2.936857773788355
 10
4.131959244436845
 20
-3.004967311531744
 10
4.08713209261971
 20
-3.077523175635784
 10
4.050194209463797
 20
-3.153257140324967
 10
4.050194209463797
 20
-3.153257140324967
 10
2.772425519462058
 20
-2.596940968182145
 10
2.772425519462058
 20
-2.596940968182145
 10
2.771936746540089
 20
-2.566716714853112
 10
2.766245879435391
 20
-2.536763762793543
 10
2.755781401898945
 20
-2.508277129499884
 10
2.755781401898945
 20
-2.508277129499884
 10
5.552503457270728
 20
-1.700320417191022
 10
5.552503457270728
 20
-1.700320417191022
 10
5.566348434752076
 20
-1.718506214983785
 10
5.582475787992402
 20
-1.735376416938118
 10
5.601382902652388
 20
-1.750058983259317
 10
5.61994550776385
 20
-1.764474554680409
 10
5.639894763808125
 20
-1.775752936025246
 10
5.660530885764771
 20
-1.784602525052981
 10
5.660530885764771
 20
-1.784602525052981
 10
5.449731952576369
 20
-2.499722526773072
 10
5.449731952576369
 20
-2.499722526773072
 97
        0
 97
        0
 92
        1
 93
        1
 72
     4
 94
        3
 73
     0
 74
     1
 95
       20
 96
       16
 40
0.0
 40
0.0
 40
0.0
 40
0.0
 40
1.0
 40
1.0
 40
1.0
 40
2.0
 40
2.0
 40
2.0
 40
3.0
 40
3.0
 40
3.0
 40
4.0
 40
4.0
 40
4.0
 40
5.0
 40
5.0
 40
5.0
 40
5.0
 10
4.102133330273294
 20
-3.285783504088493
 10
4.102133330273294
 20
-3.285783504088493
 10
4.353179591468129
 20
-3.395083464727401
 10
4.353179591468129
 20
-3.395083464727401
 10
4.259744295538828
 20
-3.650576052282885
 10
4.294813214393962
 20
-3.93781088836559
 10
4.446477083578083
 20
-4.163316072906685
 10
4.446477083578083
 20
-4.163316072906685
 10
4.228904231391775
 20
-4.32945149631347
 10
4.228904231391775
 20
-4.32945149631347
 10
4.126287755994253
 20
-4.182180123873074
 10
4.060077327137107
 20
-4.011367983345031
 10
4.037033944710142
 20
-3.828198715948332
 10
4.013574997640301
 20
-3.641668327268868
 10
4.036504261279285
 20
-3.456432002580987
 10
4.102133330273294
 20
-3.285783504088493
 97
        0
 97
        0
 92
        1
 93
        1
 72
     4
 94
        3
 73
     0
 74
     1
 95
       26
 96
       22
 40
0.0
 40
0.0
 40
0.0
 40
0.0
 40
1.0
 40
1.0
 40
1.0
 40
2.0
 40
2.0
 40
2.0
 40
3.0
 40
3.0
 40
3.0
 40
4.0
 40
4.0
 40
4.0
 40
5.0
 40
5.0
 40
5.0
 40
6.0
 40
6.0
 40
6.0
 40
7.0
 40
7.0
 40
7.0
 40
7.0
 10
4.507457426851651
 20
-4.243483444848449
 10
4.543725669572619
 20
-4.285543754353961
 10
4.584608187059175
 20
-4.324667119958361
 10
4.630124357973328
 20
-4.360011646452315
 10
4.785024463728874
 20
-4.480269163918995
 10
4.968725567741108
 20
-4.538463286218899
 10
5.151113229099591
 20
-4.538463286218899
 10
5.219386408878529
 20
-4.538463286218899
 10
5.287420585158179
 20
-4.530029261834104
 10
5.353755898726665
 20
-4.513899755409068
 10
5.353755898726665
 20
-4.513899755409068
 10
5.43419672512257
 20
-4.775016461344223
 10
5.43419672512257
 20
-4.775016461344223
 10
5.108475866100267
 20
-4.859130620801309
 10
4.748555974832826
 20
-4.797347139642676
 10
4.462761619299891
 20
-4.575465764915161
 10
4.398732366521845
 20
-4.525753037063006
 10
4.341210037841564
 20
-4.469938183832634
 10
4.290261381984075
 20
-4.409330341508376
 10
4.290261381984075
 20
-4.409330341508376
 10
4.507457426851651
 20
-4.243483444848449
 10
4.507457426851651
 20
-4.243483444848449
 97
        0
 97
        0
 92
        1
 93
        1
 72
     4
 94
        3
 73
     0
 74
     1
 95
       23
 96
       19
 40
0.0
 40
0.0
 40
0.0
 40
0.0
 40
1.0
 40
1.0
 40
1.0
 40
2.0
 40
2.0
 40
2.0
 40
3.0
 40
3.0
 40
3.0
 40
4.0
 40
4.0
 40
4.0
 40
5.0
 40
5.0
 40
5.0
 40
6.0
 40
6.0
 40
6.0
 40
6.0
 10
5.420194565159708
 20
-4.38727527084871
 10
5.420194565159708
 20
-4.38727527084871
 10
5.346064723055845
 20
-4.146641810758076
 10
5.346064723055845
 20
-4.146641810758076
 10
5.422121665446769
 20
-4.114555052682299
 10
5.491335786930117
 20
-4.063360933771486
 10
5.545568049421984
 20
-3.993522388731437
 10
5.617811701747673
 20
-3.900487585152265
 10
5.6516253139354
 20
-3.789930164661241
 10
5.649963055363767
 20
-3.680656042238473
 10
5.649963055363767
 20
-3.680656042238473
 10
5.900369820709152
 20
-3.651480389847763
 10
5.900369820709152
 20
-3.651480389847763
 10
5.908907197958537
 20
-3.824350974928243
 10
5.858705697184412
 20
-4.000916424916654
 10
5.744466330893527
 20
-4.148034921244892
 10
5.657324793778811
 20
-4.260211536613983
 10
5.544136181610927
 20
-4.340019326714474
 10
5.420194565159708
 20
-4.38727527084871
 97
        0
 97
        0
 92
        1
 93
        1
 72
     4
 94
        3
 73
     0
 74
     1
 95
       23
 96
       19
 40
0.0
 40
0.0
 40
0.0
 40
0.0
 40
1.0
 40
1.0
 40
1.0
 40
2.0
 40
2.0
 40
2.0
 40
3.0
 40
3.0
 40
3.0
 40
4.0
 40
4.0
 40
4.0
 40
5.0
 40
5.0
 40
5.0
 40
6.0
 40
6.0
 40
6.0
 40
6.0
 10
5.824112632143147
 20
-4.209835627880918
 10
5.955144685739946
 20
-4.041032408657743
 10
6.012296666655563
 20
-3.838017238081294
 10
6.000930004738916
 20
-3.639764912013268
 10
6.000930004738916
 20
-3.639764912013268
 10
6.272285103819298
 20
-3.608149701382033
 10
6.272285103819298
 20
-3.608149701382033
 10
6.291429068793896
 20
-3.875099384610684
 10
6.216246319382353
 20
-4.149710098924595
 10
6.039566750605993
 20
-4.377200519739032
 10
5.903573759510434
 20
-4.552448220704368
 10
5.725488161139157
 20
-4.676041021237705
 10
5.530534513998226
 20
-4.745451082526777
 10
5.530534513998226
 20
-4.745451082526777
 10
5.450089381232964
 20
-4.484321457483552
 10
5.450089381232964
 20
-4.484321457483552
 10
5.593190034951529
 20
-4.431040902619453
 10
5.72378068568928
 20
-4.339013789469717
 10
5.824112632143147
 20
-4.209835627880918
 97
        0
 97
        0
 92
        1
 93
        1
 72
     4
 94
        3
 73
     0
 74
     1
 95
       26
 96
       22
 40
0.0
 40
0.0
 40
0.0
 40
0.0
 40
1.0
 40
1.0
 40
1.0
 40
2.0
 40
2.0
 40
2.0
 40
3.0
 40
3.0
 40
3.0
 40
4.0
 40
4.0
 40
4.0
 40
5.0
 40
5.0
 40
5.0
 40
6.0
 40
6.0
 40
6.0
 40
7.0
 40
7.0
 40
7.0
 40
7.0
 10
5.903104365250569
 20
-2.720682338458284
 10
5.793940055246393
 20
-2.635960980921956
 10
5.673503823451416
 20
-2.571537695347784
 10
5.546444395586045
 20
-2.528181168665915
 10
5.546444395586045
 20
-2.528181168665915
 10
5.759273781926066
 20
-1.806164516421289
 10
5.759273781926066
 20
-1.806164516421289
 10
5.796851160931429
 20
-1.807103304941019
 10
5.834338106180304
 20
-1.800288475434259
 10
5.869234770261206
 20
-1.78583199350428
 10
5.869234770261206
 20
-1.78583199350428
 10
7.049098152941501
 20
-3.254486964789677
 10
7.049098152941501
 20
-3.254486964789677
 10
7.010282692746126
 20
-3.304529129897609
 10
6.99207751629126
 20
-3.363952720648812
 10
6.992889266914972
 20
-3.422715283703783
 10
6.992889266914972
 20
-3.422715283703783
 10
6.360623811615139
 20
-3.496380037917137
 10
6.360623811615139
 20
-3.496380037917137
 10
6.31367146652054
 20
-3.199537691799942
 10
6.158635710130262
 20
-2.919158595732884
 10
5.903104365250569
 20
-2.720682338458284
 97
        0
 97
        0
 92
        1
 93
        1
 72
     4
 94
        3
 73
     0
 74
     1
 95
       20
 96
       16
 40
0.0
 40
0.0
 40
0.0
 40
0.0
 40
1.0
 40
1.0
 40
1.0
 40
2.0
 40
2.0
 40
2.0
 40
3.0
 40
3.0
 40
3.0
 40
4.0
 40
4.0
 40
4.0
 40
5.0
 40
5.0
 40
5.0
 40
5.0
 10
7.523550243616073
 20
-1.596681179071316
 10
7.523550243616073
 20
-1.596681179071316
 10
6.034579974891094
 20
-1.543376939175788
 10
6.034579974891094
 20
-1.543376939175788
 10
6.036212088877232
 20
-1.461403045288946
 10
6.000757749964654
 20
-1.379715524964316
 10
5.931022557789162
 20
-1.325562930305545
 10
5.818387314083597
 20
-1.238098415489086
 10
5.658310952361464
 20
-1.254544440061798
 10
5.565187868210482
 20
-1.359940676878982
 10
5.565187868210482
 20
-1.359940676878982
 10
4.874019892851591
 20
-0.8232163321238399
 10
4.874019892851591
 20
-0.8232163321238399
 10
4.874019892851591
 20
-0.8232163321238399
 10
7.523550243616073
 20
-1.596681179071316
 10
7.523550243616073
 20
-1.596681179071316
 97
        0
 97
        0
 92
        1
 93
        1
 72
     4
 94
        3
 73
     0
 74
     1
 95
       20
 96
       16
 40
0.0
 40
0.0
 40
0.0
 40
0.0
 40
1.0
 40
1.0
 40
1.0
 40
2.0
 40
2.0
 40
2.0
 40
3.0
 40
3.0
 40
3.0
 40
4.0
 40
4.0
 40
4.0
 40
5.0
 40
5.0
 40
5.0
 40
5.0
 10
4.534264576096251
 20
-0.8524285886540803
 10
4.599320897965838
 20
-0.888238203038574
 10
4.677614999237497
 20
-0.8846897546887668
 10
4.738763290916003
 20
-0.845824771245792
 10
4.738763290916003
 20
-0.845824771245792
 10
5.513283198355837
 20
-1.447276000614743
 10
5.513283198355837
 20
-1.447276000614743
 10
5.494535419362043
 20
-1.49963068606715
 10
5.492948522254149
 20
-1.555953690881628
 10
5.507239208963902
 20
-1.608487090662331
 10
5.507239208963902
 20
-1.608487090662331
 10
2.704621733942985
 20
-2.418146972051713
 10
2.704621733942985
 20
-2.418146972051713
 10
2.704621733942985
 20
-2.418146972051713
 10
4.534264576096251
 20
-0.8524285886540803
 10
4.534264576096251
 20
-0.8524285886540803
 97
        0
 97
        0
 92
        1
 93
        1
 72
     4
 94
        3
 73
     0
 74
     1
 95
       32
 96
       28
 40
0.0
 40
0.0
 40
0.0
 40
0.0
 40
1.0
 40
1.0
 40
1.0
 40
2.0
 40
2.0
 40
2.0
 40
3.0
 40
3.0
 40
3.0
 40
4.0
 40
4.0
 40
4.0
 40
5.0
 40
5.0
 40
5.0
 40
6.0
 40
6.0
 40
6.0
 40
7.0
 40
7.0
 40
7.0
 40
8.0
 40
8.0
 40
8.0
 40
9.0
 40
9.0
 40
9.0
 40
9.0
 10
2.716119740125006
 20
-2.765933667657041
 10
2.732378437630707
 20
-2.744993946660756
 10
2.744901359719591
 20
-2.7223661288767
 10
2.754088998741816
 20
-2.698872730851974
 10
2.754088998741816
 20
-2.698872730851974
 10
4.009694958850006
 20
-3.245536176082062
 10
4.009694958850006
 20
-3.245536176082062
 10
3.936947461309632
 20
-3.43265223099405
 10
3.911300878606593
 20
-3.635979613348817
 10
3.937048660989479
 20
-3.840730250775928
 10
3.962342121405248
 20
-4.041895835713701
 10
4.035341541553013
 20
-4.229416689345206
 10
4.148637812954811
 20
-4.390741898180743
 10
4.148637812954811
 20
-4.390741898180743
 10
3.604655082649183
 20
-4.806119214022027
 10
3.604655082649183
 20
-4.806119214022027
 10
3.600019276036844
 20
-4.801978639885659
 10
3.595456677703566
 20
-4.797782082947721
 10
3.590474208358056
 20
-4.793912810080818
 10
3.528372055867039
 20
-4.745687932841355
 10
3.451839259662214
 20
-4.729276359223529
 10
3.380013325164111
 20
-4.7416485583849
 10
3.380013325164111
 20
-4.7416485583849
 10
2.657994519734807
 20
-2.821304964843719
 10
2.657994519734807
 20
-2.821304964843719
 10
2.679504834670835
 20
-2.806239131649785
 10
2.699167717152899
 20
-2.787762653925455
 10
2.716119740125006
 20
-2.765933667657041
 97
        0
 97
        0
 92
        1
 93
        1
 72
     4
 94
        3
 73
     0
 74
     1
 95
       29
 96
       25
 40
0.0
 40
0.0
 40
0.0
 40
0.0
 40
1.0
 40
1.0
 40
1.0
 40
2.0
 40
2.0
 40
2.0
 40
3.0
 40
3.0
 40
3.0
 40
4.0
 40
4.0
 40
4.0
 40
5.0
 40
5.0
 40
5.0
 40
6.0
 40
6.0
 40
6.0
 40
7.0
 40
7.0
 40
7.0
 40
8.0
 40
8.0
 40
8.0
 40
8.0
 10
2.201133947881791
 20
-4.337246024848848
 10
2.192458766812996
 20
-4.330508709990506
 10
2.183161315372178
 20
-4.325242020267431
 10
2.173825106607151
 20
-4.320132513025869
 10
2.173825106607151
 20
-4.320132513025869
 10
2.476332481612904
 20
-2.868169029366508
 10
2.476332481612904
 20
-2.868169029366508
 10
2.506334956920074
 20
-2.871233011163702
 10
2.536574282541855
 20
-2.869389885079093
 10
2.565810224103556
 20
-2.862480315446489
 10
2.565810224103556
 20
-2.862480315446489
 10
3.285660772561831
 20
-4.777053374049877
 10
3.285660772561831
 20
-4.777053374049877
 10
3.258644764403437
 20
-4.793551075054867
 10
3.233971421175014
 20
-4.814856837446459
 10
3.213406354312751
 20
-4.841341008989317
 10
3.206421423216407
 20
-4.850334861390498
 10
3.200327910576871
 20
-4.859716287033801
 10
3.194658575318956
 20
-4.869259201527942
 10
3.194658575318956
 20
-4.869259201527942
 10
2.274178584907801
 20
-4.537020652484451
 10
2.274178584907801
 20
-4.537020652484451
 10
2.289125992944428
 20
-4.464189180741592
 10
2.263828226159303
 20
-4.385927377240106
 10
2.201133947881791
 20
-4.337246024848848
 97
        0
 97
        0
 92
        1
 93
        1
 72
     4
 94
        3
 73
     0
 74
     1
 95
       20
 96
       16
 40
0.0
 40
0.0
 40
0.0
 40
0.0
 40
1.0
 40
1.0
 40
1.0
 40
2.0
 40
2.0
 40
2.0
 40
3.0
 40
3.0
 40
3.0
 40
4.0
 40
4.0
 40
4.0
 40
5.0
 40
5.0
 40
5.0
 40
5.0
 10
2.253886972499679
 20
-4.636794924106643
 10
2.253886972499679
 20
-4.636794924106643
 10
3.160285135114876
 20
-4.963949804124681
 10
3.160285135114876
 20
-4.963949804124681
 10
3.145481990451693
 20
-5.057565967566989
 10
3.180684406756912
 20
-5.156168906724195
 10
3.260834553221249
 20
-5.21840886303459
 10
3.323927170664243
 20
-5.2674024272042
 10
3.401917672896265
 20
-5.28358576324616
 10
3.47472976597702
 20
-5.270074529389946
 10
3.47472976597702
 20
-5.270074529389946
 10
3.964773066907027
 20
-6.523378735077054
 10
3.964773066907027
 20
-6.523378735077054
 10
3.964773066907027
 20
-6.523378735077054
 10
2.253886972499679
 20
-4.636794924106643
 10
2.253886972499679
 20
-4.636794924106643
 97
        0
 97
        0
 92
        1
 93
        1
 72
     4
 94
        3
 73
     0
 74
     1
 95
       29
 96
       25
 40
0.0
 40
0.0
 40
0.0
 40
0.0
 40
1.0
 40
1.0
 40
1.0
 40
2.0
 40
2.0
 40
2.0
 40
3.0
 40
3.0
 40
3.0
 40
4.0
 40
4.0
 40
4.0
 40
5.0
 40
5.0
 40
5.0
 40
6.0
 40
6.0
 40
6.0
 40
7.0
 40
7.0
 40
7.0
 40
8.0
 40
8.0
 40
8.0
 40
8.0
 10
5.668641932447857
 20
-6.242872601113977
 10
5.668641932447857
 20
-6.242872601113977
 10
4.357563475473109
 20
-6.720879599692393
 10
4.357563475473109
 20
-6.720879599692393
 10
4.344573312309039
 20
-6.695995244365498
 10
4.326598526614748
 20
-6.673264073716883
 10
4.302978090694004
 20
-6.654921093442606
 10
4.2467864301449
 20
-6.611286805937238
 10
4.174913125583876
 20
-6.60240276595465
 10
4.112442778512905
 20
-6.624369556042475
 10
4.112442778512905
 20
-6.624369556042475
 10
3.568584932918617
 20
-5.233427326165601
 10
3.568584932918617
 20
-5.233427326165601
 10
3.594438221350739
 20
-5.217175088213935
 10
3.618086648672333
 20
-5.196498055748402
 10
3.637902407266522
 20
-5.170980664126091
 10
3.639306283676762
 20
-5.169174142181014
 10
3.640438858817538
 20
-5.16724919507863
 10
3.641788905610852
 20
-5.165418988102091
 10
3.641788905610852
 20
-5.165418988102091
 10
5.697199620835899
 20
-6.148560959020585
 10
5.697199620835899
 20
-6.148560959020585
 10
5.681589031918361
 20
-6.178516064264833
 10
5.672196840351699
 20
-6.210480090813916
 10
5.668641932447857
 20
-6.242872601113977
 97
        0
 97
        0
 92
        1
 93
        1
 72
     4
 94
        3
 73
     0
 74
     1
 95
       29
 96
       25
 40
0.0
 40
0.0
 40
0.0
 40
0.0
 40
1.0
 40
1.0
 40
1.0
 40
2.0
 40
2.0
 40
2.0
 40
3.0
 40
3.0
 40
3.0
 40
4.0
 40
4.0
 40
4.0
 40
5.0
 40
5.0
 40
5.0
 40
6.0
 40
6.0
 40
6.0
 40
7.0
 40
7.0
 40
7.0
 40
8.0
 40
8.0
 40
8.0
 40
8.0
 10
5.761491562144696
 20
-6.067607674671248
 10
5.761491562144696
 20
-6.067607674671248
 10
3.685543771458171
 20
-5.074642875250436
 10
3.685543771458171
 20
-5.074642875250436
 10
3.702144825327719
 20
-5.011515806852621
 10
3.694843376083699
 20
-4.944360129921678
 10
3.665811987066403
 20
-4.886150935329026
 10
3.665811987066403
 20
-4.886150935329026
 10
4.210089703672955
 20
-4.470549688281266
 10
4.210089703672955
 20
-4.470549688281266
 10
4.266317968361588
 20
-4.537955134634825
 10
4.329961801082223
 20
-4.599981925662102
 10
4.400958759479219
 20
-4.655114219349459
 10
4.623893041514382
 20
-4.828185050605051
 10
4.888157703449184
 20
-4.911965466436939
 10
5.150719196303466
 20
-4.911965466436939
 10
5.256356589804617
 20
-4.911965466436939
 10
5.361597797324965
 20
-4.897950387366007
 10
5.463809474002971
 20
-4.871145391306117
 10
5.463809474002971
 20
-4.871145391306117
 10
5.820701987612749
 20
-6.029664254270578
 10
5.820701987612749
 20
-6.029664254270578
 10
5.799676139229334
 20
-6.039581822898741
 10
5.77968812586085
 20
-6.052119817280373
 10
5.761491562144696
 20
-6.067607674671248
 97
        0
 97
        0
 92
        1
 93
        1
 72
     4
 94
        3
 73
     0
 74
     1
 95
       29
 96
       25
 40
0.0
 40
0.0
 40
0.0
 40
0.0
 40
1.0
 40
1.0
 40
1.0
 40
2.0
 40
2.0
 40
2.0
 40
3.0
 40
3.0
 40
3.0
 40
4.0
 40
4.0
 40
4.0
 40
5.0
 40
5.0
 40
5.0
 40
6.0
 40
6.0
 40
6.0
 40
7.0
 40
7.0
 40
7.0
 40
8.0
 40
8.0
 40
8.0
 40
8.0
 10
5.918402742389756
 20
-6.004525823151646
 10
5.918402742389756
 20
-6.004525823151646
 10
5.560239849819792
 20
-4.841883611528244
 10
5.560239849819792
 20
-4.841883611528244
 10
5.774328849196609
 20
-4.766537220081152
 10
5.969973668619268
 20
-4.631181571650364
 10
6.119215205040291
 20
-4.439003379559737
 10
6.312721912077418
 20
-4.189823929480973
 10
6.394588146730346
 20
-3.888774260502415
 10
6.372543841994103
 20
-3.59646867450239
 10
6.372543841994103
 20
-3.59646867450239
 10
7.013264853525546
 20
-3.521817761706351
 10
7.013264853525546
 20
-3.521817761706351
 10
7.030505403244543
 20
-3.563621842235179
 10
7.058339621580684
 20
-3.60170521963997
 10
7.096612479237131
 20
-3.631425627754253
 10
7.101418387439055
 20
-3.635157096801746
 10
7.106435307739449
 20
-3.63840625248124
 10
7.111404857976923
 20
-3.641760914210002
 10
7.111404857976923
 20
-3.641760914210002
 10
5.966001042887839
 20
-6.005718687463414
 10
5.966001042887839
 20
-6.005718687463414
 10
5.950147144101655
 20
-6.003920778257049
 10
5.934243722067871
 20
-6.003509519983497
 10
5.918402742389756
 20
-6.004525823151646
 97
        0
 97
        0
 92
        1
 93
        1
 72
     4
 94
        3
 73
     0
 74
     1
 95
       26
 96
       22
 40
0.0
 40
0.0
 40
0.0
 40
0.0
 40
1.0
 40
1.0
 40
1.0
 40
2.0
 40
2.0
 40
2.0
 40
3.0
 40
3.0
 40
3.0
 40
4.0
 40
4.0
 40
4.0
 40
5.0
 40
5.0
 40
5.0
 40
6.0
 40
6.0
 40
6.0
 40
7.0
 40
7.0
 40
7.0
 40
7.0
 10
7.47695532717807
 20
-4.887789508869198
 10
7.432610488728869
 20
-4.944896272906603
 10
7.424353025487661
 20
-5.018132543368948
 10
7.447710772877655
 20
-5.081300522275681
 10
7.447710772877655
 20
-5.081300522275681
 10
6.070858983535453
 20
-6.040591666512855
 10
6.070858983535453
 20
-6.040591666512855
 10
6.068309612876368
 20
-6.039099509530806
 10
6.065732250816466
 20
-6.037695633120567
 10
6.063152735571885
 20
-6.036296063079684
 10
6.063152735571885
 20
-6.036296063079684
 10
7.204136062516457
 20
-3.681467792862217
 10
7.204136062516457
 20
-3.681467792862217
 10
7.226132997189777
 20
-3.686254322402004
 10
7.248487360519692
 20
-3.688467796251277
 10
7.270744830539084
 20
-3.687684037028383
 10
7.270744830539084
 20
-3.687684037028383
 10
7.542209742038058
 20
-4.833514182683765
 10
7.542209742038058
 20
-4.833514182683765
 10
7.517596687980626
 20
-4.846484967185731
 10
7.495130359047441
 20
-4.864384391416314
 10
7.47695532717807
 20
-4.887789508869198
 97
        0
 97
        0
 92
        1
 93
        1
 72
     4
 94
        3
 73
     0
 74
     1
 95
       23
 96
       19
 40
0.0
 40
0.0
 40
0.0
 40
0.0
 40
1.0
 40
1.0
 40
1.0
 40
2.0
 40
2.0
 40
2.0
 40
3.0
 40
3.0
 40
3.0
 40
4.0
 40
4.0
 40
4.0
 40
5.0
 40
5.0
 40
5.0
 40
6.0
 40
6.0
 40
6.0
 40
6.0
 10
7.612890182287315
 20
-4.694900765834738
 10
7.612890182287315
 20
-4.694900765834738
 10
7.369001106963088
 20
-3.665467477517878
 10
7.369001106963088
 20
-3.665467477517878
 10
7.408886699943568
 20
-3.64808912397947
 10
7.445116185340327
 20
-3.620780282704831
 10
7.473680333282404
 20
-3.583997428845786
 10
7.564708368741418
 20
-3.466778054960128
 10
7.543473661444209
 20
-3.297957610259495
 10
7.426252134373905
 20
-3.206931727985159
 10
7.420382552940911
 20
-3.202373436021238
 10
7.414293346670732
 20
-3.198303916979287
 10
7.408180455369092
 20
-3.194305453031719
 10
7.408180455369092
 20
-3.194305453031719
 10
7.846187742179078
 20
-1.993127695221119
 10
7.846187742179078
 20
-1.993127695221119
 10
7.846187742179078
 20
-1.993127695221119
 10
7.612890182287315
 20
-4.694900765834738
 10
7.612890182287315
 20
-4.694900765834738
 97
        0
 97
        0
 75
     2
 76
     1
 98
        0
  0
SPLINE
  5
5E
330
41
100
AcDbEntity
  8
Capa 1
370
     0
100
AcDbSpline
210
0.0
220
0.0
230
1.0
 70
    11
 71
     3
 72
    59
 73
    55
 74
     0
 42
0.0000000001
 43
0.0000000001
 12
1.0
 22
0.0
 32
0.0
 13
1.0
 23
0.0
 33
0.0
 40
0.0
 40
0.0
 40
0.0
 40
0.0
 40
1.0
 40
1.0
 40
1.0
 40
2.0
 40
2.0
 40
2.0
 40
3.0
 40
3.0
 40
3.0
 40
4.0
 40
4.0
 40
4.0
 40
5.0
 40
5.0
 40
5.0
 40
6.0
 40
6.0
 40
6.0
 40
7.0
 40
7.0
 40
7.0
 40
8.0
 40
8.0
 40
8.0
 40
9.0
 40
9.0
 40
9.0
 40
10.0
 40
10.0
 40
10.0
 40
11.0
 40
11.0
 40
11.0
 40
12.0
 40
12.0
 40
12.0
 40
13.0
 40
13.0
 40
13.0
 40
14.0
 40
14.0
 40
14.0
 40
15.0
 40
15.0
 40
15.0
 40
16.0
 40
16.0
 40
16.0
 40
17.0
 40
17.0
 40
17.0
 40
18.0
 40
18.0
 40
18.0
 40
18.0
 10
3.258037566324162
 20
-7.646400195435405
 30
0.0
 10
3.141651474909031
 20
-7.580792658288178
 30
0.0
 10
3.009516990756952
 20
-7.548053485254913
 30
0.0
 10
2.861705168962308
 20
-7.548053485254913
 30
0.0
 10
2.712513155788885
 20
-7.548053485254913
 30
0.0
 10
2.579788699034957
 20
-7.580792658288178
 30
0.0
 10
2.463402607619826
 20
-7.646400195435405
 30
0.0
 10
2.347014363020017
 20
-7.711940983857605
 30
0.0
 10
2.256673193473375
 20
-7.803266158802221
 30
0.0
 10
2.1923790989799
 20
-7.920308971544228
 30
0.0
 10
2.128082851301746
 20
-8.037287188745886
 30
0.0
 10
2.096000399595357
 20
-8.170405678295939
 30
0.0
 10
2.096000399595357
 20
-8.319530942744336
 30
0.0
 10
2.096000399595357
 20
-8.46872080273308
 30
0.0
 10
2.128082851301746
 20
-8.602101980813883
 30
0.0
 10
2.1923790989799
 20
-8.719734766157739
 30
0.0
 10
2.256673193473375
 20
-8.837434300226622
 30
0.0
 10
2.347014363020017
 20
-8.929022163701989
 30
0.0
 10
2.463402607619826
 20
-8.994629700849215
 30
0.0
 10
2.579788699034957
 20
-9.060170489271416
 30
0.0
 10
2.712513155788885
 20
-9.092974257845029
 30
0.0
 10
2.861705168962308
 20
-9.092974257845029
 30
0.0
 10
3.031429951227819
 20
-9.092974257845029
 30
0.0
 10
3.180555215676215
 20
-9.049936402495545
 30
0.0
 10
3.309145557847843
 20
-8.963729347531203
 30
0.0
 10
3.309145557847843
 20
-8.963729347531203
 30
0.0
 10
3.388268635220641
 20
-9.042850271719322
 30
0.0
 10
3.388268635220641
 20
-9.042850271719322
 30
0.0
 10
3.411361540895206
 20
-9.063387347180766
 30
0.0
 10
3.434521195294798
 20
-9.073686029496987
 30
0.0
 10
3.45768084969439
 20
-9.073686029496987
 30
0.0
 10
3.482087198022707
 20
-9.073686029496987
 30
0.0
 10
3.504590131095423
 20
-9.063387347180766
 30
0.0
 10
3.525191802097217
 20
-9.042850271719322
 30
0.0
 10
3.54448003044526
 20
-9.023562043371278
 30
0.0
 10
3.554124144619281
 20
-9.001059110298563
 30
0.0
 10
3.554124144619281
 20
-8.975341472501173
 30
0.0
 10
3.554124144619281
 20
-8.950935124172856
 30
0.0
 10
3.54448003044526
 20
-8.928365442375112
 30
0.0
 10
3.525191802097217
 20
-8.907830520098345
 30
0.0
 10
3.525191802097217
 20
-8.907830520098345
 30
0.0
 10
3.451908161571918
 20
-8.834549032757725
 30
0.0
 10
3.451908161571918
 20
-8.834549032757725
 30
0.0
 10
3.508461557146973
 20
-8.767694801681774
 30
0.0
 10
3.551893445292582
 20
-8.690539735104926
 30
0.0
 10
3.582072481743371
 20
-8.603085986211859
 30
0.0
 10
3.612318266919186
 20
-8.515630084134113
 30
0.0
 10
3.62740778514458
 20
-8.421156953189849
 30
0.0
 10
3.62740778514458
 20
-8.319530942744336
 30
0.0
 10
3.62740778514458
 20
-8.170405678295939
 30
0.0
 10
3.594931300642065
 20
-8.037287188745886
 30
0.0
 10
3.530045080362063
 20
-7.920308971544228
 30
0.0
 10
3.465094264541712
 20
-7.803266158802221
 30
0.0
 10
3.374425810923972
 20
-7.711940983857605
 30
0.0
 10
3.258037566324162
 20
-7.646400195435405
 30
0.0
  0
SPLINE
  5
5F
330
41
100
AcDbEntity
  8
Capa 1
370
     0
100
AcDbSpline
210
0.0
220
0.0
230
1.0
 70
    11
 71
     3
 72
    56
 73
    52
 74
     0
 42
0.0000000001
 43
0.0000000001
 12
1.0
 22
0.0
 32
0.0
 13
1.0
 23
0.0
 33
0.0
 40
0.0
 40
0.0
 40
0.0
 40
0.0
 40
1.0
 40
1.0
 40
1.0
 40
2.0
 40
2.0
 40
2.0
 40
3.0
 40
3.0
 40
3.0
 40
4.0
 40
4.0
 40
4.0
 40
5.0
 40
5.0
 40
5.0
 40
6.0
 40
6.0
 40
6.0
 40
7.0
 40
7.0
 40
7.0
 40
8.0
 40
8.0
 40
8.0
 40
9.0
 40
9.0
 40
9.0
 40
10.0
 40
10.0
 40
10.0
 40
11.0
 40
11.0
 40
11.0
 40
12.0
 40
12.0
 40
12.0
 40
13.0
 40
13.0
 40
13.0
 40
14.0
 40
14.0
 40
14.0
 40
15.0
 40
15.0
 40
15.0
 40
16.0
 40
16.0
 40
16.0
 40
17.0
 40
17.0
 40
17.0
 40
17.0
 10
3.313016983899393
 20
-8.6956578550852
 30
0.0
 10
3.313016983899393
 20
-8.6956578550852
 30
0.0
 10
3.122100558030239
 20
-8.502771265235417
 30
0.0
 10
3.122100558030239
 20
-8.502771265235417
 30
0.0
 10
3.102810176497518
 20
-8.48223634295865
 30
0.0
 10
3.080307243424802
 20
-8.471935507457752
 30
0.0
 10
3.054589605627411
 20
-8.471935507457752
 30
0.0
 10
3.028805219104995
 20
-8.471935507457752
 30
0.0
 10
3.00571231343043
 20
-8.48223634295865
 30
0.0
 10
2.985110642428635
 20
-8.502771265235417
 30
0.0
 10
2.964575720151868
 20
-8.523372936237212
 30
0.0
 10
2.954277037835649
 20
-8.545875869309928
 30
0.0
 10
2.954277037835649
 20
-8.570282217638244
 30
0.0
 10
2.954277037835649
 20
-8.593441872037836
 30
0.0
 10
2.964575720151868
 20
-8.616534777712403
 30
0.0
 10
2.985110642428635
 20
-8.639694432111995
 30
0.0
 10
2.985110642428635
 20
-8.639694432111995
 30
0.0
 10
3.170321128900345
 20
-8.824902765399026
 30
0.0
 10
3.170321128900345
 20
-8.824902765399026
 30
0.0
 10
3.080307243424802
 20
-8.882769603627832
 30
0.0
 10
2.977434539050563
 20
-8.911701946149895
 30
0.0
 10
2.861705168962308
 20
-8.911701946149895
 30
0.0
 10
2.752403055138722
 20
-8.911701946149895
 30
0.0
 10
2.653991749417882
 20
-8.885657024281405
 30
0.0
 10
2.566602596065163
 20
-8.833562874175072
 30
0.0
 10
2.479148847172096
 20
-8.781470877253417
 30
0.0
 10
2.410981173442393
 20
-8.710417936054817
 30
0.0
 10
2.362170629970438
 20
-8.620406203763952
 30
0.0
 10
2.313226589048429
 20
-8.530459067013435
 30
0.0
 10
2.288820240720113
 20
-8.430144346036995
 30
0.0
 10
2.288820240720113
 20
-8.319530942744336
 30
0.0
 10
2.288820240720113
 20
-8.208982134992025
 30
0.0
 10
2.313226589048429
 20
-8.108669567200263
 30
0.0
 10
2.362170629970438
 20
-8.018655681724718
 30
0.0
 10
2.410981173442393
 20
-7.928641796249176
 30
0.0
 10
2.478819409916319
 20
-7.857918292306353
 30
0.0
 10
2.565618590667189
 20
-7.806480863526895
 30
0.0
 10
2.652417771418059
 20
-7.755045587932115
 30
0.0
 10
2.751089612484971
 20
-7.729327950134725
 30
0.0
 10
2.861705168962308
 20
-7.729327950134725
 30
0.0
 10
2.97225182352994
 20
-7.729327950134725
 30
0.0
 10
3.070992566506557
 20
-7.755045587932115
 30
0.0
 10
3.157789594072749
 20
-7.806480863526895
 30
0.0
 10
3.244522026098592
 20
-7.857918292306353
 30
0.0
 10
3.312360262572517
 20
-7.928641796249176
 30
0.0
 10
3.361237554769499
 20
-8.018655681724718
 30
0.0
 10
3.410114846966481
 20
-8.108669567200263
 30
0.0
 10
3.434521195294798
 20
-8.208982134992025
 30
0.0
 10
3.434521195294798
 20
-8.319530942744336
 30
0.0
 10
3.434521195294798
 20
-8.463538087212457
 30
0.0
 10
3.394041323343113
 20
-8.588913724659411
 30
0.0
 10
3.313016983899393
 20
-8.6956578550852
 30
0.0
  0
HATCH
  5
60
330
41
100
AcDbEntity
  8
Capa 1
 62
   178
420
   262150
100
AcDbHatch
 10
0.0
 20
0.0
 30
0.0
210
0.0
220
0.0
230
1.0
  2
SOLID
 70
     1
 71
     0
 91
        2
 92
        1
 93
        1
 72
     4
 94
        3
 73
     0
 74
     1
 95
       59
 96
       55
 40
0.0
 40
0.0
 40
0.0
 40
0.0
 40
1.0
 40
1.0
 40
1.0
 40
2.0
 40
2.0
 40
2.0
 40
3.0
 40
3.0
 40
3.0
 40
4.0
 40
4.0
 40
4.0
 40
5.0
 40
5.0
 40
5.0
 40
6.0
 40
6.0
 40
6.0
 40
7.0
 40
7.0
 40
7.0
 40
8.0
 40
8.0
 40
8.0
 40
9.0
 40
9.0
 40
9.0
 40
10.0
 40
10.0
 40
10.0
 40
11.0
 40
11.0
 40
11.0
 40
12.0
 40
12.0
 40
12.0
 40
13.0
 40
13.0
 40
13.0
 40
14.0
 40
14.0
 40
14.0
 40
15.0
 40
15.0
 40
15.0
 40
16.0
 40
16.0
 40
16.0
 40
17.0
 40
17.0
 40
17.0
 40
18.0
 40
18.0
 40
18.0
 40
18.0
 10
3.258037566324162
 20
-7.646400195435405
 10
3.141651474909031
 20
-7.580792658288178
 10
3.009516990756952
 20
-7.548053485254913
 10
2.861705168962308
 20
-7.548053485254913
 10
2.712513155788885
 20
-7.548053485254913
 10
2.579788699034957
 20
-7.580792658288178
 10
2.463402607619826
 20
-7.646400195435405
 10
2.347014363020017
 20
-7.711940983857605
 10
2.256673193473375
 20
-7.803266158802221
 10
2.1923790989799
 20
-7.920308971544228
 10
2.128082851301746
 20
-8.037287188745886
 10
2.096000399595357
 20
-8.170405678295939
 10
2.096000399595357
 20
-8.319530942744336
 10
2.096000399595357
 20
-8.46872080273308
 10
2.128082851301746
 20
-8.602101980813883
 10
2.1923790989799
 20
-8.719734766157739
 10
2.256673193473375
 20
-8.837434300226622
 10
2.347014363020017
 20
-8.929022163701989
 10
2.463402607619826
 20
-8.994629700849215
 10
2.579788699034957
 20
-9.060170489271416
 10
2.712513155788885
 20
-9.092974257845029
 10
2.861705168962308
 20
-9.092974257845029
 10
3.031429951227819
 20
-9.092974257845029
 10
3.180555215676215
 20
-9.049936402495545
 10
3.309145557847843
 20
-8.963729347531203
 10
3.309145557847843
 20
-8.963729347531203
 10
3.388268635220641
 20
-9.042850271719322
 10
3.388268635220641
 20
-9.042850271719322
 10
3.411361540895206
 20
-9.063387347180766
 10
3.434521195294798
 20
-9.073686029496987
 10
3.45768084969439
 20
-9.073686029496987
 10
3.482087198022707
 20
-9.073686029496987
 10
3.504590131095423
 20
-9.063387347180766
 10
3.525191802097217
 20
-9.042850271719322
 10
3.54448003044526
 20
-9.023562043371278
 10
3.554124144619281
 20
-9.001059110298563
 10
3.554124144619281
 20
-8.975341472501173
 10
3.554124144619281
 20
-8.950935124172856
 10
3.54448003044526
 20
-8.928365442375112
 10
3.525191802097217
 20
-8.907830520098345
 10
3.525191802097217
 20
-8.907830520098345
 10
3.451908161571918
 20
-8.834549032757725
 10
3.451908161571918
 20
-8.834549032757725
 10
3.508461557146973
 20
-8.767694801681774
 10
3.551893445292582
 20
-8.690539735104926
 10
3.582072481743371
 20
-8.603085986211859
 10
3.612318266919186
 20
-8.515630084134113
 10
3.62740778514458
 20
-8.421156953189849
 10
3.62740778514458
 20
-8.319530942744336
 10
3.62740778514458
 20
-8.170405678295939
 10
3.594931300642065
 20
-8.037287188745886
 10
3.530045080362063
 20
-7.920308971544228
 10
3.465094264541712
 20
-7.803266158802221
 10
3.374425810923972
 20
-7.711940983857605
 10
3.258037566324162
 20
-7.646400195435405
 97
        0
 97
        0
 92
        1
 93
        1
 72
     4
 94
        3
 73
     0
 74
     1
 95
       56
 96
       52
 40
0.0
 40
0.0
 40
0.0
 40
0.0
 40
1.0
 40
1.0
 40
1.0
 40
2.0
 40
2.0
 40
2.0
 40
3.0
 40
3.0
 40
3.0
 40
4.0
 40
4.0
 40
4.0
 40
5.0
 40
5.0
 40
5.0
 40
6.0
 40
6.0
 40
6.0
 40
7.0
 40
7.0
 40
7.0
 40
8.0
 40
8.0
 40
8.0
 40
9.0
 40
9.0
 40
9.0
 40
10.0
 40
10.0
 40
10.0
 40
11.0
 40
11.0
 40
11.0
 40
12.0
 40
12.0
 40
12.0
 40
13.0
 40
13.0
 40
13.0
 40
14.0
 40
14.0
 40
14.0
 40
15.0
 40
15.0
 40
15.0
 40
16.0
 40
16.0
 40
16.0
 40
17.0
 40
17.0
 40
17.0
 40
17.0
 10
3.313016983899393
 20
-8.6956578550852
 10
3.313016983899393
 20
-8.6956578550852
 10
3.122100558030239
 20
-8.502771265235417
 10
3.122100558030239
 20
-8.502771265235417
 10
3.102810176497518
 20
-8.48223634295865
 10
3.080307243424802
 20
-8.471935507457752
 10
3.054589605627411
 20
-8.471935507457752
 10
3.028805219104995
 20
-8.471935507457752
 10
3.00571231343043
 20
-8.48223634295865
 10
2.985110642428635
 20
-8.502771265235417
 10
2.964575720151868
 20
-8.523372936237212
 10
2.954277037835649
 20
-8.545875869309928
 10
2.954277037835649
 20
-8.570282217638244
 10
2.954277037835649
 20
-8.593441872037836
 10
2.964575720151868
 20
-8.616534777712403
 10
2.985110642428635
 20
-8.639694432111995
 10
2.985110642428635
 20
-8.639694432111995
 10
3.170321128900345
 20
-8.824902765399026
 10
3.170321128900345
 20
-8.824902765399026
 10
3.080307243424802
 20
-8.882769603627832
 10
2.977434539050563
 20
-8.911701946149895
 10
2.861705168962308
 20
-8.911701946149895
 10
2.752403055138722
 20
-8.911701946149895
 10
2.653991749417882
 20
-8.885657024281405
 10
2.566602596065163
 20
-8.833562874175072
 10
2.479148847172096
 20
-8.781470877253417
 10
2.410981173442393
 20
-8.710417936054817
 10
2.362170629970438
 20
-8.620406203763952
 10
2.313226589048429
 20
-8.530459067013435
 10
2.288820240720113
 20
-8.430144346036995
 10
2.288820240720113
 20
-8.319530942744336
 10
2.288820240720113
 20
-8.208982134992025
 10
2.313226589048429
 20
-8.108669567200263
 10
2.362170629970438
 20
-8.018655681724718
 10
2.410981173442393
 20
-7.928641796249176
 10
2.478819409916319
 20
-7.857918292306353
 10
2.565618590667189
 20
-7.806480863526895
 10
2.652417771418059
 20
-7.755045587932115
 10
2.751089612484971
 20
-7.729327950134725
 10
2.861705168962308
 20
-7.729327950134725
 10
2.97225182352994
 20
-7.729327950134725
 10
3.070992566506557
 20
-7.755045587932115
 10
3.157789594072749
 20
-7.806480863526895
 10
3.244522026098592
 20
-7.857918292306353
 10
3.312360262572517
 20
-7.928641796249176
 10
3.361237554769499
 20
-8.018655681724718
 10
3.410114846966481
 20
-8.108669567200263
 10
3.434521195294798
 20
-8.208982134992025
 10
3.434521195294798
 20
-8.319530942744336
 10
3.434521195294798
 20
-8.463538087212457
 10
3.394041323343113
 20
-8.588913724659411
 10
3.313016983899393
 20
-8.6956578550852
 97
        0
 97
        0
 75
     2
 76
     1
 98
        0
  0
SPLINE
  5
61
330
41
100
AcDbEntity
  8
Capa 1
370
     0
100
AcDbSpline
210
0.0
220
0.0
230
1.0
 70
    11
 71
     3
 72
    35
 73
    31
 74
     0
 42
0.0000000001
 43
0.0000000001
 12
1.0
 22
0.0
 32
0.0
 13
1.0
 23
0.0
 33
0.0
 40
0.0
 40
0.0
 40
0.0
 40
0.0
 40
1.0
 40
1.0
 40
1.0
 40
2.0
 40
2.0
 40
2.0
 40
3.0
 40
3.0
 40
3.0
 40
4.0
 40
4.0
 40
4.0
 40
5.0
 40
5.0
 40
5.0
 40
6.0
 40
6.0
 40
6.0
 40
7.0
 40
7.0
 40
7.0
 40
8.0
 40
8.0
 40
8.0
 40
9.0
 40
9.0
 40
9.0
 40
10.0
 40
10.0
 40
10.0
 40
10.0
 10
4.346857841252695
 20
-8.44877585305816
 30
0.0
 10
4.346857841252695
 20
-8.44877585305816
 30
0.0
 10
3.916735516734574
 20
-8.44877585305816
 30
0.0
 10
3.916735516734574
 20
-8.44877585305816
 30
0.0
 10
3.88839314681436
 20
-8.44877585305816
 30
0.0
 10
3.86497080388405
 20
-8.458092683161084
 30
0.0
 10
3.846339296862851
 20
-8.476726343366929
 30
0.0
 10
3.827641041116657
 20
-8.495357850388096
 30
0.0
 10
3.818324211013767
 20
-8.518844788858786
 30
0.0
 10
3.818324211013767
 20
-8.547122563238652
 30
0.0
 10
3.818324211013767
 20
-8.57539818443384
 30
0.0
 10
3.827641041116657
 20
-8.598557838833432
 30
0.0
 10
3.846339296862851
 20
-8.616534777712403
 30
0.0
 10
3.86497080388405
 20
-8.63457631213172
 30
0.0
 10
3.88839314681436
 20
-8.643565858163544
 30
0.0
 10
3.916735516734574
 20
-8.643565858163544
 30
0.0
 10
3.916735516734574
 20
-8.643565858163544
 30
0.0
 10
4.346857841252695
 20
-8.643565858163544
 30
0.0
 10
4.346857841252695
 20
-8.643565858163544
 30
0.0
 10
4.375068866907567
 20
-8.643565858163544
 30
0.0
 10
4.398228521307159
 20
-8.63457631213172
 30
0.0
 10
4.416270055726445
 20
-8.616534777712403
 30
0.0
 10
4.434246994605446
 20
-8.598557838833432
 30
0.0
 10
4.44329898299294
 20
-8.57539818443384
 30
0.0
 10
4.44329898299294
 20
-8.547122563238652
 30
0.0
 10
4.44329898299294
 20
-8.518844788858786
 30
0.0
 10
4.434246994605446
 20
-8.495357850388096
 30
0.0
 10
4.416270055726445
 20
-8.476726343366929
 30
0.0
 10
4.398228521307159
 20
-8.458092683161084
 30
0.0
 10
4.375068866907567
 20
-8.44877585305816
 30
0.0
 10
4.346857841252695
 20
-8.44877585305816
 30
0.0
  0
HATCH
  5
62
330
41
100
AcDbEntity
  8
Capa 1
 62
   178
420
   262150
100
AcDbHatch
 10
0.0
 20
0.0
 30
0.0
210
0.0
220
0.0
230
1.0
  2
SOLID
 70
     1
 71
     0
 91
        1
 92
        1
 93
        1
 72
     4
 94
        3
 73
     0
 74
     1
 95
       35
 96
       31
 40
0.0
 40
0.0
 40
0.0
 40
0.0
 40
1.0
 40
1.0
 40
1.0
 40
2.0
 40
2.0
 40
2.0
 40
3.0
 40
3.0
 40
3.0
 40
4.0
 40
4.0
 40
4.0
 40
5.0
 40
5.0
 40
5.0
 40
6.0
 40
6.0
 40
6.0
 40
7.0
 40
7.0
 40
7.0
 40
8.0
 40
8.0
 40
8.0
 40
9.0
 40
9.0
 40
9.0
 40
10.0
 40
10.0
 40
10.0
 40
10.0
 10
4.346857841252695
 20
-8.44877585305816
 10
4.346857841252695
 20
-8.44877585305816
 10
3.916735516734574
 20
-8.44877585305816
 10
3.916735516734574
 20
-8.44877585305816
 10
3.88839314681436
 20
-8.44877585305816
 10
3.86497080388405
 20
-8.458092683161084
 10
3.846339296862851
 20
-8.476726343366929
 10
3.827641041116657
 20
-8.495357850388096
 10
3.818324211013767
 20
-8.518844788858786
 10
3.818324211013767
 20
-8.547122563238652
 10
3.818324211013767
 20
-8.57539818443384
 10
3.827641041116657
 20
-8.598557838833432
 10
3.846339296862851
 20
-8.616534777712403
 10
3.86497080388405
 20
-8.63457631213172
 10
3.88839314681436
 20
-8.643565858163544
 10
3.916735516734574
 20
-8.643565858163544
 10
3.916735516734574
 20
-8.643565858163544
 10
4.346857841252695
 20
-8.643565858163544
 10
4.346857841252695
 20
-8.643565858163544
 10
4.375068866907567
 20
-8.643565858163544
 10
4.398228521307159
 20
-8.63457631213172
 10
4.416270055726445
 20
-8.616534777712403
 10
4.434246994605446
 20
-8.598557838833432
 10
4.44329898299294
 20
-8.57539818443384
 10
4.44329898299294
 20
-8.547122563238652
 10
4.44329898299294
 20
-8.518844788858786
 10
4.434246994605446
 20
-8.495357850388096
 10
4.416270055726445
 20
-8.476726343366929
 10
4.398228521307159
 20
-8.458092683161084
 10
4.375068866907567
 20
-8.44877585305816
 10
4.346857841252695
 20
-8.44877585305816
 97
        0
 97
        0
 75
     2
 76
     1
 98
        0
  0
SPLINE
  5
63
330
41
100
AcDbEntity
  8
Capa 1
370
     0
100
AcDbSpline
210
0.0
220
0.0
230
1.0
 70
    11
 71
     3
 72
    77
 73
    73
 74
     0
 42
0.0000000001
 43
0.0000000001
 12
1.0
 22
0.0
 32
0.0
 13
1.0
 23
0.0
 33
0.0
 40
0.0
 40
0.0
 40
0.0
 40
0.0
 40
1.0
 40
1.0
 40
1.0
 40
2.0
 40
2.0
 40
2.0
 40
3.0
 40
3.0
 40
3.0
 40
4.0
 40
4.0
 40
4.0
 40
5.0
 40
5.0
 40
5.0
 40
6.0
 40
6.0
 40
6.0
 40
7.0
 40
7.0
 40
7.0
 40
8.0
 40
8.0
 40
8.0
 40
9.0
 40
9.0
 40
9.0
 40
10.0
 40
10.0
 40
10.0
 40
11.0
 40
11.0
 40
11.0
 40
12.0
 40
12.0
 40
12.0
 40
13.0
 40
13.0
 40
13.0
 40
14.0
 40
14.0
 40
14.0
 40
15.0
 40
15.0
 40
15.0
 40
16.0
 40
16.0
 40
16.0
 40
17.0
 40
17.0
 40
17.0
 40
18.0
 40
18.0
 40
18.0
 40
19.0
 40
19.0
 40
19.0
 40
20.0
 40
20.0
 40
20.0
 40
21.0
 40
21.0
 40
21.0
 40
22.0
 40
22.0
 40
22.0
 40
23.0
 40
23.0
 40
23.0
 40
24.0
 40
24.0
 40
24.0
 40
24.0
 10
5.841654627717103
 20
-7.567341713602955
 30
0.0
 10
5.813312257796889
 20
-7.567341713602955
 30
0.0
 10
5.789562630795447
 20
-7.576658543705879
 30
0.0
 10
5.770274402447405
 20
-7.595292203911724
 30
0.0
 10
5.750986174099363
 20
-7.61392371093289
 30
0.0
 10
5.741342059925342
 20
-7.638067370730456
 30
0.0
 10
5.741342059925342
 20
-7.667589685854369
 30
0.0
 10
5.741342059925342
 20
-7.667589685854369
 30
0.0
 10
5.741342059925342
 20
-8.568378802382645
 30
0.0
 10
5.741342059925342
 20
-8.568378802382645
 30
0.0
 10
5.741342059925342
 20
-8.63654432292767
 30
0.0
 10
5.723627809577122
 20
-8.697559117156121
 30
0.0
 10
5.68833065314606
 20
-8.751554529333378
 30
0.0
 10
5.652902152449621
 20
-8.805614537050984
 30
0.0
 10
5.603762171721889
 20
-8.847735135727518
 30
0.0
 10
5.540779366697487
 20
-8.877914172178308
 30
0.0
 10
5.477729812948058
 20
-8.908159957354123
 30
0.0
 10
5.40634958767836
 20
-8.923249475579517
 30
0.0
 10
5.326636537703714
 20
-8.923249475579517
 30
0.0
 10
5.243054214862196
 20
-8.923249475579517
 30
0.0
 10
5.168786568938923
 20
-8.908159957354123
 30
0.0
 10
5.103900348658921
 20
-8.877914172178308
 30
0.0
 10
5.038949532838569
 20
-8.847735135727518
 30
0.0
 10
4.988168825385987
 20
-8.805614537050984
 30
0.0
 10
4.951493630760856
 20
-8.751554529333378
 30
0.0
 10
4.914885184860688
 20
-8.697559117156121
 30
0.0
 10
4.896516366370272
 20
-8.63654432292767
 30
0.0
 10
4.896516366370272
 20
-8.568378802382645
 30
0.0
 10
4.896516366370272
 20
-8.568378802382645
 30
0.0
 10
4.896516366370272
 20
-7.667589685854369
 30
0.0
 10
4.896516366370272
 20
-7.667589685854369
 30
0.0
 10
4.896516366370272
 20
-7.638067370730456
 30
0.0
 10
4.887199536267381
 20
-7.61392371093289
 30
0.0
 10
4.868565876061504
 20
-7.595292203911724
 30
0.0
 10
4.849934369040337
 20
-7.576658543705879
 30
0.0
 10
4.825790709242803
 20
-7.567341713602955
 30
0.0
 10
4.796268394118858
 20
-7.567341713602955
 30
0.0
 10
4.767926024198643
 20
-7.567341713602955
 30
0.0
 10
4.744174244012524
 20
-7.576658543705879
 30
0.0
 10
4.724886015664481
 20
-7.595292203911724
 30
0.0
 10
4.705597787316439
 20
-7.61392371093289
 30
0.0
 10
4.69595367314245
 20
-7.638067370730456
 30
0.0
 10
4.69595367314245
 20
-7.667589685854369
 30
0.0
 10
4.69595367314245
 20
-7.667589685854369
 30
0.0
 10
4.69595367314245
 20
-8.568378802382645
 30
0.0
 10
4.69595367314245
 20
-8.568378802382645
 30
0.0
 10
4.69595367314245
 20
-8.672498200685608
 30
0.0
 10
4.722590720797434
 20
-8.765070069558949
 30
0.0
 10
4.775994007188163
 20
-8.846094409002669
 30
0.0
 10
4.829332698038543
 20
-8.927120901631067
 30
0.0
 10
4.903929781217593
 20
-8.990430990726567
 30
0.0
 10
4.999716354815641
 20
-9.036093578198875
 30
0.0
 10
5.095502928413624
 20
-9.081691570130834
 30
0.0
 10
5.204475604981432
 20
-9.104521787274651
 30
0.0
 10
5.326636537703714
 20
-9.104521787274651
 30
0.0
 10
5.444926044374445
 20
-9.104521787274651
 30
0.0
 10
5.550686169402258
 20
-9.081691570130834
 30
0.0
 10
5.643914759602476
 20
-9.036093578198875
 30
0.0
 10
5.737141196618015
 20
-8.990430990726567
 30
0.0
 10
5.809834864541465
 20
-8.92679146437529
 30
0.0
 10
5.861862265922772
 20
-8.845110403604695
 30
0.0
 10
5.913954262844427
 20
-8.763496091559125
 30
0.0
 10
5.939999184712916
 20
-8.671251506756883
 30
0.0
 10
5.939999184712916
 20
-8.568378802382645
 30
0.0
 10
5.939999184712916
 20
-8.568378802382645
 30
0.0
 10
5.939999184712916
 20
-7.667589685854369
 30
0.0
 10
5.939999184712916
 20
-7.667589685854369
 30
0.0
 10
5.939999184712916
 20
-7.638067370730456
 30
0.0
 10
5.930684507794672
 20
-7.61392371093289
 30
0.0
 10
5.912050847588827
 20
-7.595292203911724
 30
0.0
 10
5.893352591842634
 20
-7.576658543705879
 30
0.0
 10
5.869932402096969
 20
-7.567341713602955
 30
0.0
 10
5.841654627717103
 20
-7.567341713602955
 30
0.0
  0
HATCH
  5
64
330
41
100
AcDbEntity
  8
Capa 1
 62
   178
420
   262150
100
AcDbHatch
 10
0.0
 20
0.0
 30
0.0
210
0.0
220
0.0
230
1.0
  2
SOLID
 70
     1
 71
     0
 91
        1
 92
        1
 93
        1
 72
     4
 94
        3
 73
     0
 74
     1
 95
       77
 96
       73
 40
0.0
 40
0.0
 40
0.0
 40
0.0
 40
1.0
 40
1.0
 40
1.0
 40
2.0
 40
2.0
 40
2.0
 40
3.0
 40
3.0
 40
3.0
 40
4.0
 40
4.0
 40
4.0
 40
5.0
 40
5.0
 40
5.0
 40
6.0
 40
6.0
 40
6.0
 40
7.0
 40
7.0
 40
7.0
 40
8.0
 40
8.0
 40
8.0
 40
9.0
 40
9.0
 40
9.0
 40
10.0
 40
10.0
 40
10.0
 40
11.0
 40
11.0
 40
11.0
 40
12.0
 40
12.0
 40
12.0
 40
13.0
 40
13.0
 40
13.0
 40
14.0
 40
14.0
 40
14.0
 40
15.0
 40
15.0
 40
15.0
 40
16.0
 40
16.0
 40
16.0
 40
17.0
 40
17.0
 40
17.0
 40
18.0
 40
18.0
 40
18.0
 40
19.0
 40
19.0
 40
19.0
 40
20.0
 40
20.0
 40
20.0
 40
21.0
 40
21.0
 40
21.0
 40
22.0
 40
22.0
 40
22.0
 40
23.0
 40
23.0
 40
23.0
 40
24.0
 40
24.0
 40
24.0
 40
24.0
 10
5.841654627717103
 20
-7.567341713602955
 10
5.813312257796889
 20
-7.567341713602955
 10
5.789562630795447
 20
-7.576658543705879
 10
5.770274402447405
 20
-7.595292203911724
 10
5.750986174099363
 20
-7.61392371093289
 10
5.741342059925342
 20
-7.638067370730456
 10
5.741342059925342
 20
-7.667589685854369
 10
5.741342059925342
 20
-7.667589685854369
 10
5.741342059925342
 20
-8.568378802382645
 10
5.741342059925342
 20
-8.568378802382645
 10
5.741342059925342
 20
-8.63654432292767
 10
5.723627809577122
 20
-8.697559117156121
 10
5.68833065314606
 20
-8.751554529333378
 10
5.652902152449621
 20
-8.805614537050984
 10
5.603762171721889
 20
-8.847735135727518
 10
5.540779366697487
 20
-8.877914172178308
 10
5.477729812948058
 20
-8.908159957354123
 10
5.40634958767836
 20
-8.923249475579517
 10
5.326636537703714
 20
-8.923249475579517
 10
5.243054214862196
 20
-8.923249475579517
 10
5.168786568938923
 20
-8.908159957354123
 10
5.103900348658921
 20
-8.877914172178308
 10
5.038949532838569
 20
-8.847735135727518
 10
4.988168825385987
 20
-8.805614537050984
 10
4.951493630760856
 20
-8.751554529333378
 10
4.914885184860688
 20
-8.697559117156121
 10
4.896516366370272
 20
-8.63654432292767
 10
4.896516366370272
 20
-8.568378802382645
 10
4.896516366370272
 20
-8.568378802382645
 10
4.896516366370272
 20
-7.667589685854369
 10
4.896516366370272
 20
-7.667589685854369
 10
4.896516366370272
 20
-7.638067370730456
 10
4.887199536267381
 20
-7.61392371093289
 10
4.868565876061504
 20
-7.595292203911724
 10
4.849934369040337
 20
-7.576658543705879
 10
4.825790709242803
 20
-7.567341713602955
 10
4.796268394118858
 20
-7.567341713602955
 10
4.767926024198643
 20
-7.567341713602955
 10
4.744174244012524
 20
-7.576658543705879
 10
4.724886015664481
 20
-7.595292203911724
 10
4.705597787316439
 20
-7.61392371093289
 10
4.69595367314245
 20
-7.638067370730456
 10
4.69595367314245
 20
-7.667589685854369
 10
4.69595367314245
 20
-7.667589685854369
 10
4.69595367314245
 20
-8.568378802382645
 10
4.69595367314245
 20
-8.568378802382645
 10
4.69595367314245
 20
-8.672498200685608
 10
4.722590720797434
 20
-8.765070069558949
 10
4.775994007188163
 20
-8.846094409002669
 10
4.829332698038543
 20
-8.927120901631067
 10
4.903929781217593
 20
-8.990430990726567
 10
4.999716354815641
 20
-9.036093578198875
 10
5.095502928413624
 20
-9.081691570130834
 10
5.204475604981432
 20
-9.104521787274651
 10
5.326636537703714
 20
-9.104521787274651
 10
5.444926044374445
 20
-9.104521787274651
 10
5.550686169402258
 20
-9.081691570130834
 10
5.643914759602476
 20
-9.036093578198875
 10
5.737141196618015
 20
-8.990430990726567
 10
5.809834864541465
 20
-8.92679146437529
 10
5.861862265922772
 20
-8.845110403604695
 10
5.913954262844427
 20
-8.763496091559125
 10
5.939999184712916
 20
-8.671251506756883
 10
5.939999184712916
 20
-8.568378802382645
 10
5.939999184712916
 20
-8.568378802382645
 10
5.939999184712916
 20
-7.667589685854369
 10
5.939999184712916
 20
-7.667589685854369
 10
5.939999184712916
 20
-7.638067370730456
 10
5.930684507794672
 20
-7.61392371093289
 10
5.912050847588827
 20
-7.595292203911724
 10
5.893352591842634
 20
-7.576658543705879
 10
5.869932402096969
 20
-7.567341713602955
 10
5.841654627717103
 20
-7.567341713602955
 97
        0
 97
        0
 75
     2
 76
     1
 98
        0
  0
SPLINE
  5
65
330
41
100
AcDbEntity
  8
Capa 1
370
     0
100
AcDbSpline
210
0.0
220
0.0
230
1.0
 70
    11
 71
     3
 72
    56
 73
    52
 74
     0
 42
0.0000000001
 43
0.0000000001
 12
1.0
 22
0.0
 32
0.0
 13
1.0
 23
0.0
 33
0.0
 40
0.0
 40
0.0
 40
0.0
 40
0.0
 40
1.0
 40
1.0
 40
1.0
 40
2.0
 40
2.0
 40
2.0
 40
3.0
 40
3.0
 40
3.0
 40
4.0
 40
4.0
 40
4.0
 40
5.0
 40
5.0
 40
5.0
 40
6.0
 40
6.0
 40
6.0
 40
7.0
 40
7.0
 40
7.0
 40
8.0
 40
8.0
 40
8.0
 40
9.0
 40
9.0
 40
9.0
 40
10.0
 40
10.0
 40
10.0
 40
11.0
 40
11.0
 40
11.0
 40
12.0
 40
12.0
 40
12.0
 40
13.0
 40
13.0
 40
13.0
 40
14.0
 40
14.0
 40
14.0
 40
15.0
 40
15.0
 40
15.0
 40
16.0
 40
16.0
 40
16.0
 40
17.0
 40
17.0
 40
17.0
 40
17.0
 10
7.107811192748871
 20
-8.081311202678023
 30
0.0
 10
7.026130131978276
 20
-8.03440192127699
 30
0.0
 10
6.935853557971982
 20
-8.01091282962162
 30
0.0
 10
6.836852279649293
 20
-8.01091282962162
 30
0.0
 10
6.737784252601577
 20
-8.01091282962162
 30
0.0
 10
6.648099804381811
 20
-8.03440192127699
 30
0.0
 10
6.567730033080289
 20
-8.081311202678023
 30
0.0
 10
6.487362414963445
 20
-8.128285079619404
 30
0.0
 10
6.423722888612168
 20
-8.192581327297557
 30
0.0
 10
6.376813607211135
 20
-8.274195639343127
 30
0.0
 10
6.329839730269753
 20
-8.355876700113722
 30
0.0
 10
6.306417387339411
 20
-8.446807842262212
 30
0.0
 10
6.306417387339411
 20
-8.547122563238652
 30
0.0
 10
6.306417387339411
 20
-8.547122563238652
 30
0.0
 10
6.306417387339411
 20
-9.426653287438258
 30
0.0
 10
6.306417387339411
 20
-9.426653287438258
 30
0.0
 10
6.306417387339411
 20
-9.456242351287198
 30
0.0
 10
6.315732064257655
 20
-9.479991978288638
 30
0.0
 10
6.3343657244635
 20
-9.498035665892635
 30
0.0
 10
6.352997231484667
 20
-9.516010451586926
 30
0.0
 10
6.376486323140036
 20
-9.52499999761875
 30
0.0
 10
6.404761944335224
 20
-9.52499999761875
 30
0.0
 10
6.434351008184164
 20
-9.52499999761875
 30
0.0
 10
6.458100635185605
 20
-9.516010451586926
 30
0.0
 10
6.476142169604922
 20
-9.498035665892635
 30
0.0
 10
6.494119108483892
 20
-9.479991978288638
 30
0.0
 10
6.503173250056064
 20
-9.456242351287198
 30
0.0
 10
6.503173250056064
 20
-9.426653287438258
 30
0.0
 10
6.503173250056064
 20
-9.426653287438258
 30
0.0
 10
6.503173250056064
 20
-8.905862509302397
 30
0.0
 10
6.503173250056064
 20
-8.905862509302397
 30
0.0
 10
6.548114520661148
 20
-8.961169210948727
 30
0.0
 10
6.602764500980602
 20
-9.004273815023236
 30
0.0
 10
6.667060748658755
 20
-9.0351095728009
 30
0.0
 10
6.73135484315223
 20
-9.065945330578565
 30
0.0
 10
6.800833806351006
 20
-9.081428881600084
 30
0.0
 10
6.875428736345379
 20
-9.081428881600084
 30
0.0
 10
6.96800060521872
 20
-9.081428881600084
 30
0.0
 10
7.051912365316015
 20
-9.058269227200492
 30
0.0
 10
7.127099421096914
 20
-9.011949918401308
 30
0.0
 10
7.202351072418161
 20
-8.965697358327152
 30
0.0
 10
7.261462451391014
 20
-8.901730547904775
 30
0.0
 10
7.304567055465524
 20
-8.82004948713418
 30
0.0
 10
7.347604910815008
 20
-8.738433021903933
 30
0.0
 10
7.369190587214776
 20
-8.647435131030415
 30
0.0
 10
7.369190587214776
 20
-8.547122563238652
 30
0.0
 10
7.369190587214776
 20
-8.446807842262212
 30
0.0
 10
7.346030932815184
 20
-8.355876700113722
 30
0.0
 10
7.299711624016
 20
-8.274195639343127
 30
0.0
 10
7.253459063941843
 20
-8.192581327297557
 30
0.0
 10
7.18942550479444
 20
-8.128285079619404
 30
0.0
 10
7.107811192748871
 20
-8.081311202678023
 30
0.0
  0
SPLINE
  5
66
330
41
100
AcDbEntity
  8
Capa 1
370
     0
100
AcDbSpline
210
0.0
220
0.0
230
1.0
 70
    11
 71
     3
 72
    41
 73
    37
 74
     0
 42
0.0000000001
 43
0.0000000001
 12
1.0
 22
0.0
 32
0.0
 13
1.0
 23
0.0
 33
0.0
 40
0.0
 40
0.0
 40
0.0
 40
0.0
 40
1.0
 40
1.0
 40
1.0
 40
2.0
 40
2.0
 40
2.0
 40
3.0
 40
3.0
 40
3.0
 40
4.0
 40
4.0
 40
4.0
 40
5.0
 40
5.0
 40
5.0
 40
6.0
 40
6.0
 40
6.0
 40
7.0
 40
7.0
 40
7.0
 40
8.0
 40
8.0
 40
8.0
 40
9.0
 40
9.0
 40
9.0
 40
10.0
 40
10.0
 40
10.0
 40
11.0
 40
11.0
 40
11.0
 40
12.0
 40
12.0
 40
12.0
 40
12.0
 10
7.134840120015334
 20
-8.731346891127709
 30
0.0
 10
7.104596488024198
 20
-8.785999024631842
 30
0.0
 10
7.063459894745637
 20
-8.829036879981325
 30
0.0
 10
7.01136789782398
 20
-8.860529359085865
 30
0.0
 10
6.959275900902325
 20
-8.892086433730753
 30
0.0
 10
6.90108177860242
 20
-8.907830520098345
 30
0.0
 10
6.836852279649293
 20
-8.907830520098345
 30
0.0
 10
6.772491436430792
 20
-8.907830520098345
 30
0.0
 10
6.714364062855914
 20
-8.892086433730753
 30
0.0
 10
6.662272065934258
 20
-8.860529359085865
 30
0.0
 10
6.610177915827924
 20
-8.829036879981325
 30
0.0
 10
6.56937075980514
 20
-8.785999024631842
 30
0.0
 10
6.5397816959562
 20
-8.731346891127709
 30
0.0
 10
6.510192632107261
 20
-8.676696910808255
 30
0.0
 10
6.495432551137643
 20
-8.615288083783676
 30
0.0
 10
6.495432551137643
 20
-8.547122563238652
 30
0.0
 10
6.495432551137643
 20
-8.479021638233977
 30
0.0
 10
6.510192632107261
 20
-8.417285527138299
 30
0.0
 10
6.5397816959562
 20
-8.36197882549197
 30
0.0
 10
6.56937075980514
 20
-8.30667212384564
 30
0.0
 10
6.610177915827924
 20
-8.26330483124038
 30
0.0
 10
6.662272065934258
 20
-8.23174775659549
 30
0.0
 10
6.714364062855914
 20
-8.200255277490951
 30
0.0
 10
6.772491436430792
 20
-8.18451119112336
 30
0.0
 10
6.836852279649293
 20
-8.18451119112336
 30
0.0
 10
6.90108177860242
 20
-8.18451119112336
 30
0.0
 10
6.959275900902325
 20
-8.200255277490951
 30
0.0
 10
7.01136789782398
 20
-8.23174775659549
 30
0.0
 10
7.063459894745637
 20
-8.26330483124038
 30
0.0
 10
7.104596488024198
 20
-8.30667212384564
 30
0.0
 10
7.134840120015334
 20
-8.36197882549197
 30
0.0
 10
7.165019156466123
 20
-8.417285527138299
 30
0.0
 10
7.180175423416544
 20
-8.479021638233977
 30
0.0
 10
7.180175423416544
 20
-8.547122563238652
 30
0.0
 10
7.180175423416544
 20
-8.615288083783676
 30
0.0
 10
7.165019156466123
 20
-8.676696910808255
 30
0.0
 10
7.134840120015334
 20
-8.731346891127709
 30
0.0
  0
HATCH
  5
67
330
41
100
AcDbEntity
  8
Capa 1
 62
   178
420
   262150
100
AcDbHatch
 10
0.0
 20
0.0
 30
0.0
210
0.0
220
0.0
230
1.0
  2
SOLID
 70
     1
 71
     0
 91
        2
 92
        1
 93
        1
 72
     4
 94
        3
 73
     0
 74
     1
 95
       56
 96
       52
 40
0.0
 40
0.0
 40
0.0
 40
0.0
 40
1.0
 40
1.0
 40
1.0
 40
2.0
 40
2.0
 40
2.0
 40
3.0
 40
3.0
 40
3.0
 40
4.0
 40
4.0
 40
4.0
 40
5.0
 40
5.0
 40
5.0
 40
6.0
 40
6.0
 40
6.0
 40
7.0
 40
7.0
 40
7.0
 40
8.0
 40
8.0
 40
8.0
 40
9.0
 40
9.0
 40
9.0
 40
10.0
 40
10.0
 40
10.0
 40
11.0
 40
11.0
 40
11.0
 40
12.0
 40
12.0
 40
12.0
 40
13.0
 40
13.0
 40
13.0
 40
14.0
 40
14.0
 40
14.0
 40
15.0
 40
15.0
 40
15.0
 40
16.0
 40
16.0
 40
16.0
 40
17.0
 40
17.0
 40
17.0
 40
17.0
 10
7.107811192748871
 20
-8.081311202678023
 10
7.026130131978276
 20
-8.03440192127699
 10
6.935853557971982
 20
-8.01091282962162
 10
6.836852279649293
 20
-8.01091282962162
 10
6.737784252601577
 20
-8.01091282962162
 10
6.648099804381811
 20
-8.03440192127699
 10
6.567730033080289
 20
-8.081311202678023
 10
6.487362414963445
 20
-8.128285079619404
 10
6.423722888612168
 20
-8.192581327297557
 10
6.376813607211135
 20
-8.274195639343127
 10
6.329839730269753
 20
-8.355876700113722
 10
6.306417387339411
 20
-8.446807842262212
 10
6.306417387339411
 20
-8.547122563238652
 10
6.306417387339411
 20
-8.547122563238652
 10
6.306417387339411
 20
-9.426653287438258
 10
6.306417387339411
 20
-9.426653287438258
 10
6.306417387339411
 20
-9.456242351287198
 10
6.315732064257655
 20
-9.479991978288638
 10
6.3343657244635
 20
-9.498035665892635
 10
6.352997231484667
 20
-9.516010451586926
 10
6.376486323140036
 20
-9.52499999761875
 10
6.404761944335224
 20
-9.52499999761875
 10
6.434351008184164
 20
-9.52499999761875
 10
6.458100635185605
 20
-9.516010451586926
 10
6.476142169604922
 20
-9.498035665892635
 10
6.494119108483892
 20
-9.479991978288638
 10
6.503173250056064
 20
-9.456242351287198
 10
6.503173250056064
 20
-9.426653287438258
 10
6.503173250056064
 20
-9.426653287438258
 10
6.503173250056064
 20
-8.905862509302397
 10
6.503173250056064
 20
-8.905862509302397
 10
6.548114520661148
 20
-8.961169210948727
 10
6.602764500980602
 20
-9.004273815023236
 10
6.667060748658755
 20
-9.0351095728009
 10
6.73135484315223
 20
-9.065945330578565
 10
6.800833806351006
 20
-9.081428881600084
 10
6.875428736345379
 20
-9.081428881600084
 10
6.96800060521872
 20
-9.081428881600084
 10
7.051912365316015
 20
-9.058269227200492
 10
7.127099421096914
 20
-9.011949918401308
 10
7.202351072418161
 20
-8.965697358327152
 10
7.261462451391014
 20
-8.901730547904775
 10
7.304567055465524
 20
-8.82004948713418
 10
7.347604910815008
 20
-8.738433021903933
 10
7.369190587214776
 20
-8.647435131030415
 10
7.369190587214776
 20
-8.547122563238652
 10
7.369190587214776
 20
-8.446807842262212
 10
7.346030932815184
 20
-8.355876700113722
 10
7.299711624016
 20
-8.274195639343127
 10
7.253459063941843
 20
-8.192581327297557
 10
7.18942550479444
 20
-8.128285079619404
 10
7.107811192748871
 20
-8.081311202678023
 97
        0
 97
        0
 92
        1
 93
        1
 72
     4
 94
        3
 73
     0
 74
     1
 95
       41
 96
       37
 40
0.0
 40
0.0
 40
0.0
 40
0.0
 40
1.0
 40
1.0
 40
1.0
 40
2.0
 40
2.0
 40
2.0
 40
3.0
 40
3.0
 40
3.0
 40
4.0
 40
4.0
 40
4.0
 40
5.0
 40
5.0
 40
5.0
 40
6.0
 40
6.0
 40
6.0
 40
7.0
 40
7.0
 40
7.0
 40
8.0
 40
8.0
 40
8.0
 40
9.0
 40
9.0
 40
9.0
 40
10.0
 40
10.0
 40
10.0
 40
11.0
 40
11.0
 40
11.0
 40
12.0
 40
12.0
 40
12.0
 40
12.0
 10
7.134840120015334
 20
-8.731346891127709
 10
7.104596488024198
 20
-8.785999024631842
 10
7.063459894745637
 20
-8.829036879981325
 10
7.01136789782398
 20
-8.860529359085865
 10
6.959275900902325
 20
-8.892086433730753
 10
6.90108177860242
 20
-8.907830520098345
 10
6.836852279649293
 20
-8.907830520098345
 10
6.772491436430792
 20
-8.907830520098345
 10
6.714364062855914
 20
-8.892086433730753
 10
6.662272065934258
 20
-8.860529359085865
 10
6.610177915827924
 20
-8.829036879981325
 10
6.56937075980514
 20
-8.785999024631842
 10
6.5397816959562
 20
-8.731346891127709
 10
6.510192632107261
 20
-8.676696910808255
 10
6.495432551137643
 20
-8.615288083783676
 10
6.495432551137643
 20
-8.547122563238652
 10
6.495432551137643
 20
-8.479021638233977
 10
6.510192632107261
 20
-8.417285527138299
 10
6.5397816959562
 20
-8.36197882549197
 10
6.56937075980514
 20
-8.30667212384564
 10
6.610177915827924
 20
-8.26330483124038
 10
6.662272065934258
 20
-8.23174775659549
 10
6.714364062855914
 20
-8.200255277490951
 10
6.772491436430792
 20
-8.18451119112336
 10
6.836852279649293
 20
-8.18451119112336
 10
6.90108177860242
 20
-8.18451119112336
 10
6.959275900902325
 20
-8.200255277490951
 10
7.01136789782398
 20
-8.23174775659549
 10
7.063459894745637
 20
-8.26330483124038
 10
7.104596488024198
 20
-8.30667212384564
 10
7.134840120015334
 20
-8.36197882549197
 10
7.165019156466123
 20
-8.417285527138299
 10
7.180175423416544
 20
-8.479021638233977
 10
7.180175423416544
 20
-8.547122563238652
 10
7.180175423416544
 20
-8.615288083783676
 10
7.165019156466123
 20
-8.676696910808255
 10
7.134840120015334
 20
-8.731346891127709
 97
        0
 97
        0
 75
     2
 76
     1
 98
        0
  0
SPLINE
  5
68
330
41
100
AcDbEntity
  8
Capa 1
370
     0
100
AcDbSpline
210
0.0
220
0.0
230
1.0
 70
    11
 71
     3
 72
    35
 73
    31
 74
     0
 42
0.0000000001
 43
0.0000000001
 12
1.0
 22
0.0
 32
0.0
 13
1.0
 23
0.0
 33
0.0
 40
0.0
 40
0.0
 40
0.0
 40
0.0
 40
1.0
 40
1.0
 40
1.0
 40
2.0
 40
2.0
 40
2.0
 40
3.0
 40
3.0
 40
3.0
 40
4.0
 40
4.0
 40
4.0
 40
5.0
 40
5.0
 40
5.0
 40
6.0
 40
6.0
 40
6.0
 40
7.0
 40
7.0
 40
7.0
 40
8.0
 40
8.0
 40
8.0
 40
9.0
 40
9.0
 40
9.0
 40
10.0
 40
10.0
 40
10.0
 40
10.0
 10
7.718221823564151
 20
-8.716847345504164
 30
0.0
 10
7.74393946136154
 20
-8.716847345504164
 30
0.0
 10
7.766769678505356
 20
-8.707203231330142
 30
0.0
 10
7.786714628180274
 20
-8.6879150029821
 30
0.0
 10
7.806659577855192
 20
-8.668626774634058
 30
0.0
 10
7.816630976100313
 20
-8.645467120234466
 30
0.0
 10
7.816630976100313
 20
-8.618502788508351
 30
0.0
 10
7.816630976100313
 20
-8.618502788508351
 30
0.0
 10
7.816630976100313
 20
-7.667589685854369
 30
0.0
 10
7.816630976100313
 20
-7.667589685854369
 30
0.0
 10
7.816630976100313
 20
-7.639314064659182
 30
0.0
 10
7.807249550457041
 20
-7.61556443765774
 30
0.0
 10
7.788682638976223
 20
-7.596276209309698
 30
0.0
 10
7.769984383230029
 20
-7.576985827776977
 30
0.0
 10
7.746497444759338
 20
-7.567341713602955
 30
0.0
 10
7.718221823564151
 20
-7.567341713602955
 30
0.0
 10
7.689944049184284
 20
-7.567341713602955
 30
0.0
 10
7.666457110713593
 20
-7.576985827776977
 30
0.0
 10
7.647823450507748
 20
-7.596276209309698
 30
0.0
 10
7.629191943486582
 20
-7.61556443765774
 30
0.0
 10
7.619875113383659
 20
-7.639314064659182
 30
0.0
 10
7.619875113383659
 20
-7.667589685854369
 30
0.0
 10
7.619875113383659
 20
-7.667589685854369
 30
0.0
 10
7.619875113383659
 20
-8.618502788508351
 30
0.0
 10
7.619875113383659
 20
-8.618502788508351
 30
0.0
 10
7.619875113383659
 20
-8.645467120234466
 30
0.0
 10
7.62951922755768
 20
-8.668626774634058
 30
0.0
 10
7.648807455905723
 20
-8.6879150029821
 30
0.0
 10
7.668097837438443
 20
-8.707203231330142
 30
0.0
 10
7.691255338653358
 20
-8.716847345504164
 30
0.0
 10
7.718221823564151
 20
-8.716847345504164
 30
0.0
  0
HATCH
  5
69
330
41
100
AcDbEntity
  8
Capa 1
 62
   178
420
   262150
100
AcDbHatch
 10
0.0
 20
0.0
 30
0.0
210
0.0
220
0.0
230
1.0
  2
SOLID
 70
     1
 71
     0
 91
        1
 92
        1
 93
        1
 72
     4
 94
        3
 73
     0
 74
     1
 95
       35
 96
       31
 40
0.0
 40
0.0
 40
0.0
 40
0.0
 40
1.0
 40
1.0
 40
1.0
 40
2.0
 40
2.0
 40
2.0
 40
3.0
 40
3.0
 40
3.0
 40
4.0
 40
4.0
 40
4.0
 40
5.0
 40
5.0
 40
5.0
 40
6.0
 40
6.0
 40
6.0
 40
7.0
 40
7.0
 40
7.0
 40
8.0
 40
8.0
 40
8.0
 40
9.0
 40
9.0
 40
9.0
 40
10.0
 40
10.0
 40
10.0
 40
10.0
 10
7.718221823564151
 20
-8.716847345504164
 10
7.74393946136154
 20
-8.716847345504164
 10
7.766769678505356
 20
-8.707203231330142
 10
7.786714628180274
 20
-8.6879150029821
 10
7.806659577855192
 20
-8.668626774634058
 10
7.816630976100313
 20
-8.645467120234466
 10
7.816630976100313
 20
-8.618502788508351
 10
7.816630976100313
 20
-8.618502788508351
 10
7.816630976100313
 20
-7.667589685854369
 10
7.816630976100313
 20
-7.667589685854369
 10
7.816630976100313
 20
-7.639314064659182
 10
7.807249550457041
 20
-7.61556443765774
 10
7.788682638976223
 20
-7.596276209309698
 10
7.769984383230029
 20
-7.576985827776977
 10
7.746497444759338
 20
-7.567341713602955
 10
7.718221823564151
 20
-7.567341713602955
 10
7.689944049184284
 20
-7.567341713602955
 10
7.666457110713593
 20
-7.576985827776977
 10
7.647823450507748
 20
-7.596276209309698
 10
7.629191943486582
 20
-7.61556443765774
 10
7.619875113383659
 20
-7.639314064659182
 10
7.619875113383659
 20
-7.667589685854369
 10
7.619875113383659
 20
-7.667589685854369
 10
7.619875113383659
 20
-8.618502788508351
 10
7.619875113383659
 20
-8.618502788508351
 10
7.619875113383659
 20
-8.645467120234466
 10
7.62951922755768
 20
-8.668626774634058
 10
7.648807455905723
 20
-8.6879150029821
 10
7.668097837438443
 20
-8.707203231330142
 10
7.691255338653358
 20
-8.716847345504164
 10
7.718221823564151
 20
-8.716847345504164
 97
        0
 97
        0
 75
     2
 76
     1
 98
        0
  0
SPLINE
  5
6A
330
41
100
AcDbEntity
  8
Capa 1
370
     0
100
AcDbSpline
210
0.0
220
0.0
230
1.0
 70
    11
 71
     3
 72
    29
 73
    25
 74
     0
 42
0.0000000001
 43
0.0000000001
 12
1.0
 22
0.0
 32
0.0
 13
1.0
 23
0.0
 33
0.0
 40
0.0
 40
0.0
 40
0.0
 40
0.0
 40
1.0
 40
1.0
 40
1.0
 40
2.0
 40
2.0
 40
2.0
 40
3.0
 40
3.0
 40
3.0
 40
4.0
 40
4.0
 40
4.0
 40
5.0
 40
5.0
 40
5.0
 40
6.0
 40
6.0
 40
6.0
 40
7.0
 40
7.0
 40
7.0
 40
8.0
 40
8.0
 40
8.0
 40
8.0
 10
7.718221823564151
 20
-8.805614537050984
 30
0.0
 10
7.682267945806212
 20
-8.805614537050984
 30
0.0
 10
7.651038155232422
 20
-8.818802793205455
 30
0.0
 10
7.624730544833183
 20
-8.845110403604695
 30
0.0
 10
7.598356185708917
 20
-8.87148476272896
 30
0.0
 10
7.585170082739124
 20
-8.903304525904598
 30
0.0
 10
7.585170082739124
 20
-8.94056969313161
 30
0.0
 10
7.585170082739124
 20
-8.97789945589897
 30
0.0
 10
7.598356185708917
 20
-9.00939193500351
 30
0.0
 10
7.624730544833183
 20
-9.0351095728009
 30
0.0
 10
7.651038155232422
 20
-9.06082721059829
 30
0.0
 10
7.682267945806212
 20
-9.073686029496987
 30
0.0
 10
7.718221823564151
 20
-9.073686029496987
 30
0.0
 10
7.754240296862438
 20
-9.073686029496987
 30
0.0
 10
7.785403338711201
 20
-9.06082721059829
 30
0.0
 10
7.811777697835466
 20
-9.0351095728009
 30
0.0
 10
7.838152056959732
 20
-9.00939193500351
 30
0.0
 10
7.851338159929526
 20
-8.97789945589897
 30
0.0
 10
7.851338159929526
 20
-8.94056969313161
 30
0.0
 10
7.851338159929526
 20
-8.903304525904598
 30
0.0
 10
7.838152056959732
 20
-8.87148476272896
 30
0.0
 10
7.811777697835466
 20
-8.845110403604695
 30
0.0
 10
7.785403338711201
 20
-8.818802793205455
 30
0.0
 10
7.754240296862438
 20
-8.805614537050984
 30
0.0
 10
7.718221823564151
 20
-8.805614537050984
 30
0.0
  0
HATCH
  5
6B
330
41
100
AcDbEntity
  8
Capa 1
 62
   178
420
   262150
100
AcDbHatch
 10
0.0
 20
0.0
 30
0.0
210
0.0
220
0.0
230
1.0
  2
SOLID
 70
     1
 71
     0
 91
        1
 92
        1
 93
        1
 72
     4
 94
        3
 73
     0
 74
     1
 95
       29
 96
       25
 40
0.0
 40
0.0
 40
0.0
 40
0.0
 40
1.0
 40
1.0
 40
1.0
 40
2.0
 40
2.0
 40
2.0
 40
3.0
 40
3.0
 40
3.0
 40
4.0
 40
4.0
 40
4.0
 40
5.0
 40
5.0
 40
5.0
 40
6.0
 40
6.0
 40
6.0
 40
7.0
 40
7.0
 40
7.0
 40
8.0
 40
8.0
 40
8.0
 40
8.0
 10
7.718221823564151
 20
-8.805614537050984
 10
7.682267945806212
 20
-8.805614537050984
 10
7.651038155232422
 20
-8.818802793205455
 10
7.624730544833183
 20
-8.845110403604695
 10
7.598356185708917
 20
-8.87148476272896
 10
7.585170082739124
 20
-8.903304525904598
 10
7.585170082739124
 20
-8.94056969313161
 10
7.585170082739124
 20
-8.97789945589897
 10
7.598356185708917
 20
-9.00939193500351
 10
7.624730544833183
 20
-9.0351095728009
 10
7.651038155232422
 20
-9.06082721059829
 10
7.682267945806212
 20
-9.073686029496987
 10
7.718221823564151
 20
-9.073686029496987
 10
7.754240296862438
 20
-9.073686029496987
 10
7.785403338711201
 20
-9.06082721059829
 10
7.811777697835466
 20
-9.0351095728009
 10
7.838152056959732
 20
-9.00939193500351
 10
7.851338159929526
 20
-8.97789945589897
 10
7.851338159929526
 20
-8.94056969313161
 10
7.851338159929526
 20
-8.903304525904598
 10
7.838152056959732
 20
-8.87148476272896
 10
7.811777697835466
 20
-8.845110403604695
 10
7.785403338711201
 20
-8.818802793205455
 10
7.754240296862438
 20
-8.805614537050984
 10
7.718221823564151
 20
-8.805614537050984
 97
        0
 97
        0
 75
     2
 76
     1
 98
        0
  0
ENDBLK
  5
44
330
41
100
AcDbEntity
  8
0
100
AcDbBlockEnd
  0
ENDSEC
  0
SECTION
  2
ENTITIES
  0
INSERT
  5
42
330
1F
100
AcDbEntity
  8
Capa 1
100
AcDbBlockReference
  2
block 2
 10
0.0
 20
0.0
 30
0.0
  0
ENDSEC
  0
SECTION
  2
OBJECTS
  0
DICTIONARY
  5
C
330
0
100
AcDbDictionary
281
     1
  3
ACAD_GROUP
350
D
  3
ACAD_LAYOUT
350
1A
  3
ACAD_MATERIAL
350
3B
  3
ACAD_MLEADERSTYLE
350
6D
  3
ACAD_MLINESTYLE
350
17
  3
ACAD_PLOTSETTINGS
350
19
  3
ACAD_PLOTSTYLENAME
350
E
  3
ACAD_TABLESTYLE
350
6C
  3
ACAD_VISUALSTYLE
350
2A
  0
SUN
  5
3F
330
29
100
AcDbSun
 90
        1
290
     0
 63
     7
421
 16777215
 40
1.0
291
     1
 91
  2455826
 92
 54000000
292
     0
 70
     2
 71
   256
280
     1
  0
DICTIONARY
  5
D
102
{ACAD_REACTORS
330
C
102
}
330
C
100
AcDbDictionary
281
     1
  0
DICTIONARY
  5
1A
102
{ACAD_REACTORS
330
C
102
}
330
C
100
AcDbDictionary
281
     1
  3
Layout1
350
1E
  3
Layout2
350
26
  3
Model
350
22
  0
DICTIONARY
  5
3B
102
{ACAD_REACTORS
330
C
102
}
330
C
100
AcDbDictionary
281
     1
  3
ByBlock
350
3D
  3
ByLayer
350
3C
  3
Global
350
3E
  0
DICTIONARY
  5
6D
102
{ACAD_REACTORS
330
C
102
}
330
C
100
AcDbDictionary
281
     1
  0
DICTIONARY
  5
17
102
{ACAD_REACTORS
330
C
102
}
330
C
100
AcDbDictionary
281
     1
  3
Standard
350
18
  0
DICTIONARY
  5
19
102
{ACAD_REACTORS
330
C
102
}
330
C
100
AcDbDictionary
281
     1
  0
ACDBDICTIONARYWDFLT
  5
E
102
{ACAD_REACTORS
330
C
102
}
330
C
100
AcDbDictionary
281
     1
  3
Normal
350
F
100
AcDbDictionaryWithDefault
340
F
  0
DICTIONARY
  5
6C
102
{ACAD_REACTORS
330
C
102
}
330
C
100
AcDbDictionary
281
     1
  0
DICTIONARY
  5
2A
102
{ACAD_REACTORS
330
C
102
}
330
C
100
AcDbDictionary
281
     1
  3
2dWireframe
350
2F
  3
3D Hidden
350
31
  3
3dWireframe
350
30
  3
Basic
350
32
  3
Brighten
350
36
  3
ColorChange
350
3A
  3
Conceptual
350
34
  3
Dim
350
35
  3
Facepattern
350
39
  3
Flat
350
2B
  3
FlatWithEdges
350
2C
  3
Gouraud
350
2D
  3
GouraudWithEdges
350
2E
  3
Linepattern
350
38
  3
Realistic
350
33
  3
Thicken
350
37
  0
LAYOUT
  5
1E
102
{ACAD_REACTORS
330
1A
102
}
330
1A
100
AcDbPlotSettings
  1

  2
none_device
  4

  6

 40
0.0
 41
0.0
 42
0.0
 43
0.0
 44
0.0
 45
0.0
 46
0.0
 47
0.0
 48
0.0
 49
0.0
140
0.0
141
0.0
142
1.0
143
1.0
 70
   688
 72
     0
 73
     0
 74
     5
  7

 75
    16
 76
     0
 77
     2
 78
   300
147
1.0
148
0.0
149
0.0
100
AcDbLayout
  1
Layout1
 70
     1
 71
     1
 10
0.0
 20
0.0
 11
12.0
 21
9.0
 12
0.0
 22
0.0
 32
0.0
 14
1.000000000000000E+20
 24
1.000000000000000E+20
 34
1.000000000000000E+20
 15
-1.000000000000000E+20
 25
-1.000000000000000E+20
 35
-1.000000000000000E+20
146
0.0
 13
0.0
 23
0.0
 33
0.0
 16
1.0
 26
0.0
 36
0.0
 17
0.0
 27
1.0
 37
0.0
 76
     0
330
1B
  0
LAYOUT
  5
26
102
{ACAD_REACTORS
330
1A
102
}
330
1A
100
AcDbPlotSettings
  1

  2
none_device
  4

  6

 40
0.0
 41
0.0
 42
0.0
 43
0.0
 44
0.0
 45
0.0
 46
0.0
 47
0.0
 48
0.0
 49
0.0
140
0.0
141
0.0
142
1.0
143
1.0
 70
   688
 72
     0
 73
     0
 74
     5
  7

 75
    16
 76
     0
 77
     2
 78
   300
147
1.0
148
0.0
149
0.0
100
AcDbLayout
  1
Layout2
 70
     1
 71
     2
 10
0.0
 20
0.0
 11
0.0
 21
0.0
 12
0.0
 22
0.0
 32
0.0
 14
0.0
 24
0.0
 34
0.0
 15
0.0
 25
0.0
 35
0.0
146
0.0
 13
0.0
 23
0.0
 33
0.0
 16
1.0
 26
0.0
 36
0.0
 17
0.0
 27
1.0
 37
0.0
 76
     0
330
23
  0
LAYOUT
  5
22
102
{ACAD_REACTORS
330
1A
102
}
330
1A
100
AcDbPlotSettings
  1

  2
none_device
  4

  6

 40
0.0
 41
0.0
 42
0.0
 43
0.0
 44
0.0
 45
0.0
 46
0.0
 47
0.0
 48
0.0
 49
0.0
140
0.0
141
0.0
142
1.0
143
1.0
 70
  1712
 72
     0
 73
     0
 74
     0
  7

 75
     0
 76
     0
 77
     2
 78
   300
147
1.0
148
0.0
149
0.0
100
AcDbLayout
  1
Model
 70
     1
 71
     0
 10
0.0
 20
0.0
 11
12.0
 21
9.0
 12
0.0
 22
0.0
 32
0.0
 14
1.000000000000000E+20
 24
1.000000000000000E+20
 34
1.000000000000000E+20
 15
-1.000000000000000E+20
 25
-1.000000000000000E+20
 35
-1.000000000000000E+20
146
0.0
 13
0.0
 23
0.0
 33
0.0
 16
1.0
 26
0.0
 36
0.0
 17
0.0
 27
1.0
 37
0.0
 76
     0
330
1F
331
29
  0
MATERIAL
  5
3D
102
{ACAD_REACTORS
330
3B
102
}
330
3B
100
AcDbMaterial
  1
ByBlock
 72
     1
 94
      127
  0
MATERIAL
  5
3C
102
{ACAD_REACTORS
330
3B
102
}
330
3B
100
AcDbMaterial
  1
ByLayer
 72
     1
 94
      127
  0
MATERIAL
  5
3E
102
{ACAD_REACTORS
330
3B
102
}
330
3B
100
AcDbMaterial
  1
Global
 72
     1
 94
      127
  0
MLINESTYLE
  5
18
102
{ACAD_REACTORS
330
17
102
}
330
17
100
AcDbMlineStyle
  2
Standard
 70
     0
  3

 62
   256
 51
90.0
 52
90.0
 71
     2
 49
0.5
 62
   256
  6
BYLAYER
 49
-0.5
 62
   256
  6
BYLAYER
  0
ACDBPLACEHOLDER
  5
F
102
{ACAD_REACTORS
330
E
102
}
330
E
  0
VISUALSTYLE
  5
2F
102
{ACAD_REACTORS
330
2A
102
}
330
2A
100
AcDbVisualStyle
  2
2dWireframe
 70
     4
177
     2
291
     0
 71
     0
176
     1
 72
     2
176
     1
 73
     0
176
     1
 90
        0
176
     1
 40
-0.6
176
     1
 41
-30.0
176
     1
 62
     5
 63
     7
421
 16777215
176
     1
 74
     1
176
     1
 91
        4
176
     1
 64
     7
176
     1
 65
   257
176
     1
 75
     1
176
     1
175
     1
176
     1
 42
1.0
176
     1
 92
        0
176
     1
 66
   257
176
     1
 43
1.0
176
     1
 76
     1
176
     1
 77
     6
176
     1
 78
     2
176
     1
 67
     7
176
     1
 79
     5
176
     1
170
     0
176
     1
171
     0
176
     1
290
     0
176
     1
 93
        1
176
     1
 44
0.0
176
     1
173
     0
176
     1
  0
VISUALSTYLE
  5
31
102
{ACAD_REACTORS
330
2A
102
}
330
2A
100
AcDbVisualStyle
  2
3D Hidden
 70
     6
177
     2
291
     0
 71
     1
176
     1
 72
     2
176
     1
 73
     2
176
     1
 90
        0
176
     1
 40
-0.6
176
     1
 41
-30.0
176
     1
 62
     5
 63
     7
421
 16777215
176
     1
 74
     2
176
     1
 91
        2
176
     1
 64
     7
176
     1
 65
   257
176
     1
 75
     2
176
     1
175
     1
176
     1
 42
40.0
176
     1
 92
        0
176
     1
 66
   257
176
     1
 43
1.0
176
     1
 76
     1
176
     1
 77
     6
176
     1
 78
     2
176
     1
 67
     7
176
     1
 79
     3
176
     1
170
     0
176
     1
171
     0
176
     1
290
     0
176
     1
 93
        1
176
     1
 44
0.0
176
     1
173
     0
176
     1
  0
VISUALSTYLE
  5
30
102
{ACAD_REACTORS
330
2A
102
}
330
2A
100
AcDbVisualStyle
  2
3dWireframe
 70
     5
177
     2
291
     0
 71
     0
176
     1
 72
     2
176
     1
 73
     0
176
     1
 90
        0
176
     1
 40
-0.6
176
     1
 41
-30.0
176
     1
 62
     5
 63
     7
421
 16777215
176
     1
 74
     1
176
     1
 91
        4
176
     1
 64
     7
176
     1
 65
   257
176
     1
 75
     1
176
     1
175
     1
176
     1
 42
1.0
176
     1
 92
        0
176
     1
 66
   257
176
     1
 43
1.0
176
     1
 76
     1
176
     1
 77
     6
176
     1
 78
     2
176
     1
 67
     7
176
     1
 79
     5
176
     1
170
     0
176
     1
171
     0
176
     1
290
     0
176
     1
 93
        1
176
     1
 44
0.0
176
     1
173
     0
176
     1
  0
VISUALSTYLE
  5
32
102
{ACAD_REACTORS
330
2A
102
}
330
2A
100
AcDbVisualStyle
  2
Basic
 70
     7
177
     2
291
     1
 71
     1
176
     1
 72
     0
176
     1
 73
     1
176
     1
 90
        0
176
     1
 40
-0.6
176
     1
 41
-30.0
176
     1
 62
     5
 63
     7
421
 16777215
176
     1
 74
     0
176
     1
 91
        4
176
     1
 64
     7
176
     1
 65
   257
176
     1
 75
     1
176
     1
175
     1
176
     1
 42
1.0
176
     1
 92
        8
176
     1
 66
     7
176
     1
 43
1.0
176
     1
 76
     1
176
     1
 77
     6
176
     1
 78
     2
176
     1
 67
     7
176
     1
 79
     5
176
     1
170
     0
176
     1
171
     0
176
     1
290
     0
176
     1
 93
        1
176
     1
 44
0.0
176
     1
173
     0
176
     1
  0
VISUALSTYLE
  5
36
102
{ACAD_REACTORS
330
2A
102
}
330
2A
100
AcDbVisualStyle
  2
Brighten
 70
    12
177
     2
291
     1
 71
     2
176
     1
 72
     2
176
     1
 73
     0
176
     1
 90
        0
176
     1
 40
-0.6
176
     1
 41
-30.0
176
     1
 62
     5
 63
     7
421
 16777215
176
     1
 74
     1
176
     1
 91
        4
176
     1
 64
     7
176
     1
 65
   257
176
     1
 75
     1
176
     1
175
     1
176
     1
 42
1.0
176
     1
 92
        8
176
     1
 66
     7
176
     1
 43
1.0
176
     1
 76
     1
176
     1
 77
     6
176
     1
 78
     2
176
     1
 67
     7
176
     1
 79
     5
176
     1
170
     0
176
     1
171
     0
176
     1
290
     0
176
     1
 93
        1
176
     1
 44
50.0
176
     1
173
     0
176
     1
  0
VISUALSTYLE
  5
3A
102
{ACAD_REACTORS
330
2A
102
}
330
2A
100
AcDbVisualStyle
  2
ColorChange
 70
    16
177
     2
291
     1
 71
     2
176
     1
 72
     2
176
     1
 73
     3
176
     1
 90
        0
176
     1
 40
-0.6
176
     1
 41
-30.0
176
     1
 62
     5
 63
     8
421
  8421504
176
     1
 74
     1
176
     1
 91
        4
176
     1
 64
     7
176
     1
 65
   257
176
     1
 75
     1
176
     1
175
     1
176
     1
 42
1.0
176
     1
 92
        8
176
     1
 66
     8
424
  8421504
176
     1
 43
1.0
176
     1
 76
     1
176
     1
 77
     6
176
     1
 78
     2
176
     1
 67
     7
176
     1
 79
     5
176
     1
170
     0
176
     1
171
     0
176
     1
290
     0
176
     1
 93
        1
176
     1
 44
0.0
176
     1
173
     0
176
     1
  0
VISUALSTYLE
  5
34
102
{ACAD_REACTORS
330
2A
102
}
330
2A
100
AcDbVisualStyle
  2
Conceptual
 70
     9
177
     2
291
     0
 71
     3
176
     1
 72
     2
176
     1
 73
     0
176
     1
 90
        0
176
     1
 40
-0.6
176
     1
 41
-30.0
176
     1
 62
     5
 63
     7
421
 16777215
176
     1
 74
     2
176
     1
 91
        2
176
     1
 64
     7
176
     1
 65
   257
176
     1
 75
     1
176
     1
175
     1
176
     1
 42
40.0
176
     1
 92
        8
176
     1
 66
     7
176
     1
 43
1.0
176
     1
 76
     1
176
     1
 77
     6
176
     1
 78
     2
176
     1
 67
     7
176
     1
 79
     3
176
     1
170
     0
176
     1
171
     0
176
     1
290
     0
176
     1
 93
        1
176
     1
 44
0.0
176
     1
173
     0
176
     1
  0
VISUALSTYLE
  5
35
102
{ACAD_REACTORS
330
2A
102
}
330
2A
100
AcDbVisualStyle
  2
Dim
 70
    11
177
     2
291
     1
 71
     2
176
     1
 72
     2
176
     1
 73
     0
176
     1
 90
        0
176
     1
 40
-0.6
176
     1
 41
-30.0
176
     1
 62
     5
 63
     7
421
 16777215
176
     1
 74
     1
176
     1
 91
        4
176
     1
 64
     7
176
     1
 65
   257
176
     1
 75
     1
176
     1
175
     1
176
     1
 42
1.0
176
     1
 92
        8
176
     1
 66
     7
176
     1
 43
1.0
176
     1
 76
     1
176
     1
 77
     6
176
     1
 78
     2
176
     1
 67
     7
176
     1
 79
     5
176
     1
170
     0
176
     1
171
     0
176
     1
290
     0
176
     1
 93
        1
176
     1
 44
-50.0
176
     1
173
     0
176
     1
  0
VISUALSTYLE
  5
39
102
{ACAD_REACTORS
330
2A
102
}
330
2A
100
AcDbVisualStyle
  2
Facepattern
 70
    15
177
     2
291
     1
 71
     2
176
     1
 72
     2
176
     1
 73
     0
176
     1
 90
        0
176
     1
 40
-0.6
176
     1
 41
-30.0
176
     1
 62
     5
 63
     7
421
 16777215
176
     1
 74
     1
176
     1
 91
        4
176
     1
 64
     7
176
     1
 65
   257
176
     1
 75
     1
176
     1
175
     1
176
     1
 42
1.0
176
     1
 92
        8
176
     1
 66
     7
176
     1
 43
1.0
176
     1
 76
     1
176
     1
 77
     6
176
     1
 78
     2
176
     1
 67
     7
176
     1
 79
     5
176
     1
170
     0
176
     1
171
     0
176
     1
290
     0
176
     1
 93
        1
176
     1
 44
0.0
176
     1
173
     0
176
     1
  0
VISUALSTYLE
  5
2B
102
{ACAD_REACTORS
330
2A
102
}
330
2A
100
AcDbVisualStyle
  2
Flat
 70
     0
177
     2
291
     1
 71
     2
176
     1
 72
     1
176
     1
 73
     1
176
     1
 90
        2
176
     1
 40
-0.6
176
     1
 41
30.0
176
     1
 62
     5
 63
     7
421
 16777215
176
     1
 74
     0
176
     1
 91
        4
176
     1
 64
     7
176
     1
 65
   257
176
     1
 75
     1
176
     1
175
     1
176
     1
 42
1.0
176
     1
 92
        8
176
     1
 66
     7
176
     1
 43
1.0
176
     1
 76
     1
176
     1
 77
     6
176
     1
 78
     2
176
     1
 67
     7
176
     1
 79
     5
176
     1
170
     0
176
     1
171
     0
176
     1
290
     0
176
     1
 93
       13
176
     1
 44
0.0
176
     1
173
     0
176
     1
  0
VISUALSTYLE
  5
2C
102
{ACAD_REACTORS
330
2A
102
}
330
2A
100
AcDbVisualStyle
  2
FlatWithEdges
 70
     1
177
     2
291
     1
 71
     2
176
     1
 72
     1
176
     1
 73
     1
176
     1
 90
        2
176
     1
 40
-0.6
176
     1
 41
30.0
176
     1
 62
     5
 63
     7
421
 16777215
176
     1
 74
     1
176
     1
 91
        4
176
     1
 64
     7
176
     1
 65
   257
176
     1
 75
     1
176
     1
175
     1
176
     1
 42
1.0
176
     1
 92
        0
176
     1
 66
   257
176
     1
 43
1.0
176
     1
 76
     1
176
     1
 77
     6
176
     1
 78
     2
176
     1
 67
     7
176
     1
 79
     5
176
     1
170
     0
176
     1
171
     0
176
     1
290
     0
176
     1
 93
       13
176
     1
 44
0.0
176
     1
173
     0
176
     1
  0
VISUALSTYLE
  5
2D
102
{ACAD_REACTORS
330
2A
102
}
330
2A
100
AcDbVisualStyle
  2
Gouraud
 70
     2
177
     2
291
     1
 71
     2
176
     1
 72
     2
176
     1
 73
     1
176
     1
 90
        2
176
     1
 40
-0.6
176
     1
 41
30.0
176
     1
 62
     5
 63
     7
421
 16777215
176
     1
 74
     0
176
     1
 91
        4
176
     1
 64
     7
176
     1
 65
   257
176
     1
 75
     1
176
     1
175
     1
176
     1
 42
1.0
176
     1
 92
        0
176
     1
 66
     7
176
     1
 43
1.0
176
     1
 76
     1
176
     1
 77
     6
176
     1
 78
     2
176
     1
 67
     7
176
     1
 79
     5
176
     1
170
     0
176
     1
171
     0
176
     1
290
     0
176
     1
 93
       13
176
     1
 44
0.0
176
     1
173
     0
176
     1
  0
VISUALSTYLE
  5
2E
102
{ACAD_REACTORS
330
2A
102
}
330
2A
100
AcDbVisualStyle
  2
GouraudWithEdges
 70
     3
177
     2
291
     1
 71
     2
176
     1
 72
     2
176
     1
 73
     1
176
     1
 90
        2
176
     1
 40
-0.6
176
     1
 41
30.0
176
     1
 62
     5
 63
     7
421
 16777215
176
     1
 74
     1
176
     1
 91
        4
176
     1
 64
     7
176
     1
 65
   257
176
     1
 75
     1
176
     1
175
     1
176
     1
 42
1.0
176
     1
 92
        0
176
     1
 66
   257
176
     1
 43
1.0
176
     1
 76
     1
176
     1
 77
     6
176
     1
 78
     2
176
     1
 67
     7
176
     1
 79
     5
176
     1
170
     0
176
     1
171
     0
176
     1
290
     0
176
     1
 93
       13
176
     1
 44
0.0
176
     1
173
     0
176
     1
  0
VISUALSTYLE
  5
38
102
{ACAD_REACTORS
330
2A
102
}
330
2A
100
AcDbVisualStyle
  2
Linepattern
 70
    14
177
     2
291
     1
 71
     2
176
     1
 72
     2
176
     1
 73
     0
176
     1
 90
        0
176
     1
 40
-0.6
176
     1
 41
-30.0
176
     1
 62
     5
 63
     7
421
 16777215
176
     1
 74
     1
176
     1
 91
        4
176
     1
 64
     7
176
     1
 65
   257
176
     1
 75
     7
176
     1
175
     7
176
     1
 42
1.0
176
     1
 92
        8
176
     1
 66
     7
176
     1
 43
1.0
176
     1
 76
     1
176
     1
 77
     6
176
     1
 78
     2
176
     1
 67
     7
176
     1
 79
     5
176
     1
170
     0
176
     1
171
     0
176
     1
290
     0
176
     1
 93
        1
176
     1
 44
0.0
176
     1
173
     0
176
     1
  0
VISUALSTYLE
  5
33
102
{ACAD_REACTORS
330
2A
102
}
330
2A
100
AcDbVisualStyle
  2
Realistic
 70
     8
177
     2
291
     0
 71
     2
176
     1
 72
     2
176
     1
 73
     0
176
     1
 90
        0
176
     1
 40
-0.6
176
     1
 41
-30.0
176
     1
 62
     5
 63
     7
421
 16777215
176
     1
 74
     1
176
     1
 91
        0
176
     1
 64
     7
176
     1
 65
   257
176
     1
 75
     1
176
     1
175
     1
176
     1
 42
1.0
176
     1
 92
        8
176
     1
 66
     8
424
  7895160
176
     1
 43
1.0
176
     1
 76
     1
176
     1
 77
     6
176
     1
 78
     2
176
     1
 67
     7
176
     1
 79
     5
176
     1
170
     0
176
     1
171
     0
176
     1
290
     0
176
     1
 93
       13
176
     1
 44
0.0
176
     1
173
     0
176
     1
  0
VISUALSTYLE
  5
37
102
{ACAD_REACTORS
330
2A
102
}
330
2A
100
AcDbVisualStyle
  2
Thicken
 70
    13
177
     2
291
     1
 71
     2
176
     1
 72
     2
176
     1
 73
     0
176
     1
 90
        0
176
     1
 40
-0.6
176
     1
 41
-30.0
176
     1
 62
     5
 63
     7
421
 16777215
176
     1
 74
     1
176
     1
 91
        4
176
     1
 64
     7
176
     1
 65
   257
176
     1
 75
     1
176
     1
175
     1
176
     1
 42
1.0
176
     1
 92
       12
176
     1
 66
     7
176
     1
 43
1.0
176
     1
 76
     1
176
     1
 77
     6
176
     1
 78
     2
176
     1
 67
     7
176
     1
 79
     5
176
     1
170
     0
176
     1
171
     0
176
     1
290
     0
176
     1
 93
        1
176
     1
 44
0.0
176
     1
173
     0
176
     1
  0
ENDSEC
  0
EOF
