999
dxfrw 0.6.3
  0
SECTION
  2
HEADER
  9
$ACADVER
  1
AC1021
  9
$DWGCODEPAGE
  3
ANSI_1252
  9
$INSBASE
 10
0
 20
0
 30
0
  9
$EXTMIN
 10
181.3920874326137
 20
47.95599223855977
 30
0
  9
$EXTMAX
 10
274.3944687724854
 20
264.8053696641084
 30
0
  9
$LIMMIN
 10
0
 20
0
  9
$LIMMAX
 10
420
 20
297
  9
$ORTHOMODE
 70
    0
  9
$REGENMODE
 70
    1
  9
$FILLMODE
 70
    1
  9
$QTEXTMODE
 70
    0
  9
$MIRRTEXT
 70
    0
  9
$LTSCALE
 40
1
  9
$ATTMODE
 70
    1
  9
$TEXTSIZE
 40
0.2
  9
$TRACEWID
 40
0.05
  9
$TEXTSTYLE
  7
Standard
  9
$CLAYER
  8
0
  9
$CELTYPE
  6
ByLayer
  9
$CECOLOR
 62
  256
  9
$CELTSCALE
 40
1
  9
$DISPSILH
 70
    0
  9
$DIMSCALE
 40
1
  9
$DIMASZ
 40
1.799999999999999
  9
$DIMEXO
 40
0.0625
  9
$DIMDLI
 40
0.38
  9
$DIMRND
 40
0
  9
$DIMDLE
 40
0
  9
$DIMEXE
 40
0.18
  9
$DIMTP
 40
0
  9
$DIMTM
 40
0
  9
$DIMTXT
 40
1.799999999999999
  9
$DIMCEN
 40
0.09
  9
$DIMTSZ
 40
0
  9
$DIMTOL
 70
    0
  9
$DIMLIM
 70
    0
  9
$DIMTIH
 70
    1
  9
$DIMTOH
 70
    1
  9
$DIMSE1
 70
    0
  9
$DIMSE2
 70
    0
  9
$DIMTAD
 70
    0
  9
$DIMZIN
 70
    0
  9
$DIMBLK
  1

  9
$DIMASO
 70
    1
  9
$DIMSHO
 70
    1
  9
$DIMPOST
  1

  9
$DIMAPOST
  1

  9
$DIMALT
 70
    0
  9
$DIMALTD
 70
    2
  9
$DIMALTF
 40
25.4
  9
$DIMLFAC
 40
1
  9
$DIMTOFL
 70
    0
  9
$DIMTVP
 40
0
  9
$DIMTIX
 70
    0
  9
$DIMSOXD
 70
    0
  9
$DIMSAH
 70
    0
  9
$DIMBLK1
  1

  9
$DIMBLK2
  1

  9
$DIMSTYLE
  2
Standard
  9
$DIMCLRD
 70
    0
  9
$DIMCLRE
 70
    0
  9
$DIMCLRT
 70
    0
  9
$DIMTFAC
 40
1
  9
$DIMGAP
 40
0.09
  9
$DIMJUST
 70
    0
  9
$DIMSD1
 70
    0
  9
$DIMSD2
 70
    0
  9
$DIMTOLJ
 70
    1
  9
$DIMTZIN
 70
    0
  9
$DIMALTZ
 70
    0
  9
$DIMALTTZ
 70
    0
  9
$DIMUPT
 70
    0
  9
$DIMDEC
 70
    4
  9
$DIMTDEC
 70
    4
  9
$DIMALTU
 70
    2
  9
$DIMALTTD
 70
    2
  9
$DIMTXSTY
  7
Standard
  9
$DIMAUNIT
 70
    0
  9
$DIMADEC
 70
    0
  9
$DIMALTRND
 40
0
  9
$DIMAZIN
 70
    0
  9
$DIMDSEP
 70
   46
  9
$DIMATFIT
 70
    3
  9
$DIMFRAC
 70
    0
  9
$DIMLDRBLK
  1

  9
$DIMLUNIT
 70
    2
  9
$DIMLWD
 70
   -2
  9
$DIMLWE
 70
   -2
  9
$DIMTMOVE
 70
    0
  9
$DIMFXL
 40
1
  9
$DIMFXLON
 70
    0
  9
$DIMJOGANG
 40
0.7853981633974483
  9
$DIMTFILL
 70
    0
  9
$DIMTFILLCLR
 70
    0
  9
$DIMARCSYM
 70
    0
  9
$DIMLTYPE
  6

  9
$DIMLTEX1
  6

  9
$DIMLTEX2
  6

  9
$LUNITS
 70
    2
  9
$LUPREC
 70
    4
  9
$SKETCHINC
 40
0.1
  9
$FILLETRAD
 40
0
  9
$AUNITS
 70
    0
  9
$AUPREC
 70
    0
  9
$MENU
  1
.
  9
$ELEVATION
 40
0
  9
$PELEVATION
 40
0
  9
$THICKNESS
 40
0
  9
$LIMCHECK
 70
    0
  9
$CHAMFERA
 40
0
  9
$CHAMFERB
 40
0
  9
$CHAMFERC
 40
0
  9
$CHAMFERD
 40
0
  9
$SKPOLY
 70
    0
  9
$USRTIMER
 70
    1
  9
$ANGBASE
 50
0
  9
$ANGDIR
 70
    0
  9
$PDMODE
 70
    0
  9
$PDSIZE
 40
0
  9
$PLINEWID
 40
0
  9
$SPLFRAME
 70
    0
  9
$SPLINETYPE
 70
    6
  9
$SPLINESEGS
 70
    8
  9
$HANDSEED
  5
20000
  9
$SURFTAB1
 70
    6
  9
$SURFTAB2
 70
    6
  9
$SURFTYPE
 70
    6
  9
$SURFU
 70
    6
  9
$SURFV
 70
    6
  9
$UCSBASE
  2

  9
$UCSNAME
  2

  9
$UCSORG
 10
0
 20
0
 30
0
  9
$UCSXDIR
 10
1
 20
0
 30
0
  9
$UCSYDIR
 10
0
 20
1
 30
0
  9
$UCSORTHOREF
  2

  9
$UCSORTHOVIEW
 70
    0
  9
$UCSORGTOP
 10
0
 20
0
 30
0
  9
$UCSORGBOTTOM
 10
0
 20
0
 30
0
  9
$UCSORGLEFT
 10
0
 20
0
 30
0
  9
$UCSORGRIGHT
 10
0
 20
0
 30
0
  9
$UCSORGFRONT
 10
0
 20
0
 30
0
  9
$UCSORGBACK
 10
0
 20
0
 30
0
  9
$PUCSBASE
  2

  9
$PUCSNAME
  2

  9
$PUCSORG
 10
0
 20
0
 30
0
  9
$PUCSXDIR
 10
1
 20
0
 30
0
  9
$PUCSYDIR
 10
0
 20
1
 30
0
  9
$PUCSORTHOREF
  2

  9
$PUCSORTHOVIEW
 70
    0
  9
$PUCSORGTOP
 10
0
 20
0
 30
0
  9
$PUCSORGBOTTOM
 10
0
 20
0
 30
0
  9
$PUCSORGLEFT
 10
0
 20
0
 30
0
  9
$PUCSORGRIGHT
 10
0
 20
0
 30
0
  9
$PUCSORGFRONT
 10
0
 20
0
 30
0
  9
$PUCSORGBACK
 10
0
 20
0
 30
0
  9
$USERI1
 70
    0
  9
$USERI2
 70
    0
  9
$USERI3
 70
    0
  9
$USERI4
 70
    0
  9
$USERI5
 70
    0
  9
$USERR1
 40
0
  9
$USERR2
 40
0
  9
$USERR3
 40
0
  9
$USERR4
 40
0
  9
$USERR5
 40
0
  9
$WORLDVIEW
 70
    1
  9
$SHADEDGE
 70
    3
  9
$SHADEDIF
 70
   70
  9
$TILEMODE
 70
    1
  9
$MAXACTVP
 70
   64
  9
$PINSBASE
 10
0
 20
0
 30
0
  9
$PLIMCHECK
 70
    0
  9
$PEXTMIN
 10
0
 20
0
 30
0
  9
$PEXTMAX
 10
420
 20
297
 30
0
  9
$GRIDMODE
 70
    0
  9
$SNAPSTYLE
 70
    0
  9
$PLIMMIN
 10
0
 20
0
  9
$PLIMMAX
 10
420
 20
297
  9
$UNITMODE
 70
    0
  9
$VISRETAIN
 70
    1
  9
$PLINEGEN
 70
    0
  9
$PSLTSCALE
 70
    1
  9
$TREEDEPTH
 70
 3020
  9
$CMLSTYLE
  2
Standard
  9
$CMLJUST
 70
    0
  9
$CMLSCALE
 40
1
  9
$PROXYGRAPHICS
 70
    1
  9
$MEASUREMENT
 70
    1
  9
$CELWEIGHT
370
   -1
  9
$ENDCAPS
280
    0
  9
$JOINSTYLE
280
    0
  9
$LWDISPLAY
290
    0
  9
$INSUNITS
 70
    4
  9
$HYPERLINKBASE
  1

  9
$STYLESHEET
  1

  9
$XEDIT
290
    1
  9
$CEPSNTYPE
380
    0
  9
$PSTYLEMODE
290
    1
  9
$EXTNAMES
290
    1
  9
$PSVPSCALE
 40
0
  9
$OLESTARTUP
290
    0
  9
$SORTENTS
280
  127
  9
$INDEXCTL
280
    0
  9
$HIDETEXT
280
    1
  9
$XCLIPFRAME
290
    2
  9
$HALOGAP
280
    0
  9
$OBSCOLOR
 70
  257
  9
$OBSLTYPE
280
    0
  9
$INTERSECTIONDISPLAY
280
    0
  9
$INTERSECTIONCOLOR
 70
  257
  9
$DIMASSOC
280
    1
  9
$PROJECTNAME
  1

  9
$CAMERADISPLAY
290
    0
  9
$LENSLENGTH
 40
50
  9
$CAMERAHEIGHT
 40
0
  9
$STEPSPERSEC
 40
2
  9
$STEPSIZE
 40
6
  9
$3DDWFPREC
 40
2
  9
$PSOLWIDTH
 40
0.25
  9
$PSOLHEIGHT
 40
4
  9
$LOFTANG1
 40
1.570796326794896
  9
$LOFTANG2
 40
1.570796326794896
  9
$LOFTMAG1
 40
0
  9
$LOFTMAG2
 40
0
  9
$LOFTPARAM
 70
    7
  9
$LOFTNORMALS
280
    1
  9
$LATITUDE
 40
37.795
  9
$LONGITUDE
 40
-122.394
  9
$NORTHDIRECTION
 40
0
  9
$TIMEZONE
 70
-8000
  9
$LIGHTGLYPHDISPLAY
280
    1
  9
$TILEMODELIGHTSYNCH
280
    1
  9
$SOLIDHIST
280
    0
  9
$SHOWHIST
280
    1
  9
$DWFFRAME
280
    2
  9
$DGNFRAME
280
    0
  9
$REALWORLDSCALE
290
    1
  9
$INTERFERECOLOR
 62
    1
  9
$CSHADOW
280
    0
  9
$SHADOWPLANELOCATION
 40
0
  0
ENDSEC
  0
SECTION
  2
CLASSES
  0
ENDSEC
  0
SECTION
  2
TABLES
  0
TABLE
  2
VPORT
  5
8
330
0
100
AcDbSymbolTable
 70
    1
  0
VPORT
  5
31
330
2
100
AcDbSymbolTableRecord
100
AcDbViewportTableRecord
  2
*ACTIVE
 70
    0
 10
0
 20
0
 11
1
 21
1
 12
211.0993003031733
 22
140.9101122930502
 13
0
 23
0
 14
10
 24
10
 15
10
 25
10
 16
0
 26
0
 36
1
 17
0
 27
0
 37
0
 40
271.7172354028251
 41
1.978473581213307
 42
50
 43
0
 44
0
 50
0
 51
0
 71
    0
 72
  100
 73
    1
 74
    3
 75
    0
 76
    0
 77
    0
 78
    0
281
    0
 65
    1
110
0
120
0
130
0
111
1
121
0
131
0
112
0
122
1
132
0
 79
    0
146
0
348
10020
 60
    7
 61
    5
292
1
282
    1
141
0
142
0
 63
  250
421
3358443
  0
ENDTAB
  0
TABLE
  2
LTYPE
  5
5
330
0
100
AcDbSymbolTable
 70
    4
  0
LTYPE
  5
14
330
5
100
AcDbSymbolTableRecord
100
AcDbLinetypeTableRecord
  2
ByBlock
 70
    0
  3

 72
   65
 73
    0
 40
0
  0
LTYPE
  5
15
330
5
100
AcDbSymbolTableRecord
100
AcDbLinetypeTableRecord
  2
ByLayer
 70
    0
  3

 72
   65
 73
    0
 40
0
  0
LTYPE
  5
16
330
5
100
AcDbSymbolTableRecord
100
AcDbLinetypeTableRecord
  2
Continuous
 70
    0
  3
Solid line
 72
   65
 73
    0
 40
0
  0
LTYPE
  5
32
330
5
100
AcDbSymbolTableRecord
100
AcDbLinetypeTableRecord
  2
DOT
 70
    0
  3
Dot . . . . . . . . . . . . . . . . . . . . . .
 72
   65
 73
    2
 40
6.35
 49
0
 74
    0
 49
-6.35
 74
    0
  0
LTYPE
  5
33
330
5
100
AcDbSymbolTableRecord
100
AcDbLinetypeTableRecord
  2
DOTTINY
 70
    0
  3
Dot (.15x) .....................................
 72
   65
 73
    2
 40
0.9525
 49
0
 74
    0
 49
-0.9525
 74
    0
  0
LTYPE
  5
34
330
5
100
AcDbSymbolTableRecord
100
AcDbLinetypeTableRecord
  2
DOT2
 70
    0
  3
Dot (.5x) .....................................
 72
   65
 73
    2
 40
3.175
 49
0
 74
    0
 49
-3.175
 74
    0
  0
LTYPE
  5
35
330
5
100
AcDbSymbolTableRecord
100
AcDbLinetypeTableRecord
  2
DOTX2
 70
    0
  3
Dot (2x) .  .  .  .  .  .  .  .  .  .  .  .  .
 72
   65
 73
    2
 40
12.7
 49
0
 74
    0
 49
-12.7
 74
    0
  0
LTYPE
  5
36
330
5
100
AcDbSymbolTableRecord
100
AcDbLinetypeTableRecord
  2
DASHED
 70
    0
  3
Dashed _ _ _ _ _ _ _ _ _ _ _ _ _ _ _ _ _
 72
   65
 73
    2
 40
19.05
 49
12.7
 74
    0
 49
-6.35
 74
    0
  0
LTYPE
  5
37
330
5
100
AcDbSymbolTableRecord
100
AcDbLinetypeTableRecord
  2
DASHEDTINY
 70
    0
  3
Dashed (.15x) _ _ _ _ _ _ _ _ _ _ _ _ _ _ _ _ _
 72
   65
 73
    2
 40
2.8575
 49
1.905
 74
    0
 49
-0.9525
 74
    0
  0
LTYPE
  5
38
330
5
100
AcDbSymbolTableRecord
100
AcDbLinetypeTableRecord
  2
DASHED2
 70
    0
  3
Dashed (.5x) _ _ _ _ _ _ _ _ _ _ _ _ _ _ _ _ _
 72
   65
 73
    2
 40
9.524999999999999
 49
6.35
 74
    0
 49
-3.175
 74
    0
  0
LTYPE
  5
39
330
5
100
AcDbSymbolTableRecord
100
AcDbLinetypeTableRecord
  2
DASHEDX2
 70
    0
  3
Dashed (2x) ____  ____  ____  ____  ____  ___
 72
   65
 73
    2
 40
38.09999999999999
 49
25.4
 74
    0
 49
-12.7
 74
    0
  0
LTYPE
  5
3A
330
5
100
AcDbSymbolTableRecord
100
AcDbLinetypeTableRecord
  2
DASHDOT
 70
    0
  3
Dash dot __ . __ . __ . __ . __ . __ . __ . __
 72
   65
 73
    4
 40
25.4
 49
12.7
 74
    0
 49
-6.35
 74
    0
 49
0
 74
    0
 49
-6.35
 74
    0
  0
LTYPE
  5
3B
330
5
100
AcDbSymbolTableRecord
100
AcDbLinetypeTableRecord
  2
DASHDOTTINY
 70
    0
  3
Dash dot (.15x) _._._._._._._._._._._._._._._.
 72
   65
 73
    4
 40
3.81
 49
1.905
 74
    0
 49
-0.9525
 74
    0
 49
0
 74
    0
 49
-0.9525
 74
    0
  0
LTYPE
  5
3C
330
5
100
AcDbSymbolTableRecord
100
AcDbLinetypeTableRecord
  2
DASHDOT2
 70
    0
  3
Dash dot (.5x) _._._._._._._._._._._._._._._.
 72
   65
 73
    4
 40
12.7
 49
6.35
 74
    0
 49
-3.175
 74
    0
 49
0
 74
    0
 49
-3.175
 74
    0
  0
LTYPE
  5
3D
330
5
100
AcDbSymbolTableRecord
100
AcDbLinetypeTableRecord
  2
DASHDOTX2
 70
    0
  3
Dash dot (2x) ____  .  ____  .  ____  .  ___
 72
   65
 73
    4
 40
50.8
 49
25.4
 74
    0
 49
-12.7
 74
    0
 49
0
 74
    0
 49
-12.7
 74
    0
  0
LTYPE
  5
3E
330
5
100
AcDbSymbolTableRecord
100
AcDbLinetypeTableRecord
  2
DIVIDE
 70
    0
  3
Divide ____ . . ____ . . ____ . . ____ . . ____
 72
   65
 73
    6
 40
31.75
 49
12.7
 74
    0
 49
-6.35
 74
    0
 49
0
 74
    0
 49
-6.35
 74
    0
 49
0
 74
    0
 49
-6.35
 74
    0
  0
LTYPE
  5
3F
330
5
100
AcDbSymbolTableRecord
100
AcDbLinetypeTableRecord
  2
DIVIDETINY
 70
    0
  3
Divide (.15x) __..__..__..__..__..__..__..__.._
 72
   65
 73
    6
 40
4.7625
 49
1.905
 74
    0
 49
-0.9525
 74
    0
 49
0
 74
    0
 49
-0.9525
 74
    0
 49
0
 74
    0
 49
-0.9525
 74
    0
  0
LTYPE
  5
40
330
5
100
AcDbSymbolTableRecord
100
AcDbLinetypeTableRecord
  2
DIVIDE2
 70
    0
  3
Divide (.5x) __..__..__..__..__..__..__..__.._
 72
   65
 73
    6
 40
15.875
 49
6.35
 74
    0
 49
-3.175
 74
    0
 49
0
 74
    0
 49
-3.175
 74
    0
 49
0
 74
    0
 49
-3.175
 74
    0
  0
LTYPE
  5
41
330
5
100
AcDbSymbolTableRecord
100
AcDbLinetypeTableRecord
  2
DIVIDEX2
 70
    0
  3
Divide (2x) ________  .  .  ________  .  .  _
 72
   65
 73
    6
 40
63.5
 49
25.4
 74
    0
 49
-12.7
 74
    0
 49
0
 74
    0
 49
-12.7
 74
    0
 49
0
 74
    0
 49
-12.7
 74
    0
  0
LTYPE
  5
42
330
5
100
AcDbSymbolTableRecord
100
AcDbLinetypeTableRecord
  2
BORDER
 70
    0
  3
Border __ __ . __ __ . __ __ . __ __ . __ __ .
 72
   65
 73
    6
 40
44.45
 49
12.7
 74
    0
 49
-6.35
 74
    0
 49
12.7
 74
    0
 49
-6.35
 74
    0
 49
0
 74
    0
 49
-6.35
 74
    0
  0
LTYPE
  5
43
330
5
100
AcDbSymbolTableRecord
100
AcDbLinetypeTableRecord
  2
BORDERTINY
 70
    0
  3
Border (.15x) __.__.__.__.__.__.__.__.__.__.__.
 72
   65
 73
    6
 40
6.6675
 49
1.905
 74
    0
 49
-0.9525
 74
    0
 49
1.905
 74
    0
 49
-0.9525
 74
    0
 49
0
 74
    0
 49
-0.9525
 74
    0
  0
LTYPE
  5
44
330
5
100
AcDbSymbolTableRecord
100
AcDbLinetypeTableRecord
  2
BORDER2
 70
    0
  3
Border (.5x) __.__.__.__.__.__.__.__.__.__.__.
 72
   65
 73
    6
 40
22.225
 49
6.35
 74
    0
 49
-3.175
 74
    0
 49
6.35
 74
    0
 49
-3.175
 74
    0
 49
0
 74
    0
 49
-3.175
 74
    0
  0
LTYPE
  5
45
330
5
100
AcDbSymbolTableRecord
100
AcDbLinetypeTableRecord
  2
BORDERX2
 70
    0
  3
Border (2x) ____  ____  .  ____  ____  .  ___
 72
   65
 73
    6
 40
88.89999999999999
 49
25.4
 74
    0
 49
-12.7
 74
    0
 49
25.4
 74
    0
 49
-12.7
 74
    0
 49
0
 74
    0
 49
-12.7
 74
    0
  0
LTYPE
  5
46
330
5
100
AcDbSymbolTableRecord
100
AcDbLinetypeTableRecord
  2
CENTER
 70
    0
  3
Center ____ _ ____ _ ____ _ ____ _ ____ _ ____
 72
   65
 73
    4
 40
50.8
 49
31.75
 74
    0
 49
-6.35
 74
    0
 49
6.35
 74
    0
 49
-6.35
 74
    0
  0
LTYPE
  5
47
330
5
100
AcDbSymbolTableRecord
100
AcDbLinetypeTableRecord
  2
CENTERTINY
 70
    0
  3
Center (.15x) ___ _ ___ _ ___ _ ___ _ ___ _ ___
 72
   65
 73
    4
 40
7.619999999999999
 49
4.7625
 74
    0
 49
-0.9525
 74
    0
 49
0.9525
 74
    0
 49
-0.9525
 74
    0
  0
LTYPE
  5
48
330
5
100
AcDbSymbolTableRecord
100
AcDbLinetypeTableRecord
  2
CENTER2
 70
    0
  3
Center (.5x) ___ _ ___ _ ___ _ ___ _ ___ _ ___
 72
   65
 73
    4
 40
28.575
 49
19.05
 74
    0
 49
-3.175
 74
    0
 49
3.175
 74
    0
 49
-3.175
 74
    0
  0
LTYPE
  5
49
330
5
100
AcDbSymbolTableRecord
100
AcDbLinetypeTableRecord
  2
CENTERX2
 70
    0
  3
Center (2x) ________  __  ________  __  _____
 72
   65
 73
    4
 40
101.6
 49
63.5
 74
    0
 49
-12.7
 74
    0
 49
12.7
 74
    0
 49
-12.7
 74
    0
  0
ENDTAB
  0
TABLE
  2
LAYER
  5
2
330
0
100
AcDbSymbolTable
 70
    1
  0
LAYER
  5
10
330
2
100
AcDbSymbolTableRecord
100
AcDbLayerTableRecord
  2
0
 70
    0
 62
    7
  6
CONTINUOUS
370
   -3
390
F
  0
LAYER
  5
4A
330
2
100
AcDbSymbolTableRecord
100
AcDbLayerTableRecord
  2
Capa 1
 70
    0
 62
    7
  6
CONTINUOUS
370
   25
390
F
  0
LAYER
  5
4B
330
2
100
AcDbSymbolTableRecord
100
AcDbLayerTableRecord
  2
Visible (ISO)
 70
    0
 62
    7
  6
CONTINUOUS
370
   50
390
F
  0
ENDTAB
  0
TABLE
  2
STYLE
  5
3
330
0
100
AcDbSymbolTable
 70
    3
  0
STYLE
  5
4C
330
2
100
AcDbSymbolTableRecord
100
AcDbTextStyleTableRecord
  2
Standard
 70
    0
 40
0
 41
1
 50
0
 71
    0
 42
1
  3
txt
  4

  0
ENDTAB
  0
TABLE
  2
VIEW
  5
6
330
0
100
AcDbSymbolTable
 70
    0
  0
ENDTAB
  0
TABLE
  2
UCS
  5
7
330
0
100
AcDbSymbolTable
 70
    0
  0
ENDTAB
  0
TABLE
  2
APPID
  5
9
330
0
100
AcDbSymbolTable
 70
    1
  0
APPID
  5
12
330
9
100
AcDbSymbolTableRecord
100
AcDbRegAppTableRecord
  2
ACAD
 70
    0
  0
APPID
  5
4D
330
9
100
AcDbSymbolTableRecord
100
AcDbRegAppTableRecord
  2
LibreCad
 70
    0
  0
ENDTAB
  0
TABLE
  2
DIMSTYLE
  5
A
330
0
100
AcDbSymbolTable
 70
    1
100
AcDbDimStyleTable
 71
    1
  0
DIMSTYLE
105
4E
330
A
100
AcDbSymbolTableRecord
100
AcDbDimStyleTableRecord
  2
Standard
 70
    0
 40
1
 41
1.799999999999999
 42
0.0625
 43
0.38
 44
0.18
 45
0
 46
0
 47
0
 48
0
 49
1
140
1.799999999999999
141
0.09
142
0
143
25.4
144
1
145
0
146
1
147
0.09
148
0
 71
    0
 72
    0
 73
    1
 74
    1
 75
    0
 76
    0
 77
    0
 78
    0
 79
    0
170
    0
171
    2
172
    0
173
    0
174
    0
175
    0
176
    0
177
    0
178
    0
179
    0
271
    4
272
    4
273
    2
274
    2
275
    0
276
    0
277
    2
278
   46
279
    0
280
    0
281
    0
282
    0
283
    1
284
    0
285
    0
286
    0
288
    0
289
    3
340
Standard
341

371
   -2
372
   -2
  0
ENDTAB
  0
TABLE
  2
BLOCK_RECORD
  5
1
330
0
100
AcDbSymbolTable
 70
    2
  0
BLOCK_RECORD
  5
1F
330
1
100
AcDbSymbolTableRecord
100
AcDbBlockTableRecord
  2
*Model_Space
 70
    0
280
    1
281
    0
  0
BLOCK_RECORD
  5
1E
330
1
100
AcDbSymbolTableRecord
100
AcDbBlockTableRecord
  2
*Paper_Space
 70
    0
280
    1
281
    0
  0
BLOCK_RECORD
  5
4F
330
1
100
AcDbSymbolTableRecord
100
AcDbBlockTableRecord
  2
_Closed
 70
    0
280
    1
281
    0
  0
BLOCK_RECORD
  5
52
330
1
100
AcDbSymbolTableRecord
100
AcDbBlockTableRecord
  2
DatumFilled45
 70
    0
280
    1
281
    0
  0
BLOCK_RECORD
  5
55
330
1
100
AcDbSymbolTableRecord
100
AcDbBlockTableRecord
  2
Filled-1
 70
    0
280
    1
281
    0
  0
ENDTAB
  0
ENDSEC
  0
SECTION
  2
BLOCKS
  0
BLOCK
  5
20
330
1F
100
AcDbEntity
  8
0
100
AcDbBlockBegin
  2
*Model_Space
 70
    0
 10
0
 20
0
 30
0
  3
*Model_Space
  1

  0
ENDBLK
  5
21
330
1F
100
AcDbEntity
  8
0
100
AcDbBlockEnd
  0
BLOCK
  5
1C
330
1B
100
AcDbEntity
  8
0
100
AcDbBlockBegin
  2
*Paper_Space
 70
    0
 10
0
 20
0
 30
0
  3
*Paper_Space
  1

  0
ENDBLK
  5
1D
330
1F
100
AcDbEntity
  8
0
100
AcDbBlockEnd
  0
BLOCK
  5
50
330
4F
100
AcDbEntity
  8
0
100
AcDbBlockBegin
  2
_Closed
 70
    0
 10
0
 20
0
  3
_Closed
  1

  0
LINE
  5
58
100
AcDbEntity
  8
0
  6
ByBlock
 62
    0
370
   -2
100
AcDbLine
 10
-1
 20
0.1666666666666666
 11
0
 21
0
  0
LINE
  5
59
100
AcDbEntity
  8
0
  6
ByBlock
 62
    0
370
   -2
100
AcDbLine
 10
0
 20
0
 11
-1
 21
-0.1666666666666666
  0
LINE
  5
5A
100
AcDbEntity
  8
0
  6
ByBlock
 62
    0
370
   -2
100
AcDbLine
 10
-1
 20
0.1666666666666666
 11
-1
 21
-0.1666666666666666
  0
LINE
  5
5B
100
AcDbEntity
  8
0
  6
ByBlock
 62
    0
370
   -2
100
AcDbLine
 10
0
 20
0
 11
-1
 21
0
  0
ENDBLK
  5
51
330
4F
100
AcDbEntity
  8
0
100
AcDbBlockEnd
  0
BLOCK
  5
53
330
52
100
AcDbEntity
  8
0
100
AcDbBlockBegin
  2
DatumFilled45
 70
    0
 10
0
 20
0
  3
DatumFilled45
  1

  0
LWPOLYLINE
  5
5C
100
AcDbEntity
  8
0
  6
ByLayer
 62
    0
370
   -1
100
AcDbPolyline
 90
    4
 70
    0
 43
0
 10
0
 20
1
 10
0
 20
-1
 10
-1
 20
0
 10
0
 20
1
  0
SOLID
  5
5D
100
AcDbEntity
  8
0
  6
ByLayer
 62
    0
370
   -1
100
AcDbTrace
 10
0
 20
1
 30
0
 11
0
 21
-1
 31
0
 12
-1
 22
0
 32
0
 13
0
 23
1
 33
0
  0
ENDBLK
  5
54
330
52
100
AcDbEntity
  8
0
100
AcDbBlockEnd
  0
BLOCK
  5
56
330
55
100
AcDbEntity
  8
0
100
AcDbBlockBegin
  2
Filled-1
 70
    0
 10
0
 20
0
  3
Filled-1
  1

  0
LINE
  5
5E
100
AcDbEntity
  8
0
  6
ByLayer
 62
    0
370
   -1
100
AcDbLine
 10
-1
 20
0
 11
0
 21
0
  0
LWPOLYLINE
  5
5F
100
AcDbEntity
  8
0
  6
ByLayer
 62
    0
370
   -1
100
AcDbPolyline
 90
    4
 70
    0
 43
0
 10
-1
 20
-0.0994897959183674
 10
0
 20
0
 10
-1
 20
0.0994897959183674
 10
-1
 20
-0.0994897959183674
  0
SOLID
  5
60
100
AcDbEntity
  8
0
  6
ByLayer
 62
    0
370
   -1
100
AcDbTrace
 10
-1
 20
-0.0994897959183674
 30
0
 11
0
 21
0
 31
0
 12
-1
 22
0.0994897959183674
 32
0
 13
-1
 23
-0.0994897959183674
 33
0
  0
LINE
  5
61
100
AcDbEntity
  8
0
  6
ByLayer
 62
    0
370
   -1
100
AcDbLine
 10
-1
 20
-0.0994897959183674
 11
0
 21
0
  0
LINE
  5
62
100
AcDbEntity
  8
0
  6
ByLayer
 62
    0
370
   -1
100
AcDbLine
 10
0
 20
0
 11
-1
 21
0.0994897959183674
  0
LINE
  5
63
100
AcDbEntity
  8
0
  6
ByLayer
 62
    0
370
   -1
100
AcDbLine
 10
-1
 20
0.0994897959183674
 11
-1
 21
-0.0994897959183674
  0
ENDBLK
  5
57
330
55
100
AcDbEntity
  8
0
100
AcDbBlockEnd
  0
ENDSEC
  0
SECTION
  2
ENTITIES
  0
CIRCLE
  5
64
100
AcDbEntity
  8
Visible (ISO)
  6
ByLayer
 62
  256
370
   -1
100
AcDbCircle
 10
200.3944687724999
 20
162.3256390888903
 40
6.25
  0
LINE
  5
65
100
AcDbEntity
  8
Visible (ISO)
  6
ByLayer
 62
  256
370
   -1
100
AcDbLine
 10
184.3944687725144
 20
180.3256390888321
 11
198.9107345823885
 21
180.325639088832
  0
LINE
  5
66
100
AcDbEntity
  8
Visible (ISO)
  6
ByLayer
 62
  256
370
   -1
100
AcDbLine
 10
198.9107345823885
 20
180.325639088832
 11
219.3944687724999
 21
189.3256390888902
  0
LINE
  5
67
100
AcDbEntity
  8
Visible (ISO)
  6
ByLayer
 62
  256
370
   -1
100
AcDbLine
 10
229.3944687724999
 20
189.3256390888902
 11
249.8782029626113
 21
180.325639088832
  0
LINE
  5
68
100
AcDbEntity
  8
Visible (ISO)
  6
ByLayer
 62
  256
370
   -1
100
AcDbLine
 10
249.8782029626113
 20
180.325639088832
 11
262.3944687725072
 21
180.3256390888321
  0
LINE
  5
69
100
AcDbEntity
  8
Visible (ISO)
  6
ByLayer
 62
  256
370
   -1
100
AcDbLine
 10
249.8782029626113
 20
144.3256390889485
 11
229.3944687724999
 21
135.3256390888903
  0
LINE
  5
6A
100
AcDbEntity
  8
Visible (ISO)
  6
ByLayer
 62
  256
370
   -1
100
AcDbLine
 10
262.39446877258
 20
144.3256390889849
 11
249.8782029626113
 21
144.3256390889485
  0
LINE
  5
6B
100
AcDbEntity
  8
Visible (ISO)
  6
ByLayer
 62
  256
370
   -1
100
AcDbLine
 10
219.3944687724999
 20
135.3256390888903
 11
198.9107345823885
 21
144.3256390889485
  0
LINE
  5
6C
100
AcDbEntity
  8
Visible (ISO)
  6
ByLayer
 62
  256
370
   -1
100
AcDbLine
 10
198.9107345823885
 20
144.3256390889485
 11
184.3944687724708
 21
144.3256390889485
  0
LINE
  5
6D
100
AcDbEntity
  8
Visible (ISO)
  6
ByLayer
 62
  256
370
   -1
100
AcDbLine
 10
184.3944687725144
 20
180.3256390888321
 11
182.394468772529
 21
178.3256390888902
  0
LINE
  5
6E
100
AcDbEntity
  8
Visible (ISO)
  6
ByLayer
 62
  256
370
   -1
100
AcDbLine
 10
219.3944687724999
 20
135.3256390888903
 11
229.3944687724999
 21
135.3256390888903
  0
CIRCLE
  5
6F
100
AcDbEntity
  8
Visible (ISO)
  6
ByLayer
 62
  256
370
   -1
100
AcDbCircle
 10
224.3944687724999
 20
140.3256390888903
 40
2.5
  0
CIRCLE
  5
70
100
AcDbEntity
  8
Visible (ISO)
  6
ByLayer
 62
  256
370
   -1
100
AcDbCircle
 10
224.3944687724999
 20
184.3256390888902
 40
2.5
  0
LINE
  5
71
100
AcDbEntity
  8
Visible (ISO)
  6
ByLayer
 62
  256
370
   -1
100
AcDbLine
 10
262.39446877258
 20
144.3256390889849
 11
264.3944687724854
 21
146.3256390888903
  0
LINE
  5
72
100
AcDbEntity
  8
Visible (ISO)
  6
ByLayer
 62
  256
370
   -1
100
AcDbLine
 10
264.3944687724854
 20
178.3256390888902
 11
262.3944687725072
 21
180.3256390888321
  0
LINE
  5
73
100
AcDbEntity
  8
Visible (ISO)
  6
ByLayer
 62
  256
370
   -1
100
AcDbLine
 10
229.3944687724999
 20
189.3256390888902
 11
219.3944687724999
 21
189.3256390888902
  0
LINE
  5
74
100
AcDbEntity
  8
Visible (ISO)
  6
ByLayer
 62
  256
370
   -1
100
AcDbLine
 10
182.394468772529
 20
146.3256390888903
 11
184.3944687724708
 21
144.3256390889485
  0
LINE
  5
75
100
AcDbEntity
  8
Visible (ISO)
  6
ByLayer
 62
  256
370
   -1
100
AcDbLine
 10
259.3744687725343
 20
158.3456390888559
 11
261.4144687725166
 21
158.3456390888559
  0
LINE
  5
76
100
AcDbEntity
  8
Visible (ISO)
  6
ByLayer
 62
  256
370
   -1
100
AcDbLine
 10
261.4144687725166
 20
158.3456390888559
 11
261.4144687725164
 21
150.3056390889246
  0
LINE
  5
77
100
AcDbEntity
  8
Visible (ISO)
  6
ByLayer
 62
  256
370
   -1
100
AcDbLine
 10
261.4144687725164
 20
150.3056390889246
 11
259.3744687725343
 21
150.3056390889246
  0
LINE
  5
78
100
AcDbEntity
  8
Visible (ISO)
  6
ByLayer
 62
  256
370
   -1
100
AcDbLine
 10
259.3744687725343
 20
150.3056390889246
 11
259.3744687725343
 21
158.3456390888559
  0
LINE
  5
79
100
AcDbEntity
  8
Visible (ISO)
  6
ByLayer
 62
  256
370
   -1
100
AcDbLine
 10
203.414468772529
 20
147.3456390888903
 11
203.414468772529
 21
145.3056390888903
  0
LINE
  5
7A
100
AcDbEntity
  8
Visible (ISO)
  6
ByLayer
 62
  256
370
   -1
100
AcDbLine
 10
203.414468772529
 20
145.3056390888903
 11
195.374468772529
 21
145.3056390888903
  0
LINE
  5
7B
100
AcDbEntity
  8
Visible (ISO)
  6
ByLayer
 62
  256
370
   -1
100
AcDbLine
 10
195.374468772529
 20
145.3056390888903
 11
195.374468772529
 21
147.3456390888903
  0
LINE
  5
7C
100
AcDbEntity
  8
Visible (ISO)
  6
ByLayer
 62
  256
370
   -1
100
AcDbLine
 10
195.374468772529
 20
147.3456390888903
 11
203.414468772529
 21
147.3456390888903
  0
LINE
  5
7D
100
AcDbEntity
  8
Visible (ISO)
  6
ByLayer
 62
  256
370
   -1
100
AcDbLine
 10
243.3744687724853
 20
147.3456390888902
 11
251.4144687724853
 21
147.3456390888902
  0
LINE
  5
7E
100
AcDbEntity
  8
Visible (ISO)
  6
ByLayer
 62
  256
370
   -1
100
AcDbLine
 10
251.4144687724853
 20
147.3456390888902
 11
251.4144687724853
 21
145.3056390888903
  0
LINE
  5
7F
100
AcDbEntity
  8
Visible (ISO)
  6
ByLayer
 62
  256
370
   -1
100
AcDbLine
 10
251.4144687724853
 20
145.3056390888903
 11
243.3744687724853
 21
145.3056390888903
  0
LINE
  5
80
100
AcDbEntity
  8
Visible (ISO)
  6
ByLayer
 62
  256
370
   -1
100
AcDbLine
 10
243.3744687724853
 20
145.3056390888903
 11
243.3744687724853
 21
147.3456390888902
  0
LINE
  5
81
100
AcDbEntity
  8
Visible (ISO)
  6
ByLayer
 62
  256
370
   -1
100
AcDbLine
 10
187.4144687724437
 20
150.3056390888903
 11
185.3744687724687
 21
150.3056390888903
  0
LINE
  5
82
100
AcDbEntity
  8
Visible (ISO)
  6
ByLayer
 62
  256
370
   -1
100
AcDbLine
 10
185.3744687724687
 20
150.3056390888903
 11
185.3744687724687
 21
158.3456390888903
  0
LINE
  5
83
100
AcDbEntity
  8
Visible (ISO)
  6
ByLayer
 62
  256
370
   -1
100
AcDbLine
 10
185.3744687724687
 20
158.3456390888903
 11
187.4144687724437
 21
158.3456390888903
  0
LINE
  5
84
100
AcDbEntity
  8
Visible (ISO)
  6
ByLayer
 62
  256
370
   -1
100
AcDbLine
 10
187.4144687724437
 20
158.3456390888903
 11
187.4144687724437
 21
150.3056390888903
  0
LINE
  5
85
100
AcDbEntity
  8
Visible (ISO)
  6
ByLayer
 62
  256
370
   -1
100
AcDbLine
 10
261.4144687725166
 20
166.3056390889245
 11
259.3744687725343
 21
166.3056390889246
  0
LINE
  5
86
100
AcDbEntity
  8
Visible (ISO)
  6
ByLayer
 62
  256
370
   -1
100
AcDbLine
 10
259.3744687725343
 20
166.3056390889246
 11
259.3744687725343
 21
174.3456390888559
  0
LINE
  5
87
100
AcDbEntity
  8
Visible (ISO)
  6
ByLayer
 62
  256
370
   -1
100
AcDbLine
 10
259.3744687725343
 20
174.3456390888559
 11
261.4144687725164
 21
174.3456390888559
  0
LINE
  5
88
100
AcDbEntity
  8
Visible (ISO)
  6
ByLayer
 62
  256
370
   -1
100
AcDbLine
 10
261.4144687725164
 20
174.3456390888559
 11
261.4144687725166
 21
166.3056390889245
  0
LINE
  5
89
100
AcDbEntity
  8
Visible (ISO)
  6
ByLayer
 62
  256
370
   -1
100
AcDbLine
 10
203.414468772529
 20
179.3456390888902
 11
203.414468772529
 21
177.3056390888902
  0
LINE
  5
8A
100
AcDbEntity
  8
Visible (ISO)
  6
ByLayer
 62
  256
370
   -1
100
AcDbLine
 10
203.414468772529
 20
177.3056390888902
 11
195.374468772529
 21
177.3056390888902
  0
LINE
  5
8B
100
AcDbEntity
  8
Visible (ISO)
  6
ByLayer
 62
  256
370
   -1
100
AcDbLine
 10
195.374468772529
 20
177.3056390888902
 11
195.374468772529
 21
179.3456390888902
  0
LINE
  5
8C
100
AcDbEntity
  8
Visible (ISO)
  6
ByLayer
 62
  256
370
   -1
100
AcDbLine
 10
195.374468772529
 20
179.3456390888902
 11
203.414468772529
 21
179.3456390888902
  0
LINE
  5
8D
100
AcDbEntity
  8
Visible (ISO)
  6
ByLayer
 62
  256
370
   -1
100
AcDbLine
 10
251.4144687724853
 20
177.3056390888903
 11
243.3744687724853
 21
177.3056390888903
  0
LINE
  5
8E
100
AcDbEntity
  8
Visible (ISO)
  6
ByLayer
 62
  256
370
   -1
100
AcDbLine
 10
243.3744687724853
 20
177.3056390888903
 11
243.3744687724853
 21
179.3456390888902
  0
LINE
  5
8F
100
AcDbEntity
  8
Visible (ISO)
  6
ByLayer
 62
  256
370
   -1
100
AcDbLine
 10
243.3744687724853
 20
179.3456390888902
 11
251.4144687724853
 21
179.3456390888902
  0
LINE
  5
90
100
AcDbEntity
  8
Visible (ISO)
  6
ByLayer
 62
  256
370
   -1
100
AcDbLine
 10
251.4144687724853
 20
179.3456390888902
 11
251.4144687724853
 21
177.3056390888903
  0
LINE
  5
91
100
AcDbEntity
  8
Visible (ISO)
  6
ByLayer
 62
  256
370
   -1
100
AcDbLine
 10
185.3744687724687
 20
174.3456390888902
 11
187.4144687724437
 21
174.3456390888902
  0
LINE
  5
92
100
AcDbEntity
  8
Visible (ISO)
  6
ByLayer
 62
  256
370
   -1
100
AcDbLine
 10
187.4144687724437
 20
174.3456390888902
 11
187.4144687724437
 21
166.3056390888902
  0
LINE
  5
93
100
AcDbEntity
  8
Visible (ISO)
  6
ByLayer
 62
  256
370
   -1
100
AcDbLine
 10
187.4144687724437
 20
166.3056390888902
 11
185.3744687724687
 21
166.3056390888902
  0
LINE
  5
94
100
AcDbEntity
  8
Visible (ISO)
  6
ByLayer
 62
  256
370
   -1
100
AcDbLine
 10
185.3744687724687
 20
166.3056390888902
 11
185.3744687724687
 21
174.3456390888902
  0
LINE
  5
95
100
AcDbEntity
  8
Visible (ISO)
  6
ByLayer
 62
  256
370
   -1
100
AcDbLine
 10
264.3944687724854
 20
146.3256390888903
 11
264.3944687724854
 21
178.3256390888902
  0
LINE
  5
96
100
AcDbEntity
  8
Visible (ISO)
  6
ByLayer
 62
  256
370
   -1
100
AcDbLine
 10
182.394468772529
 20
178.3256390888902
 11
182.394468772529
 21
146.3256390888903
  0
SPLINE
  5
97
100
AcDbEntity
  8
Capa 1
  6
ByLayer
 62
  256
370
    5
100
AcDbSpline
210
0
220
0
230
0
 70
    8
 71
    3
 72
    8
 73
    4
 74
    0
 42
1e-07
 43
1e-07
 40
0
 40
0
 40
0
 40
0
 40
1
 40
1
 40
1
 40
1
 10
226.9387338699779
 20
166.7171250390047
 30
0
 10
226.3811387409392
 20
167.1500353142766
 30
0
 10
225.7528330740256
 20
167.4556805682259
 30
0
 10
225.0899392150154
 20
167.62935373842
 30
0
  0
SPLINE
  5
98
100
AcDbEntity
  8
Capa 1
  6
ByLayer
 62
  256
370
    5
100
AcDbSpline
210
0
220
0
230
0
 70
    8
 71
    3
 72
    8
 73
    4
 74
    0
 42
1e-07
 43
1e-07
 40
0
 40
0
 40
0
 40
0
 40
1
 40
1
 40
1
 40
1
 10
224.6634096243742
 20
165.7931112499438
 30
0
 10
225.0604416237715
 20
165.6829659890237
 30
0
 10
225.4444681840038
 20
165.5047949591718
 30
0
 10
225.7895132938697
 20
165.2370851417155
 30
0
  0
SPLINE
  5
99
100
AcDbEntity
  8
Capa 1
  6
ByLayer
 62
  256
370
    5
100
AcDbSpline
210
0
220
0
230
0
 70
    8
 71
    3
 72
    8
 73
    4
 74
    0
 42
1e-07
 43
1e-07
 40
0
 40
0
 40
0
 40
0
 40
1
 40
1
 40
1
 40
1
 10
225.9646857506163
 20
165.4624662644085
 30
0
 10
225.5860635953987
 20
165.7565356314868
 30
0
 10
225.1658798222596
 20
165.960368868378
 30
0
 10
224.7299709738824
 20
166.0796144500009
 30
0
  0
SPLINE
  5
9A
100
AcDbEntity
  8
Capa 1
  6
ByLayer
 62
  256
370
    5
100
AcDbSpline
210
0
220
0
230
0
 70
    8
 71
    3
 72
    8
 73
    4
 74
    0
 42
1e-07
 43
1e-07
 40
0
 40
0
 40
0
 40
0
 40
1
 40
1
 40
1
 40
1
 10
225.0254350261258
 20
167.3516370549034
 30
0
 10
225.6489638963489
 20
167.1874477438325
 30
0
 10
226.2391249239946
 20
166.8990268516734
 30
0
 10
226.7635614132314
 20
166.4917439163115
 30
0
  0
LINE
  5
9B
100
AcDbEntity
  8
Capa 1
  6
ByLayer
 62
  256
370
    5
100
AcDbLine
 10
224.7299709738824
 20
166.0796144500009
 11
225.0254350261258
 21
167.3516370549034
  0
SPLINE
  5
9C
100
AcDbEntity
  8
Capa 1
  6
ByLayer
 62
  256
370
    5
100
AcDbSpline
210
0
220
0
230
0
 70
    8
 71
    3
 72
    8
 73
    4
 74
    0
 42
1e-07
 43
1e-07
 40
0
 40
0
 40
0
 40
0
 40
1
 40
1
 40
1
 40
1
 10
225.7895132938696
 20
165.2370851417155
 30
0
 10
226.3850089922726
 20
164.7745029395543
 30
0
 10
226.7627594692617
 20
164.1420132171448
 30
0
 10
226.934863618645
 20
163.4620344648614
 30
0
  0
SPLINE
  5
9D
100
AcDbEntity
  8
Capa 1
  6
ByLayer
 62
  256
370
    5
100
AcDbSpline
210
0
220
0
230
0
 70
    8
 71
    3
 72
    8
 73
    4
 74
    0
 42
1e-07
 43
1e-07
 40
0
 40
0
 40
0
 40
0
 40
1
 40
1
 40
1
 40
1
 10
227.2249232658731
 20
163.5223894653846
 30
0
 10
227.039395271775
 20
164.2665586023957
 30
0
 10
226.6159339884973
 20
164.9567534235143
 30
0
 10
225.9646857506163
 20
165.4624662644085
 30
0
  0
SPLINE
  5
9E
100
AcDbEntity
  8
Capa 1
  6
ByLayer
 62
  256
370
    5
100
AcDbSpline
210
0
220
0
230
0
 70
    8
 71
    3
 72
    8
 73
    4
 74
    0
 42
1e-07
 43
1e-07
 40
0
 40
0
 40
0
 40
0
 40
1
 40
1
 40
1
 40
1
 10
225.8228462693173
 20
163.2306213288287
 30
0
 10
225.7049605057307
 20
163.6534201366532
 30
0
 10
225.4619366156979
 20
164.0448385282611
 30
0
 10
225.0886491312372
 20
164.3347238398439
 30
0
  0
LINE
  5
9F
100
AcDbEntity
  8
Capa 1
  6
ByLayer
 62
  256
370
    5
100
AcDbLine
 10
224.7470210000267
 20
167.4138400132706
 11
224.4515569477828
 21
166.141852275497
  0
LINE
  5
A0
100
AcDbEntity
  8
Capa 1
  6
ByLayer
 62
  256
370
    5
100
AcDbLine
 10
224.405462603074
 20
164.682628054298
 11
224.6634096243742
 21
165.7931112499438
  0
SPLINE
  5
A1
100
AcDbEntity
  8
Capa 1
  6
ByLayer
 62
  256
370
    5
100
AcDbSpline
210
0
220
0
230
0
 70
    8
 71
    3
 72
    8
 73
    4
 74
    0
 42
1e-07
 43
1e-07
 40
0
 40
0
 40
0
 40
0
 40
1
 40
1
 40
1
 40
1
 10
225.0886491312372
 20
164.3347238398439
 30
0
 10
224.8784352097154
 20
164.4979717384279
 30
0
 10
224.6457668570347
 20
164.6094768173844
 30
0
 10
224.4054626030741
 20
164.682628054298
 30
0
  0
SPLINE
  5
A2
100
AcDbEntity
  8
Capa 1
  6
ByLayer
 62
  256
370
    5
100
AcDbSpline
210
0
220
0
230
0
 70
    8
 71
    3
 72
    8
 73
    4
 74
    0
 42
1e-07
 43
1e-07
 40
0
 40
0
 40
0
 40
0
 40
1
 40
1
 40
1
 40
1
 10
224.5180136959041
 20
160.6783126094199
 30
0
 10
224.8786095453616
 20
160.8103892945626
 30
0
 10
225.2096380693167
 20
161.0365374940963
 30
0
 10
225.4625642240223
 20
161.3622313472951
 30
0
  0
SPLINE
  5
A3
100
AcDbEntity
  8
Capa 1
  6
ByLayer
 62
  256
370
    5
100
AcDbSpline
210
0
220
0
230
0
 70
    8
 71
    3
 72
    8
 73
    4
 74
    0
 42
1e-07
 43
1e-07
 40
0
 40
0
 40
0
 40
0
 40
1
 40
1
 40
1
 40
1
 10
225.4625642240223
 20
161.3622313472951
 30
0
 10
225.8271697933296
 20
161.8317521081534
 30
0
 10
225.9609549677995
 20
162.4058742563993
 30
0
 10
225.8854327661049
 20
162.9516494286636
 30
0
  0
LINE
  5
A4
100
AcDbEntity
  8
Capa 1
  6
ByLayer
 62
  256
370
    5
100
AcDbLine
 10
226.934863618645
 20
163.4620344648614
 11
225.8228462693173
 21
163.2306213288287
  0
LINE
  5
A5
100
AcDbEntity
  8
Capa 1
  6
ByLayer
 62
  256
370
    5
100
AcDbLine
 10
225.8854327661049
 20
162.9516494286636
 11
226.9973803811739
 21
163.1831322989545
  0
SPLINE
  5
A6
100
AcDbEntity
  8
Capa 1
  6
ByLayer
 62
  256
370
    5
100
AcDbSpline
210
0
220
0
230
0
 70
    8
 71
    3
 72
    8
 73
    4
 74
    0
 42
1e-07
 43
1e-07
 40
0
 40
0
 40
0
 40
0
 40
1
 40
1
 40
1
 40
1
 10
227.6193402305863
 20
159.6873539324305
 30
0
 10
227.0143258059307
 20
158.9081433306438
 30
0
 10
226.2050597388352
 20
158.345980607689
 30
0
 10
225.2861365506268
 20
158.049854079992
 30
0
  0
SPLINE
  5
A7
100
AcDbEntity
  8
Capa 1
  6
ByLayer
 62
  256
370
    5
100
AcDbSpline
210
0
220
0
230
0
 70
    8
 71
    3
 72
    8
 73
    4
 74
    0
 42
1e-07
 43
1e-07
 40
0
 40
0
 40
0
 40
0
 40
1
 40
1
 40
1
 40
1
 10
224.920903372995
 20
159.2996314565101
 30
0
 10
225.5778349529244
 20
159.5191897686387
 30
0
 10
226.1557576182461
 20
159.9267865081624
 30
0
 10
226.5900625786832
 20
160.4862295950455
 30
0
  0
SPLINE
  5
A8
100
AcDbEntity
  8
Capa 1
  6
ByLayer
 62
  256
370
    5
100
AcDbSpline
210
0
220
0
230
0
 70
    8
 71
    3
 72
    8
 73
    4
 74
    0
 42
1e-07
 43
1e-07
 40
0
 40
0
 40
0
 40
0
 40
1
 40
1
 40
1
 40
1
 10
226.7635614132314
 20
166.4917439163115
 30
0
 10
227.6457346473372
 20
165.8067791645624
 30
0
 10
228.2500517294097
 20
164.8601714758255
 30
0
 10
228.5041284993764
 20
163.7886348634174
 30
0
  0
SPLINE
  5
A9
100
AcDbEntity
  8
Capa 1
  6
ByLayer
 62
  256
370
    5
100
AcDbSpline
210
0
220
0
230
0
 70
    8
 71
    3
 72
    8
 73
    4
 74
    0
 42
1e-07
 43
1e-07
 40
0
 40
0
 40
0
 40
0
 40
1
 40
1
 40
1
 40
1
 10
228.7841464134154
 20
163.8468978361928
 30
0
 10
228.5162971274428
 20
164.9848563295926
 30
0
 10
227.8751254898802
 20
165.990249998042
 30
0
 10
226.9387338699779
 20
166.7171250390047
 30
0
  0
LINE
  5
AA
100
AcDbEntity
  8
Capa 1
  6
ByLayer
 62
  256
370
    5
100
AcDbLine
 10
228.5041284993764
 20
163.7886348634174
 11
227.2249232658731
 21
163.5223894653846
  0
SPLINE
  5
AB
100
AcDbEntity
  8
Capa 1
  6
ByLayer
 62
  256
370
    5
100
AcDbSpline
210
0
220
0
230
0
 70
    8
 71
    3
 72
    8
 73
    4
 74
    0
 42
1e-07
 43
1e-07
 40
0
 40
0
 40
0
 40
0
 40
1
 40
1
 40
1
 40
1
 10
228.8840407383716
 20
163.3023778805775
 30
0
 10
228.872813522792
 20
163.391637731149
 30
0
 10
228.8533576647377
 20
163.4783522812941
 30
0
 10
228.8377023237586
 20
163.5662523138294
 30
0
  0
SPLINE
  5
AC
100
AcDbEntity
  8
Capa 1
  6
ByLayer
 62
  256
370
    5
100
AcDbSpline
210
0
220
0
230
0
 70
    8
 71
    3
 72
    8
 73
    4
 74
    0
 42
1e-07
 43
1e-07
 40
0
 40
0
 40
0
 40
0
 40
1
 40
1
 40
1
 40
1
 10
227.8447213532794
 20
159.5121814756834
 30
0
 10
228.6859954449158
 20
160.5955729119958
 30
0
 10
229.0553080766558
 20
161.9411651593614
 30
0
 10
228.8840407383716
 20
163.3023778805775
 30
0
  0
SPLINE
  5
AD
100
AcDbEntity
  8
Capa 1
  6
ByLayer
 62
  256
370
    5
100
AcDbSpline
210
0
220
0
230
0
 70
    8
 71
    3
 72
    8
 73
    4
 74
    0
 42
1e-07
 43
1e-07
 40
0
 40
0
 40
0
 40
0
 40
1
 40
1
 40
1
 40
1
 10
228.600640712807
 20
163.2666739403487
 30
0
 10
228.7618663179016
 20
161.9813320921187
 30
0
 10
228.413752900673
 20
160.7104949696062
 30
0
 10
227.6193402305864
 20
159.6873539324305
 30
0
  0
SPLINE
  5
AE
100
AcDbEntity
  8
Capa 1
  6
ByLayer
 62
  256
370
    5
100
AcDbSpline
210
0
220
0
230
0
 70
    8
 71
    3
 72
    8
 73
    4
 74
    0
 42
1e-07
 43
1e-07
 40
0
 40
0
 40
0
 40
0
 40
1
 40
1
 40
1
 40
1
 10
226.5900625786832
 20
160.4862295950455
 30
0
 10
227.2207043432484
 20
161.2984593681176
 30
0
 10
227.4382752290167
 20
162.3001222537499
 30
0
 10
227.2820704905166
 20
163.2424064184748
 30
0
  0
SPLINE
  5
AF
100
AcDbEntity
  8
Capa 1
  6
ByLayer
 62
  256
370
    5
100
AcDbSpline
210
0
220
0
230
0
 70
    8
 71
    3
 72
    8
 73
    4
 74
    0
 42
1e-07
 43
1e-07
 40
0
 40
0
 40
0
 40
0
 40
1
 40
1
 40
1
 40
1
 10
226.9973803811739
 20
163.1831322989545
 30
0
 10
227.1374416388869
 20
162.3200313844827
 30
0
 10
226.9420462472451
 20
161.4049435804789
 30
0
 10
226.3646814559902
 20
160.6614020517919
 30
0
  0
LINE
  5
B0
100
AcDbEntity
  8
Capa 1
  6
ByLayer
 62
  256
370
    5
100
AcDbLine
 10
228.8377023237586
 20
163.5662523138294
 11
231.3318178046501
 21
164.085458733697
  0
SPLINE
  5
B1
100
AcDbEntity
  8
Capa 1
  6
ByLayer
 62
  256
370
    5
100
AcDbSpline
210
0
220
0
230
0
 70
    8
 71
    3
 72
    8
 73
    4
 74
    0
 42
1e-07
 43
1e-07
 40
0
 40
0
 40
0
 40
0
 40
1
 40
1
 40
1
 40
1
 10
231.3318178046501
 20
164.085458733697
 30
0
 10
231.4058058526633
 20
163.9181313810044
 30
0
 10
231.5161254492288
 20
163.7643324744142
 30
0
 10
231.6707611669183
 20
163.6442500816922
 30
0
  0
LINE
  5
B2
100
AcDbEntity
  8
Capa 1
  6
ByLayer
 62
  256
370
    5
100
AcDbLine
 10
231.2478926248356
 20
164.3596189700422
 11
228.7841464134154
 21
163.8468978361928
  0
SPLINE
  5
B3
100
AcDbEntity
  8
Capa 1
  6
ByLayer
 62
  256
370
    5
100
AcDbSpline
210
0
220
0
230
0
 70
    8
 71
    3
 72
    8
 73
    4
 74
    0
 42
1e-07
 43
1e-07
 40
0
 40
0
 40
0
 40
0
 40
1
 40
1
 40
1
 40
1
 10
231.4691245591625
 20
165.2474058119377
 30
0
 10
231.2655702593044
 20
164.9852747351421
 30
0
 10
231.1974398889854
 20
164.6630675948564
 30
0
 10
231.2478926248356
 20
164.3596189700422
 30
0
  0
SPLINE
  5
B4
100
AcDbEntity
  8
Capa 1
  6
ByLayer
 62
  256
370
    5
100
AcDbSpline
210
0
220
0
230
0
 70
    8
 71
    3
 72
    8
 73
    4
 74
    0
 42
1e-07
 43
1e-07
 40
0
 40
0
 40
0
 40
0
 40
1
 40
1
 40
1
 40
1
 10
231.5182174769768
 20
165.2989742959203
 30
0
 10
231.5023878003518
 20
165.2810177244186
 30
0
 10
231.4840128233007
 20
165.266582732959
 30
0
 10
231.4691245591625
 20
165.2474058119377
 30
0
  0
SPLINE
  5
B5
100
AcDbEntity
  8
Capa 1
  6
ByLayer
 62
  256
370
    5
100
AcDbSpline
210
0
220
0
230
0
 70
    8
 71
    3
 72
    8
 73
    4
 74
    0
 42
1e-07
 43
1e-07
 40
0
 40
0
 40
0
 40
0
 40
1
 40
1
 40
1
 40
1
 10
231.6707611669183
 20
163.6442500816922
 30
0
 10
231.7106840297714
 20
163.6132532038961
 30
0
 10
231.7539541370214
 20
163.5904152343162
 30
0
 10
231.796422300301
 20
163.5654852369887
 30
0
  0
SPLINE
  5
B6
100
AcDbEntity
  8
Capa 1
  6
ByLayer
 62
  256
370
    5
100
AcDbSpline
210
0
220
0
230
0
 70
    8
 71
    3
 72
    8
 73
    4
 74
    0
 42
1e-07
 43
1e-07
 40
0
 40
0
 40
0
 40
0
 40
1
 40
1
 40
1
 40
1
 10
224.4299741948518
 20
157.5668746072902
 30
0
 10
224.6552158490287
 20
157.5952215832725
 30
0
 10
224.8745300912533
 20
157.6429198159214
 30
0
 10
225.0906714247269
 20
157.6991604952076
 30
0
  0
SPLINE
  5
B7
100
AcDbEntity
  8
Capa 1
  6
ByLayer
 62
  256
370
    5
100
AcDbSpline
210
0
220
0
230
0
 70
    8
 71
    3
 72
    8
 73
    4
 74
    0
 42
1e-07
 43
1e-07
 40
0
 40
0
 40
0
 40
0
 40
1
 40
1
 40
1
 40
1
 10
225.3661566119792
 20
157.7759379135508
 30
0
 10
226.3422618919599
 20
158.0888355303588
 30
0
 10
227.2022944990681
 20
158.6848542356989
 30
0
 10
227.8447213532794
 20
159.5121814756834
 30
0
  0
LINE
  5
B8
100
AcDbEntity
  8
Capa 1
  6
ByLayer
 62
  256
370
    5
100
AcDbLine
 10
225.2861365506268
 20
158.049854079992
 11
224.920903372995
 21
159.2996314565101
  0
SPLINE
  5
B9
100
AcDbEntity
  8
Capa 1
  6
ByLayer
 62
  256
370
    5
100
AcDbSpline
210
0
220
0
230
0
 70
    8
 71
    3
 72
    8
 73
    4
 74
    0
 42
1e-07
 43
1e-07
 40
0
 40
0
 40
0
 40
0
 40
1
 40
1
 40
1
 40
1
 10
225.0106164962458
 20
157.9730766616487
 30
0
 10
224.8089450213605
 20
157.9209503036002
 30
0
 10
224.6043447076286
 20
157.8767039167351
 30
0
 10
224.3942702546231
 20
157.8502746328549
 30
0
  0
LINE
  5
BA
100
AcDbEntity
  8
Capa 1
  6
ByLayer
 62
  256
370
    5
100
AcDbLine
 10
224.6455576542598
 20
159.2222961641007
 11
225.0106164962458
 21
157.9730766616487
  0
LINE
  5
BB
100
AcDbEntity
  8
Capa 1
  6
ByLayer
 62
  256
370
    5
100
AcDbLine
 10
234.0553241280852
 20
172.2032237376285
 11
227.1514582247972
 21
172.4506060188025
  0
LINE
  5
BC
100
AcDbEntity
  8
Capa 1
  6
ByLayer
 62
  256
370
    5
100
AcDbLine
 10
227.0870237701657
 20
172.1669270562049
 11
234.3556695784066
 21
171.9065044687367
  0
LINE
  5
BD
100
AcDbEntity
  8
Capa 1
  6
ByLayer
 62
  256
370
    5
100
AcDbLine
 10
226.5173646144482
 20
171.5241166635733
 11
231.5182174769768
 21
165.2989742959203
  0
LINE
  5
BE
100
AcDbEntity
  8
Capa 1
  6
ByLayer
 62
  256
370
    5
100
AcDbLine
 10
231.7333127965765
 20
165.4880936043187
 11
226.7595168262527
 21
171.6795194581036
  0
SPLINE
  5
BF
100
AcDbEntity
  8
Capa 1
  6
ByLayer
 62
  256
370
    5
100
AcDbSpline
210
0
220
0
230
0
 70
    8
 71
    3
 72
    8
 73
    4
 74
    0
 42
1e-07
 43
1e-07
 40
0
 40
0
 40
0
 40
0
 40
1
 40
1
 40
1
 40
1
 10
232.668763003992
 20
165.6498073492214
 30
0
 10
232.3501471780068
 20
165.7355107526218
 30
0
 10
232.0086585153124
 20
165.6746327451616
 30
0
 10
231.7333127965765
 20
165.4880936043187
 30
0
  0
SPLINE
  5
C0
100
AcDbEntity
  8
Capa 1
  6
ByLayer
 62
  256
370
    5
100
AcDbSpline
210
0
220
0
230
0
 70
    8
 71
    3
 72
    8
 73
    4
 74
    0
 42
1e-07
 43
1e-07
 40
0
 40
0
 40
0
 40
0
 40
1
 40
1
 40
1
 40
1
 10
234.6557709588243
 20
171.4458748258067
 30
0
 10
234.6884763259479
 20
171.4204566886713
 30
0
 10
234.7237967277562
 20
171.40127976765
 30
0
 10
234.7587684582731
 20
171.3813357697879
 30
0
  0
SPLINE
  5
C1
100
AcDbEntity
  8
Capa 1
  6
ByLayer
 62
  256
370
    5
100
AcDbSpline
210
0
220
0
230
0
 70
    8
 71
    3
 72
    8
 73
    4
 74
    0
 42
1e-07
 43
1e-07
 40
0
 40
0
 40
0
 40
0
 40
1
 40
1
 40
1
 40
1
 10
234.3556695784066
 20
171.9065044687367
 30
0
 10
234.4016593217284
 20
171.7301465295997
 30
0
 10
234.5007168355854
 20
171.5663058898201
 30
0
 10
234.6557709588243
 20
171.4458748258067
 30
0
  0
LINE
  5
C2
100
AcDbEntity
  8
Capa 1
  6
ByLayer
 62
  256
370
    5
100
AcDbLine
 10
234.7587684582731
 20
171.3813357697879
 11
232.668763003992
 21
165.6498073492214
  0
SPLINE
  5
C3
100
AcDbEntity
  8
Capa 1
  6
ByLayer
 62
  256
370
    5
100
AcDbSpline
210
0
220
0
230
0
 70
    8
 71
    3
 72
    8
 73
    4
 74
    0
 42
1e-07
 43
1e-07
 40
0
 40
0
 40
0
 40
0
 40
1
 40
1
 40
1
 40
1
 10
233.0722454222786
 20
165.4490424196938
 30
0
 10
233.0277200983805
 20
165.4836306117903
 30
0
 10
232.9797080615691
 20
165.5098506928955
 30
0
 10
232.9320795631784
 20
165.536872717971
 30
0
  0
LINE
  5
C4
100
AcDbEntity
  8
Capa 1
  6
ByLayer
 62
  256
370
    5
100
AcDbLine
 10
232.9320795631784
 20
165.536872717971
 11
234.8897293952834
 21
170.9054691914284
  0
SPLINE
  5
C5
100
AcDbEntity
  8
Capa 1
  6
ByLayer
 62
  256
370
    5
100
AcDbSpline
210
0
220
0
230
0
 70
    8
 71
    3
 72
   11
 73
    7
 74
    0
 42
1e-07
 43
1e-07
 40
0
 40
0
 40
0
 40
0
 40
0.25
 40
0.5
 40
0.75
 40
1
 40
1
 40
1
 40
1
 10
232.4785976817196
 20
156.3234430482735
 30
0
 10
232.852373305988
 20
156.0331741982707
 30
0
 10
233.3906869126186
 20
156.1008861630398
 30
0
 10
233.6809557626219
 20
156.4746617873084
 30
0
 10
233.9712246126246
 20
156.8484374115764
 30
0
 10
233.9035126478554
 20
157.386751018207
 30
0
 10
233.529702156458
 20
157.6770198682104
 30
0
  0
SPLINE
  5
C6
100
AcDbEntity
  8
Capa 1
  6
ByLayer
 62
  256
370
    5
100
AcDbSpline
210
0
220
0
230
0
 70
    8
 71
    3
 72
    8
 73
    4
 74
    0
 42
1e-07
 43
1e-07
 40
0
 40
0
 40
0
 40
0
 40
1
 40
1
 40
1
 40
1
 10
233.529702156458
 20
157.6770198682104
 30
0
 10
233.4560627797362
 20
157.7342019599828
 30
0
 10
233.3750664387686
 20
157.773532081641
 30
0
 10
233.2918386015362
 20
157.8033086099173
 30
0
  0
LINE
  5
C7
100
AcDbEntity
  8
Capa 1
  6
ByLayer
 62
  256
370
    5
100
AcDbLine
 10
233.2918386015362
 20
157.8033086099173
 11
235.230450981137
 21
171.2707721033182
  0
SPLINE
  5
C8
100
AcDbEntity
  8
Capa 1
  6
ByLayer
 62
  256
370
    5
100
AcDbSpline
210
0
220
0
230
0
 70
    8
 71
    3
 72
    8
 73
    4
 74
    0
 42
1e-07
 43
1e-07
 40
0
 40
0
 40
0
 40
0
 40
1
 40
1
 40
1
 40
1
 10
232.6120341848985
 20
163.4350124397859
 30
0
 10
232.8653090108954
 20
163.4896492311319
 30
0
 10
233.1025449574923
 20
163.6252126291874
 30
0
 10
233.2739168971636
 20
163.8458866894481
 30
0
  0
SPLINE
  5
C9
100
AcDbEntity
  8
Capa 1
  6
ByLayer
 62
  256
370
    5
100
AcDbSpline
210
0
220
0
230
0
 70
    8
 71
    3
 72
    8
 73
    4
 74
    0
 42
1e-07
 43
1e-07
 40
0
 40
0
 40
0
 40
0
 40
1
 40
1
 40
1
 40
1
 10
233.2739168971636
 20
163.8458866894481
 30
0
 10
233.660907163372
 20
164.3442774332254
 30
0
 10
233.5706361660558
 20
165.062017286356
 30
0
 10
233.0722454222786
 20
165.4490424196938
 30
0
  0
LINE
  5
CA
100
AcDbEntity
  8
Capa 1
  6
ByLayer
 62
  256
370
    5
100
AcDbLine
 10
234.8897293952834
 20
170.9054691914284
 11
233.0547769905852
 21
158.1576981103899
  0
LINE
  5
CB
100
AcDbEntity
  8
Capa 1
  6
ByLayer
 62
  256
370
    5
100
AcDbLine
 10
233.0547769905852
 20
158.1576981103899
 11
232.6120341848985
 21
163.4350124397859
  0
SPLINE
  5
CC
100
AcDbEntity
  8
Capa 1
  6
ByLayer
 62
  256
370
    5
100
AcDbSpline
210
0
220
0
230
0
 70
    8
 71
    3
 72
    8
 73
    4
 74
    0
 42
1e-07
 43
1e-07
 40
0
 40
0
 40
0
 40
0
 40
1
 40
1
 40
1
 40
1
 10
227.392285485695
 20
153.3447093396107
 30
0
 10
227.3344409184688
 20
153.3857130834669
 30
0
 10
227.2748529947865
 20
153.4219400306326
 30
0
 10
227.212510567903
 20
153.4508100135521
 30
0
  0
LINE
  5
CD
100
AcDbEntity
  8
Capa 1
  6
ByLayer
 62
  256
370
    5
100
AcDbLine
 10
226.6012200600044
 20
153.5495885903757
 11
225.3661566119792
 21
157.7759379135508
  0
SPLINE
  5
CE
100
AcDbEntity
  8
Capa 1
  6
ByLayer
 62
  256
370
    5
100
AcDbSpline
210
0
220
0
230
0
 70
    8
 71
    3
 72
    8
 73
    4
 74
    0
 42
1e-07
 43
1e-07
 40
0
 40
0
 40
0
 40
0
 40
1
 40
1
 40
1
 40
1
 10
232.4501112372208
 20
156.3505696747366
 30
0
 10
232.4601878375393
 20
156.3419574938416
 30
0
 10
232.4679980744644
 20
156.3316716907483
 30
0
 10
232.4785976817196
 20
156.3234430482735
 30
0
  0
SPLINE
  5
CF
100
AcDbEntity
  8
Capa 1
  6
ByLayer
 62
  256
370
    5
100
AcDbSpline
210
0
220
0
230
0
 70
    8
 71
    3
 72
    8
 73
    4
 74
    0
 42
1e-07
 43
1e-07
 40
0
 40
0
 40
0
 40
0
 40
1
 40
1
 40
1
 40
1
 10
232.7959931581858
 20
157.827715600308
 30
0
 10
232.6166017788147
 20
157.7827370037309
 30
0
 10
232.449588230284
 20
157.683191350066
 30
0
 10
232.3273440755558
 20
157.5258011291755
 30
0
  0
LINE
  5
D0
100
AcDbEntity
  8
Capa 1
  6
ByLayer
 62
  256
370
    5
100
AcDbLine
 10
227.212510567903
 20
153.4508100135521
 11
232.0573330275769
 21
163.4498309696661
  0
LINE
  5
D1
100
AcDbEntity
  8
Capa 1
  6
ByLayer
 62
  256
370
    5
100
AcDbLine
 10
231.796422300301
 20
163.5654852369887
 11
226.9362234366808
 21
153.535118731787
  0
LINE
  5
D2
100
AcDbEntity
  8
Capa 1
  6
ByLayer
 62
  256
370
    5
100
AcDbLine
 10
232.3277973482347
 20
163.4075371420319
 11
232.7959931581858
 21
157.827715600308
  0
SPLINE
  5
D3
100
AcDbEntity
  8
Capa 1
  6
ByLayer
 62
  256
370
    5
100
AcDbSpline
210
0
220
0
230
0
 70
    8
 71
    3
 72
    8
 73
    4
 74
    0
 42
1e-07
 43
1e-07
 40
0
 40
0
 40
0
 40
0
 40
1
 40
1
 40
1
 40
1
 10
232.0573330275769
 20
163.4498309696661
 30
0
 10
232.1462093397284
 20
163.4243779654016
 30
0
 10
232.2367244069483
 20
163.4109192535575
 30
0
 10
232.3277973482347
 20
163.4075371420319
 30
0
  0
SPLINE
  5
D4
100
AcDbEntity
  8
Capa 1
  6
ByLayer
 62
  256
370
    5
100
AcDbSpline
210
0
220
0
230
0
 70
    8
 71
    3
 72
    8
 73
    4
 74
    0
 42
1e-07
 43
1e-07
 40
0
 40
0
 40
0
 40
0
 40
1
 40
1
 40
1
 40
1
 10
232.3273440755558
 20
157.5258011291755
 30
0
 10
232.1066002810372
 20
157.2414945582533
 30
0
 10
232.0940829816795
 20
156.8626283331326
 30
0
 10
232.2645832431228
 20
156.5695352456697
 30
0
  0
SPLINE
  5
D5
100
AcDbEntity
  8
Capa 1
  6
ByLayer
 62
  256
370
    5
100
AcDbSpline
210
0
220
0
230
0
 70
    8
 71
    3
 72
    8
 73
    4
 74
    0
 42
1e-07
 43
1e-07
 40
0
 40
0
 40
0
 40
0
 40
1
 40
1
 40
1
 40
1
 10
225.6236154934715
 20
152.169791689334
 30
0
 10
225.6790890959166
 20
151.9185391568268
 30
0
 10
225.8141643541641
 20
151.6834649722356
 30
0
 10
226.0332693936141
 20
151.5133133820837
 30
0
  0
SPLINE
  5
D6
100
AcDbEntity
  8
Capa 1
  6
ByLayer
 62
  256
370
    5
100
AcDbSpline
210
0
220
0
230
0
 70
    8
 71
    3
 72
    8
 73
    4
 74
    0
 42
1e-07
 43
1e-07
 40
0
 40
0
 40
0
 40
0
 40
1
 40
1
 40
1
 40
1
 10
226.0332693936141
 20
151.5133133820836
 30
0
 10
226.531625270262
 20
151.1263231158752
 30
0
 10
227.249399990522
 20
151.2165941131913
 30
0
 10
227.6363902567303
 20
151.7149848569686
 30
0
  0
SPLINE
  5
D7
100
AcDbEntity
  8
Capa 1
  6
ByLayer
 62
  256
370
    5
100
AcDbSpline
210
0
220
0
230
0
 70
    8
 71
    3
 72
    8
 73
    4
 74
    0
 42
1e-07
 43
1e-07
 40
0
 40
0
 40
0
 40
0
 40
1
 40
1
 40
1
 40
1
 10
227.6363902567303
 20
151.7149848569686
 30
0
 10
227.9720561088604
 20
152.1471977896577
 30
0
 10
227.9475445170822
 20
152.7438441033222
 30
0
 10
227.6103096441413
 20
153.1472219202212
 30
0
  0
LINE
  5
D8
100
AcDbEntity
  8
Capa 1
  6
ByLayer
 62
  256
370
    5
100
AcDbLine
 10
227.6103096441413
 20
153.1472219202212
 11
232.4501112372208
 21
156.3505696747366
  0
LINE
  5
D9
100
AcDbEntity
  8
Capa 1
  6
ByLayer
 62
  256
370
    5
100
AcDbLine
 10
232.2645832431228
 20
156.5695352456697
 11
227.392285485695
 21
153.3447093396107
  0
SPLINE
  5
DA
100
AcDbEntity
  8
Capa 1
  6
ByLayer
 62
  256
370
    5
100
AcDbSpline
210
0
220
0
230
0
 70
    8
 71
    3
 72
    8
 73
    4
 74
    0
 42
1e-07
 43
1e-07
 40
0
 40
0
 40
0
 40
0
 40
1
 40
1
 40
1
 40
1
 10
235.7069103006917
 20
172.7994865128723
 30
0
 10
235.3331346764232
 20
173.0897204957463
 30
0
 10
234.7948210697929
 20
173.0220085309769
 30
0
 10
234.50455221979
 20
172.6482329067084
 30
0
  0
SPLINE
  5
DB
100
AcDbEntity
  8
Capa 1
  6
ByLayer
 62
  256
370
    5
100
AcDbSpline
210
0
220
0
230
0
 70
    8
 71
    3
 72
    8
 73
    4
 74
    0
 42
1e-07
 43
1e-07
 40
0
 40
0
 40
0
 40
0
 40
1
 40
1
 40
1
 40
1
 10
235.230450981137
 20
171.2707721033182
 30
0
 10
235.4687678087373
 20
171.2846143535827
 30
0
 10
235.7002506790281
 20
171.3937833348871
 30
0
 10
235.858129039726
 20
171.5971284319705
 30
0
  0
SPLINE
  5
DC
100
AcDbEntity
  8
Capa 1
  6
ByLayer
 62
  256
370
    5
100
AcDbSpline
210
0
220
0
230
0
 70
    8
 71
    3
 72
    8
 73
    4
 74
    0
 42
1e-07
 43
1e-07
 40
0
 40
0
 40
0
 40
0
 40
1
 40
1
 40
1
 40
1
 10
235.8581290397262
 20
171.5971284319705
 30
0
 10
236.1483978897295
 20
171.9709040562387
 30
0
 10
236.0806859249601
 20
172.5092176628692
 30
0
 10
235.7069103006917
 20
172.7994865128723
 30
0
  0
LINE
  5
DD
100
AcDbEntity
  8
Capa 1
  6
ByLayer
 62
  256
370
    5
100
AcDbLine
 10
225.1131607230154
 20
173.2474942550573
 11
221.901688927413
 21
175.7413307989162
  0
SPLINE
  5
DE
100
AcDbEntity
  8
Capa 1
  6
ByLayer
 62
  256
370
    5
100
AcDbSpline
210
0
220
0
230
0
 70
    8
 71
    3
 72
    8
 73
    4
 74
    0
 42
1e-07
 43
1e-07
 40
0
 40
0
 40
0
 40
0
 40
1
 40
1
 40
1
 40
1
 10
221.901688927413
 20
175.7413307989162
 30
0
 10
221.9035717523861
 20
175.7441899035047
 30
0
 10
221.9052453745842
 20
175.7471187423516
 30
0
 10
221.9070933324283
 20
175.7499778469404
 30
0
  0
SPLINE
  5
DF
100
AcDbEntity
  8
Capa 1
  6
ByLayer
 62
  256
370
    5
100
AcDbSpline
210
0
220
0
230
0
 70
    8
 71
    3
 72
    8
 73
    4
 74
    0
 42
1e-07
 43
1e-07
 40
0
 40
0
 40
0
 40
0
 40
1
 40
1
 40
1
 40
1
 10
234.50455221979
 20
172.6482329067084
 30
0
 10
234.4465333169184
 20
172.573512648984
 30
0
 10
234.4067150554524
 20
172.4912610913675
 30
0
 10
234.3769036600464
 20
172.4067083032285
 30
0
  0
LINE
  5
E0
100
AcDbEntity
  8
Capa 1
  6
ByLayer
 62
  256
370
    5
100
AcDbLine
 10
234.3769036600464
 20
172.4067083032285
 11
222.0205161034865
 21
176.0140963500964
  0
LINE
  5
E1
100
AcDbEntity
  8
Capa 1
  6
ByLayer
 62
  256
370
    5
100
AcDbLine
 10
221.9070933324283
 20
175.7499778469404
 11
234.0553241280852
 21
172.2032237376285
  0
SPLINE
  5
E2
100
AcDbEntity
  8
Capa 1
  6
ByLayer
 62
  256
370
    5
100
AcDbSpline
210
0
220
0
230
0
 70
    8
 71
    3
 72
    8
 73
    4
 74
    0
 42
1e-07
 43
1e-07
 40
0
 40
0
 40
0
 40
0
 40
1
 40
1
 40
1
 40
1
 10
227.1514582247971
 20
172.4506060188025
 30
0
 10
227.1821412984311
 20
172.8224988180978
 30
0
 10
227.0318291047541
 20
173.2019229172852
 30
0
 10
226.7151309708705
 20
173.4478756461647
 30
0
  0
SPLINE
  5
E3
100
AcDbEntity
  8
Capa 1
  6
ByLayer
 62
  256
370
    5
100
AcDbSpline
210
0
220
0
230
0
 70
    8
 71
    3
 72
    8
 73
    4
 74
    0
 42
1e-07
 43
1e-07
 40
0
 40
0
 40
0
 40
0
 40
1
 40
1
 40
1
 40
1
 10
226.7151309708705
 20
173.4478756461647
 30
0
 10
226.2171934997722
 20
173.8345521082108
 30
0
 10
225.5004647933861
 20
173.7446646493151
 30
0
 10
225.1131607230154
 20
173.2474942550573
 30
0
  0
SPLINE
  5
E4
100
AcDbEntity
  8
Capa 1
  6
ByLayer
 62
  256
370
    5
100
AcDbSpline
210
0
220
0
230
0
 70
    8
 71
    3
 72
    8
 73
    4
 74
    0
 42
1e-07
 43
1e-07
 40
0
 40
0
 40
0
 40
0
 40
1
 40
1
 40
1
 40
1
 10
222.0205161034865
 20
176.0140963500964
 30
0
 10
222.0936673404002
 20
176.3296438687184
 30
0
 10
221.9860673799065
 20
176.6730153563858
 30
0
 10
221.713441297243
 20
176.884693697331
 30
0
  0
SPLINE
  5
E5
100
AcDbEntity
  8
Capa 1
  6
ByLayer
 62
  256
370
    5
100
AcDbSpline
210
0
220
0
230
0
 70
    8
 71
    3
 72
    8
 73
    4
 74
    0
 42
1e-07
 43
1e-07
 40
0
 40
0
 40
0
 40
0
 40
1
 40
1
 40
1
 40
1
 10
221.713441297243
 20
176.884693697331
 30
0
 10
221.3396656729745
 20
177.1749625473342
 30
0
 10
220.8013520663442
 20
177.1072505825646
 30
0
 10
220.5111180834702
 20
176.7334749582963
 30
0
  0
SPLINE
  5
E6
100
AcDbEntity
  8
Capa 1
  6
ByLayer
 62
  256
370
    5
100
AcDbSpline
210
0
220
0
230
0
 70
    8
 71
    3
 72
    8
 73
    4
 74
    0
 42
1e-07
 43
1e-07
 40
0
 40
0
 40
0
 40
0
 40
1
 40
1
 40
1
 40
1
 10
220.5111180834702
 20
176.7334749582963
 30
0
 10
220.2692099415695
 20
176.4219720266532
 30
0
 10
220.2792168076299
 20
175.9979877364386
 30
0
 10
220.5045281960648
 20
175.6967357407595
 30
0
  0
SPLINE
  5
E7
100
AcDbEntity
  8
Capa 1
  6
ByLayer
 62
  256
370
    5
100
AcDbSpline
210
0
220
0
230
0
 70
    8
 71
    3
 72
    8
 73
    4
 74
    0
 42
1e-07
 43
1e-07
 40
0
 40
0
 40
0
 40
0
 40
1
 40
1
 40
1
 40
1
 10
220.7131382296466
 20
175.4992831884992
 30
0
 10
221.022130727992
 20
175.2922073085991
 30
0
 10
221.4215336921709
 20
175.3108960898124
 30
0
 10
221.7077230880657
 20
175.5305590033283
 30
0
  0
LINE
  5
E8
100
AcDbEntity
  8
Capa 1
  6
ByLayer
 62
  256
370
    5
100
AcDbLine
 10
213.1842790367121
 20
168.4849930872582
 11
225.0658111616573
 21
171.9175224815414
  0
LINE
  5
E9
100
AcDbEntity
  8
Capa 1
  6
ByLayer
 62
  256
370
    5
100
AcDbLine
 10
224.9341180149356
 20
172.1768293208777
 11
213.0328162277734
 21
168.738616584546
  0
LINE
  5
EA
100
AcDbEntity
  8
Capa 1
  6
ByLayer
 62
  256
370
    5
100
AcDbLine
 10
212.9340376509498
 20
168.8423114265772
 11
220.7131382296466
 21
175.4992831884992
  0
LINE
  5
EB
100
AcDbEntity
  8
Capa 1
  6
ByLayer
 62
  256
370
    5
100
AcDbLine
 10
220.5045281960648
 20
175.6967357407595
 11
212.6999746131033
 21
169.0180068902609
  0
SPLINE
  5
EC
100
AcDbEntity
  8
Capa 1
  6
ByLayer
 62
  256
370
    5
100
AcDbSpline
210
0
220
0
230
0
 70
    8
 71
    3
 72
    8
 73
    4
 74
    0
 42
1e-07
 43
1e-07
 40
0
 40
0
 40
0
 40
0
 40
1
 40
1
 40
1
 40
1
 10
226.3646814559902
 20
160.6614020517919
 30
0
 10
225.967893526496
 20
160.1501802044951
 30
0
 10
225.4397262544422
 20
159.778252538071
 30
0
 10
224.8402905704478
 20
159.5754653150537
 30
0
  0
SPLINE
  5
ED
100
AcDbEntity
  8
Capa 1
  6
ByLayer
 62
  256
370
    5
100
AcDbSpline
210
0
220
0
230
0
 70
    8
 71
    3
 72
    8
 73
    4
 74
    0
 42
1e-07
 43
1e-07
 40
0
 40
0
 40
0
 40
0
 40
1
 40
1
 40
1
 40
1
 10
224.2319289013964
 20
159.1428688439439
 30
0
 10
224.3725829003046
 20
159.1605813455416
 30
0
 10
224.509994256204
 20
159.1888237201367
 30
0
 10
224.6455576542598
 20
159.2222961641007
 30
0
  0
LINE
  5
EE
100
AcDbEntity
  8
Capa 1
  6
ByLayer
 62
  256
370
    5
100
AcDbLine
 10
224.2423890401351
 20
160.6019884637557
 11
224.5617719429612
 21
159.5089736998037
  0
LINE
  5
EF
100
AcDbEntity
  8
Capa 1
  6
ByLayer
 62
  256
370
    5
100
AcDbLine
 10
224.8402905704478
 20
159.5754653150537
 11
224.5180136959041
 21
160.6783126094199
  0
SPLINE
  5
F0
100
AcDbEntity
  8
Capa 1
  6
ByLayer
 62
  256
370
    5
100
AcDbSpline
210
0
220
0
230
0
 70
    8
 71
    3
 72
    8
 73
    4
 74
    0
 42
1e-07
 43
1e-07
 40
0
 40
0
 40
0
 40
0
 40
1
 40
1
 40
1
 40
1
 10
224.8114205875289
 20
167.6911382912376
 30
0
 10
224.2703176105678
 20
167.8007954123498
 30
0
 10
223.7107350551683
 20
167.8275733675212
 30
0
 10
223.1485374650845
 20
167.7561654870641
 30
0
  0
SPLINE
  5
F1
100
AcDbEntity
  8
Capa 1
  6
ByLayer
 62
  256
370
    5
100
AcDbSpline
210
0
220
0
230
0
 70
    8
 71
    3
 72
   11
 73
    7
 74
    0
 42
1e-07
 43
1e-07
 40
0
 40
0
 40
0
 40
0
 40
0.25
 40
0.5
 40
0.75
 40
1
 40
1
 40
1
 40
1
 10
223.1842414053128
 20
167.4727654614994
 30
0
 10
223.3900969356933
 20
167.4987066055718
 30
0
 10
223.5953945920082
 20
167.5115377090915
 30
0
 10
223.7990186261241
 20
167.5115377090915
 30
0
 10
224.1198659483739
 20
167.5115377090915
 30
0
 10
224.4364943479992
 20
167.4761127058959
 30
0
 10
224.7470210000267
 20
167.4138400132706
 30
0
  0
SPLINE
  5
F2
100
AcDbEntity
  8
Capa 1
  6
ByLayer
 62
  256
370
    5
100
AcDbSpline
210
0
220
0
230
0
 70
    8
 71
    3
 72
    8
 73
    4
 74
    0
 42
1e-07
 43
1e-07
 40
0
 40
0
 40
0
 40
0
 40
1
 40
1
 40
1
 40
1
 10
224.4515569477828
 20
166.141852275497
 30
0
 10
223.1850084821539
 20
166.3803783058718
 30
0
 10
221.8315711307338
 20
165.9218755578191
 30
0
 10
220.988449081253
 20
164.8365315622757
 30
0
  0
SPLINE
  5
F3
100
AcDbEntity
  8
Capa 1
  6
ByLayer
 62
  256
370
    5
100
AcDbSpline
210
0
220
0
230
0
 70
    8
 71
    3
 72
    8
 73
    4
 74
    0
 42
1e-07
 43
1e-07
 40
0
 40
0
 40
0
 40
0
 40
1
 40
1
 40
1
 40
1
 10
219.6688677122179
 20
159.6014761933844
 30
0
 10
219.9437601582749
 20
159.2325819671939
 30
0
 10
220.2667343754015
 20
158.8960793039652
 30
0
 10
220.6400567269911
 20
158.6061939923825
 30
0
  0
SPLINE
  5
F4
100
AcDbEntity
  8
Capa 1
  6
ByLayer
 62
  256
370
    5
100
AcDbSpline
210
0
220
0
230
0
 70
    8
 71
    3
 72
   11
 73
    7
 74
    0
 42
1e-07
 43
1e-07
 40
0
 40
0
 40
0
 40
0
 40
0.25
 40
0.5
 40
0.75
 40
1
 40
1
 40
1
 40
1
 10
220.6400567269911
 20
158.6061939923825
 30
0
 10
221.5499493287546
 20
157.899367550669
 30
0
 10
222.6450561204542
 20
157.5255919264005
 30
0
 10
223.7789351597459
 20
157.5255919264006
 30
0
 10
223.9948324233156
 20
157.5255919264005
 30
0
 10
224.2124033090838
 20
157.5395387780525
 30
0
 10
224.4299741948518
 20
157.5668746072902
 30
0
  0
SPLINE
  5
F5
100
AcDbEntity
  8
Capa 1
  6
ByLayer
 62
  256
370
    5
100
AcDbSpline
210
0
220
0
230
0
 70
    8
 71
    3
 72
    8
 73
    4
 74
    0
 42
1e-07
 43
1e-07
 40
0
 40
0
 40
0
 40
0
 40
1
 40
1
 40
1
 40
1
 10
217.0493700349763
 20
156.79383548736
 30
0
 10
217.0557855867359
 20
157.0740277370447
 30
0
 10
216.9620627436359
 20
157.353104238597
 30
0
 10
216.7704678690693
 20
157.571965208143
 30
0
  0
LINE
  5
F6
100
AcDbEntity
  8
Capa 1
  6
ByLayer
 62
  256
370
    5
100
AcDbLine
 10
216.7704678690693
 20
157.571965208143
 11
219.6688677122179
 21
159.6014761933844
  0
SPLINE
  5
F7
100
AcDbEntity
  8
Capa 1
  6
ByLayer
 62
  256
370
    5
100
AcDbSpline
210
0
220
0
230
0
 70
    8
 71
    3
 72
    8
 73
    4
 74
    0
 42
1e-07
 43
1e-07
 40
0
 40
0
 40
0
 40
0
 40
1
 40
1
 40
1
 40
1
 10
215.2100243720074
 20
155.9184613434346
 30
0
 10
215.5495953425996
 20
155.654761245828
 30
0
 10
215.9892698409227
 20
155.6176974875631
 30
0
 10
216.3585127384042
 20
155.7752969112285
 30
0
  0
SPLINE
  5
F8
100
AcDbEntity
  8
Capa 1
  6
ByLayer
 62
  256
370
    5
100
AcDbSpline
210
0
220
0
230
0
 70
    8
 71
    3
 72
    8
 73
    4
 74
    0
 42
1e-07
 43
1e-07
 40
0
 40
0
 40
0
 40
0
 40
1
 40
1
 40
1
 40
1
 10
214.9446855193318
 20
157.4200142593966
 30
0
 10
214.6403303491604
 20
156.9295034868027
 30
0
 10
214.7439205898042
 20
156.2804170109279
 30
0
 10
215.2100243720074
 20
155.9184613434346
 30
0
  0
SPLINE
  5
F9
100
AcDbEntity
  8
Capa 1
  6
ByLayer
 62
  256
370
    5
100
AcDbSpline
210
0
220
0
230
0
 70
    8
 71
    3
 72
    8
 73
    4
 74
    0
 42
1e-07
 43
1e-07
 40
0
 40
0
 40
0
 40
0
 40
1
 40
1
 40
1
 40
1
 10
222.1161566386888
 20
163.9608436141881
 30
0
 10
222.0537096104178
 20
163.8804400144155
 30
0
 10
222.0066389860929
 20
163.793620862883
 30
0
 10
221.9575112011495
 20
163.7077082567079
 30
0
  0
SPLINE
  5
FA
100
AcDbEntity
  8
Capa 1
  6
ByLayer
 62
  256
370
    5
100
AcDbSpline
210
0
220
0
230
0
 70
    8
 71
    3
 72
   11
 73
    7
 74
    0
 42
1e-07
 43
1e-07
 40
0
 40
0
 40
0
 40
0
 40
0.25
 40
0.5
 40
0.75
 40
1
 40
1
 40
1
 40
1
 10
221.2138302039463
 20
164.6613591055291
 30
0
 10
221.8559432539953
 20
165.4881284714478
 30
0
 10
222.8193917661018
 20
165.9210387467199
 30
0
 10
223.7928820113973
 20
165.9210387467199
 30
0
 10
223.9914851789192
 20
165.9210387467199
 30
0
 10
224.1897048080206
 20
165.897956707236
 30
0
 10
224.3864600176982
 20
165.8615554244248
 30
0
  0
SPLINE
  5
FB
100
AcDbEntity
  8
Capa 1
  6
ByLayer
 62
  256
370
    5
100
AcDbSpline
210
0
220
0
230
0
 70
    8
 71
    3
 72
    8
 73
    4
 74
    0
 42
1e-07
 43
1e-07
 40
0
 40
0
 40
0
 40
0
 40
1
 40
1
 40
1
 40
1
 10
224.1266999056832
 20
164.7432968589836
 30
0
 10
223.3870983625885
 20
164.8622983707025
 30
0
 10
222.6080620964477
 20
164.5942747490839
 30
0
 10
222.1161566386888
 20
163.9608436141881
 30
0
  0
LINE
  5
FC
100
AcDbEntity
  8
Capa 1
  6
ByLayer
 62
  256
370
    5
100
AcDbLine
 10
224.3864600176982
 20
165.8615554244248
 11
224.1266999056832
 21
164.7432968589836
  0
SPLINE
  5
FD
100
AcDbEntity
  8
Capa 1
  6
ByLayer
 62
  256
370
    5
100
AcDbSpline
210
0
220
0
230
0
 70
    8
 71
    3
 72
    8
 73
    4
 74
    0
 42
1e-07
 43
1e-07
 40
0
 40
0
 40
0
 40
0
 40
1
 40
1
 40
1
 40
1
 10
223.1485374650845
 20
167.7561654870641
 30
0
 10
221.7876036809016
 20
167.5851770858128
 30
0
 10
220.5747854612606
 20
166.8942500549825
 30
0
 10
219.7337903066568
 20
165.8108586186705
 30
0
  0
SPLINE
  5
FE
100
AcDbEntity
  8
Capa 1
  6
ByLayer
 62
  256
370
    5
100
AcDbSpline
210
0
220
0
230
0
 70
    8
 71
    3
 72
    8
 73
    4
 74
    0
 42
1e-07
 43
1e-07
 40
0
 40
0
 40
0
 40
0
 40
1
 40
1
 40
1
 40
1
 10
219.7337903066568
 20
165.8108586186705
 30
0
 10
219.5412191524746
 20
165.5629184634307
 30
0
 10
219.3765765687251
 20
165.2998111070194
 30
0
 10
219.2343186818769
 20
165.0273244928722
 30
0
  0
SPLINE
  5
FF
100
AcDbEntity
  8
Capa 1
  6
ByLayer
 62
  256
370
    5
100
AcDbSpline
210
0
220
0
230
0
 70
    8
 71
    3
 72
    8
 73
    4
 74
    0
 42
1e-07
 43
1e-07
 40
0
 40
0
 40
0
 40
0
 40
1
 40
1
 40
1
 40
1
 10
219.4914637592069
 20
164.9027093733635
 30
0
 10
219.625004863773
 20
165.1574834859127
 30
0
 10
219.7789781060088
 20
165.4036802846963
 30
0
 10
219.9591714293501
 20
165.6356861619241
 30
0
  0
SPLINE
  5
100
100
AcDbEntity
  8
Capa 1
  6
ByLayer
 62
  256
370
    5
100
AcDbSpline
210
0
220
0
230
0
 70
    8
 71
    3
 72
    8
 73
    4
 74
    0
 42
1e-07
 43
1e-07
 40
0
 40
0
 40
0
 40
0
 40
1
 40
1
 40
1
 40
1
 10
219.9591714293501
 20
165.6356861619241
 30
0
 10
220.7535840994368
 20
166.6588271991003
 30
0
 10
221.8988995570826
 20
167.3112609193714
 30
0
 10
223.1842414053128
 20
167.4727654614994
 30
0
  0
SPLINE
  5
101
100
AcDbEntity
  8
Capa 1
  6
ByLayer
 62
  256
370
    5
100
AcDbSpline
210
0
220
0
230
0
 70
    8
 71
    3
 72
    8
 73
    4
 74
    0
 42
1e-07
 43
1e-07
 40
0
 40
0
 40
0
 40
0
 40
1
 40
1
 40
1
 40
1
 10
225.9672659181721
 20
171.4063006342446
 30
0
 10
226.1569431006361
 20
171.3986647329653
 30
0
 10
226.3455394020977
 20
171.43973821108
 30
0
 10
226.5173646144482
 20
171.5241166635733
 30
0
  0
SPLINE
  5
102
100
AcDbEntity
  8
Capa 1
  6
ByLayer
 62
  256
370
    5
100
AcDbSpline
210
0
220
0
230
0
 70
    8
 71
    3
 72
    8
 73
    4
 74
    0
 42
1e-07
 43
1e-07
 40
0
 40
0
 40
0
 40
0
 40
1
 40
1
 40
1
 40
1
 10
226.7595168262527
 20
171.6795194581036
 30
0
 10
226.8162107782172
 20
171.728403173143
 30
0
 10
226.8691042131065
 20
171.7833537686512
 30
0
 10
226.9167675786266
 20
171.8447547830482
 30
0
  0
SPLINE
  5
103
100
AcDbEntity
  8
Capa 1
  6
ByLayer
 62
  256
370
    5
100
AcDbSpline
210
0
220
0
230
0
 70
    8
 71
    3
 72
    8
 73
    4
 74
    0
 42
1e-07
 43
1e-07
 40
0
 40
0
 40
0
 40
0
 40
1
 40
1
 40
1
 40
1
 10
226.9167675786266
 20
171.8447547830482
 30
0
 10
226.9941726052942
 20
171.9444050381004
 30
0
 10
227.0472403758291
 20
172.0541318934709
 30
0
 10
227.0870237701657
 20
172.1669270562049
 30
0
  0
SPLINE
  5
104
100
AcDbEntity
  8
Capa 1
  6
ByLayer
 62
  256
370
    5
100
AcDbSpline
210
0
220
0
230
0
 70
    8
 71
    3
 72
    8
 73
    4
 74
    0
 42
1e-07
 43
1e-07
 40
0
 40
0
 40
0
 40
0
 40
1
 40
1
 40
1
 40
1
 10
225.0658111616573
 20
171.9175224815414
 30
0
 10
225.1327560495864
 20
171.8163380728076
 30
0
 10
225.2124623067762
 20
171.721673817221
 30
0
 10
225.3136118483812
 20
171.6431181752921
 30
0
  0
SPLINE
  5
105
100
AcDbEntity
  8
Capa 1
  6
ByLayer
 62
  256
370
    5
100
AcDbSpline
210
0
220
0
230
0
 70
    8
 71
    3
 72
    8
 73
    4
 74
    0
 42
1e-07
 43
1e-07
 40
0
 40
0
 40
0
 40
0
 40
1
 40
1
 40
1
 40
1
 10
225.3136118483812
 20
171.6431181752921
 30
0
 10
225.4280108990549
 20
171.5542767302702
 30
0
 10
225.5546831791822
 20
171.4935730584559
 30
0
 10
225.6855395148053
 20
171.4542080696686
 30
0
  0
LINE
  5
106
100
AcDbEntity
  8
Capa 1
  6
ByLayer
 62
  256
370
    5
100
AcDbLine
 10
225.6855395148053
 20
171.4542080696686
 11
224.8114205875289
 21
167.6911382912376
  0
LINE
  5
107
100
AcDbEntity
  8
Capa 1
  6
ByLayer
 62
  256
370
    5
100
AcDbLine
 10
225.0899392150154
 20
167.62935373842
 11
225.9672659181721
 21
171.4063006342446
  0
SPLINE
  5
108
100
AcDbEntity
  8
Capa 1
  6
ByLayer
 62
  256
370
    5
100
AcDbSpline
210
0
220
0
230
0
 70
    8
 71
    3
 72
    8
 73
    4
 74
    0
 42
1e-07
 43
1e-07
 40
0
 40
0
 40
0
 40
0
 40
1
 40
1
 40
1
 40
1
 10
213.0465887437797
 20
167.3239874215038
 30
0
 10
213.1200189177265
 20
167.418547075703
 30
0
 10
213.1708203248682
 20
167.5223465191215
 30
0
 10
213.210359649301
 20
167.6289353328704
 30
0
  0
SPLINE
  5
109
100
AcDbEntity
  8
Capa 1
  6
ByLayer
 62
  256
370
    5
100
AcDbSpline
210
0
220
0
230
0
 70
    8
 71
    3
 72
    8
 73
    4
 74
    0
 42
1e-07
 43
1e-07
 40
0
 40
0
 40
0
 40
0
 40
1
 40
1
 40
1
 40
1
 10
213.0328162277734
 20
168.738616584546
 30
0
 10
213.0031791680136
 20
168.7754711400362
 30
0
 10
212.9687653115627
 20
168.8088041154838
 30
0
 10
212.9340376509498
 20
168.8423114265772
 30
0
  0
SPLINE
  5
10A
100
AcDbEntity
  8
Capa 1
  6
ByLayer
 62
  256
370
    5
100
AcDbSpline
210
0
220
0
230
0
 70
    8
 71
    3
 72
    8
 73
    4
 74
    0
 42
1e-07
 43
1e-07
 40
0
 40
0
 40
0
 40
0
 40
1
 40
1
 40
1
 40
1
 10
213.2785597538784
 20
167.9133465051798
 30
0
 10
213.2975623392538
 20
168.1087767639506
 30
0
 10
213.2637760911274
 20
168.3047300296585
 30
0
 10
213.1842790367121
 20
168.4849930872582
 30
0
  0
LINE
  5
10B
100
AcDbEntity
  8
Capa 1
  6
ByLayer
 62
  256
370
    5
100
AcDbLine
 10
219.2343186818769
 20
165.0273244928722
 11
213.2785597538784
 21
167.9133465051798
  0
LINE
  5
10C
100
AcDbEntity
  8
Capa 1
  6
ByLayer
 62
  256
370
    5
100
AcDbLine
 10
213.210359649301
 20
167.6289353328702
 11
219.1114817859533
 21
164.7695518072179
  0
LINE
  5
10D
100
AcDbEntity
  8
Capa 1
  6
ByLayer
 62
  256
370
    5
100
AcDbLine
 10
221.7077230880657
 20
175.5305590033283
 11
224.9693686824855
 21
172.9977061419737
  0
SPLINE
  5
10E
100
AcDbEntity
  8
Capa 1
  6
ByLayer
 62
  256
370
    5
100
AcDbSpline
210
0
220
0
230
0
 70
    8
 71
    3
 72
    8
 73
    4
 74
    0
 42
1e-07
 43
1e-07
 40
0
 40
0
 40
0
 40
0
 40
1
 40
1
 40
1
 40
1
 10
224.9693686824855
 20
172.9977061419737
 30
0
 10
224.8552137017153
 20
172.7340409114962
 30
0
 10
224.8440213532648
 20
172.441575432358
 30
0
 10
224.9341180149356
 20
172.1768293208777
 30
0
  0
SPLINE
  5
10F
100
AcDbEntity
  8
Capa 1
  6
ByLayer
 62
  256
370
    5
100
AcDbSpline
210
0
220
0
230
0
 70
    8
 71
    3
 72
    8
 73
    4
 74
    0
 42
1e-07
 43
1e-07
 40
0
 40
0
 40
0
 40
0
 40
1
 40
1
 40
1
 40
1
 10
228.5582422837856
 20
163.5080590753122
 30
0
 10
228.5724332053412
 20
163.4275857412814
 30
0
 10
228.5903549097137
 20
163.3483327567701
 30
0
 10
228.600640712807
 20
163.2666739403487
 30
0
  0
LINE
  5
110
100
AcDbEntity
  8
Capa 1
  6
ByLayer
 62
  256
370
    5
100
AcDbLine
 10
227.2820704905167
 20
163.2424064184749
 11
228.5582422837856
 21
163.5080590753122
  0
SPLINE
  5
111
100
AcDbEntity
  8
Capa 1
  6
ByLayer
 62
  256
370
    5
100
AcDbSpline
210
0
220
0
230
0
 70
    8
 71
    3
 72
    8
 73
    4
 74
    0
 42
1e-07
 43
1e-07
 40
0
 40
0
 40
0
 40
0
 40
1
 40
1
 40
1
 40
1
 10
210.8570725029634
 20
160.6433757460318
 30
0
 10
210.79992527832
 20
160.687761601414
 30
0
 10
210.7381407255025
 20
160.7209551083454
 30
0
 10
210.6747871518741
 20
160.7487790773906
 30
0
  0
SPLINE
  5
112
100
AcDbEntity
  8
Capa 1
  6
ByLayer
 62
  256
370
    5
100
AcDbSpline
210
0
220
0
230
0
 70
    8
 71
    3
 72
    8
 73
    4
 74
    0
 42
1e-07
 43
1e-07
 40
0
 40
0
 40
0
 40
0
 40
1
 40
1
 40
1
 40
1
 10
211.1191687126296
 20
159.6378426090661
 30
0
 10
211.2644949068415
 20
159.9860606276828
 30
0
 10
211.1693773785761
 20
160.4008399958072
 30
0
 10
210.8570725029634
 20
160.6433757460318
 30
0
  0
SPLINE
  5
113
100
AcDbEntity
  8
Capa 1
  6
ByLayer
 62
  256
370
    5
100
AcDbSpline
210
0
220
0
230
0
 70
    8
 71
    3
 72
    8
 73
    4
 74
    0
 42
1e-07
 43
1e-07
 40
0
 40
0
 40
0
 40
0
 40
1
 40
1
 40
1
 40
1
 10
210.9631034426461
 20
159.3934937681266
 30
0
 10
210.9637659180996
 20
159.3942259778387
 30
0
 10
210.964463260682
 20
159.3949233204207
 30
0
 10
210.9651257361355
 20
159.395655530133
 30
0
  0
SPLINE
  5
114
100
AcDbEntity
  8
Capa 1
  6
ByLayer
 62
  256
370
    5
100
AcDbSpline
210
0
220
0
230
0
 70
    8
 71
    3
 72
    8
 73
    4
 74
    0
 42
1e-07
 43
1e-07
 40
0
 40
0
 40
0
 40
0
 40
1
 40
1
 40
1
 40
1
 10
210.3980816151024
 20
160.8201520907184
 30
0
 10
210.1206438686189
 20
160.8415605080043
 30
0
 10
209.8381852555409
 20
160.72838180685
 30
0
 10
209.6547144220614
 20
160.4921570069974
 30
0
  0
SPLINE
  5
115
100
AcDbEntity
  8
Capa 1
  6
ByLayer
 62
  256
370
    5
100
AcDbSpline
210
0
220
0
230
0
 70
    8
 71
    3
 72
    8
 73
    4
 74
    0
 42
1e-07
 43
1e-07
 40
0
 40
0
 40
0
 40
0
 40
1
 40
1
 40
1
 40
1
 10
209.6547144220614
 20
160.4921570069974
 30
0
 10
209.3644455720582
 20
160.118381382729
 30
0
 10
209.4321575368276
 20
159.5800677760987
 30
0
 10
209.8059680282252
 20
159.2897989260958
 30
0
  0
SPLINE
  5
116
100
AcDbEntity
  8
Capa 1
  6
ByLayer
 62
  256
370
    5
100
AcDbSpline
210
0
220
0
230
0
 70
    8
 71
    3
 72
    8
 73
    4
 74
    0
 42
1e-07
 43
1e-07
 40
0
 40
0
 40
0
 40
0
 40
1
 40
1
 40
1
 40
1
 10
209.8059680282252
 20
159.2897989260958
 30
0
 10
210.0830919705464
 20
159.0745990051084
 30
0
 10
210.4502777074094
 20
159.0571305734144
 30
0
 10
210.7401281518629
 20
159.2143115915301
 30
0
  0
SPLINE
  5
117
100
AcDbEntity
  8
Capa 1
  6
ByLayer
 62
  256
370
    5
100
AcDbSpline
210
0
220
0
230
0
 70
    8
 71
    3
 72
    8
 73
    4
 74
    0
 42
1e-07
 43
1e-07
 40
0
 40
0
 40
0
 40
0
 40
1
 40
1
 40
1
 40
1
 10
218.5609995512567
 20
150.5905199425419
 30
0
 10
218.3103048928157
 20
150.2197428913788
 30
0
 10
218.3835607311167
 20
149.714413588905
 30
0
 10
218.7421691542137
 20
149.4359298285474
 30
0
  0
SPLINE
  5
118
100
AcDbEntity
  8
Capa 1
  6
ByLayer
 62
  256
370
    5
100
AcDbSpline
210
0
220
0
230
0
 70
    8
 71
    3
 72
    8
 73
    4
 74
    0
 42
1e-07
 43
1e-07
 40
0
 40
0
 40
0
 40
0
 40
1
 40
1
 40
1
 40
1
 10
218.7421691542137
 20
149.4359298285474
 30
0
 10
219.1159447784821
 20
149.1456609785444
 30
0
 10
219.6542583851125
 20
149.213372943314
 30
0
 10
219.9445272351156
 20
149.5871485675823
 30
0
  0
SPLINE
  5
119
100
AcDbEntity
  8
Capa 1
  6
ByLayer
 62
  256
370
    5
100
AcDbSpline
210
0
220
0
230
0
 70
    8
 71
    3
 72
    8
 73
    4
 74
    0
 42
1e-07
 43
1e-07
 40
0
 40
0
 40
0
 40
0
 40
1
 40
1
 40
1
 40
1
 10
219.9445272351156
 20
149.5871485675823
 30
0
 10
220.0771269271952
 20
149.7579277660586
 30
0
 10
220.1314499143789
 20
149.9628418839527
 30
0
 10
220.1195950904751
 20
150.1629443380271
 30
0
  0
LINE
  5
11A
100
AcDbEntity
  8
Capa 1
  6
ByLayer
 62
  256
370
    5
100
AcDbLine
 10
210.7401281518629
 20
159.2143115915301
 11
218.5609995512567
 21
150.5905199425418
  0
SPLINE
  5
11B
100
AcDbEntity
  8
Capa 1
  6
ByLayer
 62
  256
370
    5
100
AcDbSpline
210
0
220
0
230
0
 70
    8
 71
    3
 72
    8
 73
    4
 74
    0
 42
1e-07
 43
1e-07
 40
0
 40
0
 40
0
 40
0
 40
1
 40
1
 40
1
 40
1
 10
216.6064528936441
 20
155.9195770915668
 30
0
 10
216.6813823541433
 20
155.9774216587925
 30
0
 10
216.7523718290511
 20
156.0418909805528
 30
0
 10
216.8131452351237
 20
156.1201328183195
 30
0
  0
SPLINE
  5
11C
100
AcDbEntity
  8
Capa 1
  6
ByLayer
 62
  256
370
    5
100
AcDbSpline
210
0
220
0
230
0
 70
    8
 71
    3
 72
    8
 73
    4
 74
    0
 42
1e-07
 43
1e-07
 40
0
 40
0
 40
0
 40
0
 40
1
 40
1
 40
1
 40
1
 10
216.8131452351237
 20
156.1201328183195
 30
0
 10
216.9045319805722
 20
156.2378093791318
 30
0
 10
216.9671533444889
 20
156.3682124420759
 30
0
 10
217.006239396243
 20
156.503113364678
 30
0
  0
LINE
  5
11D
100
AcDbEntity
  8
Capa 1
  6
ByLayer
 62
  256
370
    5
100
AcDbLine
 10
218.7284315053367
 20
150.8309287978901
 11
210.9631034426461
 21
159.3934937681266
  0
LINE
  5
11E
100
AcDbEntity
  8
Capa 1
  6
ByLayer
 62
  256
370
    5
100
AcDbLine
 10
210.9651257361355
 20
159.395655530133
 11
214.9446855193318
 21
157.4200142593966
  0
SPLINE
  5
11F
100
AcDbEntity
  8
Capa 1
  6
ByLayer
 62
  256
370
    5
100
AcDbSpline
210
0
220
0
230
0
 70
    8
 71
    3
 72
    8
 73
    4
 74
    0
 42
1e-07
 43
1e-07
 40
0
 40
0
 40
0
 40
0
 40
1
 40
1
 40
1
 40
1
 10
220.0541146219699
 20
150.44358986039
 30
0
 10
219.998989690816
 20
150.5750389372086
 30
0
 10
219.91391389574
 20
150.6958535396422
 30
0
 10
219.793308496081
 20
150.7895066484841
 30
0
  0
SPLINE
  5
120
100
AcDbEntity
  8
Capa 1
  6
ByLayer
 62
  256
370
    5
100
AcDbSpline
210
0
220
0
230
0
 70
    8
 71
    3
 72
    8
 73
    4
 74
    0
 42
1e-07
 43
1e-07
 40
0
 40
0
 40
0
 40
0
 40
1
 40
1
 40
1
 40
1
 10
219.793308496081
 20
150.7895066484841
 30
0
 10
219.5594546610093
 20
150.9710946569904
 30
0
 10
219.2612709726938
 20
151.0124819392672
 30
0
 10
218.9996977699644
 20
150.9266042002211
 30
0
  0
LINE
  5
121
100
AcDbEntity
  8
Capa 1
  6
ByLayer
 62
  256
370
    5
100
AcDbLine
 10
220.1195950904751
 20
150.1629443380271
 11
225.6236154934715
 21
152.169791689334
  0
LINE
  5
122
100
AcDbEntity
  8
Capa 1
  6
ByLayer
 62
  256
370
    5
100
AcDbLine
 10
225.5947803776813
 20
152.4639307906703
 11
220.0541146219699
 21
150.44358986039
  0
LINE
  5
123
100
AcDbEntity
  8
Capa 1
  6
ByLayer
 62
  256
370
    5
100
AcDbLine
 10
217.006239396243
 20
156.503113364678
 11
225.7291234262172
 21
152.9529074095828
  0
LINE
  5
124
100
AcDbEntity
  8
Capa 1
  6
ByLayer
 62
  256
370
    5
100
AcDbLine
 10
225.9023781908616
 20
153.1908406987624
 11
217.0493700349763
 21
156.7938354873599
  0
LINE
  5
125
100
AcDbEntity
  8
Capa 1
  6
ByLayer
 62
  256
370
    5
100
AcDbLine
 10
225.0906714247269
 20
157.6991604952076
 11
226.3242007190705
 21
153.4779715071439
  0
SPLINE
  5
126
100
AcDbEntity
  8
Capa 1
  6
ByLayer
 62
  256
370
    5
100
AcDbSpline
210
0
220
0
230
0
 70
    8
 71
    3
 72
    8
 73
    4
 74
    0
 42
1e-07
 43
1e-07
 40
0
 40
0
 40
0
 40
0
 40
1
 40
1
 40
1
 40
1
 10
220.9271178011145
 20
164.2070404129717
 30
0
 10
221.0120192605448
 20
164.3635589556339
 30
0
 10
221.1024297263775
 20
164.5179157362903
 30
0
 10
221.2138302039463
 20
164.6613591055291
 30
0
  0
SPLINE
  5
127
100
AcDbEntity
  8
Capa 1
  6
ByLayer
 62
  256
370
    5
100
AcDbSpline
210
0
220
0
230
0
 70
    8
 71
    3
 72
    8
 73
    4
 74
    0
 42
1e-07
 43
1e-07
 40
0
 40
0
 40
0
 40
0
 40
1
 40
1
 40
1
 40
1
 10
220.5541441208159
 20
162.2546903844937
 30
0
 10
220.4802606741905
 20
162.8415390348727
 30
0
 10
220.5766334191046
 20
163.4198103714856
 30
0
 10
220.8056755903562
 20
163.9486401189928
 30
0
  0
LINE
  5
128
100
AcDbEntity
  8
Capa 1
  6
ByLayer
 62
  256
370
    5
100
AcDbLine
 10
220.8056755903562
 20
163.9486401189928
 11
221.8332447529318
 21
163.4507026478944
  0
LINE
  5
129
100
AcDbEntity
  8
Capa 1
  6
ByLayer
 62
  256
370
    5
100
AcDbLine
 10
221.9575112011495
 20
163.7077082567079
 11
220.9271178011145
 21
164.2070404129717
  0
SPLINE
  5
12A
100
AcDbEntity
  8
Capa 1
  6
ByLayer
 62
  256
370
    5
100
AcDbSpline
210
0
220
0
230
0
 70
    8
 71
    3
 72
    8
 73
    4
 74
    0
 42
1e-07
 43
1e-07
 40
0
 40
0
 40
0
 40
0
 40
1
 40
1
 40
1
 40
1
 10
221.8332447529318
 20
163.4507026478944
 30
0
 10
221.5836658426227
 20
162.8317762387164
 30
0
 10
221.6389302422932
 20
162.134956663063
 30
0
 10
221.9803143036001
 20
161.5690980244209
 30
0
  0
LINE
  5
12B
100
AcDbEntity
  8
Capa 1
  6
ByLayer
 62
  256
370
    5
100
AcDbLine
 10
221.2127144558142
 20
160.6824966649154
 11
222.1440503419924
 21
161.3346165810244
  0
SPLINE
  5
12C
100
AcDbEntity
  8
Capa 1
  6
ByLayer
 62
  256
370
    5
100
AcDbSpline
210
0
220
0
230
0
 70
    8
 71
    3
 72
    8
 73
    4
 74
    0
 42
1e-07
 43
1e-07
 40
0
 40
0
 40
0
 40
0
 40
1
 40
1
 40
1
 40
1
 10
221.0473396623527
 20
160.9158623601793
 30
0
 10
220.7912405988967
 20
161.3175316877511
 30
0
 10
220.6154056666965
 20
161.7680498632335
 30
0
 10
220.5541441208159
 20
162.2546903844937
 30
0
  0
LINE
  5
12D
100
AcDbEntity
  8
Capa 1
  6
ByLayer
 62
  256
370
    5
100
AcDbLine
 10
221.9803143036001
 20
161.5690980244208
 11
221.0473396623527
 21
160.9158623601793
  0
SPLINE
  5
12E
100
AcDbEntity
  8
Capa 1
  6
ByLayer
 62
  256
370
    5
100
AcDbSpline
210
0
220
0
230
0
 70
    8
 71
    3
 72
    8
 73
    4
 74
    0
 42
1e-07
 43
1e-07
 40
0
 40
0
 40
0
 40
0
 40
1
 40
1
 40
1
 40
1
 10
220.988449081253
 20
164.8365315622757
 30
0
 10
220.8646707728432
 20
164.6771539150248
 30
0
 10
220.7589885044519
 20
164.5081180730048
 30
0
 10
220.6652656613517
 20
164.3339218958738
 30
0
  0
SPLINE
  5
12F
100
AcDbEntity
  8
Capa 1
  6
ByLayer
 62
  256
370
    5
100
AcDbSpline
210
0
220
0
230
0
 70
    8
 71
    3
 72
    8
 73
    4
 74
    0
 42
1e-07
 43
1e-07
 40
0
 40
0
 40
0
 40
0
 40
1
 40
1
 40
1
 40
1
 10
222.4900368643443
 20
160.9883511216397
 30
0
 10
223.0070117879476
 20
160.5868909968421
 30
0
 10
223.6494037750298
 20
160.4719340721024
 30
0
 10
224.2423890401351
 20
160.6019884637557
 30
0
  0
SPLINE
  5
130
100
AcDbEntity
  8
Capa 1
  6
ByLayer
 62
  256
370
    5
100
AcDbSpline
210
0
220
0
230
0
 70
    8
 71
    3
 72
    8
 73
    4
 74
    0
 42
1e-07
 43
1e-07
 40
0
 40
0
 40
0
 40
0
 40
1
 40
1
 40
1
 40
1
 10
222.1440503419924
 20
161.3346165810244
 30
0
 10
222.2450952822098
 20
161.2094435874496
 30
0
 10
222.357472039394
 20
161.0912788868295
 30
0
 10
222.4900368643443
 20
160.9883511216397
 30
0
  0
SPLINE
  5
131
100
AcDbEntity
  8
Capa 1
  6
ByLayer
 62
  256
370
    5
100
AcDbSpline
210
0
220
0
230
0
 70
    8
 71
    3
 72
    8
 73
    4
 74
    0
 42
1e-07
 43
1e-07
 40
0
 40
0
 40
0
 40
0
 40
1
 40
1
 40
1
 40
1
 10
221.7895562401326
 20
160.0862338896716
 30
0
 10
221.5665460822203
 20
160.2593143186708
 30
0
 10
221.3805996825727
 20
160.4645422407266
 30
0
 10
221.2127144558142
 20
160.6824966649154
 30
0
  0
SPLINE
  5
132
100
AcDbEntity
  8
Capa 1
  6
ByLayer
 62
  256
370
    5
100
AcDbSpline
210
0
220
0
230
0
 70
    8
 71
    3
 72
    8
 73
    4
 74
    0
 42
1e-07
 43
1e-07
 40
0
 40
0
 40
0
 40
0
 40
1
 40
1
 40
1
 40
1
 10
220.9710503838176
 20
160.5132516201208
 30
0
 10
221.1552534270085
 20
160.2724940934817
 30
0
 10
221.3685705230231
 20
160.0516805647043
 30
0
 10
221.6143837833861
 20
159.8608527669787
 30
0
  0
SPLINE
  5
133
100
AcDbEntity
  8
Capa 1
  6
ByLayer
 62
  256
370
    5
100
AcDbSpline
210
0
220
0
230
0
 70
    8
 71
    3
 72
    8
 73
    4
 74
    0
 42
1e-07
 43
1e-07
 40
0
 40
0
 40
0
 40
0
 40
1
 40
1
 40
1
 40
1
 10
224.1962249611674
 20
159.4262688695085
 30
0
 10
223.3320780328219
 20
159.3180413006904
 30
0
 10
222.4774149635997
 20
159.5523484084408
 30
0
 10
221.7895562401326
 20
160.0862338896716
 30
0
  0
SPLINE
  5
134
100
AcDbEntity
  8
Capa 1
  6
ByLayer
 62
  256
370
    5
100
AcDbSpline
210
0
220
0
230
0
 70
    8
 71
    3
 72
   11
 73
    7
 74
    0
 42
1e-07
 43
1e-07
 40
0
 40
0
 40
0
 40
0
 40
0.25
 40
0.5
 40
0.75
 40
1
 40
1
 40
1
 40
1
 10
221.6143837833861
 20
159.8608527669787
 30
0
 10
222.2428289188162
 20
159.3727129591655
 30
0
 10
222.9993061524095
 20
159.1144172665744
 30
0
 10
223.7822824041423
 20
159.1144172665741
 30
0
 10
223.9312347797833
 20
159.114417266574
 30
0
 10
224.0818607776231
 20
159.1239011256973
 30
0
 10
224.2319289013964
 20
159.1428688439439
 30
0
  0
SPLINE
  5
135
100
AcDbEntity
  8
Capa 1
  6
ByLayer
 62
  256
370
    5
100
AcDbSpline
210
0
220
0
230
0
 70
    8
 71
    3
 72
    8
 73
    4
 74
    0
 42
1e-07
 43
1e-07
 40
0
 40
0
 40
0
 40
0
 40
1
 40
1
 40
1
 40
1
 10
224.3942702546231
 20
157.8502746328549
 30
0
 10
223.107533721228
 20
157.6868175314957
 30
0
 10
221.8380912838809
 20
158.0371624449887
 30
0
 10
220.8152291837377
 20
158.8315751150755
 30
0
  0
SPLINE
  5
136
100
AcDbEntity
  8
Capa 1
  6
ByLayer
 62
  256
370
    5
100
AcDbSpline
210
0
220
0
230
0
 70
    8
 71
    3
 72
    8
 73
    4
 74
    0
 42
1e-07
 43
1e-07
 40
0
 40
0
 40
0
 40
0
 40
1
 40
1
 40
1
 40
1
 10
224.5617719429612
 20
159.5089736998037
 30
0
 10
224.4405040678491
 20
159.4794412414309
 30
0
 10
224.3219209616796
 20
159.4420985461331
 30
0
 10
224.1962249611674
 20
159.4262688695085
 30
0
  0
LINE
  5
137
100
AcDbEntity
  8
Capa 1
  6
ByLayer
 62
  256
370
    5
100
AcDbLine
 10
219.9029656171932
 20
159.7653865674218
 11
220.9710503838176
 21
160.5132516201208
  0
SPLINE
  5
138
100
AcDbEntity
  8
Capa 1
  6
ByLayer
 62
  256
370
    5
100
AcDbSpline
210
0
220
0
230
0
 70
    8
 71
    3
 72
    8
 73
    4
 74
    0
 42
1e-07
 43
1e-07
 40
0
 40
0
 40
0
 40
0
 40
1
 40
1
 40
1
 40
1
 10
220.8152291837377
 20
158.8315751150755
 30
0
 10
220.4648145359861
 20
159.1036433236734
 30
0
 10
220.1615751139466
 20
159.4194697793286
 30
0
 10
219.9029656171932
 20
159.7653865674218
 30
0
  0
SPLINE
  5
139
100
AcDbEntity
  8
Capa 1
  6
ByLayer
 62
  256
370
    5
100
AcDbSpline
210
0
220
0
230
0
 70
    8
 71
    3
 72
    8
 73
    4
 74
    0
 42
1e-07
 43
1e-07
 40
0
 40
0
 40
0
 40
0
 40
1
 40
1
 40
1
 40
1
 10
218.9781498841624
 20
162.0566450910384
 30
0
 10
218.865250120041
 20
162.9534625193784
 30
0
 10
219.0061133217241
 20
163.841493431178
 30
0
 10
219.3683479262506
 20
164.6450761562256
 30
0
  0
SPLINE
  5
13A
100
AcDbEntity
  8
Capa 1
  6
ByLayer
 62
  256
370
    5
100
AcDbSpline
210
0
220
0
230
0
 70
    8
 71
    3
 72
    8
 73
    4
 74
    0
 42
1e-07
 43
1e-07
 40
0
 40
0
 40
0
 40
0
 40
1
 40
1
 40
1
 40
1
 10
219.1114817859533
 20
164.7695518072179
 30
0
 10
218.7252585965859
 20
163.9165972273228
 30
0
 10
218.5748766686505
 20
162.9733716501111
 30
0
 10
218.6947498585976
 20
162.0209411508096
 30
0
  0
SPLINE
  5
13B
100
AcDbEntity
  8
Capa 1
  6
ByLayer
 62
  256
370
    5
100
AcDbSpline
210
0
220
0
230
0
 70
    8
 71
    3
 72
    8
 73
    4
 74
    0
 42
1e-07
 43
1e-07
 40
0
 40
0
 40
0
 40
0
 40
1
 40
1
 40
1
 40
1
 10
220.2707440952514
 20
162.2189864442654
 30
0
 10
220.3378981859546
 20
161.6852404315511
 30
0
 10
220.5243675925393
 20
161.1868148206445
 30
0
 10
220.8068610727466
 20
160.7474541264834
 30
0
  0
SPLINE
  5
13C
100
AcDbEntity
  8
Capa 1
  6
ByLayer
 62
  256
370
    5
100
AcDbSpline
210
0
220
0
230
0
 70
    8
 71
    3
 72
    8
 73
    4
 74
    0
 42
1e-07
 43
1e-07
 40
0
 40
0
 40
0
 40
0
 40
1
 40
1
 40
1
 40
1
 10
219.7392295788012
 20
159.9999028779471
 30
0
 10
219.3366537058718
 20
160.611332854362
 30
0
 10
219.0721167971664
 20
161.3089195068562
 30
0
 10
218.9781498841623
 20
162.0566450910384
 30
0
  0
SPLINE
  5
13D
100
AcDbEntity
  8
Capa 1
  6
ByLayer
 62
  256
370
    5
100
AcDbSpline
210
0
220
0
230
0
 70
    8
 71
    3
 72
    8
 73
    4
 74
    0
 42
1e-07
 43
1e-07
 40
0
 40
0
 40
0
 40
0
 40
1
 40
1
 40
1
 40
1
 10
218.6947498585976
 20
162.0209411508096
 30
0
 10
218.7945744492954
 20
161.2261798094321
 30
0
 10
219.0762659855327
 20
160.485044112655
 30
0
 10
219.5052362752131
 20
159.8360273710384
 30
0
  0
LINE
  5
13E
100
AcDbEntity
  8
Capa 1
  6
ByLayer
 62
  256
370
    5
100
AcDbLine
 10
220.8068610727466
 20
160.7474541264834
 11
219.7392295788012
 21
159.9999028779471
  0
SPLINE
  5
13F
100
AcDbEntity
  8
Capa 1
  6
ByLayer
 62
  256
370
    5
100
AcDbSpline
210
0
220
0
230
0
 70
    8
 71
    3
 72
    8
 73
    4
 74
    0
 42
1e-07
 43
1e-07
 40
0
 40
0
 40
0
 40
0
 40
1
 40
1
 40
1
 40
1
 10
220.5408597446176
 20
164.0769511541894
 30
0
 10
220.2875500514917
 20
163.4984357476725
 30
0
 10
220.1898523556708
 20
162.8617968368969
 30
0
 10
220.2707440952514
 20
162.2189864442654
 30
0
  0
LINE
  5
140
100
AcDbEntity
  8
Capa 1
  6
ByLayer
 62
  256
370
    5
100
AcDbLine
 10
220.6652656613517
 20
164.3339218958738
 11
219.4914637592069
 21
164.9027093733635
  0
LINE
  5
141
100
AcDbEntity
  8
Capa 1
  6
ByLayer
 62
  256
370
    5
100
AcDbLine
 10
219.3683479262506
 20
164.6450761562256
 11
220.5408597446176
 21
164.0769511541894
  0
LINE
  5
142
100
AcDbEntity
  8
Capa 1
  6
ByLayer
 62
  256
370
    5
100
AcDbLine
 10
219.5052362752131
 20
159.8360273710384
 11
216.5462722287665
 21
157.7641528239051
  0
SPLINE
  5
143
100
AcDbEntity
  8
Capa 1
  6
ByLayer
 62
  256
370
    5
100
AcDbSpline
210
0
220
0
230
0
 70
    8
 71
    3
 72
    8
 73
    4
 74
    0
 42
1e-07
 43
1e-07
 40
0
 40
0
 40
0
 40
0
 40
1
 40
1
 40
1
 40
1
 10
216.5462722287665
 20
157.7641528239051
 30
0
 10
216.302760198926
 20
157.9282026664592
 30
0
 10
216.0178260196798
 20
157.9893596109522
 30
0
 10
215.74464206295
 20
157.9491926781954
 30
0
  0
SPLINE
  5
144
100
AcDbEntity
  8
Capa 1
  6
ByLayer
 62
  256
370
    5
100
AcDbSpline
210
0
220
0
230
0
 70
    8
 71
    3
 72
    8
 73
    4
 74
    0
 42
1e-07
 43
1e-07
 40
0
 40
0
 40
0
 40
0
 40
1
 40
1
 40
1
 40
1
 10
226.3242007190705
 20
153.4779715071439
 30
0
 10
226.1668802324382
 20
153.4174770381042
 30
0
 10
226.0233322618122
 20
153.3206510205116
 30
0
 10
225.9023781908616
 20
153.1908406987624
 30
0
  0
SPLINE
  5
145
100
AcDbEntity
  8
Capa 1
  6
ByLayer
 62
  256
370
    5
100
AcDbSpline
210
0
220
0
230
0
 70
    8
 71
    3
 72
    8
 73
    4
 74
    0
 42
1e-07
 43
1e-07
 40
0
 40
0
 40
0
 40
0
 40
1
 40
1
 40
1
 40
1
 10
226.9362234366808
 20
153.535118731787
 30
0
 10
226.8249972947579
 20
153.5550627296492
 30
0
 10
226.7124462019276
 20
153.5626288966701
 30
0
 10
226.6012200600044
 20
153.5495885903757
 30
0
  0
SPLINE
  5
146
100
AcDbEntity
  8
Capa 1
  6
ByLayer
 62
  256
370
    5
100
AcDbSpline
210
0
220
0
230
0
 70
    8
 71
    3
 72
    8
 73
    4
 74
    0
 42
1e-07
 43
1e-07
 40
0
 40
0
 40
0
 40
0
 40
1
 40
1
 40
1
 40
1
 10
225.7291234262172
 20
152.9529074095828
 30
0
 10
225.6464185959219
 20
152.7985157617971
 30
0
 10
225.6017538035072
 20
152.6319903530743
 30
0
 10
225.5947803776813
 20
152.4639307906703
 30
0
  0
LINE
  5
147
100
AcDbEntity
  8
Capa 1
  6
ByLayer
 62
  256
370
    5
100
AcDbLine
 10
218.9996977699644
 20
150.9266042002211
 11
216.6064528936441
 21
155.9195770915668
  0
LINE
  5
148
100
AcDbEntity
  8
Capa 1
  6
ByLayer
 62
  256
370
    5
100
AcDbLine
 10
216.3585127384042
 20
155.7752969112285
 11
218.7284315053367
 21
150.8309287978901
  0
SPLINE
  5
149
100
AcDbEntity
  8
Capa 1
  6
ByLayer
 62
  256
370
    5
100
AcDbSpline
210
0
220
0
230
0
 70
    8
 71
    3
 72
    8
 73
    4
 74
    0
 42
1e-07
 43
1e-07
 40
0
 40
0
 40
0
 40
0
 40
1
 40
1
 40
1
 40
1
 10
212.6999746131033
 20
169.0180068902609
 30
0
 10
212.2151471825576
 20
169.2897264275672
 30
0
 10
211.5930478646288
 20
169.1778029430614
 30
0
 10
211.2417964057781
 20
168.7255065439935
 30
0
  0
SPLINE
  5
14A
100
AcDbEntity
  8
Capa 1
  6
ByLayer
 62
  256
370
    5
100
AcDbSpline
210
0
220
0
230
0
 70
    8
 71
    3
 72
    8
 73
    4
 74
    0
 42
1e-07
 43
1e-07
 40
0
 40
0
 40
0
 40
0
 40
1
 40
1
 40
1
 40
1
 10
211.2417964057781
 20
168.7255065439935
 30
0
 10
210.8547712724406
 20
168.2271158002163
 30
0
 10
210.9450771368862
 20
167.5093759470853
 30
0
 10
211.4434330135343
 20
167.1223508137478
 30
0
  0
SPLINE
  5
14B
100
AcDbEntity
  8
Capa 1
  6
ByLayer
 62
  256
370
    5
100
AcDbSpline
210
0
220
0
230
0
 70
    8
 71
    3
 72
    8
 73
    4
 74
    0
 42
1e-07
 43
1e-07
 40
0
 40
0
 40
0
 40
0
 40
1
 40
1
 40
1
 40
1
 10
212.6939077326348
 20
167.023886041086
 30
0
 10
212.8268212288765
 20
167.096793208096
 30
0
 10
212.9476706984392
 20
167.1966177987936
 30
0
 10
213.0465887437797
 20
167.3239874215038
 30
0
  0
SPLINE
  5
14C
100
AcDbEntity
  8
Capa 1
  6
ByLayer
 62
  256
370
    5
100
AcDbSpline
210
0
220
0
230
0
 70
    8
 71
    3
 72
    8
 73
    4
 74
    0
 42
1e-07
 43
1e-07
 40
0
 40
0
 40
0
 40
0
 40
1
 40
1
 40
1
 40
1
 10
211.9568863570953
 20
166.9028971030068
 30
0
 10
212.1141371094694
 20
166.8768164904179
 30
0
 10
212.2733752882037
 20
166.8833715106942
 30
0
 10
212.4268255235028
 20
166.9225621638358
 30
0
  0
LINE
  5
14D
100
AcDbEntity
  8
Capa 1
  6
ByLayer
 62
  256
370
    5
100
AcDbLine
 10
215.1282260870695
 20
157.6475571440958
 11
211.1191687126296
 21
159.6378426090661
  0
SPLINE
  5
14E
100
AcDbEntity
  8
Capa 1
  6
ByLayer
 62
  256
370
    5
100
AcDbSpline
210
0
220
0
230
0
 70
    8
 71
    3
 72
    8
 73
    4
 74
    0
 42
1e-07
 43
1e-07
 40
0
 40
0
 40
0
 40
0
 40
1
 40
1
 40
1
 40
1
 10
215.4700982881843
 20
157.8695910223926
 30
0
 10
215.3456226371921
 20
157.8174646643441
 30
0
 10
215.2300032369987
 20
157.7440344903969
 30
0
 10
215.1282260870695
 20
157.6475571440958
 30
0
  0
SPLINE
  5
14F
100
AcDbEntity
  8
Capa 1
  6
ByLayer
 62
  256
370
    5
100
AcDbSpline
210
0
220
0
230
0
 70
    8
 71
    3
 72
    8
 73
    4
 74
    0
 42
1e-07
 43
1e-07
 40
0
 40
0
 40
0
 40
0
 40
1
 40
1
 40
1
 40
1
 10
211.4434330135343
 20
167.1223508137478
 30
0
 10
211.5183276069044
 20
167.0641924423598
 30
0
 10
211.5991496122265
 20
167.0203295939148
 30
0
 10
211.6820985124257
 20
166.9834750384249
 30
0
  0
LINE
  5
150
100
AcDbEntity
  8
Capa 1
  6
ByLayer
 62
  256
370
    5
100
AcDbLine
 10
215.74464206295
 20
157.9491926781954
 11
212.6939077326348
 21
167.023886041086
  0
LINE
  5
151
100
AcDbEntity
  8
Capa 1
  6
ByLayer
 62
  256
370
    5
100
AcDbLine
 10
212.4268255235028
 20
166.9225621638358
 11
215.4700982881843
 21
157.8695910223926
  0
LINE
  5
152
100
AcDbEntity
  8
Capa 1
  6
ByLayer
 62
  256
370
    5
100
AcDbLine
 10
210.6747871518741
 20
160.7487790773906
 11
211.9568863570953
 21
166.9028971030068
  0
LINE
  5
153
100
AcDbEntity
  8
Capa 1
  6
ByLayer
 62
  256
370
    5
100
AcDbLine
 10
211.6820985124257
 20
166.9834750384249
 11
210.3980816151024
 21
160.8201520907184
  0
CIRCLE
  5
154
100
AcDbEntity
  8
Visible (ISO)
  6
ByLayer
 62
  256
370
   -1
100
AcDbCircle
 10
200.3944687724999
 20
222.3256390888903
 40
6.25
  0
LINE
  5
155
100
AcDbEntity
  8
Visible (ISO)
  6
ByLayer
 62
  256
370
   -1
100
AcDbLine
 10
184.3944687725144
 20
240.3256390888321
 11
198.9107345823885
 21
240.325639088832
  0
LINE
  5
156
100
AcDbEntity
  8
Visible (ISO)
  6
ByLayer
 62
  256
370
   -1
100
AcDbLine
 10
198.9107345823885
 20
240.325639088832
 11
219.3944687724999
 21
249.3256390888902
  0
LINE
  5
157
100
AcDbEntity
  8
Visible (ISO)
  6
ByLayer
 62
  256
370
   -1
100
AcDbLine
 10
229.3944687724999
 20
249.3256390888902
 11
249.8782029626113
 21
240.325639088832
  0
LINE
  5
158
100
AcDbEntity
  8
Visible (ISO)
  6
ByLayer
 62
  256
370
   -1
100
AcDbLine
 10
249.8782029626113
 20
240.325639088832
 11
262.3944687725072
 21
240.3256390888321
  0
LINE
  5
159
100
AcDbEntity
  8
Visible (ISO)
  6
ByLayer
 62
  256
370
   -1
100
AcDbLine
 10
249.8782029626113
 20
204.3256390889485
 11
229.3944687724999
 21
195.3256390888903
  0
LINE
  5
15A
100
AcDbEntity
  8
Visible (ISO)
  6
ByLayer
 62
  256
370
   -1
100
AcDbLine
 10
262.39446877258
 20
204.3256390889849
 11
249.8782029626113
 21
204.3256390889485
  0
LINE
  5
15B
100
AcDbEntity
  8
Visible (ISO)
  6
ByLayer
 62
  256
370
   -1
100
AcDbLine
 10
219.3944687724999
 20
195.3256390888903
 11
198.9107345823885
 21
204.3256390889485
  0
LINE
  5
15C
100
AcDbEntity
  8
Visible (ISO)
  6
ByLayer
 62
  256
370
   -1
100
AcDbLine
 10
198.9107345823885
 20
204.3256390889485
 11
184.3944687724708
 21
204.3256390889485
  0
LINE
  5
15D
100
AcDbEntity
  8
Visible (ISO)
  6
ByLayer
 62
  256
370
   -1
100
AcDbLine
 10
184.3944687725144
 20
240.3256390888321
 11
182.394468772529
 21
238.3256390888902
  0
LINE
  5
15E
100
AcDbEntity
  8
Visible (ISO)
  6
ByLayer
 62
  256
370
   -1
100
AcDbLine
 10
219.3944687724999
 20
195.3256390888903
 11
229.3944687724999
 21
195.3256390888903
  0
CIRCLE
  5
15F
100
AcDbEntity
  8
Visible (ISO)
  6
ByLayer
 62
  256
370
   -1
100
AcDbCircle
 10
224.3944687724999
 20
200.3256390888903
 40
2.5
  0
CIRCLE
  5
160
100
AcDbEntity
  8
Visible (ISO)
  6
ByLayer
 62
  256
370
   -1
100
AcDbCircle
 10
224.3944687724999
 20
244.3256390888902
 40
2.5
  0
LINE
  5
161
100
AcDbEntity
  8
Visible (ISO)
  6
ByLayer
 62
  256
370
   -1
100
AcDbLine
 10
262.39446877258
 20
204.3256390889849
 11
264.3944687724854
 21
206.3256390888903
  0
LINE
  5
162
100
AcDbEntity
  8
Visible (ISO)
  6
ByLayer
 62
  256
370
   -1
100
AcDbLine
 10
264.3944687724854
 20
238.3256390888902
 11
262.3944687725072
 21
240.3256390888321
  0
LINE
  5
163
100
AcDbEntity
  8
Visible (ISO)
  6
ByLayer
 62
  256
370
   -1
100
AcDbLine
 10
229.3944687724999
 20
249.3256390888902
 11
219.3944687724999
 21
249.3256390888902
  0
LINE
  5
164
100
AcDbEntity
  8
Visible (ISO)
  6
ByLayer
 62
  256
370
   -1
100
AcDbLine
 10
182.394468772529
 20
206.3256390888903
 11
184.3944687724708
 21
204.3256390889485
  0
LINE
  5
165
100
AcDbEntity
  8
Visible (ISO)
  6
ByLayer
 62
  256
370
   -1
100
AcDbLine
 10
259.3744687725343
 20
218.3456390888559
 11
261.4144687725166
 21
218.3456390888559
  0
LINE
  5
166
100
AcDbEntity
  8
Visible (ISO)
  6
ByLayer
 62
  256
370
   -1
100
AcDbLine
 10
261.4144687725166
 20
218.3456390888559
 11
261.4144687725164
 21
210.3056390889246
  0
LINE
  5
167
100
AcDbEntity
  8
Visible (ISO)
  6
ByLayer
 62
  256
370
   -1
100
AcDbLine
 10
261.4144687725164
 20
210.3056390889246
 11
259.3744687725343
 21
210.3056390889246
  0
LINE
  5
168
100
AcDbEntity
  8
Visible (ISO)
  6
ByLayer
 62
  256
370
   -1
100
AcDbLine
 10
259.3744687725343
 20
210.3056390889246
 11
259.3744687725343
 21
218.3456390888559
  0
LINE
  5
169
100
AcDbEntity
  8
Visible (ISO)
  6
ByLayer
 62
  256
370
   -1
100
AcDbLine
 10
203.414468772529
 20
207.3456390888903
 11
203.414468772529
 21
205.3056390888903
  0
LINE
  5
16A
100
AcDbEntity
  8
Visible (ISO)
  6
ByLayer
 62
  256
370
   -1
100
AcDbLine
 10
203.414468772529
 20
205.3056390888903
 11
195.374468772529
 21
205.3056390888903
  0
LINE
  5
16B
100
AcDbEntity
  8
Visible (ISO)
  6
ByLayer
 62
  256
370
   -1
100
AcDbLine
 10
195.374468772529
 20
205.3056390888903
 11
195.374468772529
 21
207.3456390888903
  0
LINE
  5
16C
100
AcDbEntity
  8
Visible (ISO)
  6
ByLayer
 62
  256
370
   -1
100
AcDbLine
 10
195.374468772529
 20
207.3456390888903
 11
203.414468772529
 21
207.3456390888903
  0
LINE
  5
16D
100
AcDbEntity
  8
Visible (ISO)
  6
ByLayer
 62
  256
370
   -1
100
AcDbLine
 10
243.3744687724853
 20
207.3456390888902
 11
251.4144687724853
 21
207.3456390888902
  0
LINE
  5
16E
100
AcDbEntity
  8
Visible (ISO)
  6
ByLayer
 62
  256
370
   -1
100
AcDbLine
 10
251.4144687724853
 20
207.3456390888902
 11
251.4144687724853
 21
205.3056390888903
  0
LINE
  5
16F
100
AcDbEntity
  8
Visible (ISO)
  6
ByLayer
 62
  256
370
   -1
100
AcDbLine
 10
251.4144687724853
 20
205.3056390888903
 11
243.3744687724853
 21
205.3056390888903
  0
LINE
  5
170
100
AcDbEntity
  8
Visible (ISO)
  6
ByLayer
 62
  256
370
   -1
100
AcDbLine
 10
243.3744687724853
 20
205.3056390888903
 11
243.3744687724853
 21
207.3456390888902
  0
LINE
  5
171
100
AcDbEntity
  8
Visible (ISO)
  6
ByLayer
 62
  256
370
   -1
100
AcDbLine
 10
187.4144687724437
 20
210.3056390888903
 11
185.3744687724687
 21
210.3056390888903
  0
LINE
  5
172
100
AcDbEntity
  8
Visible (ISO)
  6
ByLayer
 62
  256
370
   -1
100
AcDbLine
 10
185.3744687724687
 20
210.3056390888903
 11
185.3744687724687
 21
218.3456390888903
  0
LINE
  5
173
100
AcDbEntity
  8
Visible (ISO)
  6
ByLayer
 62
  256
370
   -1
100
AcDbLine
 10
185.3744687724687
 20
218.3456390888903
 11
187.4144687724437
 21
218.3456390888903
  0
LINE
  5
174
100
AcDbEntity
  8
Visible (ISO)
  6
ByLayer
 62
  256
370
   -1
100
AcDbLine
 10
187.4144687724437
 20
218.3456390888903
 11
187.4144687724437
 21
210.3056390888903
  0
LINE
  5
175
100
AcDbEntity
  8
Visible (ISO)
  6
ByLayer
 62
  256
370
   -1
100
AcDbLine
 10
261.4144687725166
 20
226.3056390889245
 11
259.3744687725343
 21
226.3056390889246
  0
LINE
  5
176
100
AcDbEntity
  8
Visible (ISO)
  6
ByLayer
 62
  256
370
   -1
100
AcDbLine
 10
259.3744687725343
 20
226.3056390889246
 11
259.3744687725343
 21
234.3456390888559
  0
LINE
  5
177
100
AcDbEntity
  8
Visible (ISO)
  6
ByLayer
 62
  256
370
   -1
100
AcDbLine
 10
259.3744687725343
 20
234.3456390888559
 11
261.4144687725164
 21
234.3456390888559
  0
LINE
  5
178
100
AcDbEntity
  8
Visible (ISO)
  6
ByLayer
 62
  256
370
   -1
100
AcDbLine
 10
261.4144687725164
 20
234.3456390888559
 11
261.4144687725166
 21
226.3056390889245
  0
LINE
  5
179
100
AcDbEntity
  8
Visible (ISO)
  6
ByLayer
 62
  256
370
   -1
100
AcDbLine
 10
203.414468772529
 20
239.3456390888902
 11
203.414468772529
 21
237.3056390888902
  0
LINE
  5
17A
100
AcDbEntity
  8
Visible (ISO)
  6
ByLayer
 62
  256
370
   -1
100
AcDbLine
 10
203.414468772529
 20
237.3056390888902
 11
195.374468772529
 21
237.3056390888902
  0
LINE
  5
17B
100
AcDbEntity
  8
Visible (ISO)
  6
ByLayer
 62
  256
370
   -1
100
AcDbLine
 10
195.374468772529
 20
237.3056390888902
 11
195.374468772529
 21
239.3456390888902
  0
LINE
  5
17C
100
AcDbEntity
  8
Visible (ISO)
  6
ByLayer
 62
  256
370
   -1
100
AcDbLine
 10
195.374468772529
 20
239.3456390888902
 11
203.414468772529
 21
239.3456390888902
  0
LINE
  5
17D
100
AcDbEntity
  8
Visible (ISO)
  6
ByLayer
 62
  256
370
   -1
100
AcDbLine
 10
251.4144687724853
 20
237.3056390888903
 11
243.3744687724853
 21
237.3056390888903
  0
LINE
  5
17E
100
AcDbEntity
  8
Visible (ISO)
  6
ByLayer
 62
  256
370
   -1
100
AcDbLine
 10
243.3744687724853
 20
237.3056390888903
 11
243.3744687724853
 21
239.3456390888902
  0
LINE
  5
17F
100
AcDbEntity
  8
Visible (ISO)
  6
ByLayer
 62
  256
370
   -1
100
AcDbLine
 10
243.3744687724853
 20
239.3456390888902
 11
251.4144687724853
 21
239.3456390888902
  0
LINE
  5
180
100
AcDbEntity
  8
Visible (ISO)
  6
ByLayer
 62
  256
370
   -1
100
AcDbLine
 10
251.4144687724853
 20
239.3456390888902
 11
251.4144687724853
 21
237.3056390888903
  0
LINE
  5
181
100
AcDbEntity
  8
Visible (ISO)
  6
ByLayer
 62
  256
370
   -1
100
AcDbLine
 10
185.3744687724687
 20
234.3456390888902
 11
187.4144687724437
 21
234.3456390888902
  0
LINE
  5
182
100
AcDbEntity
  8
Visible (ISO)
  6
ByLayer
 62
  256
370
   -1
100
AcDbLine
 10
187.4144687724437
 20
234.3456390888902
 11
187.4144687724437
 21
226.3056390888902
  0
LINE
  5
183
100
AcDbEntity
  8
Visible (ISO)
  6
ByLayer
 62
  256
370
   -1
100
AcDbLine
 10
187.4144687724437
 20
226.3056390888902
 11
185.3744687724687
 21
226.3056390888902
  0
LINE
  5
184
100
AcDbEntity
  8
Visible (ISO)
  6
ByLayer
 62
  256
370
   -1
100
AcDbLine
 10
185.3744687724687
 20
226.3056390888902
 11
185.3744687724687
 21
234.3456390888902
  0
LINE
  5
185
100
AcDbEntity
  8
Visible (ISO)
  6
ByLayer
 62
  256
370
   -1
100
AcDbLine
 10
264.3944687724854
 20
206.3256390888903
 11
264.3944687724854
 21
238.3256390888902
  0
LINE
  5
186
100
AcDbEntity
  8
Visible (ISO)
  6
ByLayer
 62
  256
370
   -1
100
AcDbLine
 10
182.394468772529
 20
238.3256390888902
 11
182.394468772529
 21
206.3256390888903
  0
SPLINE
  5
187
100
AcDbEntity
  8
Capa 1
  6
ByLayer
 62
  256
370
    5
100
AcDbSpline
210
0
220
0
230
0
 70
    8
 71
    3
 72
    8
 73
    4
 74
    0
 42
1e-07
 43
1e-07
 40
0
 40
0
 40
0
 40
0
 40
1
 40
1
 40
1
 40
1
 10
226.9387338699779
 20
226.7171250390047
 30
0
 10
226.3811387409392
 20
227.1500353142766
 30
0
 10
225.7528330740256
 20
227.4556805682259
 30
0
 10
225.0899392150154
 20
227.62935373842
 30
0
  0
SPLINE
  5
188
100
AcDbEntity
  8
Capa 1
  6
ByLayer
 62
  256
370
    5
100
AcDbSpline
210
0
220
0
230
0
 70
    8
 71
    3
 72
    8
 73
    4
 74
    0
 42
1e-07
 43
1e-07
 40
0
 40
0
 40
0
 40
0
 40
1
 40
1
 40
1
 40
1
 10
224.6634096243742
 20
225.7931112499438
 30
0
 10
225.0604416237715
 20
225.6829659890237
 30
0
 10
225.4444681840038
 20
225.5047949591718
 30
0
 10
225.7895132938697
 20
225.2370851417155
 30
0
  0
SPLINE
  5
189
100
AcDbEntity
  8
Capa 1
  6
ByLayer
 62
  256
370
    5
100
AcDbSpline
210
0
220
0
230
0
 70
    8
 71
    3
 72
    8
 73
    4
 74
    0
 42
1e-07
 43
1e-07
 40
0
 40
0
 40
0
 40
0
 40
1
 40
1
 40
1
 40
1
 10
225.9646857506163
 20
225.4624662644085
 30
0
 10
225.5860635953987
 20
225.7565356314868
 30
0
 10
225.1658798222596
 20
225.960368868378
 30
0
 10
224.7299709738824
 20
226.0796144500009
 30
0
  0
SPLINE
  5
18A
100
AcDbEntity
  8
Capa 1
  6
ByLayer
 62
  256
370
    5
100
AcDbSpline
210
0
220
0
230
0
 70
    8
 71
    3
 72
    8
 73
    4
 74
    0
 42
1e-07
 43
1e-07
 40
0
 40
0
 40
0
 40
0
 40
1
 40
1
 40
1
 40
1
 10
225.0254350261258
 20
227.3516370549034
 30
0
 10
225.6489638963489
 20
227.1874477438325
 30
0
 10
226.2391249239946
 20
226.8990268516734
 30
0
 10
226.7635614132314
 20
226.4917439163115
 30
0
  0
LINE
  5
18B
100
AcDbEntity
  8
Capa 1
  6
ByLayer
 62
  256
370
    5
100
AcDbLine
 10
224.7299709738824
 20
226.0796144500009
 11
225.0254350261258
 21
227.3516370549034
  0
SPLINE
  5
18C
100
AcDbEntity
  8
Capa 1
  6
ByLayer
 62
  256
370
    5
100
AcDbSpline
210
0
220
0
230
0
 70
    8
 71
    3
 72
    8
 73
    4
 74
    0
 42
1e-07
 43
1e-07
 40
0
 40
0
 40
0
 40
0
 40
1
 40
1
 40
1
 40
1
 10
225.7895132938696
 20
225.2370851417155
 30
0
 10
226.3850089922726
 20
224.7745029395543
 30
0
 10
226.7627594692617
 20
224.1420132171448
 30
0
 10
226.934863618645
 20
223.4620344648614
 30
0
  0
SPLINE
  5
18D
100
AcDbEntity
  8
Capa 1
  6
ByLayer
 62
  256
370
    5
100
AcDbSpline
210
0
220
0
230
0
 70
    8
 71
    3
 72
    8
 73
    4
 74
    0
 42
1e-07
 43
1e-07
 40
0
 40
0
 40
0
 40
0
 40
1
 40
1
 40
1
 40
1
 10
227.2249232658731
 20
223.5223894653846
 30
0
 10
227.039395271775
 20
224.2665586023957
 30
0
 10
226.6159339884973
 20
224.9567534235143
 30
0
 10
225.9646857506163
 20
225.4624662644085
 30
0
  0
SPLINE
  5
18E
100
AcDbEntity
  8
Capa 1
  6
ByLayer
 62
  256
370
    5
100
AcDbSpline
210
0
220
0
230
0
 70
    8
 71
    3
 72
    8
 73
    4
 74
    0
 42
1e-07
 43
1e-07
 40
0
 40
0
 40
0
 40
0
 40
1
 40
1
 40
1
 40
1
 10
225.8228462693173
 20
223.2306213288287
 30
0
 10
225.7049605057307
 20
223.6534201366532
 30
0
 10
225.4619366156979
 20
224.0448385282611
 30
0
 10
225.0886491312372
 20
224.3347238398439
 30
0
  0
LINE
  5
18F
100
AcDbEntity
  8
Capa 1
  6
ByLayer
 62
  256
370
    5
100
AcDbLine
 10
224.7470210000267
 20
227.4138400132706
 11
224.4515569477828
 21
226.141852275497
  0
LINE
  5
190
100
AcDbEntity
  8
Capa 1
  6
ByLayer
 62
  256
370
    5
100
AcDbLine
 10
224.405462603074
 20
224.682628054298
 11
224.6634096243742
 21
225.7931112499438
  0
SPLINE
  5
191
100
AcDbEntity
  8
Capa 1
  6
ByLayer
 62
  256
370
    5
100
AcDbSpline
210
0
220
0
230
0
 70
    8
 71
    3
 72
    8
 73
    4
 74
    0
 42
1e-07
 43
1e-07
 40
0
 40
0
 40
0
 40
0
 40
1
 40
1
 40
1
 40
1
 10
225.0886491312372
 20
224.3347238398439
 30
0
 10
224.8784352097154
 20
224.4979717384279
 30
0
 10
224.6457668570347
 20
224.6094768173844
 30
0
 10
224.4054626030741
 20
224.682628054298
 30
0
  0
SPLINE
  5
192
100
AcDbEntity
  8
Capa 1
  6
ByLayer
 62
  256
370
    5
100
AcDbSpline
210
0
220
0
230
0
 70
    8
 71
    3
 72
    8
 73
    4
 74
    0
 42
1e-07
 43
1e-07
 40
0
 40
0
 40
0
 40
0
 40
1
 40
1
 40
1
 40
1
 10
224.5180136959041
 20
220.6783126094199
 30
0
 10
224.8786095453616
 20
220.8103892945626
 30
0
 10
225.2096380693167
 20
221.0365374940963
 30
0
 10
225.4625642240223
 20
221.3622313472951
 30
0
  0
SPLINE
  5
193
100
AcDbEntity
  8
Capa 1
  6
ByLayer
 62
  256
370
    5
100
AcDbSpline
210
0
220
0
230
0
 70
    8
 71
    3
 72
    8
 73
    4
 74
    0
 42
1e-07
 43
1e-07
 40
0
 40
0
 40
0
 40
0
 40
1
 40
1
 40
1
 40
1
 10
225.4625642240223
 20
221.3622313472951
 30
0
 10
225.8271697933296
 20
221.8317521081534
 30
0
 10
225.9609549677995
 20
222.4058742563993
 30
0
 10
225.8854327661049
 20
222.9516494286636
 30
0
  0
LINE
  5
194
100
AcDbEntity
  8
Capa 1
  6
ByLayer
 62
  256
370
    5
100
AcDbLine
 10
226.934863618645
 20
223.4620344648614
 11
225.8228462693173
 21
223.2306213288287
  0
LINE
  5
195
100
AcDbEntity
  8
Capa 1
  6
ByLayer
 62
  256
370
    5
100
AcDbLine
 10
225.8854327661049
 20
222.9516494286636
 11
226.9973803811739
 21
223.1831322989545
  0
SPLINE
  5
196
100
AcDbEntity
  8
Capa 1
  6
ByLayer
 62
  256
370
    5
100
AcDbSpline
210
0
220
0
230
0
 70
    8
 71
    3
 72
    8
 73
    4
 74
    0
 42
1e-07
 43
1e-07
 40
0
 40
0
 40
0
 40
0
 40
1
 40
1
 40
1
 40
1
 10
227.6193402305863
 20
219.6873539324305
 30
0
 10
227.0143258059307
 20
218.9081433306438
 30
0
 10
226.2050597388352
 20
218.345980607689
 30
0
 10
225.2861365506268
 20
218.049854079992
 30
0
  0
SPLINE
  5
197
100
AcDbEntity
  8
Capa 1
  6
ByLayer
 62
  256
370
    5
100
AcDbSpline
210
0
220
0
230
0
 70
    8
 71
    3
 72
    8
 73
    4
 74
    0
 42
1e-07
 43
1e-07
 40
0
 40
0
 40
0
 40
0
 40
1
 40
1
 40
1
 40
1
 10
224.920903372995
 20
219.2996314565101
 30
0
 10
225.5778349529244
 20
219.5191897686387
 30
0
 10
226.1557576182461
 20
219.9267865081624
 30
0
 10
226.5900625786832
 20
220.4862295950455
 30
0
  0
SPLINE
  5
198
100
AcDbEntity
  8
Capa 1
  6
ByLayer
 62
  256
370
    5
100
AcDbSpline
210
0
220
0
230
0
 70
    8
 71
    3
 72
    8
 73
    4
 74
    0
 42
1e-07
 43
1e-07
 40
0
 40
0
 40
0
 40
0
 40
1
 40
1
 40
1
 40
1
 10
226.7635614132314
 20
226.4917439163115
 30
0
 10
227.6457346473372
 20
225.8067791645624
 30
0
 10
228.2500517294097
 20
224.8601714758255
 30
0
 10
228.5041284993764
 20
223.7886348634174
 30
0
  0
SPLINE
  5
199
100
AcDbEntity
  8
Capa 1
  6
ByLayer
 62
  256
370
    5
100
AcDbSpline
210
0
220
0
230
0
 70
    8
 71
    3
 72
    8
 73
    4
 74
    0
 42
1e-07
 43
1e-07
 40
0
 40
0
 40
0
 40
0
 40
1
 40
1
 40
1
 40
1
 10
228.7841464134154
 20
223.8468978361928
 30
0
 10
228.5162971274428
 20
224.9848563295926
 30
0
 10
227.8751254898802
 20
225.990249998042
 30
0
 10
226.9387338699779
 20
226.7171250390047
 30
0
  0
LINE
  5
19A
100
AcDbEntity
  8
Capa 1
  6
ByLayer
 62
  256
370
    5
100
AcDbLine
 10
228.5041284993764
 20
223.7886348634174
 11
227.2249232658731
 21
223.5223894653846
  0
SPLINE
  5
19B
100
AcDbEntity
  8
Capa 1
  6
ByLayer
 62
  256
370
    5
100
AcDbSpline
210
0
220
0
230
0
 70
    8
 71
    3
 72
    8
 73
    4
 74
    0
 42
1e-07
 43
1e-07
 40
0
 40
0
 40
0
 40
0
 40
1
 40
1
 40
1
 40
1
 10
228.8840407383716
 20
223.3023778805775
 30
0
 10
228.872813522792
 20
223.391637731149
 30
0
 10
228.8533576647377
 20
223.4783522812941
 30
0
 10
228.8377023237586
 20
223.5662523138294
 30
0
  0
SPLINE
  5
19C
100
AcDbEntity
  8
Capa 1
  6
ByLayer
 62
  256
370
    5
100
AcDbSpline
210
0
220
0
230
0
 70
    8
 71
    3
 72
    8
 73
    4
 74
    0
 42
1e-07
 43
1e-07
 40
0
 40
0
 40
0
 40
0
 40
1
 40
1
 40
1
 40
1
 10
227.8447213532794
 20
219.5121814756834
 30
0
 10
228.6859954449158
 20
220.5955729119958
 30
0
 10
229.0553080766558
 20
221.9411651593614
 30
0
 10
228.8840407383716
 20
223.3023778805775
 30
0
  0
SPLINE
  5
19D
100
AcDbEntity
  8
Capa 1
  6
ByLayer
 62
  256
370
    5
100
AcDbSpline
210
0
220
0
230
0
 70
    8
 71
    3
 72
    8
 73
    4
 74
    0
 42
1e-07
 43
1e-07
 40
0
 40
0
 40
0
 40
0
 40
1
 40
1
 40
1
 40
1
 10
228.600640712807
 20
223.2666739403487
 30
0
 10
228.7618663179016
 20
221.9813320921187
 30
0
 10
228.413752900673
 20
220.7104949696062
 30
0
 10
227.6193402305864
 20
219.6873539324305
 30
0
  0
SPLINE
  5
19E
100
AcDbEntity
  8
Capa 1
  6
ByLayer
 62
  256
370
    5
100
AcDbSpline
210
0
220
0
230
0
 70
    8
 71
    3
 72
    8
 73
    4
 74
    0
 42
1e-07
 43
1e-07
 40
0
 40
0
 40
0
 40
0
 40
1
 40
1
 40
1
 40
1
 10
226.5900625786832
 20
220.4862295950455
 30
0
 10
227.2207043432484
 20
221.2984593681176
 30
0
 10
227.4382752290167
 20
222.3001222537499
 30
0
 10
227.2820704905166
 20
223.2424064184748
 30
0
  0
SPLINE
  5
19F
100
AcDbEntity
  8
Capa 1
  6
ByLayer
 62
  256
370
    5
100
AcDbSpline
210
0
220
0
230
0
 70
    8
 71
    3
 72
    8
 73
    4
 74
    0
 42
1e-07
 43
1e-07
 40
0
 40
0
 40
0
 40
0
 40
1
 40
1
 40
1
 40
1
 10
226.9973803811739
 20
223.1831322989545
 30
0
 10
227.1374416388869
 20
222.3200313844827
 30
0
 10
226.9420462472451
 20
221.4049435804789
 30
0
 10
226.3646814559902
 20
220.6614020517919
 30
0
  0
LINE
  5
1A0
100
AcDbEntity
  8
Capa 1
  6
ByLayer
 62
  256
370
    5
100
AcDbLine
 10
228.8377023237586
 20
223.5662523138294
 11
231.3318178046501
 21
224.085458733697
  0
SPLINE
  5
1A1
100
AcDbEntity
  8
Capa 1
  6
ByLayer
 62
  256
370
    5
100
AcDbSpline
210
0
220
0
230
0
 70
    8
 71
    3
 72
    8
 73
    4
 74
    0
 42
1e-07
 43
1e-07
 40
0
 40
0
 40
0
 40
0
 40
1
 40
1
 40
1
 40
1
 10
231.3318178046501
 20
224.085458733697
 30
0
 10
231.4058058526633
 20
223.9181313810044
 30
0
 10
231.5161254492288
 20
223.7643324744142
 30
0
 10
231.6707611669183
 20
223.6442500816922
 30
0
  0
LINE
  5
1A2
100
AcDbEntity
  8
Capa 1
  6
ByLayer
 62
  256
370
    5
100
AcDbLine
 10
231.2478926248356
 20
224.3596189700422
 11
228.7841464134154
 21
223.8468978361928
  0
SPLINE
  5
1A3
100
AcDbEntity
  8
Capa 1
  6
ByLayer
 62
  256
370
    5
100
AcDbSpline
210
0
220
0
230
0
 70
    8
 71
    3
 72
    8
 73
    4
 74
    0
 42
1e-07
 43
1e-07
 40
0
 40
0
 40
0
 40
0
 40
1
 40
1
 40
1
 40
1
 10
231.4691245591625
 20
225.2474058119377
 30
0
 10
231.2655702593044
 20
224.9852747351421
 30
0
 10
231.1974398889854
 20
224.6630675948564
 30
0
 10
231.2478926248356
 20
224.3596189700422
 30
0
  0
SPLINE
  5
1A4
100
AcDbEntity
  8
Capa 1
  6
ByLayer
 62
  256
370
    5
100
AcDbSpline
210
0
220
0
230
0
 70
    8
 71
    3
 72
    8
 73
    4
 74
    0
 42
1e-07
 43
1e-07
 40
0
 40
0
 40
0
 40
0
 40
1
 40
1
 40
1
 40
1
 10
231.5182174769768
 20
225.2989742959203
 30
0
 10
231.5023878003518
 20
225.2810177244186
 30
0
 10
231.4840128233007
 20
225.266582732959
 30
0
 10
231.4691245591625
 20
225.2474058119377
 30
0
  0
SPLINE
  5
1A5
100
AcDbEntity
  8
Capa 1
  6
ByLayer
 62
  256
370
    5
100
AcDbSpline
210
0
220
0
230
0
 70
    8
 71
    3
 72
    8
 73
    4
 74
    0
 42
1e-07
 43
1e-07
 40
0
 40
0
 40
0
 40
0
 40
1
 40
1
 40
1
 40
1
 10
231.6707611669183
 20
223.6442500816922
 30
0
 10
231.7106840297714
 20
223.6132532038961
 30
0
 10
231.7539541370214
 20
223.5904152343162
 30
0
 10
231.796422300301
 20
223.5654852369887
 30
0
  0
SPLINE
  5
1A6
100
AcDbEntity
  8
Capa 1
  6
ByLayer
 62
  256
370
    5
100
AcDbSpline
210
0
220
0
230
0
 70
    8
 71
    3
 72
    8
 73
    4
 74
    0
 42
1e-07
 43
1e-07
 40
0
 40
0
 40
0
 40
0
 40
1
 40
1
 40
1
 40
1
 10
224.4299741948518
 20
217.5668746072902
 30
0
 10
224.6552158490287
 20
217.5952215832725
 30
0
 10
224.8745300912533
 20
217.6429198159214
 30
0
 10
225.0906714247269
 20
217.6991604952076
 30
0
  0
SPLINE
  5
1A7
100
AcDbEntity
  8
Capa 1
  6
ByLayer
 62
  256
370
    5
100
AcDbSpline
210
0
220
0
230
0
 70
    8
 71
    3
 72
    8
 73
    4
 74
    0
 42
1e-07
 43
1e-07
 40
0
 40
0
 40
0
 40
0
 40
1
 40
1
 40
1
 40
1
 10
225.3661566119792
 20
217.7759379135508
 30
0
 10
226.3422618919599
 20
218.0888355303588
 30
0
 10
227.2022944990681
 20
218.6848542356989
 30
0
 10
227.8447213532794
 20
219.5121814756834
 30
0
  0
LINE
  5
1A8
100
AcDbEntity
  8
Capa 1
  6
ByLayer
 62
  256
370
    5
100
AcDbLine
 10
225.2861365506268
 20
218.049854079992
 11
224.920903372995
 21
219.2996314565101
  0
SPLINE
  5
1A9
100
AcDbEntity
  8
Capa 1
  6
ByLayer
 62
  256
370
    5
100
AcDbSpline
210
0
220
0
230
0
 70
    8
 71
    3
 72
    8
 73
    4
 74
    0
 42
1e-07
 43
1e-07
 40
0
 40
0
 40
0
 40
0
 40
1
 40
1
 40
1
 40
1
 10
225.0106164962458
 20
217.9730766616487
 30
0
 10
224.8089450213605
 20
217.9209503036002
 30
0
 10
224.6043447076286
 20
217.8767039167351
 30
0
 10
224.3942702546231
 20
217.8502746328549
 30
0
  0
LINE
  5
1AA
100
AcDbEntity
  8
Capa 1
  6
ByLayer
 62
  256
370
    5
100
AcDbLine
 10
224.6455576542598
 20
219.2222961641007
 11
225.0106164962458
 21
217.9730766616487
  0
LINE
  5
1AB
100
AcDbEntity
  8
Capa 1
  6
ByLayer
 62
  256
370
    5
100
AcDbLine
 10
234.0553241280852
 20
232.2032237376285
 11
227.1514582247972
 21
232.4506060188025
  0
LINE
  5
1AC
100
AcDbEntity
  8
Capa 1
  6
ByLayer
 62
  256
370
    5
100
AcDbLine
 10
227.0870237701657
 20
232.1669270562049
 11
234.3556695784066
 21
231.9065044687367
  0
LINE
  5
1AD
100
AcDbEntity
  8
Capa 1
  6
ByLayer
 62
  256
370
    5
100
AcDbLine
 10
226.5173646144482
 20
231.5241166635733
 11
231.5182174769768
 21
225.2989742959203
  0
LINE
  5
1AE
100
AcDbEntity
  8
Capa 1
  6
ByLayer
 62
  256
370
    5
100
AcDbLine
 10
231.7333127965765
 20
225.4880936043187
 11
226.7595168262527
 21
231.6795194581036
  0
SPLINE
  5
1AF
100
AcDbEntity
  8
Capa 1
  6
ByLayer
 62
  256
370
    5
100
AcDbSpline
210
0
220
0
230
0
 70
    8
 71
    3
 72
    8
 73
    4
 74
    0
 42
1e-07
 43
1e-07
 40
0
 40
0
 40
0
 40
0
 40
1
 40
1
 40
1
 40
1
 10
232.668763003992
 20
225.6498073492214
 30
0
 10
232.3501471780068
 20
225.7355107526218
 30
0
 10
232.0086585153124
 20
225.6746327451616
 30
0
 10
231.7333127965765
 20
225.4880936043187
 30
0
  0
SPLINE
  5
1B0
100
AcDbEntity
  8
Capa 1
  6
ByLayer
 62
  256
370
    5
100
AcDbSpline
210
0
220
0
230
0
 70
    8
 71
    3
 72
    8
 73
    4
 74
    0
 42
1e-07
 43
1e-07
 40
0
 40
0
 40
0
 40
0
 40
1
 40
1
 40
1
 40
1
 10
234.6557709588243
 20
231.4458748258067
 30
0
 10
234.6884763259479
 20
231.4204566886713
 30
0
 10
234.7237967277562
 20
231.40127976765
 30
0
 10
234.7587684582731
 20
231.3813357697879
 30
0
  0
SPLINE
  5
1B1
100
AcDbEntity
  8
Capa 1
  6
ByLayer
 62
  256
370
    5
100
AcDbSpline
210
0
220
0
230
0
 70
    8
 71
    3
 72
    8
 73
    4
 74
    0
 42
1e-07
 43
1e-07
 40
0
 40
0
 40
0
 40
0
 40
1
 40
1
 40
1
 40
1
 10
234.3556695784066
 20
231.9065044687367
 30
0
 10
234.4016593217284
 20
231.7301465295997
 30
0
 10
234.5007168355854
 20
231.5663058898201
 30
0
 10
234.6557709588243
 20
231.4458748258067
 30
0
  0
LINE
  5
1B2
100
AcDbEntity
  8
Capa 1
  6
ByLayer
 62
  256
370
    5
100
AcDbLine
 10
234.7587684582731
 20
231.3813357697879
 11
232.668763003992
 21
225.6498073492214
  0
SPLINE
  5
1B3
100
AcDbEntity
  8
Capa 1
  6
ByLayer
 62
  256
370
    5
100
AcDbSpline
210
0
220
0
230
0
 70
    8
 71
    3
 72
    8
 73
    4
 74
    0
 42
1e-07
 43
1e-07
 40
0
 40
0
 40
0
 40
0
 40
1
 40
1
 40
1
 40
1
 10
233.0722454222786
 20
225.4490424196938
 30
0
 10
233.0277200983805
 20
225.4836306117903
 30
0
 10
232.9797080615691
 20
225.5098506928955
 30
0
 10
232.9320795631784
 20
225.536872717971
 30
0
  0
LINE
  5
1B4
100
AcDbEntity
  8
Capa 1
  6
ByLayer
 62
  256
370
    5
100
AcDbLine
 10
232.9320795631784
 20
225.536872717971
 11
234.8897293952834
 21
230.9054691914284
  0
SPLINE
  5
1B5
100
AcDbEntity
  8
Capa 1
  6
ByLayer
 62
  256
370
    5
100
AcDbSpline
210
0
220
0
230
0
 70
    8
 71
    3
 72
   11
 73
    7
 74
    0
 42
1e-07
 43
1e-07
 40
0
 40
0
 40
0
 40
0
 40
0.25
 40
0.5
 40
0.75
 40
1
 40
1
 40
1
 40
1
 10
232.4785976817196
 20
216.3234430482735
 30
0
 10
232.852373305988
 20
216.0331741982707
 30
0
 10
233.3906869126186
 20
216.1008861630398
 30
0
 10
233.6809557626219
 20
216.4746617873084
 30
0
 10
233.9712246126246
 20
216.8484374115764
 30
0
 10
233.9035126478554
 20
217.386751018207
 30
0
 10
233.529702156458
 20
217.6770198682104
 30
0
  0
SPLINE
  5
1B6
100
AcDbEntity
  8
Capa 1
  6
ByLayer
 62
  256
370
    5
100
AcDbSpline
210
0
220
0
230
0
 70
    8
 71
    3
 72
    8
 73
    4
 74
    0
 42
1e-07
 43
1e-07
 40
0
 40
0
 40
0
 40
0
 40
1
 40
1
 40
1
 40
1
 10
233.529702156458
 20
217.6770198682104
 30
0
 10
233.4560627797362
 20
217.7342019599828
 30
0
 10
233.3750664387686
 20
217.773532081641
 30
0
 10
233.2918386015362
 20
217.8033086099173
 30
0
  0
LINE
  5
1B7
100
AcDbEntity
  8
Capa 1
  6
ByLayer
 62
  256
370
    5
100
AcDbLine
 10
233.2918386015362
 20
217.8033086099173
 11
235.230450981137
 21
231.2707721033182
  0
SPLINE
  5
1B8
100
AcDbEntity
  8
Capa 1
  6
ByLayer
 62
  256
370
    5
100
AcDbSpline
210
0
220
0
230
0
 70
    8
 71
    3
 72
    8
 73
    4
 74
    0
 42
1e-07
 43
1e-07
 40
0
 40
0
 40
0
 40
0
 40
1
 40
1
 40
1
 40
1
 10
232.6120341848985
 20
223.4350124397859
 30
0
 10
232.8653090108954
 20
223.4896492311319
 30
0
 10
233.1025449574923
 20
223.6252126291874
 30
0
 10
233.2739168971636
 20
223.8458866894481
 30
0
  0
SPLINE
  5
1B9
100
AcDbEntity
  8
Capa 1
  6
ByLayer
 62
  256
370
    5
100
AcDbSpline
210
0
220
0
230
0
 70
    8
 71
    3
 72
    8
 73
    4
 74
    0
 42
1e-07
 43
1e-07
 40
0
 40
0
 40
0
 40
0
 40
1
 40
1
 40
1
 40
1
 10
233.2739168971636
 20
223.8458866894481
 30
0
 10
233.660907163372
 20
224.3442774332254
 30
0
 10
233.5706361660558
 20
225.062017286356
 30
0
 10
233.0722454222786
 20
225.4490424196938
 30
0
  0
LINE
  5
1BA
100
AcDbEntity
  8
Capa 1
  6
ByLayer
 62
  256
370
    5
100
AcDbLine
 10
234.8897293952834
 20
230.9054691914284
 11
233.0547769905852
 21
218.1576981103899
  0
LINE
  5
1BB
100
AcDbEntity
  8
Capa 1
  6
ByLayer
 62
  256
370
    5
100
AcDbLine
 10
233.0547769905852
 20
218.1576981103899
 11
232.6120341848985
 21
223.4350124397859
  0
SPLINE
  5
1BC
100
AcDbEntity
  8
Capa 1
  6
ByLayer
 62
  256
370
    5
100
AcDbSpline
210
0
220
0
230
0
 70
    8
 71
    3
 72
    8
 73
    4
 74
    0
 42
1e-07
 43
1e-07
 40
0
 40
0
 40
0
 40
0
 40
1
 40
1
 40
1
 40
1
 10
227.392285485695
 20
213.3447093396107
 30
0
 10
227.3344409184688
 20
213.3857130834669
 30
0
 10
227.2748529947865
 20
213.4219400306326
 30
0
 10
227.212510567903
 20
213.4508100135521
 30
0
  0
LINE
  5
1BD
100
AcDbEntity
  8
Capa 1
  6
ByLayer
 62
  256
370
    5
100
AcDbLine
 10
226.6012200600044
 20
213.5495885903757
 11
225.3661566119792
 21
217.7759379135508
  0
SPLINE
  5
1BE
100
AcDbEntity
  8
Capa 1
  6
ByLayer
 62
  256
370
    5
100
AcDbSpline
210
0
220
0
230
0
 70
    8
 71
    3
 72
    8
 73
    4
 74
    0
 42
1e-07
 43
1e-07
 40
0
 40
0
 40
0
 40
0
 40
1
 40
1
 40
1
 40
1
 10
232.4501112372208
 20
216.3505696747366
 30
0
 10
232.4601878375393
 20
216.3419574938416
 30
0
 10
232.4679980744644
 20
216.3316716907483
 30
0
 10
232.4785976817196
 20
216.3234430482735
 30
0
  0
SPLINE
  5
1BF
100
AcDbEntity
  8
Capa 1
  6
ByLayer
 62
  256
370
    5
100
AcDbSpline
210
0
220
0
230
0
 70
    8
 71
    3
 72
    8
 73
    4
 74
    0
 42
1e-07
 43
1e-07
 40
0
 40
0
 40
0
 40
0
 40
1
 40
1
 40
1
 40
1
 10
232.7959931581858
 20
217.827715600308
 30
0
 10
232.6166017788147
 20
217.7827370037309
 30
0
 10
232.449588230284
 20
217.683191350066
 30
0
 10
232.3273440755558
 20
217.5258011291755
 30
0
  0
LINE
  5
1C0
100
AcDbEntity
  8
Capa 1
  6
ByLayer
 62
  256
370
    5
100
AcDbLine
 10
227.212510567903
 20
213.4508100135521
 11
232.0573330275769
 21
223.4498309696661
  0
LINE
  5
1C1
100
AcDbEntity
  8
Capa 1
  6
ByLayer
 62
  256
370
    5
100
AcDbLine
 10
231.796422300301
 20
223.5654852369887
 11
226.9362234366808
 21
213.535118731787
  0
LINE
  5
1C2
100
AcDbEntity
  8
Capa 1
  6
ByLayer
 62
  256
370
    5
100
AcDbLine
 10
232.3277973482347
 20
223.4075371420319
 11
232.7959931581858
 21
217.827715600308
  0
SPLINE
  5
1C3
100
AcDbEntity
  8
Capa 1
  6
ByLayer
 62
  256
370
    5
100
AcDbSpline
210
0
220
0
230
0
 70
    8
 71
    3
 72
    8
 73
    4
 74
    0
 42
1e-07
 43
1e-07
 40
0
 40
0
 40
0
 40
0
 40
1
 40
1
 40
1
 40
1
 10
232.0573330275769
 20
223.4498309696661
 30
0
 10
232.1462093397284
 20
223.4243779654016
 30
0
 10
232.2367244069483
 20
223.4109192535575
 30
0
 10
232.3277973482347
 20
223.4075371420319
 30
0
  0
SPLINE
  5
1C4
100
AcDbEntity
  8
Capa 1
  6
ByLayer
 62
  256
370
    5
100
AcDbSpline
210
0
220
0
230
0
 70
    8
 71
    3
 72
    8
 73
    4
 74
    0
 42
1e-07
 43
1e-07
 40
0
 40
0
 40
0
 40
0
 40
1
 40
1
 40
1
 40
1
 10
232.3273440755558
 20
217.5258011291755
 30
0
 10
232.1066002810372
 20
217.2414945582533
 30
0
 10
232.0940829816795
 20
216.8626283331326
 30
0
 10
232.2645832431228
 20
216.5695352456697
 30
0
  0
SPLINE
  5
1C5
100
AcDbEntity
  8
Capa 1
  6
ByLayer
 62
  256
370
    5
100
AcDbSpline
210
0
220
0
230
0
 70
    8
 71
    3
 72
    8
 73
    4
 74
    0
 42
1e-07
 43
1e-07
 40
0
 40
0
 40
0
 40
0
 40
1
 40
1
 40
1
 40
1
 10
225.6236154934715
 20
212.169791689334
 30
0
 10
225.6790890959166
 20
211.9185391568268
 30
0
 10
225.8141643541641
 20
211.6834649722356
 30
0
 10
226.0332693936141
 20
211.5133133820837
 30
0
  0
SPLINE
  5
1C6
100
AcDbEntity
  8
Capa 1
  6
ByLayer
 62
  256
370
    5
100
AcDbSpline
210
0
220
0
230
0
 70
    8
 71
    3
 72
    8
 73
    4
 74
    0
 42
1e-07
 43
1e-07
 40
0
 40
0
 40
0
 40
0
 40
1
 40
1
 40
1
 40
1
 10
226.0332693936141
 20
211.5133133820836
 30
0
 10
226.531625270262
 20
211.1263231158752
 30
0
 10
227.249399990522
 20
211.2165941131913
 30
0
 10
227.6363902567303
 20
211.7149848569686
 30
0
  0
SPLINE
  5
1C7
100
AcDbEntity
  8
Capa 1
  6
ByLayer
 62
  256
370
    5
100
AcDbSpline
210
0
220
0
230
0
 70
    8
 71
    3
 72
    8
 73
    4
 74
    0
 42
1e-07
 43
1e-07
 40
0
 40
0
 40
0
 40
0
 40
1
 40
1
 40
1
 40
1
 10
227.6363902567303
 20
211.7149848569686
 30
0
 10
227.9720561088604
 20
212.1471977896577
 30
0
 10
227.9475445170822
 20
212.7438441033222
 30
0
 10
227.6103096441413
 20
213.1472219202212
 30
0
  0
LINE
  5
1C8
100
AcDbEntity
  8
Capa 1
  6
ByLayer
 62
  256
370
    5
100
AcDbLine
 10
227.6103096441413
 20
213.1472219202212
 11
232.4501112372208
 21
216.3505696747366
  0
LINE
  5
1C9
100
AcDbEntity
  8
Capa 1
  6
ByLayer
 62
  256
370
    5
100
AcDbLine
 10
232.2645832431228
 20
216.5695352456697
 11
227.392285485695
 21
213.3447093396107
  0
SPLINE
  5
1CA
100
AcDbEntity
  8
Capa 1
  6
ByLayer
 62
  256
370
    5
100
AcDbSpline
210
0
220
0
230
0
 70
    8
 71
    3
 72
    8
 73
    4
 74
    0
 42
1e-07
 43
1e-07
 40
0
 40
0
 40
0
 40
0
 40
1
 40
1
 40
1
 40
1
 10
235.7069103006917
 20
232.7994865128723
 30
0
 10
235.3331346764232
 20
233.0897204957463
 30
0
 10
234.7948210697929
 20
233.0220085309769
 30
0
 10
234.50455221979
 20
232.6482329067084
 30
0
  0
SPLINE
  5
1CB
100
AcDbEntity
  8
Capa 1
  6
ByLayer
 62
  256
370
    5
100
AcDbSpline
210
0
220
0
230
0
 70
    8
 71
    3
 72
    8
 73
    4
 74
    0
 42
1e-07
 43
1e-07
 40
0
 40
0
 40
0
 40
0
 40
1
 40
1
 40
1
 40
1
 10
235.230450981137
 20
231.2707721033182
 30
0
 10
235.4687678087373
 20
231.2846143535827
 30
0
 10
235.7002506790281
 20
231.3937833348871
 30
0
 10
235.858129039726
 20
231.5971284319705
 30
0
  0
SPLINE
  5
1CC
100
AcDbEntity
  8
Capa 1
  6
ByLayer
 62
  256
370
    5
100
AcDbSpline
210
0
220
0
230
0
 70
    8
 71
    3
 72
    8
 73
    4
 74
    0
 42
1e-07
 43
1e-07
 40
0
 40
0
 40
0
 40
0
 40
1
 40
1
 40
1
 40
1
 10
235.8581290397262
 20
231.5971284319705
 30
0
 10
236.1483978897295
 20
231.9709040562387
 30
0
 10
236.0806859249601
 20
232.5092176628692
 30
0
 10
235.7069103006917
 20
232.7994865128723
 30
0
  0
LINE
  5
1CD
100
AcDbEntity
  8
Capa 1
  6
ByLayer
 62
  256
370
    5
100
AcDbLine
 10
225.1131607230154
 20
233.2474942550573
 11
221.901688927413
 21
235.7413307989162
  0
SPLINE
  5
1CE
100
AcDbEntity
  8
Capa 1
  6
ByLayer
 62
  256
370
    5
100
AcDbSpline
210
0
220
0
230
0
 70
    8
 71
    3
 72
    8
 73
    4
 74
    0
 42
1e-07
 43
1e-07
 40
0
 40
0
 40
0
 40
0
 40
1
 40
1
 40
1
 40
1
 10
221.901688927413
 20
235.7413307989162
 30
0
 10
221.9035717523861
 20
235.7441899035047
 30
0
 10
221.9052453745842
 20
235.7471187423516
 30
0
 10
221.9070933324283
 20
235.7499778469404
 30
0
  0
SPLINE
  5
1CF
100
AcDbEntity
  8
Capa 1
  6
ByLayer
 62
  256
370
    5
100
AcDbSpline
210
0
220
0
230
0
 70
    8
 71
    3
 72
    8
 73
    4
 74
    0
 42
1e-07
 43
1e-07
 40
0
 40
0
 40
0
 40
0
 40
1
 40
1
 40
1
 40
1
 10
234.50455221979
 20
232.6482329067084
 30
0
 10
234.4465333169184
 20
232.573512648984
 30
0
 10
234.4067150554524
 20
232.4912610913675
 30
0
 10
234.3769036600464
 20
232.4067083032285
 30
0
  0
LINE
  5
1D0
100
AcDbEntity
  8
Capa 1
  6
ByLayer
 62
  256
370
    5
100
AcDbLine
 10
234.3769036600464
 20
232.4067083032285
 11
222.0205161034865
 21
236.0140963500964
  0
LINE
  5
1D1
100
AcDbEntity
  8
Capa 1
  6
ByLayer
 62
  256
370
    5
100
AcDbLine
 10
221.9070933324283
 20
235.7499778469404
 11
234.0553241280852
 21
232.2032237376285
  0
SPLINE
  5
1D2
100
AcDbEntity
  8
Capa 1
  6
ByLayer
 62
  256
370
    5
100
AcDbSpline
210
0
220
0
230
0
 70
    8
 71
    3
 72
    8
 73
    4
 74
    0
 42
1e-07
 43
1e-07
 40
0
 40
0
 40
0
 40
0
 40
1
 40
1
 40
1
 40
1
 10
227.1514582247971
 20
232.4506060188025
 30
0
 10
227.1821412984311
 20
232.8224988180978
 30
0
 10
227.0318291047541
 20
233.2019229172852
 30
0
 10
226.7151309708705
 20
233.4478756461647
 30
0
  0
SPLINE
  5
1D3
100
AcDbEntity
  8
Capa 1
  6
ByLayer
 62
  256
370
    5
100
AcDbSpline
210
0
220
0
230
0
 70
    8
 71
    3
 72
    8
 73
    4
 74
    0
 42
1e-07
 43
1e-07
 40
0
 40
0
 40
0
 40
0
 40
1
 40
1
 40
1
 40
1
 10
226.7151309708705
 20
233.4478756461647
 30
0
 10
226.2171934997722
 20
233.8345521082108
 30
0
 10
225.5004647933861
 20
233.7446646493151
 30
0
 10
225.1131607230154
 20
233.2474942550573
 30
0
  0
SPLINE
  5
1D4
100
AcDbEntity
  8
Capa 1
  6
ByLayer
 62
  256
370
    5
100
AcDbSpline
210
0
220
0
230
0
 70
    8
 71
    3
 72
    8
 73
    4
 74
    0
 42
1e-07
 43
1e-07
 40
0
 40
0
 40
0
 40
0
 40
1
 40
1
 40
1
 40
1
 10
222.0205161034865
 20
236.0140963500964
 30
0
 10
222.0936673404002
 20
236.3296438687184
 30
0
 10
221.9860673799065
 20
236.6730153563858
 30
0
 10
221.713441297243
 20
236.884693697331
 30
0
  0
SPLINE
  5
1D5
100
AcDbEntity
  8
Capa 1
  6
ByLayer
 62
  256
370
    5
100
AcDbSpline
210
0
220
0
230
0
 70
    8
 71
    3
 72
    8
 73
    4
 74
    0
 42
1e-07
 43
1e-07
 40
0
 40
0
 40
0
 40
0
 40
1
 40
1
 40
1
 40
1
 10
221.713441297243
 20
236.884693697331
 30
0
 10
221.3396656729745
 20
237.1749625473342
 30
0
 10
220.8013520663442
 20
237.1072505825646
 30
0
 10
220.5111180834702
 20
236.7334749582963
 30
0
  0
SPLINE
  5
1D6
100
AcDbEntity
  8
Capa 1
  6
ByLayer
 62
  256
370
    5
100
AcDbSpline
210
0
220
0
230
0
 70
    8
 71
    3
 72
    8
 73
    4
 74
    0
 42
1e-07
 43
1e-07
 40
0
 40
0
 40
0
 40
0
 40
1
 40
1
 40
1
 40
1
 10
220.5111180834702
 20
236.7334749582963
 30
0
 10
220.2692099415695
 20
236.4219720266532
 30
0
 10
220.2792168076299
 20
235.9979877364386
 30
0
 10
220.5045281960648
 20
235.6967357407595
 30
0
  0
SPLINE
  5
1D7
100
AcDbEntity
  8
Capa 1
  6
ByLayer
 62
  256
370
    5
100
AcDbSpline
210
0
220
0
230
0
 70
    8
 71
    3
 72
    8
 73
    4
 74
    0
 42
1e-07
 43
1e-07
 40
0
 40
0
 40
0
 40
0
 40
1
 40
1
 40
1
 40
1
 10
220.7131382296466
 20
235.4992831884992
 30
0
 10
221.022130727992
 20
235.2922073085991
 30
0
 10
221.4215336921709
 20
235.3108960898124
 30
0
 10
221.7077230880657
 20
235.5305590033283
 30
0
  0
LINE
  5
1D8
100
AcDbEntity
  8
Capa 1
  6
ByLayer
 62
  256
370
    5
100
AcDbLine
 10
213.1842790367121
 20
228.4849930872582
 11
225.0658111616573
 21
231.9175224815414
  0
LINE
  5
1D9
100
AcDbEntity
  8
Capa 1
  6
ByLayer
 62
  256
370
    5
100
AcDbLine
 10
224.9341180149356
 20
232.1768293208777
 11
213.0328162277734
 21
228.738616584546
  0
LINE
  5
1DA
100
AcDbEntity
  8
Capa 1
  6
ByLayer
 62
  256
370
    5
100
AcDbLine
 10
212.9340376509498
 20
228.8423114265772
 11
220.7131382296466
 21
235.4992831884992
  0
LINE
  5
1DB
100
AcDbEntity
  8
Capa 1
  6
ByLayer
 62
  256
370
    5
100
AcDbLine
 10
220.5045281960648
 20
235.6967357407595
 11
212.6999746131033
 21
229.0180068902609
  0
SPLINE
  5
1DC
100
AcDbEntity
  8
Capa 1
  6
ByLayer
 62
  256
370
    5
100
AcDbSpline
210
0
220
0
230
0
 70
    8
 71
    3
 72
    8
 73
    4
 74
    0
 42
1e-07
 43
1e-07
 40
0
 40
0
 40
0
 40
0
 40
1
 40
1
 40
1
 40
1
 10
226.3646814559902
 20
220.6614020517919
 30
0
 10
225.967893526496
 20
220.1501802044951
 30
0
 10
225.4397262544422
 20
219.778252538071
 30
0
 10
224.8402905704478
 20
219.5754653150537
 30
0
  0
SPLINE
  5
1DD
100
AcDbEntity
  8
Capa 1
  6
ByLayer
 62
  256
370
    5
100
AcDbSpline
210
0
220
0
230
0
 70
    8
 71
    3
 72
    8
 73
    4
 74
    0
 42
1e-07
 43
1e-07
 40
0
 40
0
 40
0
 40
0
 40
1
 40
1
 40
1
 40
1
 10
224.2319289013964
 20
219.1428688439439
 30
0
 10
224.3725829003046
 20
219.1605813455416
 30
0
 10
224.509994256204
 20
219.1888237201367
 30
0
 10
224.6455576542598
 20
219.2222961641007
 30
0
  0
LINE
  5
1DE
100
AcDbEntity
  8
Capa 1
  6
ByLayer
 62
  256
370
    5
100
AcDbLine
 10
224.2423890401351
 20
220.6019884637557
 11
224.5617719429612
 21
219.5089736998037
  0
LINE
  5
1DF
100
AcDbEntity
  8
Capa 1
  6
ByLayer
 62
  256
370
    5
100
AcDbLine
 10
224.8402905704478
 20
219.5754653150537
 11
224.5180136959041
 21
220.6783126094199
  0
SPLINE
  5
1E0
100
AcDbEntity
  8
Capa 1
  6
ByLayer
 62
  256
370
    5
100
AcDbSpline
210
0
220
0
230
0
 70
    8
 71
    3
 72
    8
 73
    4
 74
    0
 42
1e-07
 43
1e-07
 40
0
 40
0
 40
0
 40
0
 40
1
 40
1
 40
1
 40
1
 10
224.8114205875289
 20
227.6911382912376
 30
0
 10
224.2703176105678
 20
227.8007954123498
 30
0
 10
223.7107350551683
 20
227.8275733675212
 30
0
 10
223.1485374650845
 20
227.7561654870641
 30
0
  0
SPLINE
  5
1E1
100
AcDbEntity
  8
Capa 1
  6
ByLayer
 62
  256
370
    5
100
AcDbSpline
210
0
220
0
230
0
 70
    8
 71
    3
 72
   11
 73
    7
 74
    0
 42
1e-07
 43
1e-07
 40
0
 40
0
 40
0
 40
0
 40
0.25
 40
0.5
 40
0.75
 40
1
 40
1
 40
1
 40
1
 10
223.1842414053128
 20
227.4727654614994
 30
0
 10
223.3900969356933
 20
227.4987066055718
 30
0
 10
223.5953945920082
 20
227.5115377090915
 30
0
 10
223.7990186261241
 20
227.5115377090915
 30
0
 10
224.1198659483739
 20
227.5115377090915
 30
0
 10
224.4364943479992
 20
227.4761127058959
 30
0
 10
224.7470210000267
 20
227.4138400132706
 30
0
  0
SPLINE
  5
1E2
100
AcDbEntity
  8
Capa 1
  6
ByLayer
 62
  256
370
    5
100
AcDbSpline
210
0
220
0
230
0
 70
    8
 71
    3
 72
    8
 73
    4
 74
    0
 42
1e-07
 43
1e-07
 40
0
 40
0
 40
0
 40
0
 40
1
 40
1
 40
1
 40
1
 10
224.4515569477828
 20
226.141852275497
 30
0
 10
223.1850084821539
 20
226.3803783058718
 30
0
 10
221.8315711307338
 20
225.9218755578191
 30
0
 10
220.988449081253
 20
224.8365315622757
 30
0
  0
SPLINE
  5
1E3
100
AcDbEntity
  8
Capa 1
  6
ByLayer
 62
  256
370
    5
100
AcDbSpline
210
0
220
0
230
0
 70
    8
 71
    3
 72
    8
 73
    4
 74
    0
 42
1e-07
 43
1e-07
 40
0
 40
0
 40
0
 40
0
 40
1
 40
1
 40
1
 40
1
 10
219.6688677122179
 20
219.6014761933844
 30
0
 10
219.9437601582749
 20
219.2325819671939
 30
0
 10
220.2667343754015
 20
218.8960793039652
 30
0
 10
220.6400567269911
 20
218.6061939923825
 30
0
  0
SPLINE
  5
1E4
100
AcDbEntity
  8
Capa 1
  6
ByLayer
 62
  256
370
    5
100
AcDbSpline
210
0
220
0
230
0
 70
    8
 71
    3
 72
   11
 73
    7
 74
    0
 42
1e-07
 43
1e-07
 40
0
 40
0
 40
0
 40
0
 40
0.25
 40
0.5
 40
0.75
 40
1
 40
1
 40
1
 40
1
 10
220.6400567269911
 20
218.6061939923825
 30
0
 10
221.5499493287546
 20
217.899367550669
 30
0
 10
222.6450561204542
 20
217.5255919264005
 30
0
 10
223.7789351597459
 20
217.5255919264006
 30
0
 10
223.9948324233156
 20
217.5255919264005
 30
0
 10
224.2124033090838
 20
217.5395387780525
 30
0
 10
224.4299741948518
 20
217.5668746072902
 30
0
  0
SPLINE
  5
1E5
100
AcDbEntity
  8
Capa 1
  6
ByLayer
 62
  256
370
    5
100
AcDbSpline
210
0
220
0
230
0
 70
    8
 71
    3
 72
    8
 73
    4
 74
    0
 42
1e-07
 43
1e-07
 40
0
 40
0
 40
0
 40
0
 40
1
 40
1
 40
1
 40
1
 10
217.0493700349763
 20
216.79383548736
 30
0
 10
217.0557855867359
 20
217.0740277370447
 30
0
 10
216.9620627436359
 20
217.353104238597
 30
0
 10
216.7704678690693
 20
217.571965208143
 30
0
  0
LINE
  5
1E6
100
AcDbEntity
  8
Capa 1
  6
ByLayer
 62
  256
370
    5
100
AcDbLine
 10
216.7704678690693
 20
217.571965208143
 11
219.6688677122179
 21
219.6014761933844
  0
SPLINE
  5
1E7
100
AcDbEntity
  8
Capa 1
  6
ByLayer
 62
  256
370
    5
100
AcDbSpline
210
0
220
0
230
0
 70
    8
 71
    3
 72
    8
 73
    4
 74
    0
 42
1e-07
 43
1e-07
 40
0
 40
0
 40
0
 40
0
 40
1
 40
1
 40
1
 40
1
 10
215.2100243720074
 20
215.9184613434346
 30
0
 10
215.5495953425996
 20
215.654761245828
 30
0
 10
215.9892698409227
 20
215.6176974875631
 30
0
 10
216.3585127384042
 20
215.7752969112285
 30
0
  0
SPLINE
  5
1E8
100
AcDbEntity
  8
Capa 1
  6
ByLayer
 62
  256
370
    5
100
AcDbSpline
210
0
220
0
230
0
 70
    8
 71
    3
 72
    8
 73
    4
 74
    0
 42
1e-07
 43
1e-07
 40
0
 40
0
 40
0
 40
0
 40
1
 40
1
 40
1
 40
1
 10
214.9446855193318
 20
217.4200142593966
 30
0
 10
214.6403303491604
 20
216.9295034868027
 30
0
 10
214.7439205898042
 20
216.2804170109279
 30
0
 10
215.2100243720074
 20
215.9184613434346
 30
0
  0
SPLINE
  5
1E9
100
AcDbEntity
  8
Capa 1
  6
ByLayer
 62
  256
370
    5
100
AcDbSpline
210
0
220
0
230
0
 70
    8
 71
    3
 72
    8
 73
    4
 74
    0
 42
1e-07
 43
1e-07
 40
0
 40
0
 40
0
 40
0
 40
1
 40
1
 40
1
 40
1
 10
222.1161566386888
 20
223.9608436141881
 30
0
 10
222.0537096104178
 20
223.8804400144155
 30
0
 10
222.0066389860929
 20
223.793620862883
 30
0
 10
221.9575112011495
 20
223.7077082567079
 30
0
  0
SPLINE
  5
1EA
100
AcDbEntity
  8
Capa 1
  6
ByLayer
 62
  256
370
    5
100
AcDbSpline
210
0
220
0
230
0
 70
    8
 71
    3
 72
   11
 73
    7
 74
    0
 42
1e-07
 43
1e-07
 40
0
 40
0
 40
0
 40
0
 40
0.25
 40
0.5
 40
0.75
 40
1
 40
1
 40
1
 40
1
 10
221.2138302039463
 20
224.6613591055291
 30
0
 10
221.8559432539953
 20
225.4881284714478
 30
0
 10
222.8193917661018
 20
225.9210387467199
 30
0
 10
223.7928820113973
 20
225.9210387467199
 30
0
 10
223.9914851789192
 20
225.9210387467199
 30
0
 10
224.1897048080206
 20
225.897956707236
 30
0
 10
224.3864600176982
 20
225.8615554244248
 30
0
  0
SPLINE
  5
1EB
100
AcDbEntity
  8
Capa 1
  6
ByLayer
 62
  256
370
    5
100
AcDbSpline
210
0
220
0
230
0
 70
    8
 71
    3
 72
    8
 73
    4
 74
    0
 42
1e-07
 43
1e-07
 40
0
 40
0
 40
0
 40
0
 40
1
 40
1
 40
1
 40
1
 10
224.1266999056832
 20
224.7432968589836
 30
0
 10
223.3870983625885
 20
224.8622983707025
 30
0
 10
222.6080620964477
 20
224.5942747490839
 30
0
 10
222.1161566386888
 20
223.9608436141881
 30
0
  0
LINE
  5
1EC
100
AcDbEntity
  8
Capa 1
  6
ByLayer
 62
  256
370
    5
100
AcDbLine
 10
224.3864600176982
 20
225.8615554244248
 11
224.1266999056832
 21
224.7432968589836
  0
SPLINE
  5
1ED
100
AcDbEntity
  8
Capa 1
  6
ByLayer
 62
  256
370
    5
100
AcDbSpline
210
0
220
0
230
0
 70
    8
 71
    3
 72
    8
 73
    4
 74
    0
 42
1e-07
 43
1e-07
 40
0
 40
0
 40
0
 40
0
 40
1
 40
1
 40
1
 40
1
 10
223.1485374650845
 20
227.7561654870641
 30
0
 10
221.7876036809016
 20
227.5851770858128
 30
0
 10
220.5747854612606
 20
226.8942500549825
 30
0
 10
219.7337903066568
 20
225.8108586186705
 30
0
  0
SPLINE
  5
1EE
100
AcDbEntity
  8
Capa 1
  6
ByLayer
 62
  256
370
    5
100
AcDbSpline
210
0
220
0
230
0
 70
    8
 71
    3
 72
    8
 73
    4
 74
    0
 42
1e-07
 43
1e-07
 40
0
 40
0
 40
0
 40
0
 40
1
 40
1
 40
1
 40
1
 10
219.7337903066568
 20
225.8108586186705
 30
0
 10
219.5412191524746
 20
225.5629184634307
 30
0
 10
219.3765765687251
 20
225.2998111070194
 30
0
 10
219.2343186818769
 20
225.0273244928722
 30
0
  0
SPLINE
  5
1EF
100
AcDbEntity
  8
Capa 1
  6
ByLayer
 62
  256
370
    5
100
AcDbSpline
210
0
220
0
230
0
 70
    8
 71
    3
 72
    8
 73
    4
 74
    0
 42
1e-07
 43
1e-07
 40
0
 40
0
 40
0
 40
0
 40
1
 40
1
 40
1
 40
1
 10
219.4914637592069
 20
224.9027093733635
 30
0
 10
219.625004863773
 20
225.1574834859127
 30
0
 10
219.7789781060088
 20
225.4036802846963
 30
0
 10
219.9591714293501
 20
225.6356861619241
 30
0
  0
SPLINE
  5
1F0
100
AcDbEntity
  8
Capa 1
  6
ByLayer
 62
  256
370
    5
100
AcDbSpline
210
0
220
0
230
0
 70
    8
 71
    3
 72
    8
 73
    4
 74
    0
 42
1e-07
 43
1e-07
 40
0
 40
0
 40
0
 40
0
 40
1
 40
1
 40
1
 40
1
 10
219.9591714293501
 20
225.6356861619241
 30
0
 10
220.7535840994368
 20
226.6588271991003
 30
0
 10
221.8988995570826
 20
227.3112609193714
 30
0
 10
223.1842414053128
 20
227.4727654614994
 30
0
  0
SPLINE
  5
1F1
100
AcDbEntity
  8
Capa 1
  6
ByLayer
 62
  256
370
    5
100
AcDbSpline
210
0
220
0
230
0
 70
    8
 71
    3
 72
    8
 73
    4
 74
    0
 42
1e-07
 43
1e-07
 40
0
 40
0
 40
0
 40
0
 40
1
 40
1
 40
1
 40
1
 10
225.9672659181721
 20
231.4063006342446
 30
0
 10
226.1569431006361
 20
231.3986647329653
 30
0
 10
226.3455394020977
 20
231.43973821108
 30
0
 10
226.5173646144482
 20
231.5241166635733
 30
0
  0
SPLINE
  5
1F2
100
AcDbEntity
  8
Capa 1
  6
ByLayer
 62
  256
370
    5
100
AcDbSpline
210
0
220
0
230
0
 70
    8
 71
    3
 72
    8
 73
    4
 74
    0
 42
1e-07
 43
1e-07
 40
0
 40
0
 40
0
 40
0
 40
1
 40
1
 40
1
 40
1
 10
226.7595168262527
 20
231.6795194581036
 30
0
 10
226.8162107782172
 20
231.728403173143
 30
0
 10
226.8691042131065
 20
231.7833537686512
 30
0
 10
226.9167675786266
 20
231.8447547830482
 30
0
  0
SPLINE
  5
1F3
100
AcDbEntity
  8
Capa 1
  6
ByLayer
 62
  256
370
    5
100
AcDbSpline
210
0
220
0
230
0
 70
    8
 71
    3
 72
    8
 73
    4
 74
    0
 42
1e-07
 43
1e-07
 40
0
 40
0
 40
0
 40
0
 40
1
 40
1
 40
1
 40
1
 10
226.9167675786266
 20
231.8447547830482
 30
0
 10
226.9941726052942
 20
231.9444050381004
 30
0
 10
227.0472403758291
 20
232.0541318934709
 30
0
 10
227.0870237701657
 20
232.1669270562049
 30
0
  0
SPLINE
  5
1F4
100
AcDbEntity
  8
Capa 1
  6
ByLayer
 62
  256
370
    5
100
AcDbSpline
210
0
220
0
230
0
 70
    8
 71
    3
 72
    8
 73
    4
 74
    0
 42
1e-07
 43
1e-07
 40
0
 40
0
 40
0
 40
0
 40
1
 40
1
 40
1
 40
1
 10
225.0658111616573
 20
231.9175224815414
 30
0
 10
225.1327560495864
 20
231.8163380728076
 30
0
 10
225.2124623067762
 20
231.721673817221
 30
0
 10
225.3136118483812
 20
231.6431181752921
 30
0
  0
SPLINE
  5
1F5
100
AcDbEntity
  8
Capa 1
  6
ByLayer
 62
  256
370
    5
100
AcDbSpline
210
0
220
0
230
0
 70
    8
 71
    3
 72
    8
 73
    4
 74
    0
 42
1e-07
 43
1e-07
 40
0
 40
0
 40
0
 40
0
 40
1
 40
1
 40
1
 40
1
 10
225.3136118483812
 20
231.6431181752921
 30
0
 10
225.4280108990549
 20
231.5542767302702
 30
0
 10
225.5546831791822
 20
231.4935730584559
 30
0
 10
225.6855395148053
 20
231.4542080696686
 30
0
  0
LINE
  5
1F6
100
AcDbEntity
  8
Capa 1
  6
ByLayer
 62
  256
370
    5
100
AcDbLine
 10
225.6855395148053
 20
231.4542080696686
 11
224.8114205875289
 21
227.6911382912376
  0
LINE
  5
1F7
100
AcDbEntity
  8
Capa 1
  6
ByLayer
 62
  256
370
    5
100
AcDbLine
 10
225.0899392150154
 20
227.62935373842
 11
225.9672659181721
 21
231.4063006342446
  0
SPLINE
  5
1F8
100
AcDbEntity
  8
Capa 1
  6
ByLayer
 62
  256
370
    5
100
AcDbSpline
210
0
220
0
230
0
 70
    8
 71
    3
 72
    8
 73
    4
 74
    0
 42
1e-07
 43
1e-07
 40
0
 40
0
 40
0
 40
0
 40
1
 40
1
 40
1
 40
1
 10
213.0465887437797
 20
227.3239874215038
 30
0
 10
213.1200189177265
 20
227.418547075703
 30
0
 10
213.1708203248682
 20
227.5223465191215
 30
0
 10
213.210359649301
 20
227.6289353328704
 30
0
  0
SPLINE
  5
1F9
100
AcDbEntity
  8
Capa 1
  6
ByLayer
 62
  256
370
    5
100
AcDbSpline
210
0
220
0
230
0
 70
    8
 71
    3
 72
    8
 73
    4
 74
    0
 42
1e-07
 43
1e-07
 40
0
 40
0
 40
0
 40
0
 40
1
 40
1
 40
1
 40
1
 10
213.0328162277734
 20
228.738616584546
 30
0
 10
213.0031791680136
 20
228.7754711400362
 30
0
 10
212.9687653115627
 20
228.8088041154838
 30
0
 10
212.9340376509498
 20
228.8423114265772
 30
0
  0
SPLINE
  5
1FA
100
AcDbEntity
  8
Capa 1
  6
ByLayer
 62
  256
370
    5
100
AcDbSpline
210
0
220
0
230
0
 70
    8
 71
    3
 72
    8
 73
    4
 74
    0
 42
1e-07
 43
1e-07
 40
0
 40
0
 40
0
 40
0
 40
1
 40
1
 40
1
 40
1
 10
213.2785597538784
 20
227.9133465051798
 30
0
 10
213.2975623392538
 20
228.1087767639506
 30
0
 10
213.2637760911274
 20
228.3047300296585
 30
0
 10
213.1842790367121
 20
228.4849930872582
 30
0
  0
LINE
  5
1FB
100
AcDbEntity
  8
Capa 1
  6
ByLayer
 62
  256
370
    5
100
AcDbLine
 10
219.2343186818769
 20
225.0273244928722
 11
213.2785597538784
 21
227.9133465051798
  0
LINE
  5
1FC
100
AcDbEntity
  8
Capa 1
  6
ByLayer
 62
  256
370
    5
100
AcDbLine
 10
213.210359649301
 20
227.6289353328702
 11
219.1114817859533
 21
224.7695518072179
  0
LINE
  5
1FD
100
AcDbEntity
  8
Capa 1
  6
ByLayer
 62
  256
370
    5
100
AcDbLine
 10
221.7077230880657
 20
235.5305590033283
 11
224.9693686824855
 21
232.9977061419737
  0
SPLINE
  5
1FE
100
AcDbEntity
  8
Capa 1
  6
ByLayer
 62
  256
370
    5
100
AcDbSpline
210
0
220
0
230
0
 70
    8
 71
    3
 72
    8
 73
    4
 74
    0
 42
1e-07
 43
1e-07
 40
0
 40
0
 40
0
 40
0
 40
1
 40
1
 40
1
 40
1
 10
224.9693686824855
 20
232.9977061419737
 30
0
 10
224.8552137017153
 20
232.7340409114962
 30
0
 10
224.8440213532648
 20
232.441575432358
 30
0
 10
224.9341180149356
 20
232.1768293208777
 30
0
  0
SPLINE
  5
1FF
100
AcDbEntity
  8
Capa 1
  6
ByLayer
 62
  256
370
    5
100
AcDbSpline
210
0
220
0
230
0
 70
    8
 71
    3
 72
    8
 73
    4
 74
    0
 42
1e-07
 43
1e-07
 40
0
 40
0
 40
0
 40
0
 40
1
 40
1
 40
1
 40
1
 10
228.5582422837856
 20
223.5080590753122
 30
0
 10
228.5724332053412
 20
223.4275857412814
 30
0
 10
228.5903549097137
 20
223.3483327567701
 30
0
 10
228.600640712807
 20
223.2666739403487
 30
0
  0
LINE
  5
200
100
AcDbEntity
  8
Capa 1
  6
ByLayer
 62
  256
370
    5
100
AcDbLine
 10
227.2820704905167
 20
223.2424064184749
 11
228.5582422837856
 21
223.5080590753122
  0
SPLINE
  5
201
100
AcDbEntity
  8
Capa 1
  6
ByLayer
 62
  256
370
    5
100
AcDbSpline
210
0
220
0
230
0
 70
    8
 71
    3
 72
    8
 73
    4
 74
    0
 42
1e-07
 43
1e-07
 40
0
 40
0
 40
0
 40
0
 40
1
 40
1
 40
1
 40
1
 10
210.8570725029634
 20
220.6433757460318
 30
0
 10
210.79992527832
 20
220.687761601414
 30
0
 10
210.7381407255025
 20
220.7209551083454
 30
0
 10
210.6747871518741
 20
220.7487790773906
 30
0
  0
SPLINE
  5
202
100
AcDbEntity
  8
Capa 1
  6
ByLayer
 62
  256
370
    5
100
AcDbSpline
210
0
220
0
230
0
 70
    8
 71
    3
 72
    8
 73
    4
 74
    0
 42
1e-07
 43
1e-07
 40
0
 40
0
 40
0
 40
0
 40
1
 40
1
 40
1
 40
1
 10
211.1191687126296
 20
219.6378426090661
 30
0
 10
211.2644949068415
 20
219.9860606276828
 30
0
 10
211.1693773785761
 20
220.4008399958072
 30
0
 10
210.8570725029634
 20
220.6433757460318
 30
0
  0
SPLINE
  5
203
100
AcDbEntity
  8
Capa 1
  6
ByLayer
 62
  256
370
    5
100
AcDbSpline
210
0
220
0
230
0
 70
    8
 71
    3
 72
    8
 73
    4
 74
    0
 42
1e-07
 43
1e-07
 40
0
 40
0
 40
0
 40
0
 40
1
 40
1
 40
1
 40
1
 10
210.9631034426461
 20
219.3934937681266
 30
0
 10
210.9637659180996
 20
219.3942259778387
 30
0
 10
210.964463260682
 20
219.3949233204207
 30
0
 10
210.9651257361355
 20
219.395655530133
 30
0
  0
SPLINE
  5
204
100
AcDbEntity
  8
Capa 1
  6
ByLayer
 62
  256
370
    5
100
AcDbSpline
210
0
220
0
230
0
 70
    8
 71
    3
 72
    8
 73
    4
 74
    0
 42
1e-07
 43
1e-07
 40
0
 40
0
 40
0
 40
0
 40
1
 40
1
 40
1
 40
1
 10
210.3980816151024
 20
220.8201520907184
 30
0
 10
210.1206438686189
 20
220.8415605080043
 30
0
 10
209.8381852555409
 20
220.72838180685
 30
0
 10
209.6547144220614
 20
220.4921570069974
 30
0
  0
SPLINE
  5
205
100
AcDbEntity
  8
Capa 1
  6
ByLayer
 62
  256
370
    5
100
AcDbSpline
210
0
220
0
230
0
 70
    8
 71
    3
 72
    8
 73
    4
 74
    0
 42
1e-07
 43
1e-07
 40
0
 40
0
 40
0
 40
0
 40
1
 40
1
 40
1
 40
1
 10
209.6547144220614
 20
220.4921570069974
 30
0
 10
209.3644455720582
 20
220.118381382729
 30
0
 10
209.4321575368276
 20
219.5800677760987
 30
0
 10
209.8059680282252
 20
219.2897989260958
 30
0
  0
SPLINE
  5
206
100
AcDbEntity
  8
Capa 1
  6
ByLayer
 62
  256
370
    5
100
AcDbSpline
210
0
220
0
230
0
 70
    8
 71
    3
 72
    8
 73
    4
 74
    0
 42
1e-07
 43
1e-07
 40
0
 40
0
 40
0
 40
0
 40
1
 40
1
 40
1
 40
1
 10
209.8059680282252
 20
219.2897989260958
 30
0
 10
210.0830919705464
 20
219.0745990051084
 30
0
 10
210.4502777074094
 20
219.0571305734144
 30
0
 10
210.7401281518629
 20
219.2143115915301
 30
0
  0
SPLINE
  5
207
100
AcDbEntity
  8
Capa 1
  6
ByLayer
 62
  256
370
    5
100
AcDbSpline
210
0
220
0
230
0
 70
    8
 71
    3
 72
    8
 73
    4
 74
    0
 42
1e-07
 43
1e-07
 40
0
 40
0
 40
0
 40
0
 40
1
 40
1
 40
1
 40
1
 10
218.5609995512567
 20
210.5905199425419
 30
0
 10
218.3103048928157
 20
210.2197428913788
 30
0
 10
218.3835607311167
 20
209.714413588905
 30
0
 10
218.7421691542137
 20
209.4359298285474
 30
0
  0
SPLINE
  5
208
100
AcDbEntity
  8
Capa 1
  6
ByLayer
 62
  256
370
    5
100
AcDbSpline
210
0
220
0
230
0
 70
    8
 71
    3
 72
    8
 73
    4
 74
    0
 42
1e-07
 43
1e-07
 40
0
 40
0
 40
0
 40
0
 40
1
 40
1
 40
1
 40
1
 10
218.7421691542137
 20
209.4359298285474
 30
0
 10
219.1159447784821
 20
209.1456609785444
 30
0
 10
219.6542583851125
 20
209.213372943314
 30
0
 10
219.9445272351156
 20
209.5871485675823
 30
0
  0
SPLINE
  5
209
100
AcDbEntity
  8
Capa 1
  6
ByLayer
 62
  256
370
    5
100
AcDbSpline
210
0
220
0
230
0
 70
    8
 71
    3
 72
    8
 73
    4
 74
    0
 42
1e-07
 43
1e-07
 40
0
 40
0
 40
0
 40
0
 40
1
 40
1
 40
1
 40
1
 10
219.9445272351156
 20
209.5871485675823
 30
0
 10
220.0771269271952
 20
209.7579277660586
 30
0
 10
220.1314499143789
 20
209.9628418839527
 30
0
 10
220.1195950904751
 20
210.1629443380271
 30
0
  0
LINE
  5
20A
100
AcDbEntity
  8
Capa 1
  6
ByLayer
 62
  256
370
    5
100
AcDbLine
 10
210.7401281518629
 20
219.2143115915301
 11
218.5609995512567
 21
210.5905199425418
  0
SPLINE
  5
20B
100
AcDbEntity
  8
Capa 1
  6
ByLayer
 62
  256
370
    5
100
AcDbSpline
210
0
220
0
230
0
 70
    8
 71
    3
 72
    8
 73
    4
 74
    0
 42
1e-07
 43
1e-07
 40
0
 40
0
 40
0
 40
0
 40
1
 40
1
 40
1
 40
1
 10
216.6064528936441
 20
215.9195770915668
 30
0
 10
216.6813823541433
 20
215.9774216587925
 30
0
 10
216.7523718290511
 20
216.0418909805528
 30
0
 10
216.8131452351237
 20
216.1201328183195
 30
0
  0
SPLINE
  5
20C
100
AcDbEntity
  8
Capa 1
  6
ByLayer
 62
  256
370
    5
100
AcDbSpline
210
0
220
0
230
0
 70
    8
 71
    3
 72
    8
 73
    4
 74
    0
 42
1e-07
 43
1e-07
 40
0
 40
0
 40
0
 40
0
 40
1
 40
1
 40
1
 40
1
 10
216.8131452351237
 20
216.1201328183195
 30
0
 10
216.9045319805722
 20
216.2378093791318
 30
0
 10
216.9671533444889
 20
216.3682124420759
 30
0
 10
217.006239396243
 20
216.503113364678
 30
0
  0
LINE
  5
20D
100
AcDbEntity
  8
Capa 1
  6
ByLayer
 62
  256
370
    5
100
AcDbLine
 10
218.7284315053367
 20
210.8309287978901
 11
210.9631034426461
 21
219.3934937681266
  0
LINE
  5
20E
100
AcDbEntity
  8
Capa 1
  6
ByLayer
 62
  256
370
    5
100
AcDbLine
 10
210.9651257361355
 20
219.395655530133
 11
214.9446855193318
 21
217.4200142593966
  0
SPLINE
  5
20F
100
AcDbEntity
  8
Capa 1
  6
ByLayer
 62
  256
370
    5
100
AcDbSpline
210
0
220
0
230
0
 70
    8
 71
    3
 72
    8
 73
    4
 74
    0
 42
1e-07
 43
1e-07
 40
0
 40
0
 40
0
 40
0
 40
1
 40
1
 40
1
 40
1
 10
220.0541146219699
 20
210.44358986039
 30
0
 10
219.998989690816
 20
210.5750389372086
 30
0
 10
219.91391389574
 20
210.6958535396422
 30
0
 10
219.793308496081
 20
210.7895066484841
 30
0
  0
SPLINE
  5
210
100
AcDbEntity
  8
Capa 1
  6
ByLayer
 62
  256
370
    5
100
AcDbSpline
210
0
220
0
230
0
 70
    8
 71
    3
 72
    8
 73
    4
 74
    0
 42
1e-07
 43
1e-07
 40
0
 40
0
 40
0
 40
0
 40
1
 40
1
 40
1
 40
1
 10
219.793308496081
 20
210.7895066484841
 30
0
 10
219.5594546610093
 20
210.9710946569904
 30
0
 10
219.2612709726938
 20
211.0124819392672
 30
0
 10
218.9996977699644
 20
210.9266042002211
 30
0
  0
LINE
  5
211
100
AcDbEntity
  8
Capa 1
  6
ByLayer
 62
  256
370
    5
100
AcDbLine
 10
220.1195950904751
 20
210.1629443380271
 11
225.6236154934715
 21
212.169791689334
  0
LINE
  5
212
100
AcDbEntity
  8
Capa 1
  6
ByLayer
 62
  256
370
    5
100
AcDbLine
 10
225.5947803776813
 20
212.4639307906703
 11
220.0541146219699
 21
210.44358986039
  0
LINE
  5
213
100
AcDbEntity
  8
Capa 1
  6
ByLayer
 62
  256
370
    5
100
AcDbLine
 10
217.006239396243
 20
216.503113364678
 11
225.7291234262172
 21
212.9529074095828
  0
LINE
  5
214
100
AcDbEntity
  8
Capa 1
  6
ByLayer
 62
  256
370
    5
100
AcDbLine
 10
225.9023781908616
 20
213.1908406987624
 11
217.0493700349763
 21
216.7938354873599
  0
LINE
  5
215
100
AcDbEntity
  8
Capa 1
  6
ByLayer
 62
  256
370
    5
100
AcDbLine
 10
225.0906714247269
 20
217.6991604952076
 11
226.3242007190705
 21
213.4779715071439
  0
SPLINE
  5
216
100
AcDbEntity
  8
Capa 1
  6
ByLayer
 62
  256
370
    5
100
AcDbSpline
210
0
220
0
230
0
 70
    8
 71
    3
 72
    8
 73
    4
 74
    0
 42
1e-07
 43
1e-07
 40
0
 40
0
 40
0
 40
0
 40
1
 40
1
 40
1
 40
1
 10
220.9271178011145
 20
224.2070404129717
 30
0
 10
221.0120192605448
 20
224.3635589556339
 30
0
 10
221.1024297263775
 20
224.5179157362903
 30
0
 10
221.2138302039463
 20
224.6613591055291
 30
0
  0
SPLINE
  5
217
100
AcDbEntity
  8
Capa 1
  6
ByLayer
 62
  256
370
    5
100
AcDbSpline
210
0
220
0
230
0
 70
    8
 71
    3
 72
    8
 73
    4
 74
    0
 42
1e-07
 43
1e-07
 40
0
 40
0
 40
0
 40
0
 40
1
 40
1
 40
1
 40
1
 10
220.5541441208159
 20
222.2546903844937
 30
0
 10
220.4802606741905
 20
222.8415390348727
 30
0
 10
220.5766334191046
 20
223.4198103714856
 30
0
 10
220.8056755903562
 20
223.9486401189928
 30
0
  0
LINE
  5
218
100
AcDbEntity
  8
Capa 1
  6
ByLayer
 62
  256
370
    5
100
AcDbLine
 10
220.8056755903562
 20
223.9486401189928
 11
221.8332447529318
 21
223.4507026478944
  0
LINE
  5
219
100
AcDbEntity
  8
Capa 1
  6
ByLayer
 62
  256
370
    5
100
AcDbLine
 10
221.9575112011495
 20
223.7077082567079
 11
220.9271178011145
 21
224.2070404129717
  0
SPLINE
  5
21A
100
AcDbEntity
  8
Capa 1
  6
ByLayer
 62
  256
370
    5
100
AcDbSpline
210
0
220
0
230
0
 70
    8
 71
    3
 72
    8
 73
    4
 74
    0
 42
1e-07
 43
1e-07
 40
0
 40
0
 40
0
 40
0
 40
1
 40
1
 40
1
 40
1
 10
221.8332447529318
 20
223.4507026478944
 30
0
 10
221.5836658426227
 20
222.8317762387164
 30
0
 10
221.6389302422932
 20
222.134956663063
 30
0
 10
221.9803143036001
 20
221.5690980244209
 30
0
  0
LINE
  5
21B
100
AcDbEntity
  8
Capa 1
  6
ByLayer
 62
  256
370
    5
100
AcDbLine
 10
221.2127144558142
 20
220.6824966649154
 11
222.1440503419924
 21
221.3346165810244
  0
SPLINE
  5
21C
100
AcDbEntity
  8
Capa 1
  6
ByLayer
 62
  256
370
    5
100
AcDbSpline
210
0
220
0
230
0
 70
    8
 71
    3
 72
    8
 73
    4
 74
    0
 42
1e-07
 43
1e-07
 40
0
 40
0
 40
0
 40
0
 40
1
 40
1
 40
1
 40
1
 10
221.0473396623527
 20
220.9158623601793
 30
0
 10
220.7912405988967
 20
221.3175316877511
 30
0
 10
220.6154056666965
 20
221.7680498632335
 30
0
 10
220.5541441208159
 20
222.2546903844937
 30
0
  0
LINE
  5
21D
100
AcDbEntity
  8
Capa 1
  6
ByLayer
 62
  256
370
    5
100
AcDbLine
 10
221.9803143036001
 20
221.5690980244208
 11
221.0473396623527
 21
220.9158623601793
  0
SPLINE
  5
21E
100
AcDbEntity
  8
Capa 1
  6
ByLayer
 62
  256
370
    5
100
AcDbSpline
210
0
220
0
230
0
 70
    8
 71
    3
 72
    8
 73
    4
 74
    0
 42
1e-07
 43
1e-07
 40
0
 40
0
 40
0
 40
0
 40
1
 40
1
 40
1
 40
1
 10
220.988449081253
 20
224.8365315622757
 30
0
 10
220.8646707728432
 20
224.6771539150248
 30
0
 10
220.7589885044519
 20
224.5081180730048
 30
0
 10
220.6652656613517
 20
224.3339218958738
 30
0
  0
SPLINE
  5
21F
100
AcDbEntity
  8
Capa 1
  6
ByLayer
 62
  256
370
    5
100
AcDbSpline
210
0
220
0
230
0
 70
    8
 71
    3
 72
    8
 73
    4
 74
    0
 42
1e-07
 43
1e-07
 40
0
 40
0
 40
0
 40
0
 40
1
 40
1
 40
1
 40
1
 10
222.4900368643443
 20
220.9883511216397
 30
0
 10
223.0070117879476
 20
220.5868909968421
 30
0
 10
223.6494037750298
 20
220.4719340721024
 30
0
 10
224.2423890401351
 20
220.6019884637557
 30
0
  0
SPLINE
  5
220
100
AcDbEntity
  8
Capa 1
  6
ByLayer
 62
  256
370
    5
100
AcDbSpline
210
0
220
0
230
0
 70
    8
 71
    3
 72
    8
 73
    4
 74
    0
 42
1e-07
 43
1e-07
 40
0
 40
0
 40
0
 40
0
 40
1
 40
1
 40
1
 40
1
 10
222.1440503419924
 20
221.3346165810244
 30
0
 10
222.2450952822098
 20
221.2094435874496
 30
0
 10
222.357472039394
 20
221.0912788868295
 30
0
 10
222.4900368643443
 20
220.9883511216397
 30
0
  0
SPLINE
  5
221
100
AcDbEntity
  8
Capa 1
  6
ByLayer
 62
  256
370
    5
100
AcDbSpline
210
0
220
0
230
0
 70
    8
 71
    3
 72
    8
 73
    4
 74
    0
 42
1e-07
 43
1e-07
 40
0
 40
0
 40
0
 40
0
 40
1
 40
1
 40
1
 40
1
 10
221.7895562401326
 20
220.0862338896716
 30
0
 10
221.5665460822203
 20
220.2593143186708
 30
0
 10
221.3805996825727
 20
220.4645422407266
 30
0
 10
221.2127144558142
 20
220.6824966649154
 30
0
  0
SPLINE
  5
222
100
AcDbEntity
  8
Capa 1
  6
ByLayer
 62
  256
370
    5
100
AcDbSpline
210
0
220
0
230
0
 70
    8
 71
    3
 72
    8
 73
    4
 74
    0
 42
1e-07
 43
1e-07
 40
0
 40
0
 40
0
 40
0
 40
1
 40
1
 40
1
 40
1
 10
220.9710503838176
 20
220.5132516201208
 30
0
 10
221.1552534270085
 20
220.2724940934817
 30
0
 10
221.3685705230231
 20
220.0516805647043
 30
0
 10
221.6143837833861
 20
219.8608527669787
 30
0
  0
SPLINE
  5
223
100
AcDbEntity
  8
Capa 1
  6
ByLayer
 62
  256
370
    5
100
AcDbSpline
210
0
220
0
230
0
 70
    8
 71
    3
 72
    8
 73
    4
 74
    0
 42
1e-07
 43
1e-07
 40
0
 40
0
 40
0
 40
0
 40
1
 40
1
 40
1
 40
1
 10
224.1962249611674
 20
219.4262688695085
 30
0
 10
223.3320780328219
 20
219.3180413006904
 30
0
 10
222.4774149635997
 20
219.5523484084408
 30
0
 10
221.7895562401326
 20
220.0862338896716
 30
0
  0
SPLINE
  5
224
100
AcDbEntity
  8
Capa 1
  6
ByLayer
 62
  256
370
    5
100
AcDbSpline
210
0
220
0
230
0
 70
    8
 71
    3
 72
   11
 73
    7
 74
    0
 42
1e-07
 43
1e-07
 40
0
 40
0
 40
0
 40
0
 40
0.25
 40
0.5
 40
0.75
 40
1
 40
1
 40
1
 40
1
 10
221.6143837833861
 20
219.8608527669787
 30
0
 10
222.2428289188162
 20
219.3727129591655
 30
0
 10
222.9993061524095
 20
219.1144172665744
 30
0
 10
223.7822824041423
 20
219.1144172665741
 30
0
 10
223.9312347797833
 20
219.114417266574
 30
0
 10
224.0818607776231
 20
219.1239011256973
 30
0
 10
224.2319289013964
 20
219.1428688439439
 30
0
  0
SPLINE
  5
225
100
AcDbEntity
  8
Capa 1
  6
ByLayer
 62
  256
370
    5
100
AcDbSpline
210
0
220
0
230
0
 70
    8
 71
    3
 72
    8
 73
    4
 74
    0
 42
1e-07
 43
1e-07
 40
0
 40
0
 40
0
 40
0
 40
1
 40
1
 40
1
 40
1
 10
224.3942702546231
 20
217.8502746328549
 30
0
 10
223.107533721228
 20
217.6868175314957
 30
0
 10
221.8380912838809
 20
218.0371624449887
 30
0
 10
220.8152291837377
 20
218.8315751150755
 30
0
  0
SPLINE
  5
226
100
AcDbEntity
  8
Capa 1
  6
ByLayer
 62
  256
370
    5
100
AcDbSpline
210
0
220
0
230
0
 70
    8
 71
    3
 72
    8
 73
    4
 74
    0
 42
1e-07
 43
1e-07
 40
0
 40
0
 40
0
 40
0
 40
1
 40
1
 40
1
 40
1
 10
224.5617719429612
 20
219.5089736998037
 30
0
 10
224.4405040678491
 20
219.4794412414309
 30
0
 10
224.3219209616796
 20
219.4420985461331
 30
0
 10
224.1962249611674
 20
219.4262688695085
 30
0
  0
LINE
  5
227
100
AcDbEntity
  8
Capa 1
  6
ByLayer
 62
  256
370
    5
100
AcDbLine
 10
219.9029656171932
 20
219.7653865674218
 11
220.9710503838176
 21
220.5132516201208
  0
SPLINE
  5
228
100
AcDbEntity
  8
Capa 1
  6
ByLayer
 62
  256
370
    5
100
AcDbSpline
210
0
220
0
230
0
 70
    8
 71
    3
 72
    8
 73
    4
 74
    0
 42
1e-07
 43
1e-07
 40
0
 40
0
 40
0
 40
0
 40
1
 40
1
 40
1
 40
1
 10
220.8152291837377
 20
218.8315751150755
 30
0
 10
220.4648145359861
 20
219.1036433236734
 30
0
 10
220.1615751139466
 20
219.4194697793286
 30
0
 10
219.9029656171932
 20
219.7653865674218
 30
0
  0
SPLINE
  5
229
100
AcDbEntity
  8
Capa 1
  6
ByLayer
 62
  256
370
    5
100
AcDbSpline
210
0
220
0
230
0
 70
    8
 71
    3
 72
    8
 73
    4
 74
    0
 42
1e-07
 43
1e-07
 40
0
 40
0
 40
0
 40
0
 40
1
 40
1
 40
1
 40
1
 10
218.9781498841624
 20
222.0566450910384
 30
0
 10
218.865250120041
 20
222.9534625193784
 30
0
 10
219.0061133217241
 20
223.841493431178
 30
0
 10
219.3683479262506
 20
224.6450761562256
 30
0
  0
SPLINE
  5
22A
100
AcDbEntity
  8
Capa 1
  6
ByLayer
 62
  256
370
    5
100
AcDbSpline
210
0
220
0
230
0
 70
    8
 71
    3
 72
    8
 73
    4
 74
    0
 42
1e-07
 43
1e-07
 40
0
 40
0
 40
0
 40
0
 40
1
 40
1
 40
1
 40
1
 10
219.1114817859533
 20
224.7695518072179
 30
0
 10
218.7252585965859
 20
223.9165972273228
 30
0
 10
218.5748766686505
 20
222.9733716501111
 30
0
 10
218.6947498585976
 20
222.0209411508096
 30
0
  0
SPLINE
  5
22B
100
AcDbEntity
  8
Capa 1
  6
ByLayer
 62
  256
370
    5
100
AcDbSpline
210
0
220
0
230
0
 70
    8
 71
    3
 72
    8
 73
    4
 74
    0
 42
1e-07
 43
1e-07
 40
0
 40
0
 40
0
 40
0
 40
1
 40
1
 40
1
 40
1
 10
220.2707440952514
 20
222.2189864442654
 30
0
 10
220.3378981859546
 20
221.6852404315511
 30
0
 10
220.5243675925393
 20
221.1868148206445
 30
0
 10
220.8068610727466
 20
220.7474541264834
 30
0
  0
SPLINE
  5
22C
100
AcDbEntity
  8
Capa 1
  6
ByLayer
 62
  256
370
    5
100
AcDbSpline
210
0
220
0
230
0
 70
    8
 71
    3
 72
    8
 73
    4
 74
    0
 42
1e-07
 43
1e-07
 40
0
 40
0
 40
0
 40
0
 40
1
 40
1
 40
1
 40
1
 10
219.7392295788012
 20
219.9999028779471
 30
0
 10
219.3366537058718
 20
220.611332854362
 30
0
 10
219.0721167971664
 20
221.3089195068562
 30
0
 10
218.9781498841623
 20
222.0566450910384
 30
0
  0
SPLINE
  5
22D
100
AcDbEntity
  8
Capa 1
  6
ByLayer
 62
  256
370
    5
100
AcDbSpline
210
0
220
0
230
0
 70
    8
 71
    3
 72
    8
 73
    4
 74
    0
 42
1e-07
 43
1e-07
 40
0
 40
0
 40
0
 40
0
 40
1
 40
1
 40
1
 40
1
 10
218.6947498585976
 20
222.0209411508096
 30
0
 10
218.7945744492954
 20
221.2261798094321
 30
0
 10
219.0762659855327
 20
220.485044112655
 30
0
 10
219.5052362752131
 20
219.8360273710384
 30
0
  0
LINE
  5
22E
100
AcDbEntity
  8
Capa 1
  6
ByLayer
 62
  256
370
    5
100
AcDbLine
 10
220.8068610727466
 20
220.7474541264834
 11
219.7392295788012
 21
219.9999028779471
  0
SPLINE
  5
22F
100
AcDbEntity
  8
Capa 1
  6
ByLayer
 62
  256
370
    5
100
AcDbSpline
210
0
220
0
230
0
 70
    8
 71
    3
 72
    8
 73
    4
 74
    0
 42
1e-07
 43
1e-07
 40
0
 40
0
 40
0
 40
0
 40
1
 40
1
 40
1
 40
1
 10
220.5408597446176
 20
224.0769511541894
 30
0
 10
220.2875500514917
 20
223.4984357476725
 30
0
 10
220.1898523556708
 20
222.8617968368969
 30
0
 10
220.2707440952514
 20
222.2189864442654
 30
0
  0
LINE
  5
230
100
AcDbEntity
  8
Capa 1
  6
ByLayer
 62
  256
370
    5
100
AcDbLine
 10
220.6652656613517
 20
224.3339218958738
 11
219.4914637592069
 21
224.9027093733635
  0
LINE
  5
231
100
AcDbEntity
  8
Capa 1
  6
ByLayer
 62
  256
370
    5
100
AcDbLine
 10
219.3683479262506
 20
224.6450761562256
 11
220.5408597446176
 21
224.0769511541894
  0
LINE
  5
232
100
AcDbEntity
  8
Capa 1
  6
ByLayer
 62
  256
370
    5
100
AcDbLine
 10
219.5052362752131
 20
219.8360273710384
 11
216.5462722287665
 21
217.7641528239051
  0
SPLINE
  5
233
100
AcDbEntity
  8
Capa 1
  6
ByLayer
 62
  256
370
    5
100
AcDbSpline
210
0
220
0
230
0
 70
    8
 71
    3
 72
    8
 73
    4
 74
    0
 42
1e-07
 43
1e-07
 40
0
 40
0
 40
0
 40
0
 40
1
 40
1
 40
1
 40
1
 10
216.5462722287665
 20
217.7641528239051
 30
0
 10
216.302760198926
 20
217.9282026664592
 30
0
 10
216.0178260196798
 20
217.9893596109522
 30
0
 10
215.74464206295
 20
217.9491926781954
 30
0
  0
SPLINE
  5
234
100
AcDbEntity
  8
Capa 1
  6
ByLayer
 62
  256
370
    5
100
AcDbSpline
210
0
220
0
230
0
 70
    8
 71
    3
 72
    8
 73
    4
 74
    0
 42
1e-07
 43
1e-07
 40
0
 40
0
 40
0
 40
0
 40
1
 40
1
 40
1
 40
1
 10
226.3242007190705
 20
213.4779715071439
 30
0
 10
226.1668802324382
 20
213.4174770381042
 30
0
 10
226.0233322618122
 20
213.3206510205116
 30
0
 10
225.9023781908616
 20
213.1908406987624
 30
0
  0
SPLINE
  5
235
100
AcDbEntity
  8
Capa 1
  6
ByLayer
 62
  256
370
    5
100
AcDbSpline
210
0
220
0
230
0
 70
    8
 71
    3
 72
    8
 73
    4
 74
    0
 42
1e-07
 43
1e-07
 40
0
 40
0
 40
0
 40
0
 40
1
 40
1
 40
1
 40
1
 10
226.9362234366808
 20
213.535118731787
 30
0
 10
226.8249972947579
 20
213.5550627296492
 30
0
 10
226.7124462019276
 20
213.5626288966701
 30
0
 10
226.6012200600044
 20
213.5495885903757
 30
0
  0
SPLINE
  5
236
100
AcDbEntity
  8
Capa 1
  6
ByLayer
 62
  256
370
    5
100
AcDbSpline
210
0
220
0
230
0
 70
    8
 71
    3
 72
    8
 73
    4
 74
    0
 42
1e-07
 43
1e-07
 40
0
 40
0
 40
0
 40
0
 40
1
 40
1
 40
1
 40
1
 10
225.7291234262172
 20
212.9529074095828
 30
0
 10
225.6464185959219
 20
212.7985157617971
 30
0
 10
225.6017538035072
 20
212.6319903530743
 30
0
 10
225.5947803776813
 20
212.4639307906703
 30
0
  0
LINE
  5
237
100
AcDbEntity
  8
Capa 1
  6
ByLayer
 62
  256
370
    5
100
AcDbLine
 10
218.9996977699644
 20
210.9266042002211
 11
216.6064528936441
 21
215.9195770915668
  0
LINE
  5
238
100
AcDbEntity
  8
Capa 1
  6
ByLayer
 62
  256
370
    5
100
AcDbLine
 10
216.3585127384042
 20
215.7752969112285
 11
218.7284315053367
 21
210.8309287978901
  0
SPLINE
  5
239
100
AcDbEntity
  8
Capa 1
  6
ByLayer
 62
  256
370
    5
100
AcDbSpline
210
0
220
0
230
0
 70
    8
 71
    3
 72
    8
 73
    4
 74
    0
 42
1e-07
 43
1e-07
 40
0
 40
0
 40
0
 40
0
 40
1
 40
1
 40
1
 40
1
 10
212.6999746131033
 20
229.0180068902609
 30
0
 10
212.2151471825576
 20
229.2897264275672
 30
0
 10
211.5930478646288
 20
229.1778029430614
 30
0
 10
211.2417964057781
 20
228.7255065439935
 30
0
  0
SPLINE
  5
23A
100
AcDbEntity
  8
Capa 1
  6
ByLayer
 62
  256
370
    5
100
AcDbSpline
210
0
220
0
230
0
 70
    8
 71
    3
 72
    8
 73
    4
 74
    0
 42
1e-07
 43
1e-07
 40
0
 40
0
 40
0
 40
0
 40
1
 40
1
 40
1
 40
1
 10
211.2417964057781
 20
228.7255065439935
 30
0
 10
210.8547712724406
 20
228.2271158002163
 30
0
 10
210.9450771368862
 20
227.5093759470853
 30
0
 10
211.4434330135343
 20
227.1223508137478
 30
0
  0
SPLINE
  5
23B
100
AcDbEntity
  8
Capa 1
  6
ByLayer
 62
  256
370
    5
100
AcDbSpline
210
0
220
0
230
0
 70
    8
 71
    3
 72
    8
 73
    4
 74
    0
 42
1e-07
 43
1e-07
 40
0
 40
0
 40
0
 40
0
 40
1
 40
1
 40
1
 40
1
 10
212.6939077326348
 20
227.023886041086
 30
0
 10
212.8268212288765
 20
227.096793208096
 30
0
 10
212.9476706984392
 20
227.1966177987936
 30
0
 10
213.0465887437797
 20
227.3239874215038
 30
0
  0
SPLINE
  5
23C
100
AcDbEntity
  8
Capa 1
  6
ByLayer
 62
  256
370
    5
100
AcDbSpline
210
0
220
0
230
0
 70
    8
 71
    3
 72
    8
 73
    4
 74
    0
 42
1e-07
 43
1e-07
 40
0
 40
0
 40
0
 40
0
 40
1
 40
1
 40
1
 40
1
 10
211.9568863570953
 20
226.9028971030068
 30
0
 10
212.1141371094694
 20
226.8768164904179
 30
0
 10
212.2733752882037
 20
226.8833715106942
 30
0
 10
212.4268255235028
 20
226.9225621638358
 30
0
  0
LINE
  5
23D
100
AcDbEntity
  8
Capa 1
  6
ByLayer
 62
  256
370
    5
100
AcDbLine
 10
215.1282260870695
 20
217.6475571440958
 11
211.1191687126296
 21
219.6378426090661
  0
SPLINE
  5
23E
100
AcDbEntity
  8
Capa 1
  6
ByLayer
 62
  256
370
    5
100
AcDbSpline
210
0
220
0
230
0
 70
    8
 71
    3
 72
    8
 73
    4
 74
    0
 42
1e-07
 43
1e-07
 40
0
 40
0
 40
0
 40
0
 40
1
 40
1
 40
1
 40
1
 10
215.4700982881843
 20
217.8695910223926
 30
0
 10
215.3456226371921
 20
217.8174646643441
 30
0
 10
215.2300032369987
 20
217.7440344903969
 30
0
 10
215.1282260870695
 20
217.6475571440958
 30
0
  0
SPLINE
  5
23F
100
AcDbEntity
  8
Capa 1
  6
ByLayer
 62
  256
370
    5
100
AcDbSpline
210
0
220
0
230
0
 70
    8
 71
    3
 72
    8
 73
    4
 74
    0
 42
1e-07
 43
1e-07
 40
0
 40
0
 40
0
 40
0
 40
1
 40
1
 40
1
 40
1
 10
211.4434330135343
 20
227.1223508137478
 30
0
 10
211.5183276069044
 20
227.0641924423598
 30
0
 10
211.5991496122265
 20
227.0203295939148
 30
0
 10
211.6820985124257
 20
226.9834750384249
 30
0
  0
LINE
  5
240
100
AcDbEntity
  8
Capa 1
  6
ByLayer
 62
  256
370
    5
100
AcDbLine
 10
215.74464206295
 20
217.9491926781954
 11
212.6939077326348
 21
227.023886041086
  0
LINE
  5
241
100
AcDbEntity
  8
Capa 1
  6
ByLayer
 62
  256
370
    5
100
AcDbLine
 10
212.4268255235028
 20
226.9225621638358
 11
215.4700982881843
 21
217.8695910223926
  0
LINE
  5
242
100
AcDbEntity
  8
Capa 1
  6
ByLayer
 62
  256
370
    5
100
AcDbLine
 10
210.6747871518741
 20
220.7487790773906
 11
211.9568863570953
 21
226.9028971030068
  0
LINE
  5
243
100
AcDbEntity
  8
Capa 1
  6
ByLayer
 62
  256
370
    5
100
AcDbLine
 10
211.6820985124257
 20
226.9834750384249
 11
210.3980816151024
 21
220.8201520907184
  0
ENDSEC
  0
SECTION
  2
OBJECTS
  0
DICTIONARY
  5
C
330
0
100
AcDbDictionary
281
    1
  3
ACAD_GROUP
350
D
  0
DICTIONARY
  5
D
330
C
100
AcDbDictionary
281
    1
  0
ENDSEC
  0
EOF
