999
dxfrw 0.6.3
  0
SECTION
  2
HEADER
  9
$ACADVER
  1
AC1021
  9
$DWGCODEPAGE
  3
ANSI_1252
  9
$INSBASE
 10
0
 20
0
 30
0
  9
$EXTMIN
 10
<<<<<<< HEAD
91.95236090621262
 20
107.8733414271016
=======
181.3920874326137
 20
-4.499999999999999
>>>>>>> c1622fe70e42c65b35a0fb7d2d95cb2491693a92
 30
0
  9
$EXTMAX
 10
<<<<<<< HEAD
263.6002734734825
 20
175.7281198304773
=======
310.0316516215378
 20
264.8053696641084
>>>>>>> c1622fe70e42c65b35a0fb7d2d95cb2491693a92
 30
0
  9
$LIMMIN
 10
0
 20
0
  9
$LIMMAX
 10
420
 20
297
  9
$ORTHOMODE
 70
    0
  9
$REGENMODE
 70
    1
  9
$FILLMODE
 70
    1
  9
$QTEXTMODE
 70
    0
  9
$MIRRTEXT
 70
    0
  9
$LTSCALE
 40
1
  9
$ATTMODE
 70
    1
  9
$TEXTSIZE
 40
0.2
  9
$TRACEWID
 40
0.05
  9
$TEXTSTYLE
  7
Standard
  9
$CLAYER
  8
<<<<<<< HEAD
Capa 12
=======
0
>>>>>>> c1622fe70e42c65b35a0fb7d2d95cb2491693a92
  9
$CELTYPE
  6
ByLayer
  9
$CECOLOR
 62
  256
  9
$CELTSCALE
 40
1
  9
$DISPSILH
 70
    0
  9
$DIMSCALE
 40
1
  9
$DIMASZ
 40
1.799999999999999
  9
$DIMEXO
 40
0.0625
  9
$DIMDLI
 40
0.38
  9
$DIMRND
 40
0
  9
$DIMDLE
 40
0
  9
$DIMEXE
 40
0.18
  9
$DIMTP
 40
0
  9
$DIMTM
 40
0
  9
$DIMTXT
 40
1.799999999999999
  9
$DIMCEN
 40
0.09
  9
$DIMTSZ
 40
0
  9
$DIMTOL
 70
    0
  9
$DIMLIM
 70
    0
  9
$DIMTIH
 70
    1
  9
$DIMTOH
 70
    1
  9
$DIMSE1
 70
    0
  9
$DIMSE2
 70
    0
  9
$DIMTAD
 70
    0
  9
$DIMZIN
 70
    0
  9
$DIMBLK
  1

  9
$DIMASO
 70
    1
  9
$DIMSHO
 70
    1
  9
$DIMPOST
  1

  9
$DIMAPOST
  1

  9
$DIMALT
 70
    0
  9
$DIMALTD
 70
    2
  9
$DIMALTF
 40
25.4
  9
$DIMLFAC
 40
1
  9
$DIMTOFL
 70
    0
  9
$DIMTVP
 40
0
  9
$DIMTIX
 70
    0
  9
$DIMSOXD
 70
    0
  9
$DIMSAH
 70
    0
  9
$DIMBLK1
  1

  9
$DIMBLK2
  1

  9
$DIMSTYLE
  2
Standard
  9
$DIMCLRD
 70
    0
  9
$DIMCLRE
 70
    0
  9
$DIMCLRT
 70
    0
  9
$DIMTFAC
 40
1
  9
$DIMGAP
 40
0.09
  9
$DIMJUST
 70
    0
  9
$DIMSD1
 70
    0
  9
$DIMSD2
 70
    0
  9
$DIMTOLJ
 70
    1
  9
$DIMTZIN
 70
    0
  9
$DIMALTZ
 70
    0
  9
$DIMALTTZ
 70
    0
  9
$DIMUPT
 70
    0
  9
$DIMDEC
 70
    4
  9
$DIMTDEC
 70
    4
  9
$DIMALTU
 70
    2
  9
$DIMALTTD
 70
    2
  9
$DIMTXSTY
  7
Standard
  9
$DIMAUNIT
 70
    0
  9
$DIMADEC
 70
    0
  9
$DIMALTRND
 40
0
  9
$DIMAZIN
 70
    0
  9
$DIMDSEP
 70
   46
  9
$DIMATFIT
 70
    3
  9
$DIMFRAC
 70
    0
  9
$DIMLDRBLK
  1

  9
$DIMLUNIT
 70
    2
  9
$DIMLWD
 70
   -2
  9
$DIMLWE
 70
   -2
  9
$DIMTMOVE
 70
    0
  9
$DIMFXL
 40
1
  9
$DIMFXLON
 70
    0
  9
$DIMJOGANG
 40
0.7853981633974483
  9
$DIMTFILL
 70
    0
  9
$DIMTFILLCLR
 70
    0
  9
$DIMARCSYM
 70
    0
  9
$DIMLTYPE
  6

  9
$DIMLTEX1
  6

  9
$DIMLTEX2
  6

  9
$LUNITS
 70
    2
  9
$LUPREC
 70
    4
  9
$SKETCHINC
 40
0.1
  9
$FILLETRAD
 40
0
  9
$AUNITS
 70
    0
  9
$AUPREC
 70
    0
  9
$MENU
  1
.
  9
$ELEVATION
 40
0
  9
$PELEVATION
 40
0
  9
$THICKNESS
 40
0
  9
$LIMCHECK
 70
    0
  9
$CHAMFERA
 40
0
  9
$CHAMFERB
 40
0
  9
$CHAMFERC
 40
0
  9
$CHAMFERD
 40
0
  9
$SKPOLY
 70
    0
  9
$USRTIMER
 70
    1
  9
$ANGBASE
 50
0
  9
$ANGDIR
 70
    0
  9
$PDMODE
 70
    0
  9
$PDSIZE
 40
0
  9
$PLINEWID
 40
0
  9
$SPLFRAME
 70
    0
  9
$SPLINETYPE
 70
    6
  9
$SPLINESEGS
 70
    8
  9
$HANDSEED
  5
20000
  9
$SURFTAB1
 70
    6
  9
$SURFTAB2
 70
    6
  9
$SURFTYPE
 70
    6
  9
$SURFU
 70
    6
  9
$SURFV
 70
    6
  9
$UCSBASE
  2

  9
$UCSNAME
  2

  9
$UCSORG
 10
0
 20
0
 30
0
  9
$UCSXDIR
 10
1
 20
0
 30
0
  9
$UCSYDIR
 10
0
 20
1
 30
0
  9
$UCSORTHOREF
  2

  9
$UCSORTHOVIEW
 70
    0
  9
$UCSORGTOP
 10
0
 20
0
 30
0
  9
$UCSORGBOTTOM
 10
0
 20
0
 30
0
  9
$UCSORGLEFT
 10
0
 20
0
 30
0
  9
$UCSORGRIGHT
 10
0
 20
0
 30
0
  9
$UCSORGFRONT
 10
0
 20
0
 30
0
  9
$UCSORGBACK
 10
0
 20
0
 30
0
  9
$PUCSBASE
  2

  9
$PUCSNAME
  2

  9
$PUCSORG
 10
0
 20
0
 30
0
  9
$PUCSXDIR
 10
1
 20
0
 30
0
  9
$PUCSYDIR
 10
0
 20
1
 30
0
  9
$PUCSORTHOREF
  2

  9
$PUCSORTHOVIEW
 70
    0
  9
$PUCSORGTOP
 10
0
 20
0
 30
0
  9
$PUCSORGBOTTOM
 10
0
 20
0
 30
0
  9
$PUCSORGLEFT
 10
0
 20
0
 30
0
  9
$PUCSORGRIGHT
 10
0
 20
0
 30
0
  9
$PUCSORGFRONT
 10
0
 20
0
 30
0
  9
$PUCSORGBACK
 10
0
 20
0
 30
0
  9
$USERI1
 70
    0
  9
$USERI2
 70
    0
  9
$USERI3
 70
    0
  9
$USERI4
 70
    0
  9
$USERI5
 70
    0
  9
$USERR1
 40
0
  9
$USERR2
 40
0
  9
$USERR3
 40
0
  9
$USERR4
 40
0
  9
$USERR5
 40
0
  9
$WORLDVIEW
 70
    1
  9
$SHADEDGE
 70
    3
  9
$SHADEDIF
 70
   70
  9
$TILEMODE
 70
    1
  9
$MAXACTVP
 70
   64
  9
$PINSBASE
 10
0
 20
0
 30
0
  9
$PLIMCHECK
 70
    0
  9
$PEXTMIN
 10
0
 20
0
 30
0
  9
$PEXTMAX
 10
420
 20
297
 30
0
  9
$GRIDMODE
 70
<<<<<<< HEAD
    1
=======
    0
>>>>>>> c1622fe70e42c65b35a0fb7d2d95cb2491693a92
  9
$SNAPSTYLE
 70
    0
  9
$PLIMMIN
 10
0
 20
0
  9
$PLIMMAX
 10
420
 20
297
  9
$UNITMODE
 70
    0
  9
$VISRETAIN
 70
    1
  9
$PLINEGEN
 70
    0
  9
$PSLTSCALE
 70
    1
  9
$TREEDEPTH
 70
 3020
  9
$CMLSTYLE
  2
Standard
  9
$CMLJUST
 70
    0
  9
$CMLSCALE
 40
1
  9
$PROXYGRAPHICS
 70
    1
  9
$MEASUREMENT
 70
    1
  9
$CELWEIGHT
370
   -1
  9
$ENDCAPS
280
    0
  9
$JOINSTYLE
280
    0
  9
$LWDISPLAY
290
    0
  9
$INSUNITS
 70
    4
  9
$HYPERLINKBASE
  1

  9
$STYLESHEET
  1

  9
$XEDIT
290
    1
  9
$CEPSNTYPE
380
    0
  9
$PSTYLEMODE
290
    1
  9
$EXTNAMES
290
    1
  9
$PSVPSCALE
 40
0
  9
$OLESTARTUP
290
    0
  9
$SORTENTS
280
  127
  9
$INDEXCTL
280
    0
  9
$HIDETEXT
280
    1
  9
$XCLIPFRAME
290
    2
  9
$HALOGAP
280
    0
  9
$OBSCOLOR
 70
  257
  9
$OBSLTYPE
280
    0
  9
$INTERSECTIONDISPLAY
280
    0
  9
$INTERSECTIONCOLOR
 70
  257
  9
$DIMASSOC
280
    1
  9
$PROJECTNAME
  1

  9
$CAMERADISPLAY
290
    0
  9
$LENSLENGTH
 40
50
  9
$CAMERAHEIGHT
 40
0
  9
$STEPSPERSEC
 40
2
  9
$STEPSIZE
 40
6
  9
$3DDWFPREC
 40
2
  9
$PSOLWIDTH
 40
0.25
  9
$PSOLHEIGHT
 40
4
  9
$LOFTANG1
 40
1.570796326794896
  9
$LOFTANG2
 40
1.570796326794896
  9
$LOFTMAG1
 40
0
  9
$LOFTMAG2
 40
0
  9
$LOFTPARAM
 70
    7
  9
$LOFTNORMALS
280
    1
  9
$LATITUDE
 40
37.795
  9
$LONGITUDE
 40
-122.394
  9
$NORTHDIRECTION
 40
0
  9
$TIMEZONE
 70
-8000
  9
$LIGHTGLYPHDISPLAY
280
    1
  9
$TILEMODELIGHTSYNCH
280
    1
  9
$SOLIDHIST
280
    0
  9
$SHOWHIST
280
    1
  9
$DWFFRAME
280
    2
  9
$DGNFRAME
280
    0
  9
$REALWORLDSCALE
290
    1
  9
$INTERFERECOLOR
 62
    1
  9
$CSHADOW
280
    0
  9
$SHADOWPLANELOCATION
 40
0
  0
ENDSEC
  0
SECTION
  2
CLASSES
  0
ENDSEC
  0
SECTION
  2
TABLES
  0
TABLE
  2
VPORT
  5
8
330
0
100
AcDbSymbolTable
 70
    1
  0
VPORT
  5
31
330
2
100
AcDbSymbolTableRecord
100
AcDbViewportTableRecord
  2
*ACTIVE
 70
    0
 10
0
 20
0
 11
1
 21
1
 12
<<<<<<< HEAD
133.9312473376846
 22
90.4521177671899
=======
161.7413103844405
 22
125.8720593248663
>>>>>>> c1622fe70e42c65b35a0fb7d2d95cb2491693a92
 13
0
 23
0
 14
10
 24
10
 15
10
 25
10
 16
0
 26
0
 36
1
 17
0
 27
0
 37
0
 40
<<<<<<< HEAD
67.41853126853496
 41
1.840690978886756
=======
90.20061663510586
 41
2.20906432748538
>>>>>>> c1622fe70e42c65b35a0fb7d2d95cb2491693a92
 42
50
 43
0
 44
0
 50
0
 51
0
 71
    0
 72
  100
 73
    1
 74
    3
 75
    0
 76
<<<<<<< HEAD
    1
=======
    0
>>>>>>> c1622fe70e42c65b35a0fb7d2d95cb2491693a92
 77
    0
 78
    0
281
    0
 65
    1
110
0
120
0
130
0
111
1
121
0
131
0
112
0
122
1
132
0
 79
    0
146
0
348
10020
 60
    7
 61
    5
292
1
282
    1
141
0
142
0
 63
  250
421
3358443
  0
ENDTAB
  0
TABLE
  2
LTYPE
  5
5
330
0
100
AcDbSymbolTable
 70
    4
  0
LTYPE
  5
14
330
5
100
AcDbSymbolTableRecord
100
AcDbLinetypeTableRecord
  2
ByBlock
 70
    0
  3

 72
   65
 73
    0
 40
0
  0
LTYPE
  5
15
330
5
100
AcDbSymbolTableRecord
100
AcDbLinetypeTableRecord
  2
ByLayer
 70
    0
  3

 72
   65
 73
    0
 40
0
  0
LTYPE
  5
16
330
5
100
AcDbSymbolTableRecord
100
AcDbLinetypeTableRecord
  2
Continuous
 70
    0
  3
Solid line
 72
   65
 73
    0
 40
0
  0
LTYPE
  5
32
330
5
100
AcDbSymbolTableRecord
100
AcDbLinetypeTableRecord
  2
DOT
 70
    0
  3
Dot . . . . . . . . . . . . . . . . . . . . . .
 72
   65
 73
    2
 40
6.35
 49
0
 74
    0
 49
-6.35
 74
    0
  0
LTYPE
  5
33
330
5
100
AcDbSymbolTableRecord
100
AcDbLinetypeTableRecord
  2
DOTTINY
 70
    0
  3
Dot (.15x) .....................................
 72
   65
 73
    2
 40
0.9525
 49
0
 74
    0
 49
-0.9525
 74
    0
  0
LTYPE
  5
34
330
5
100
AcDbSymbolTableRecord
100
AcDbLinetypeTableRecord
  2
DOT2
 70
    0
  3
Dot (.5x) .....................................
 72
   65
 73
    2
 40
3.175
 49
0
 74
    0
 49
-3.175
 74
    0
  0
LTYPE
  5
35
330
5
100
AcDbSymbolTableRecord
100
AcDbLinetypeTableRecord
  2
DOTX2
 70
    0
  3
Dot (2x) .  .  .  .  .  .  .  .  .  .  .  .  .
 72
   65
 73
    2
 40
12.7
 49
0
 74
    0
 49
-12.7
 74
    0
  0
LTYPE
  5
36
330
5
100
AcDbSymbolTableRecord
100
AcDbLinetypeTableRecord
  2
DASHED
 70
    0
  3
Dashed _ _ _ _ _ _ _ _ _ _ _ _ _ _ _ _ _
 72
   65
 73
    2
 40
19.05
 49
12.7
 74
    0
 49
-6.35
 74
    0
  0
LTYPE
  5
37
330
5
100
AcDbSymbolTableRecord
100
AcDbLinetypeTableRecord
  2
DASHEDTINY
 70
    0
  3
Dashed (.15x) _ _ _ _ _ _ _ _ _ _ _ _ _ _ _ _ _
 72
   65
 73
    2
 40
2.8575
 49
1.905
 74
    0
 49
-0.9525
 74
    0
  0
LTYPE
  5
38
330
5
100
AcDbSymbolTableRecord
100
AcDbLinetypeTableRecord
  2
DASHED2
 70
    0
  3
Dashed (.5x) _ _ _ _ _ _ _ _ _ _ _ _ _ _ _ _ _
 72
   65
 73
    2
 40
9.524999999999999
 49
6.35
 74
    0
 49
-3.175
 74
    0
  0
LTYPE
  5
39
330
5
100
AcDbSymbolTableRecord
100
AcDbLinetypeTableRecord
  2
DASHEDX2
 70
    0
  3
Dashed (2x) ____  ____  ____  ____  ____  ___
 72
   65
 73
    2
 40
38.09999999999999
 49
25.4
 74
    0
 49
-12.7
 74
    0
  0
LTYPE
  5
3A
330
5
100
AcDbSymbolTableRecord
100
AcDbLinetypeTableRecord
  2
DASHDOT
 70
    0
  3
Dash dot __ . __ . __ . __ . __ . __ . __ . __
 72
   65
 73
    4
 40
25.4
 49
12.7
 74
    0
 49
-6.35
 74
    0
 49
0
 74
    0
 49
-6.35
 74
    0
  0
LTYPE
  5
3B
330
5
100
AcDbSymbolTableRecord
100
AcDbLinetypeTableRecord
  2
DASHDOTTINY
 70
    0
  3
Dash dot (.15x) _._._._._._._._._._._._._._._.
 72
   65
 73
    4
 40
3.81
 49
1.905
 74
    0
 49
-0.9525
 74
    0
 49
0
 74
    0
 49
-0.9525
 74
    0
  0
LTYPE
  5
3C
330
5
100
AcDbSymbolTableRecord
100
AcDbLinetypeTableRecord
  2
DASHDOT2
 70
    0
  3
Dash dot (.5x) _._._._._._._._._._._._._._._.
 72
   65
 73
    4
 40
12.7
 49
6.35
 74
    0
 49
-3.175
 74
    0
 49
0
 74
    0
 49
-3.175
 74
    0
  0
LTYPE
  5
3D
330
5
100
AcDbSymbolTableRecord
100
AcDbLinetypeTableRecord
  2
DASHDOTX2
 70
    0
  3
Dash dot (2x) ____  .  ____  .  ____  .  ___
 72
   65
 73
    4
 40
50.8
 49
25.4
 74
    0
 49
-12.7
 74
    0
 49
0
 74
    0
 49
-12.7
 74
    0
  0
LTYPE
  5
3E
330
5
100
AcDbSymbolTableRecord
100
AcDbLinetypeTableRecord
  2
DIVIDE
 70
    0
  3
Divide ____ . . ____ . . ____ . . ____ . . ____
 72
   65
 73
    6
 40
31.75
 49
12.7
 74
    0
 49
-6.35
 74
    0
 49
0
 74
    0
 49
-6.35
 74
    0
 49
0
 74
    0
 49
-6.35
 74
    0
  0
LTYPE
  5
3F
330
5
100
AcDbSymbolTableRecord
100
AcDbLinetypeTableRecord
  2
DIVIDETINY
 70
    0
  3
Divide (.15x) __..__..__..__..__..__..__..__.._
 72
   65
 73
    6
 40
4.7625
 49
1.905
 74
    0
 49
-0.9525
 74
    0
 49
0
 74
    0
 49
-0.9525
 74
    0
 49
0
 74
    0
 49
-0.9525
 74
    0
  0
LTYPE
  5
40
330
5
100
AcDbSymbolTableRecord
100
AcDbLinetypeTableRecord
  2
DIVIDE2
 70
    0
  3
Divide (.5x) __..__..__..__..__..__..__..__.._
 72
   65
 73
    6
 40
15.875
 49
6.35
 74
    0
 49
-3.175
 74
    0
 49
0
 74
    0
 49
-3.175
 74
    0
 49
0
 74
    0
 49
-3.175
 74
    0
  0
LTYPE
  5
41
330
5
100
AcDbSymbolTableRecord
100
AcDbLinetypeTableRecord
  2
DIVIDEX2
 70
    0
  3
Divide (2x) ________  .  .  ________  .  .  _
 72
   65
 73
    6
 40
63.5
 49
25.4
 74
    0
 49
-12.7
 74
    0
 49
0
 74
    0
 49
-12.7
 74
    0
 49
0
 74
    0
 49
-12.7
 74
    0
  0
LTYPE
  5
42
330
5
100
AcDbSymbolTableRecord
100
AcDbLinetypeTableRecord
  2
BORDER
 70
    0
  3
Border __ __ . __ __ . __ __ . __ __ . __ __ .
 72
   65
 73
    6
 40
44.45
 49
12.7
 74
    0
 49
-6.35
 74
    0
 49
12.7
 74
    0
 49
-6.35
 74
    0
 49
0
 74
    0
 49
-6.35
 74
    0
  0
LTYPE
  5
43
330
5
100
AcDbSymbolTableRecord
100
AcDbLinetypeTableRecord
  2
BORDERTINY
 70
    0
  3
Border (.15x) __.__.__.__.__.__.__.__.__.__.__.
 72
   65
 73
    6
 40
6.6675
 49
1.905
 74
    0
 49
-0.9525
 74
    0
 49
1.905
 74
    0
 49
-0.9525
 74
    0
 49
0
 74
    0
 49
-0.9525
 74
    0
  0
LTYPE
  5
44
330
5
100
AcDbSymbolTableRecord
100
AcDbLinetypeTableRecord
  2
BORDER2
 70
    0
  3
Border (.5x) __.__.__.__.__.__.__.__.__.__.__.
 72
   65
 73
    6
 40
22.225
 49
6.35
 74
    0
 49
-3.175
 74
    0
 49
6.35
 74
    0
 49
-3.175
 74
    0
 49
0
 74
    0
 49
-3.175
 74
    0
  0
LTYPE
  5
45
330
5
100
AcDbSymbolTableRecord
100
AcDbLinetypeTableRecord
  2
BORDERX2
 70
    0
  3
Border (2x) ____  ____  .  ____  ____  .  ___
 72
   65
 73
    6
 40
88.89999999999999
 49
25.4
 74
    0
 49
-12.7
 74
    0
 49
25.4
 74
    0
 49
-12.7
 74
    0
 49
0
 74
    0
 49
-12.7
 74
    0
  0
LTYPE
  5
46
330
5
100
AcDbSymbolTableRecord
100
AcDbLinetypeTableRecord
  2
CENTER
 70
    0
  3
Center ____ _ ____ _ ____ _ ____ _ ____ _ ____
 72
   65
 73
    4
 40
50.8
 49
31.75
 74
    0
 49
-6.35
 74
    0
 49
6.35
 74
    0
 49
-6.35
 74
    0
  0
LTYPE
  5
47
330
5
100
AcDbSymbolTableRecord
100
AcDbLinetypeTableRecord
  2
CENTERTINY
 70
    0
  3
Center (.15x) ___ _ ___ _ ___ _ ___ _ ___ _ ___
 72
   65
 73
    4
 40
7.619999999999999
 49
4.7625
 74
    0
 49
-0.9525
 74
    0
 49
0.9525
 74
    0
 49
-0.9525
 74
    0
  0
LTYPE
  5
48
330
5
100
AcDbSymbolTableRecord
100
AcDbLinetypeTableRecord
  2
CENTER2
 70
    0
  3
Center (.5x) ___ _ ___ _ ___ _ ___ _ ___ _ ___
 72
   65
 73
    4
 40
28.575
 49
19.05
 74
    0
 49
-3.175
 74
    0
 49
3.175
 74
    0
 49
-3.175
 74
    0
  0
LTYPE
  5
49
330
5
100
AcDbSymbolTableRecord
100
AcDbLinetypeTableRecord
  2
CENTERX2
 70
    0
  3
Center (2x) ________  __  ________  __  _____
 72
   65
 73
    4
 40
101.6
 49
63.5
 74
    0
 49
-12.7
 74
    0
 49
12.7
 74
    0
 49
-12.7
 74
    0
  0
ENDTAB
  0
TABLE
  2
LAYER
  5
2
330
0
100
AcDbSymbolTable
 70
    1
  0
LAYER
  5
10
330
2
100
AcDbSymbolTableRecord
100
AcDbLayerTableRecord
  2
0
 70
    0
 62
    7
  6
CONTINUOUS
370
   -3
390
F
  0
LAYER
  5
4A
330
2
100
AcDbSymbolTableRecord
100
AcDbLayerTableRecord
  2
Capa 1
 70
    0
 62
    7
  6
CONTINUOUS
370
   25
390
F
<<<<<<< HEAD
1001
LibreCad
1070
    1
=======
>>>>>>> c1622fe70e42c65b35a0fb7d2d95cb2491693a92
  0
LAYER
  5
4B
330
2
100
AcDbSymbolTableRecord
100
AcDbLayerTableRecord
  2
<<<<<<< HEAD
Capa 12
 70
    0
 62
    7
  6
CONTINUOUS
370
    5
390
F
  0
LAYER
  5
4C
330
2
100
AcDbSymbolTableRecord
100
AcDbLayerTableRecord
  2
=======
>>>>>>> c1622fe70e42c65b35a0fb7d2d95cb2491693a92
Visible (ISO)
 70
    0
 62
    7
  6
CONTINUOUS
370
   50
390
F
  0
ENDTAB
  0
TABLE
  2
STYLE
  5
3
330
0
100
AcDbSymbolTable
 70
    3
  0
STYLE
  5
<<<<<<< HEAD
4D
=======
4C
>>>>>>> c1622fe70e42c65b35a0fb7d2d95cb2491693a92
330
2
100
AcDbSymbolTableRecord
100
AcDbTextStyleTableRecord
  2
Standard
 70
    0
 40
0
 41
1
 50
0
 71
    0
 42
1
  3
txt
  4

  0
ENDTAB
  0
TABLE
  2
VIEW
  5
6
330
0
100
AcDbSymbolTable
 70
    0
  0
ENDTAB
  0
TABLE
  2
UCS
  5
7
330
0
100
AcDbSymbolTable
 70
    0
  0
ENDTAB
  0
TABLE
  2
APPID
  5
9
330
0
100
AcDbSymbolTable
 70
    1
  0
APPID
  5
12
330
9
100
AcDbSymbolTableRecord
100
AcDbRegAppTableRecord
  2
ACAD
 70
    0
  0
APPID
  5
<<<<<<< HEAD
4E
=======
4D
>>>>>>> c1622fe70e42c65b35a0fb7d2d95cb2491693a92
330
9
100
AcDbSymbolTableRecord
100
AcDbRegAppTableRecord
  2
LibreCad
 70
    0
  0
ENDTAB
  0
TABLE
  2
DIMSTYLE
  5
A
330
0
100
AcDbSymbolTable
 70
    1
100
AcDbDimStyleTable
 71
    1
  0
DIMSTYLE
105
<<<<<<< HEAD
4F
=======
4E
>>>>>>> c1622fe70e42c65b35a0fb7d2d95cb2491693a92
330
A
100
AcDbSymbolTableRecord
100
AcDbDimStyleTableRecord
  2
Standard
 70
    0
 40
1
 41
1.799999999999999
 42
0.0625
 43
0.38
 44
0.18
 45
0
 46
0
 47
0
 48
0
 49
1
140
1.799999999999999
141
0.09
142
0
143
25.4
144
1
145
0
146
1
147
0.09
148
0
 71
    0
 72
    0
 73
    1
 74
    1
 75
    0
 76
    0
 77
    0
 78
    0
 79
    0
170
    0
171
    2
172
    0
173
    0
174
    0
175
    0
176
    0
177
    0
178
    0
179
    0
271
    4
272
    4
273
    2
274
    2
275
    0
276
    0
277
    2
278
   46
279
    0
280
    0
281
    0
282
    0
283
    1
284
    0
285
    0
286
    0
288
    0
289
    3
340
Standard
341

371
   -2
372
   -2
  0
ENDTAB
  0
TABLE
  2
BLOCK_RECORD
  5
1
330
0
100
AcDbSymbolTable
 70
    2
  0
BLOCK_RECORD
  5
1F
330
1
100
AcDbSymbolTableRecord
100
AcDbBlockTableRecord
  2
*Model_Space
 70
    0
280
    1
281
    0
  0
BLOCK_RECORD
  5
1E
330
1
100
AcDbSymbolTableRecord
100
AcDbBlockTableRecord
  2
*Paper_Space
 70
    0
280
    1
281
    0
  0
BLOCK_RECORD
  5
<<<<<<< HEAD
50
330
1
100
AcDbSymbolTableRecord
100
AcDbBlockTableRecord
  2
*D1
 70
    0
280
    1
281
    0
  0
BLOCK_RECORD
  5
53
=======
4F
>>>>>>> c1622fe70e42c65b35a0fb7d2d95cb2491693a92
330
1
100
AcDbSymbolTableRecord
100
AcDbBlockTableRecord
  2
_Closed
 70
    0
280
    1
281
    0
  0
BLOCK_RECORD
  5
<<<<<<< HEAD
56
=======
52
>>>>>>> c1622fe70e42c65b35a0fb7d2d95cb2491693a92
330
1
100
AcDbSymbolTableRecord
100
AcDbBlockTableRecord
  2
DatumFilled45
 70
    0
280
    1
281
    0
  0
BLOCK_RECORD
  5
<<<<<<< HEAD
59
=======
55
>>>>>>> c1622fe70e42c65b35a0fb7d2d95cb2491693a92
330
1
100
AcDbSymbolTableRecord
100
AcDbBlockTableRecord
  2
Filled-1
 70
    0
280
    1
281
    0
  0
ENDTAB
  0
ENDSEC
  0
SECTION
  2
BLOCKS
  0
BLOCK
  5
20
330
1F
100
AcDbEntity
  8
0
100
AcDbBlockBegin
  2
*Model_Space
 70
    0
 10
0
 20
0
 30
0
  3
*Model_Space
  1

  0
ENDBLK
  5
21
330
1F
100
AcDbEntity
  8
0
100
AcDbBlockEnd
  0
BLOCK
  5
1C
330
1B
100
AcDbEntity
  8
0
100
AcDbBlockBegin
  2
*Paper_Space
 70
    0
 10
0
 20
0
 30
0
  3
*Paper_Space
  1

  0
ENDBLK
  5
1D
330
1F
100
AcDbEntity
  8
0
100
AcDbBlockEnd
  0
BLOCK
  5
<<<<<<< HEAD
51
330
50
=======
50
330
4F
>>>>>>> c1622fe70e42c65b35a0fb7d2d95cb2491693a92
100
AcDbEntity
  8
0
100
AcDbBlockBegin
  2
<<<<<<< HEAD
*D1
 70
    1
=======
_Closed
 70
    0
>>>>>>> c1622fe70e42c65b35a0fb7d2d95cb2491693a92
 10
0
 20
0
  3
<<<<<<< HEAD
*D1
=======
_Closed
>>>>>>> c1622fe70e42c65b35a0fb7d2d95cb2491693a92
  1

  0
LINE
  5
<<<<<<< HEAD
5C
100
AcDbEntity
  8
Capa 12
=======
58
100
AcDbEntity
  8
0
>>>>>>> c1622fe70e42c65b35a0fb7d2d95cb2491693a92
  6
ByBlock
 62
    0
370
   -2
100
AcDbLine
 10
<<<<<<< HEAD
193.5476626752232
 20
183.8101569093333
 11
212.9931605453168
 21
183.8101569093333
  0
SOLID
  5
5D
100
AcDbEntity
  8
Capa 12
  6
ByBlock
 62
    0
370
   -2
100
AcDbTrace
 10
193.5476626752232
 20
183.8101569093333
 30
0
 11
195.3476626752232
 21
184.1098818629297
 31
0
 12
195.3476626752232
 22
183.5104319557368
 32
0
 13
195.3476626752232
 23
183.5104319557368
 33
0
  0
SOLID
  5
5E
100
AcDbEntity
  8
Capa 12
  6
ByBlock
 62
    0
370
   -2
100
AcDbTrace
 10
240.8186584154105
 20
183.8101569093333
 30
0
 11
239.0186584154104
 21
183.5104319557368
 31
0
 12
239.0186584154104
 22
184.1098818629297
 32
0
 13
239.0186584154104
 23
184.1098818629297
 33
=======
-1
 20
0.1666666666666666
 11
0
 21
>>>>>>> c1622fe70e42c65b35a0fb7d2d95cb2491693a92
0
  0
LINE
  5
<<<<<<< HEAD
5F
100
AcDbEntity
  8
Capa 12
=======
59
100
AcDbEntity
  8
0
>>>>>>> c1622fe70e42c65b35a0fb7d2d95cb2491693a92
  6
ByBlock
 62
    0
370
   -2
100
AcDbLine
 10
<<<<<<< HEAD
221.3731605453168
 20
183.8101569093333
 11
240.8186584154105
 21
183.8101569093333
  0
MTEXT
  5
60
100
AcDbEntity
  8
Capa 12
  6
CONTINUOUS
 62
    0
370
   -2
100
AcDbMText
 10
217.1831605453168
 20
183.8101569093333
 30
0
 40
1.799999999999999
 41
8.199999999999996
 71
    5
 72
    1
  1
47.2710
  7
Standard
210
0
220
0
230
1
 50
0
 73
    2
 44
1
  0
LINE
  5
61
100
AcDbEntity
  8
Capa 12
=======
0
 20
0
 11
-1
 21
-0.1666666666666666
  0
LINE
  5
5A
100
AcDbEntity
  8
0
>>>>>>> c1622fe70e42c65b35a0fb7d2d95cb2491693a92
  6
ByBlock
 62
    0
370
   -2
100
AcDbLine
 10
<<<<<<< HEAD
193.5476626752232
 20
175.7906198304772
 11
193.5476626752232
 21
183.9901569093333
  0
LINE
  5
62
100
AcDbEntity
  8
Capa 12
=======
-1
 20
0.1666666666666666
 11
-1
 21
-0.1666666666666666
  0
LINE
  5
5B
100
AcDbEntity
  8
0
>>>>>>> c1622fe70e42c65b35a0fb7d2d95cb2491693a92
  6
ByBlock
 62
    0
370
   -2
100
AcDbLine
 10
<<<<<<< HEAD
240.8186584154105
 20
175.7906198304773
 11
240.8186584154105
 21
183.9901569093333
  0
ENDBLK
  5
52
330
50
=======
0
 20
0
 11
-1
 21
0
  0
ENDBLK
  5
51
330
4F
>>>>>>> c1622fe70e42c65b35a0fb7d2d95cb2491693a92
100
AcDbEntity
  8
0
100
AcDbBlockEnd
  0
BLOCK
  5
<<<<<<< HEAD
54
330
53
=======
53
330
52
>>>>>>> c1622fe70e42c65b35a0fb7d2d95cb2491693a92
100
AcDbEntity
  8
0
100
AcDbBlockBegin
  2
<<<<<<< HEAD
_Closed
=======
DatumFilled45
>>>>>>> c1622fe70e42c65b35a0fb7d2d95cb2491693a92
 70
    0
 10
0
 20
0
  3
<<<<<<< HEAD
_Closed
  1

  0
LINE
  5
63
=======
DatumFilled45
  1

  0
LWPOLYLINE
  5
5C
>>>>>>> c1622fe70e42c65b35a0fb7d2d95cb2491693a92
100
AcDbEntity
  8
0
  6
<<<<<<< HEAD
ByBlock
 62
    0
370
   -2
100
AcDbLine
 10
-1
 20
0.1666666666666666
 11
0
 21
0
  0
LINE
  5
64
=======
ByLayer
 62
    0
370
   -1
100
AcDbPolyline
 90
    4
 70
    0
 43
0
 10
0
 20
1
 10
0
 20
-1
 10
-1
 20
0
 10
0
 20
1
  0
SOLID
  5
5D
>>>>>>> c1622fe70e42c65b35a0fb7d2d95cb2491693a92
100
AcDbEntity
  8
0
  6
<<<<<<< HEAD
ByBlock
 62
    0
370
   -2
100
AcDbLine
 10
0
 20
0
 11
-1
 21
-0.1666666666666666
  0
LINE
  5
65
100
AcDbEntity
  8
0
  6
ByBlock
 62
    0
370
   -2
100
AcDbLine
 10
-1
 20
0.1666666666666666
 11
-1
 21
-0.1666666666666666
  0
LINE
  5
66
100
AcDbEntity
  8
0
  6
ByBlock
 62
    0
370
   -2
100
AcDbLine
 10
0
 20
0
 11
-1
 21
0
  0
ENDBLK
  5
55
330
53
100
AcDbEntity
  8
0
100
AcDbBlockEnd
  0
BLOCK
  5
57
330
56
100
AcDbEntity
  8
0
100
AcDbBlockBegin
  2
DatumFilled45
 70
    0
 10
0
 20
0
  3
DatumFilled45
  1

  0
LWPOLYLINE
  5
67
100
AcDbEntity
  8
0
  6
ByLayer
 62
    0
370
   -1
100
AcDbPolyline
 90
    4
 70
    0
 43
0
 10
0
 20
1
 10
0
 20
-1
 10
-1
 20
0
 10
0
 20
1
  0
SOLID
  5
68
100
AcDbEntity
  8
0
  6
ByLayer
 62
    0
370
   -1
100
AcDbTrace
 10
0
 20
1
 30
0
 11
0
=======
ByLayer
 62
    0
370
   -1
100
AcDbTrace
 10
0
 20
1
 30
0
 11
0
>>>>>>> c1622fe70e42c65b35a0fb7d2d95cb2491693a92
 21
-1
 31
0
 12
-1
 22
0
 32
0
 13
0
 23
1
 33
0
  0
ENDBLK
  5
<<<<<<< HEAD
58
330
56
=======
54
330
52
>>>>>>> c1622fe70e42c65b35a0fb7d2d95cb2491693a92
100
AcDbEntity
  8
0
100
AcDbBlockEnd
  0
BLOCK
  5
<<<<<<< HEAD
5A
330
59
=======
56
330
55
>>>>>>> c1622fe70e42c65b35a0fb7d2d95cb2491693a92
100
AcDbEntity
  8
0
100
AcDbBlockBegin
  2
Filled-1
 70
    0
 10
0
 20
0
  3
Filled-1
  1

  0
LINE
  5
<<<<<<< HEAD
69
=======
5E
>>>>>>> c1622fe70e42c65b35a0fb7d2d95cb2491693a92
100
AcDbEntity
  8
0
  6
ByLayer
 62
    0
370
   -1
100
AcDbLine
 10
-1
 20
0
 11
0
 21
0
  0
LWPOLYLINE
  5
<<<<<<< HEAD
6A
=======
5F
>>>>>>> c1622fe70e42c65b35a0fb7d2d95cb2491693a92
100
AcDbEntity
  8
0
  6
ByLayer
 62
    0
370
   -1
100
AcDbPolyline
 90
    4
 70
    0
 43
0
 10
-1
 20
-0.0994897959183674
 10
0
 20
0
 10
-1
 20
0.0994897959183674
 10
-1
 20
-0.0994897959183674
  0
SOLID
  5
<<<<<<< HEAD
6B
=======
60
>>>>>>> c1622fe70e42c65b35a0fb7d2d95cb2491693a92
100
AcDbEntity
  8
0
  6
ByLayer
 62
    0
370
   -1
100
AcDbTrace
 10
-1
 20
-0.0994897959183674
 30
0
 11
0
 21
0
 31
0
 12
-1
 22
0.0994897959183674
 32
0
 13
-1
 23
-0.0994897959183674
 33
0
  0
LINE
  5
<<<<<<< HEAD
6C
=======
61
>>>>>>> c1622fe70e42c65b35a0fb7d2d95cb2491693a92
100
AcDbEntity
  8
0
  6
ByLayer
 62
    0
370
   -1
100
AcDbLine
 10
-1
 20
-0.0994897959183674
 11
0
 21
0
  0
LINE
  5
<<<<<<< HEAD
6D
=======
62
>>>>>>> c1622fe70e42c65b35a0fb7d2d95cb2491693a92
100
AcDbEntity
  8
0
  6
ByLayer
 62
    0
370
   -1
100
AcDbLine
 10
0
 20
0
 11
-1
 21
0.0994897959183674
  0
LINE
  5
<<<<<<< HEAD
6E
=======
63
>>>>>>> c1622fe70e42c65b35a0fb7d2d95cb2491693a92
100
AcDbEntity
  8
0
  6
ByLayer
 62
    0
370
   -1
100
AcDbLine
 10
-1
 20
0.0994897959183674
 11
-1
 21
-0.0994897959183674
  0
ENDBLK
  5
<<<<<<< HEAD
5B
330
59
=======
57
330
55
>>>>>>> c1622fe70e42c65b35a0fb7d2d95cb2491693a92
100
AcDbEntity
  8
0
100
AcDbBlockEnd
  0
ENDSEC
  0
SECTION
  2
ENTITIES
  0
LINE
  5
<<<<<<< HEAD
6F
=======
64
>>>>>>> c1622fe70e42c65b35a0fb7d2d95cb2491693a92
100
AcDbEntity
  8
Visible (ISO)
  6
ByLayer
 62
  256
370
   -1
100
AcDbLine
 10
<<<<<<< HEAD
202.6202734735262
 20
120.8407306287987
 11
202.6202734735262
 21
118.8007306287987
  0
LINE
  5
70
=======
260.3920874325701
 20
218.8053696641031
 11
260.3920874325701
 21
210.7653696640845
  0
LINE
  5
65
>>>>>>> c1622fe70e42c65b35a0fb7d2d95cb2491693a92
100
AcDbEntity
  8
Visible (ISO)
  6
ByLayer
 62
  256
370
   -1
100
AcDbLine
 10
<<<<<<< HEAD
202.6202734735262
 20
118.8007306287987
 11
194.5802734735262
 21
118.8007306287987
  0
LINE
  5
71
=======
260.3920874325701
 20
244.8053696641323
 11
260.3920874325701
 21
236.7653696641137
  0
LINE
  5
66
>>>>>>> c1622fe70e42c65b35a0fb7d2d95cb2491693a92
100
AcDbEntity
  8
Visible (ISO)
  6
ByLayer
 62
  256
370
   -1
100
AcDbLine
 10
<<<<<<< HEAD
194.5802734735262
 20
118.8007306287987
 11
194.5802734735262
 21
120.8407306287987
  0
LINE
  5
72
=======
263.3920874324973
 20
201.9726193551708
 11
263.3920874324973
 21
253.5981199731915
  0
LINE
  5
67
>>>>>>> c1622fe70e42c65b35a0fb7d2d95cb2491693a92
100
AcDbEntity
  8
Visible (ISO)
  6
ByLayer
 62
  256
370
   -1
100
AcDbLine
 10
<<<<<<< HEAD
194.5802734735262
 20
120.8407306287987
 11
202.6202734735262
 21
120.8407306287987
  0
CIRCLE
  5
73
=======
263.3920874324973
 20
253.5981199731915
 11
260.3920874325701
 21
254.7853696641084
  0
LINE
  5
68
>>>>>>> c1622fe70e42c65b35a0fb7d2d95cb2491693a92
100
AcDbEntity
  8
Visible (ISO)
  6
ByLayer
 62
  256
370
   -1
100
<<<<<<< HEAD
AcDbCircle
 10
195.6002734735262
 20
113.8207306287987
 40
2.499999999999999
  0
LINE
  5
74
=======
AcDbLine
 10
260.3920874325701
 20
200.7853696641084
 11
263.3920874324973
 21
201.9726193551708
  0
CIRCLE
  5
69
>>>>>>> c1622fe70e42c65b35a0fb7d2d95cb2491693a92
100
AcDbEntity
  8
Visible (ISO)
  6
ByLayer
 62
  256
370
   -1
100
<<<<<<< HEAD
AcDbLine
 10
202.6202734735262
 20
164.8007306287802
 11
202.6202734735262
 21
162.7607306287801
  0
LINE
  5
75
=======
AcDbCircle
 10
198.8920874325846
 20
212.2853696641084
 40
6
  0
LINE
  5
6A
>>>>>>> c1622fe70e42c65b35a0fb7d2d95cb2491693a92
100
AcDbEntity
  8
Visible (ISO)
  6
ByLayer
 62
  256
370
   -1
100
AcDbLine
 10
<<<<<<< HEAD
194.5802734735262
 20
162.7607306287801
 11
194.5802734735262
 21
164.8007306287802
  0
LINE
  5
76
=======
228.3920874325846
 20
264.8053696641084
 11
260.3920874325701
 21
254.7853696641084
  0
LINE
  5
6B
>>>>>>> c1622fe70e42c65b35a0fb7d2d95cb2491693a92
100
AcDbEntity
  8
Visible (ISO)
  6
ByLayer
 62
  256
370
   -1
100
AcDbLine
 10
<<<<<<< HEAD
194.5802734735262
 20
164.8007306287802
 11
202.6202734735262
 21
164.8007306287802
  0
CIRCLE
  5
77
=======
218.3920874325846
 20
264.8053696641084
 11
228.3920874325846
 21
264.8053696641084
  0
LINE
  5
6C
>>>>>>> c1622fe70e42c65b35a0fb7d2d95cb2491693a92
100
AcDbEntity
  8
Visible (ISO)
  6
ByLayer
 62
  256
370
   -1
100
<<<<<<< HEAD
AcDbCircle
 10
195.6002734735262
 20
169.7807306287802
 40
2.499999999999999
  0
LINE
  5
78
=======
AcDbLine
 10
184.3920874326137
 20
254.7853696641084
 11
218.3920874325846
 21
264.8053696641084
  0
LINE
  5
6D
>>>>>>> c1622fe70e42c65b35a0fb7d2d95cb2491693a92
100
AcDbEntity
  8
Visible (ISO)
  6
ByLayer
 62
  256
370
   -1
100
AcDbLine
 10
<<<<<<< HEAD
186.6202734734045
 20
147.7607306287416
 11
184.5802734735023
 21
147.7607306288144
  0
LINE
  5
79
=======
181.3920874326137
 20
253.5981199731188
 11
184.3920874326137
 21
254.7853696641084
  0
LINE
  5
6E
>>>>>>> c1622fe70e42c65b35a0fb7d2d95cb2491693a92
100
AcDbEntity
  8
Visible (ISO)
  6
ByLayer
 62
  256
370
   -1
100
AcDbLine
 10
<<<<<<< HEAD
184.5802734735023
 20
147.7607306288144
 11
184.5802734735023
 21
155.8007306288329
  0
LINE
  5
7A
=======
228.3920874325846
 20
190.7653696641084
 11
218.3920874325846
 21
190.7653696641084
  0
LINE
  5
6F
>>>>>>> c1622fe70e42c65b35a0fb7d2d95cb2491693a92
100
AcDbEntity
  8
Visible (ISO)
  6
ByLayer
 62
  256
370
   -1
100
AcDbLine
 10
<<<<<<< HEAD
186.6202734734773
 20
125.8407306287645
 11
184.5802734735023
 21
125.8407306287645
  0
LINE
  5
7B
=======
260.3920874325701
 20
200.7853696641084
 11
228.3920874325846
 21
190.7653696641084
  0
LINE
  5
70
>>>>>>> c1622fe70e42c65b35a0fb7d2d95cb2491693a92
100
AcDbEntity
  8
Visible (ISO)
  6
ByLayer
 62
  256
370
   -1
100
AcDbLine
 10
<<<<<<< HEAD
184.5802734735023
 20
125.8407306287645
 11
184.5802734735023
 21
133.8807306287831
  0
LINE
  5
7C
=======
218.3920874325846
 20
190.7653696641084
 11
184.3920874326136
 21
200.7853696641084
  0
LINE
  5
71
>>>>>>> c1622fe70e42c65b35a0fb7d2d95cb2491693a92
100
AcDbEntity
  8
Visible (ISO)
  6
ByLayer
 62
  256
370
   -1
100
AcDbLine
 10
<<<<<<< HEAD
186.6202734734045
 20
133.8807306288559
 11
186.6202734734773
 21
125.8407306287645
  0
LINE
  5
7D
=======
184.3920874326136
 20
200.7853696641084
 11
181.3920874326137
 21
201.972619355098
  0
LINE
  5
72
>>>>>>> c1622fe70e42c65b35a0fb7d2d95cb2491693a92
100
AcDbEntity
  8
Visible (ISO)
  6
ByLayer
 62
  256
370
   -1
100
AcDbLine
 10
<<<<<<< HEAD
181.6002734735261
 20
119.8207306287987
 11
193.5476626752232
 21
107.8733414271016
=======
258.3720874326189
 20
218.8053696641031
 11
260.3920874325701
 21
218.8053696641031
  0
LINE
  5
73
100
AcDbEntity
  8
Visible (ISO)
  6
ByLayer
 62
  256
370
   -1
100
AcDbLine
 10
260.3920874325701
 20
210.7653696640845
 11
258.3720874326189
 21
210.7653696640845
  0
LINE
  5
74
100
AcDbEntity
  8
Visible (ISO)
  6
ByLayer
 62
  256
370
   -1
100
AcDbLine
 10
258.3720874326189
 20
210.7653696640845
 11
258.3720874326189
 21
218.8053696641031
  0
LINE
  5
75
100
AcDbEntity
  8
Visible (ISO)
  6
ByLayer
 62
  256
370
   -1
100
AcDbLine
 10
202.4120874326137
 20
202.8053696641084
 11
202.4120874326137
 21
200.7653696641084
  0
LINE
  5
76
100
AcDbEntity
  8
Visible (ISO)
  6
ByLayer
 62
  256
370
   -1
100
AcDbLine
 10
202.4120874326137
 20
200.7653696641084
 11
194.3720874326137
 21
200.7653696641084
  0
LINE
  5
77
100
AcDbEntity
  8
Visible (ISO)
  6
ByLayer
 62
  256
370
   -1
100
AcDbLine
 10
194.3720874326137
 20
200.7653696641084
 11
194.3720874326137
 21
202.8053696641084
  0
LINE
  5
78
100
AcDbEntity
  8
Visible (ISO)
  6
ByLayer
 62
  256
370
   -1
100
AcDbLine
 10
194.3720874326137
 20
202.8053696641084
 11
202.4120874326137
 21
202.8053696641084
  0
LINE
  5
79
100
AcDbEntity
  8
Visible (ISO)
  6
ByLayer
 62
  256
370
   -1
100
AcDbLine
 10
242.3720874325098
 20
202.8053696640741
 11
250.4120874326012
 21
202.8053696640741
  0
LINE
  5
7A
100
AcDbEntity
  8
Visible (ISO)
  6
ByLayer
 62
  256
370
   -1
100
AcDbLine
 10
250.4120874326012
 20
202.8053696640741
 11
250.4120874326012
 21
200.7653696640845
  0
LINE
  5
7B
100
AcDbEntity
  8
Visible (ISO)
  6
ByLayer
 62
  256
370
   -1
100
AcDbLine
 10
250.4120874326012
 20
200.7653696640845
 11
242.3720874325098
 21
200.7653696640845
  0
LINE
  5
7C
100
AcDbEntity
  8
Visible (ISO)
  6
ByLayer
 62
  256
370
   -1
100
AcDbLine
 10
242.3720874325098
 20
200.7653696640845
 11
242.3720874325098
 21
202.8053696640741
  0
LINE
  5
7D
100
AcDbEntity
  8
Visible (ISO)
  6
ByLayer
 62
  256
370
   -1
100
AcDbLine
 10
186.4120874325648
 20
210.7653696640845
 11
184.3720874325898
 21
210.7653696640845
>>>>>>> c1622fe70e42c65b35a0fb7d2d95cb2491693a92
  0
LINE
  5
7E
100
AcDbEntity
  8
Visible (ISO)
  6
ByLayer
 62
  256
370
   -1
100
AcDbLine
 10
<<<<<<< HEAD
184.5802734735023
 20
155.8007306288329
 11
186.6202734734773
 21
155.8007306288329
=======
184.3720874325898
 20
210.7653696640845
 11
184.3720874325898
 21
218.8053696641031
>>>>>>> c1622fe70e42c65b35a0fb7d2d95cb2491693a92
  0
LINE
  5
7F
100
AcDbEntity
  8
Visible (ISO)
  6
ByLayer
 62
  256
370
   -1
100
AcDbLine
 10
<<<<<<< HEAD
186.6202734734773
 20
155.8007306288329
 11
186.6202734734045
 21
147.7607306287416
=======
184.3720874325898
 20
218.8053696641031
 11
186.412087432492
 21
218.8053696641759
>>>>>>> c1622fe70e42c65b35a0fb7d2d95cb2491693a92
  0
LINE
  5
80
100
AcDbEntity
  8
Visible (ISO)
  6
ByLayer
 62
  256
370
   -1
100
AcDbLine
 10
<<<<<<< HEAD
193.5476626752232
 20
175.7281198304772
 11
181.6002734735261
 21
163.7807306287801
=======
186.412087432492
 20
218.8053696641759
 11
186.4120874325648
 21
210.7653696640845
>>>>>>> c1622fe70e42c65b35a0fb7d2d95cb2491693a92
  0
LINE
  5
81
100
AcDbEntity
  8
Visible (ISO)
  6
ByLayer
 62
  256
370
   -1
100
AcDbLine
 10
<<<<<<< HEAD
184.5802734735023
 20
133.8807306287831
 11
186.6202734734045
 21
133.8807306288559
=======
181.3920874326137
 20
253.5981199731188
 11
181.3920874326137
 21
201.972619355098
>>>>>>> c1622fe70e42c65b35a0fb7d2d95cb2491693a92
  0
CIRCLE
  5
82
100
AcDbEntity
  8
Visible (ISO)
  6
ByLayer
 62
  256
370
   -1
100
AcDbCircle
 10
<<<<<<< HEAD
133.9523609061835
 20
169.7533499838054
 40
2.5
  0
LINE
=======
223.3920874325846
 20
195.7853696641084
 40
2.5
  0
CIRCLE
>>>>>>> c1622fe70e42c65b35a0fb7d2d95cb2491693a92
  5
83
100
AcDbEntity
  8
Visible (ISO)
  6
ByLayer
 62
  256
370
   -1
100
<<<<<<< HEAD
AcDbLine
 10
202.6202734735262
 20
162.7607306287801
 11
194.5802734735262
 21
162.7607306287801
  0
LINE
  5
84
100
AcDbEntity
  8
Visible (ISO)
  6
ByLayer
 62
  256
370
   -1
100
AcDbLine
 10
138.9523609061835
 20
107.9391874080456
 11
128.9523609061835
 21
107.9391874080456
  0
LINE
  5
85
100
AcDbEntity
  8
Visible (ISO)
=======
AcDbCircle
 10
223.3920874325846
 20
259.7853696641084
 40
2.5
  0
LINE
  5
84
100
AcDbEntity
  8
Visible (ISO)
  6
ByLayer
 62
  256
370
   -1
100
AcDbLine
 10
260.3920874325701
 20
236.7653696641137
 11
258.3720874326189
 21
236.7653696641137
  0
LINE
  5
85
100
AcDbEntity
  8
Visible (ISO)
  6
ByLayer
 62
  256
370
   -1
100
AcDbLine
 10
258.3720874326189
 20
236.7653696641137
 11
258.3720874326189
 21
244.8053696641323
  0
LINE
  5
86
100
AcDbEntity
  8
Visible (ISO)
  6
ByLayer
 62
  256
370
   -1
100
AcDbLine
 10
258.3720874326189
 20
244.8053696641323
 11
260.3920874325701
 21
244.8053696641323
  0
LINE
  5
87
100
AcDbEntity
  8
Visible (ISO)
  6
ByLayer
 62
  256
370
   -1
100
AcDbLine
 10
202.4120874326137
 20
254.8053696641084
 11
202.4120874326137
 21
252.7653696641084
  0
LINE
  5
88
100
AcDbEntity
  8
Visible (ISO)
  6
ByLayer
 62
  256
370
   -1
100
AcDbLine
 10
202.4120874326137
 20
252.7653696641084
 11
194.3720874326137
 21
252.7653696641084
  0
LINE
  5
89
100
AcDbEntity
  8
Visible (ISO)
  6
ByLayer
 62
  256
370
   -1
100
AcDbLine
 10
194.3720874326137
 20
252.7653696641084
 11
194.3720874326137
 21
254.8053696641084
  0
LINE
  5
8A
100
AcDbEntity
  8
Visible (ISO)
  6
ByLayer
 62
  256
370
   -1
100
AcDbLine
 10
194.3720874326137
 20
254.8053696641084
 11
202.4120874326137
 21
254.8053696641084
  0
LINE
  5
8B
100
AcDbEntity
  8
Visible (ISO)
  6
ByLayer
 62
  256
370
   -1
100
AcDbLine
 10
250.4120874326012
 20
252.7653696641427
 11
242.3720874325098
 21
252.7653696641427
  0
LINE
  5
8C
100
AcDbEntity
  8
Visible (ISO)
  6
ByLayer
 62
  256
370
   -1
100
AcDbLine
 10
242.3720874325098
 20
252.7653696641427
 11
242.3720874325098
 21
254.8053696641323
  0
LINE
  5
8D
100
AcDbEntity
  8
Visible (ISO)
  6
ByLayer
 62
  256
370
   -1
100
AcDbLine
 10
242.3720874325098
 20
254.8053696641323
 11
250.4120874326012
 21
254.8053696641323
  0
LINE
  5
8E
100
AcDbEntity
  8
Visible (ISO)
  6
ByLayer
 62
  256
370
   -1
100
AcDbLine
 10
250.4120874326012
 20
254.8053696641323
 11
250.4120874326012
 21
252.7653696641427
  0
LINE
  5
8F
100
AcDbEntity
  8
Visible (ISO)
  6
ByLayer
 62
  256
370
   -1
100
AcDbLine
 10
184.3720874325898
 20
244.8053696641323
 11
186.4120874325648
 21
244.8053696641323
  0
LINE
  5
90
100
AcDbEntity
  8
Visible (ISO)
  6
ByLayer
 62
  256
370
   -1
100
AcDbLine
 10
186.4120874325648
 20
244.8053696641323
 11
186.412087432492
 21
236.7653696640409
  0
LINE
  5
91
100
AcDbEntity
  8
Visible (ISO)
  6
ByLayer
 62
  256
370
   -1
100
AcDbLine
 10
186.412087432492
 20
236.7653696640409
 11
184.3720874325898
 21
236.7653696641137
  0
LINE
  5
92
100
AcDbEntity
  8
Visible (ISO)
  6
ByLayer
 62
  256
370
   -1
100
AcDbLine
 10
184.3720874325898
 20
236.7653696641137
 11
184.3720874325898
 21
244.8053696641323
  0
CIRCLE
  5
93
100
AcDbEntity
  8
0
  6
ByLayer
 62
  256
370
   -1
100
AcDbCircle
 10
250.5258944775016
 20
243.4839565193441
 40
2
  0
CIRCLE
  5
94
100
AcDbEntity
  8
0
  6
ByLayer
 62
  256
370
   -1
100
AcDbCircle
 10
250.5399879018113
 20
234.3561841250755
 40
2
  0
SPLINE
  5
95
100
AcDbEntity
  8
Capa 1
  6
ByLayer
 62
  256
370
    5
100
AcDbSpline
210
0
220
0
230
0
 70
    8
 71
    3
 72
    8
 73
    4
 74
    0
 42
1e-07
 43
1e-07
 40
0
 40
0
 40
0
 40
0
 40
1
 40
1
 40
1
 40
1
 10
228.7825689500123
 20
232.0904980564085
 30
0
 10
227.9461762564543
 20
232.7398634693163
 30
0
 10
227.0037177560839
 20
233.1983313502403
 30
0
 10
226.0093769675686
 20
233.4588411055314
 30
0
  0
SPLINE
  5
96
100
AcDbEntity
  8
Capa 1
  6
ByLayer
 62
  256
370
    5
100
AcDbSpline
210
0
220
0
230
0
 70
    8
 71
    3
 72
    8
 73
    4
 74
    0
 42
1e-07
 43
1e-07
 40
0
 40
0
 40
0
 40
0
 40
1
 40
1
 40
1
 40
1
 10
225.3695825816068
 20
230.7044773728171
 30
0
 10
225.9651305807027
 20
230.5392594814369
 30
0
 10
226.5411704210512
 20
230.2720029366591
 30
0
 10
227.0587380858501
 20
229.8704382104747
 30
0
  0
SPLINE
  5
97
100
AcDbEntity
  8
Capa 1
  6
ByLayer
 62
  256
370
    5
100
AcDbSpline
210
0
220
0
230
0
 70
    8
 71
    3
 72
    8
 73
    4
 74
    0
 42
1e-07
 43
1e-07
 40
0
 40
0
 40
0
 40
0
 40
1
 40
1
 40
1
 40
1
 10
227.3214967709699
 20
230.2085098945142
 30
0
 10
226.7535635381437
 20
230.6496139451316
 30
0
 10
226.1232878784349
 20
230.9553638004684
 30
0
 10
225.4694246058691
 20
231.1342321729027
 30
0
  0
SPLINE
  5
98
100
AcDbEntity
  8
Capa 1
  6
ByLayer
 62
  256
370
    5
100
AcDbSpline
210
0
220
0
230
0
 70
    8
 71
    3
 72
    8
 73
    4
 74
    0
 42
1e-07
 43
1e-07
 40
0
 40
0
 40
0
 40
0
 40
1
 40
1
 40
1
 40
1
 10
225.9126206842342
 20
233.0422660802565
 30
0
 10
226.8479139895688
 20
232.7959821136502
 30
0
 10
227.7331555310374
 20
232.3633507754115
 30
0
 10
228.5198102648926
 20
231.7524263723686
 30
0
  0
LINE
  5
99
100
AcDbEntity
  8
Capa 1
  6
ByLayer
 62
  256
370
    5
100
AcDbLine
 10
225.4694246058691
 20
231.1342321729027
 11
225.9126206842342
 21
233.0422660802565
  0
SPLINE
  5
9A
100
AcDbEntity
  8
Capa 1
  6
ByLayer
 62
  256
370
    5
100
AcDbSpline
210
0
220
0
230
0
 70
    8
 71
    3
 72
    8
 73
    4
 74
    0
 42
1e-07
 43
1e-07
 40
0
 40
0
 40
0
 40
0
 40
1
 40
1
 40
1
 40
1
 10
227.0587380858499
 20
229.8704382104747
 30
0
 10
227.9519816334544
 20
229.1765649072329
 30
0
 10
228.518607348938
 20
228.2278303236186
 30
0
 10
228.776763573013
 20
227.2078621951935
 30
0
  0
SPLINE
  5
9B
100
AcDbEntity
  8
Capa 1
  6
ByLayer
 62
  256
370
    5
100
AcDbSpline
210
0
220
0
230
0
 70
    8
 71
    3
 72
    8
 73
    4
 74
    0
 42
1e-07
 43
1e-07
 40
0
 40
0
 40
0
 40
0
 40
1
 40
1
 40
1
 40
1
 10
229.2118530438552
 20
227.2983946959783
 30
0
 10
228.933561052708
 20
228.4146484014949
 30
0
 10
228.2983691277915
 20
229.4499406331728
 30
0
 10
227.3214967709699
 20
230.2085098945142
 30
0
  0
SPLINE
  5
9C
100
AcDbEntity
  8
Capa 1
  6
ByLayer
 62
  256
370
    5
100
AcDbSpline
210
0
220
0
230
0
 70
    8
 71
    3
 72
    8
 73
    4
 74
    0
 42
1e-07
 43
1e-07
 40
0
 40
0
 40
0
 40
0
 40
1
 40
1
 40
1
 40
1
 10
227.1087375490215
 20
226.8607424911444
 30
0
 10
226.9319089036415
 20
227.4949407028812
 30
0
 10
226.5673730685925
 20
228.082068290293
 30
0
 10
226.0074418419013
 20
228.5168962576672
 30
0
  0
LINE
  5
9D
100
AcDbEntity
  8
Capa 1
  6
ByLayer
 62
  256
370
    5
100
AcDbLine
 10
225.4949996450857
 20
233.1355705178073
 11
225.0518035667197
 21
231.2275889111469
  0
LINE
  5
9E
100
AcDbEntity
  8
Capa 1
  6
ByLayer
 62
  256
370
    5
100
AcDbLine
 10
224.9826620496565
 20
229.0387525793484
 11
225.3695825816068
 21
230.7044773728171
  0
SPLINE
  5
9F
100
AcDbEntity
  8
Capa 1
  6
ByLayer
 62
  256
370
    5
100
AcDbSpline
210
0
220
0
230
0
 70
    8
 71
    3
 72
    8
 73
    4
 74
    0
 42
1e-07
 43
1e-07
 40
0
 40
0
 40
0
 40
0
 40
1
 40
1
 40
1
 40
1
 10
226.0074418419013
 20
228.5168962576672
 30
0
 10
225.6921209596186
 20
228.7617681055432
 30
0
 10
225.3431184305975
 20
228.929025723978
 30
0
 10
224.9826620496567
 20
229.0387525793484
 30
0
  0
SPLINE
  5
A0
100
AcDbEntity
  8
Capa 1
  6
ByLayer
 62
  256
370
    5
100
AcDbSpline
210
0
220
0
230
0
 70
    8
 71
    3
 72
    8
 73
    4
 74
    0
 42
1e-07
 43
1e-07
 40
0
 40
0
 40
0
 40
0
 40
1
 40
1
 40
1
 40
1
 10
225.1514886889016
 20
223.0322794120312
 30
0
 10
225.6923824630879
 20
223.2303944397453
 30
0
 10
226.1889252490205
 20
223.5696167390458
 30
0
 10
226.568314481079
 20
224.058157518844
 30
0
  0
SPLINE
  5
A1
100
AcDbEntity
  8
Capa 1
  6
ByLayer
 62
  256
370
    5
100
AcDbSpline
210
0
220
0
230
0
 70
    8
 71
    3
 72
    8
 73
    4
 74
    0
 42
1e-07
 43
1e-07
 40
0
 40
0
 40
0
 40
0
 40
1
 40
1
 40
1
 40
1
 10
226.568314481079
 20
224.058157518844
 30
0
 10
227.1152228350399
 20
224.7624386601315
 30
0
 10
227.3159005967448
 20
225.6236218825003
 30
0
 10
227.202617294203
 20
226.4422846408968
 30
0
  0
LINE
  5
A2
100
AcDbEntity
  8
Capa 1
  6
ByLayer
 62
  256
370
    5
100
AcDbLine
 10
228.776763573013
 20
227.2078621951935
 11
227.1087375490215
 21
226.8607424911444
  0
LINE
  5
A3
100
AcDbEntity
  8
Capa 1
  6
ByLayer
 62
  256
370
    5
100
AcDbLine
 10
227.202617294203
 20
226.4422846408968
 11
228.8705387168064
 21
226.7895089463331
  0
SPLINE
  5
A4
100
AcDbEntity
  8
Capa 1
  6
ByLayer
 62
  256
370
    5
100
AcDbSpline
210
0
220
0
230
0
 70
    8
 71
    3
 72
    8
 73
    4
 74
    0
 42
1e-07
 43
1e-07
 40
0
 40
0
 40
0
 40
0
 40
1
 40
1
 40
1
 40
1
 10
229.803478490925
 20
221.5458413965472
 30
0
 10
228.8959568539415
 20
220.3770254938671
 30
0
 10
227.6820577532983
 20
219.5337814094349
 30
0
 10
226.3036729709857
 20
219.0895916178894
 30
0
  0
SPLINE
  5
A5
100
AcDbEntity
  8
Capa 1
  6
ByLayer
 62
  256
370
    5
100
AcDbSpline
210
0
220
0
230
0
 70
    8
 71
    3
 72
    8
 73
    4
 74
    0
 42
1e-07
 43
1e-07
 40
0
 40
0
 40
0
 40
0
 40
1
 40
1
 40
1
 40
1
 10
225.755823204538
 20
220.9642576826665
 30
0
 10
226.7412205744321
 20
221.2935951508595
 30
0
 10
227.6081045724146
 20
221.904990260145
 30
0
 10
228.2595620130703
 20
222.7441548904696
 30
0
  0
SPLINE
  5
A6
100
AcDbEntity
  8
Capa 1
  6
ByLayer
 62
  256
370
    5
100
AcDbSpline
210
0
220
0
230
0
 70
    8
 71
    3
 72
    8
 73
    4
 74
    0
 42
1e-07
 43
1e-07
 40
0
 40
0
 40
0
 40
0
 40
1
 40
1
 40
1
 40
1
 10
228.5198102648926
 20
231.7524263723686
 30
0
 10
229.8430701160515
 20
230.724979244745
 30
0
 10
230.7495457391602
 20
229.3050677116397
 30
0
 10
231.1306608941101
 20
227.6977627930275
 30
0
  0
SPLINE
  5
A7
100
AcDbEntity
  8
Capa 1
  6
ByLayer
 62
  256
370
    5
100
AcDbSpline
210
0
220
0
230
0
 70
    8
 71
    3
 72
    8
 73
    4
 74
    0
 42
1e-07
 43
1e-07
 40
0
 40
0
 40
0
 40
0
 40
1
 40
1
 40
1
 40
1
 10
231.5506877651687
 20
227.7851572521906
 30
0
 10
231.1489138362098
 20
229.4920949922903
 30
0
 10
230.1871563798658
 20
231.0001854949644
 30
0
 10
228.7825689500123
 20
232.0904980564085
 30
0
  0
LINE
  5
A8
100
AcDbEntity
  8
Capa 1
  6
ByLayer
 62
  256
370
    5
100
AcDbLine
 10
231.1306608941101
 20
227.6977627930275
 11
229.2118530438552
 21
227.2983946959783
  0
SPLINE
  5
A9
100
AcDbEntity
  8
Capa 1
  6
ByLayer
 62
  256
370
    5
100
AcDbSpline
210
0
220
0
230
0
 70
    8
 71
    3
 72
    8
 73
    4
 74
    0
 42
1e-07
 43
1e-07
 40
0
 40
0
 40
0
 40
0
 40
1
 40
1
 40
1
 40
1
 10
231.7005292526029
 20
226.9683773187676
 30
0
 10
231.6836884292335
 20
227.1022670946249
 30
0
 10
231.654504642152
 20
227.2323389198425
 30
0
 10
231.6310216306834
 20
227.3641889686455
 30
0
  0
SPLINE
  5
AA
100
AcDbEntity
  8
Capa 1
  6
ByLayer
 62
  256
370
    5
100
AcDbSpline
210
0
220
0
230
0
 70
    8
 71
    3
 72
    8
 73
    4
 74
    0
 42
1e-07
 43
1e-07
 40
0
 40
0
 40
0
 40
0
 40
1
 40
1
 40
1
 40
1
 10
230.1415501749646
 20
221.2830827114265
 30
0
 10
231.4034613124192
 20
222.9081698658951
 30
0
 10
231.9574302600292
 20
224.9265582369435
 30
0
 10
231.7005292526029
 20
226.9683773187676
 30
0
  0
SPLINE
  5
AB
100
AcDbEntity
  8
Capa 1
  6
ByLayer
 62
  256
370
    5
100
AcDbSpline
210
0
220
0
230
0
 70
    8
 71
    3
 72
    8
 73
    4
 74
    0
 42
1e-07
 43
1e-07
 40
0
 40
0
 40
0
 40
0
 40
1
 40
1
 40
1
 40
1
 10
231.2754292142562
 20
226.9148214084245
 30
0
 10
231.5172676218979
 20
224.9868086360794
 30
0
 10
230.995097496055
 20
223.0805529523107
 30
0
 10
229.8034784909251
 20
221.5458413965472
 30
0
  0
SPLINE
  5
AC
100
AcDbEntity
  8
Capa 1
  6
ByLayer
 62
  256
370
    5
100
AcDbSpline
210
0
220
0
230
0
 70
    8
 71
    3
 72
    8
 73
    4
 74
    0
 42
1e-07
 43
1e-07
 40
0
 40
0
 40
0
 40
0
 40
1
 40
1
 40
1
 40
1
 10
228.2595620130703
 20
222.7441548904696
 30
0
 10
229.2055246599181
 20
223.9624995500778
 30
0
 10
229.5318809885705
 20
225.4649938785262
 30
0
 10
229.2975738808204
 20
226.8784201256136
 30
0
  0
SPLINE
  5
AD
100
AcDbEntity
  8
Capa 1
  6
ByLayer
 62
  256
370
    5
100
AcDbSpline
210
0
220
0
230
0
 70
    8
 71
    3
 72
    8
 73
    4
 74
    0
 42
1e-07
 43
1e-07
 40
0
 40
0
 40
0
 40
0
 40
1
 40
1
 40
1
 40
1
 10
228.8705387168064
 20
226.7895089463331
 30
0
 10
229.0806306033759
 20
225.4948575746254
 30
0
 10
228.7875375159132
 20
224.1222258686198
 30
0
 10
227.9214903290308
 20
223.0069135755892
 30
0
  0
LINE
  5
AE
100
AcDbEntity
  8
Capa 1
  6
ByLayer
 62
  256
370
    5
100
AcDbLine
 10
231.6310216306834
 20
227.3641889686455
 11
235.3721948520206
 21
228.1429985984469
  0
SPLINE
  5
AF
100
AcDbEntity
  8
Capa 1
  6
ByLayer
 62
  256
370
    5
100
AcDbSpline
210
0
220
0
230
0
 70
    8
 71
    3
 72
    8
 73
    4
 74
    0
 42
1e-07
 43
1e-07
 40
0
 40
0
 40
0
 40
0
 40
1
 40
1
 40
1
 40
1
 10
235.3721948520206
 20
228.1429985984469
 30
0
 10
235.4831769240405
 20
227.892007569408
 30
0
 10
235.6486563188887
 20
227.6613092095227
 30
0
 10
235.8806098954229
 20
227.4811856204397
 30
0
  0
LINE
  5
B0
100
AcDbEntity
  8
Capa 1
  6
ByLayer
 62
  256
370
    5
100
AcDbLine
 10
235.2463070822989
 20
228.5542389529647
 11
231.5506877651687
 21
227.7851572521906
  0
SPLINE
  5
B1
100
AcDbEntity
  8
Capa 1
  6
ByLayer
 62
  256
370
    5
100
AcDbSpline
210
0
220
0
230
0
 70
    8
 71
    3
 72
    8
 73
    4
 74
    0
 42
1e-07
 43
1e-07
 40
0
 40
0
 40
0
 40
0
 40
1
 40
1
 40
1
 40
1
 10
235.5781549837894
 20
229.885919215808
 30
0
 10
235.2728235340021
 20
229.4927226006145
 30
0
 10
235.1706279785236
 20
229.009411890186
 30
0
 10
235.2463070822989
 20
228.5542389529647
 30
0
  0
SPLINE
  5
B2
100
AcDbEntity
  8
Capa 1
  6
ByLayer
 62
  256
370
    5
100
AcDbSpline
210
0
220
0
230
0
 70
    8
 71
    3
 72
    8
 73
    4
 74
    0
 42
1e-07
 43
1e-07
 40
0
 40
0
 40
0
 40
0
 40
1
 40
1
 40
1
 40
1
 10
235.6517943605107
 20
229.9632719417818
 30
0
 10
235.6280498455732
 20
229.9363370845293
 30
0
 10
235.6004873799965
 20
229.9146845973399
 30
0
 10
235.5781549837894
 20
229.885919215808
 30
0
  0
SPLINE
  5
B3
100
AcDbEntity
  8
Capa 1
  6
ByLayer
 62
  256
370
    5
100
AcDbSpline
210
0
220
0
230
0
 70
    8
 71
    3
 72
    8
 73
    4
 74
    0
 42
1e-07
 43
1e-07
 40
0
 40
0
 40
0
 40
0
 40
1
 40
1
 40
1
 40
1
 10
235.8806098954229
 20
227.4811856204397
 30
0
 10
235.9404941897026
 20
227.4346903037456
 30
0
 10
236.0053993505776
 20
227.4004333493757
 30
0
 10
236.069101595497
 20
227.3630383533845
 30
0
  0
SPLINE
  5
B4
100
AcDbEntity
  8
Capa 1
  6
ByLayer
 62
  256
370
    5
100
AcDbSpline
210
0
220
0
230
0
 70
    8
 71
    3
 72
    8
 73
    4
 74
    0
 42
1e-07
 43
1e-07
 40
0
 40
0
 40
0
 40
0
 40
1
 40
1
 40
1
 40
1
 10
225.0194294373232
 20
218.3651224088367
 30
0
 10
225.3572919185885
 20
218.4076428728101
 30
0
 10
225.6862632819254
 20
218.4791902217835
 30
0
 10
226.0104752821358
 20
218.5635512407128
 30
0
  0
SPLINE
  5
B5
100
AcDbEntity
  8
Capa 1
  6
ByLayer
 62
  256
370
    5
100
AcDbSpline
210
0
220
0
230
0
 70
    8
 71
    3
 72
    8
 73
    4
 74
    0
 42
1e-07
 43
1e-07
 40
0
 40
0
 40
0
 40
0
 40
1
 40
1
 40
1
 40
1
 10
226.4237030630143
 20
218.6787173682276
 30
0
 10
227.8878609829853
 20
219.1480637934396
 30
0
 10
229.1779098936476
 20
220.0420918514498
 30
0
 10
230.1415501749646
 20
221.2830827114265
 30
0
  0
LINE
  5
B6
100
AcDbEntity
  8
Capa 1
  6
ByLayer
 62
  256
370
    5
100
AcDbLine
 10
226.3036729709857
 20
219.0895916178894
 11
225.755823204538
 21
220.9642576826665
  0
SPLINE
  5
B7
100
AcDbEntity
  8
Capa 1
  6
ByLayer
 62
  256
370
    5
100
AcDbSpline
210
0
220
0
230
0
 70
    8
 71
    3
 72
    8
 73
    4
 74
    0
 42
1e-07
 43
1e-07
 40
0
 40
0
 40
0
 40
0
 40
1
 40
1
 40
1
 40
1
 10
225.8903928894142
 20
218.9744254903744
 30
0
 10
225.5878856770862
 20
218.8962359533017
 30
0
 10
225.2809852064884
 20
218.8298663730041
 30
0
 10
224.9658735269801
 20
218.7902224471837
 30
0
  0
LINE
  5
B8
100
AcDbEntity
  8
Capa 1
  6
ByLayer
 62
  256
370
    5
100
AcDbLine
 10
225.3428046264352
 20
220.8482547440524
 11
225.8903928894142
 21
218.9744254903744
  0
LINE
  5
B9
100
AcDbEntity
  8
Capa 1
  6
ByLayer
 62
  256
370
    5
100
AcDbLine
 10
239.4574543371733
 20
240.3196461043441
 11
229.1016554822415
 21
240.6907195261051
  0
LINE
  5
BA
100
AcDbEntity
  8
Capa 1
  6
ByLayer
 62
  256
370
    5
100
AcDbLine
 10
229.005003800294
 20
240.2652010822088
 11
239.9079725126554
 21
239.8745672010064
  0
LINE
  5
BB
100
AcDbEntity
  8
Capa 1
  6
ByLayer
 62
  256
370
    5
100
AcDbLine
 10
228.1505150667178
 20
239.3009854932614
 11
235.6517943605107
 21
229.9632719417818
  0
LINE
  5
BC
100
AcDbEntity
  8
Capa 1
  6
ByLayer
 62
  256
370
    5
100
AcDbLine
 10
235.9744373399103
 20
230.2469509043794
 11
228.5137433844245
 21
239.5340896850568
  0
SPLINE
  5
BD
100
AcDbEntity
  8
Capa 1
  6
ByLayer
 62
  256
370
    5
100
AcDbSpline
210
0
220
0
230
0
 70
    8
 71
    3
 72
    8
 73
    4
 74
    0
 42
1e-07
 43
1e-07
 40
0
 40
0
 40
0
 40
0
 40
1
 40
1
 40
1
 40
1
 10
237.3776126510335
 20
230.4895215217335
 30
0
 10
236.8996889120557
 20
230.6180766268341
 30
0
 10
236.3874559180141
 20
230.5267596156438
 30
0
 10
235.9744373399103
 20
230.2469509043794
 30
0
  0
SPLINE
  5
BE
100
AcDbEntity
  8
Capa 1
  6
ByLayer
 62
  256
370
    5
100
AcDbSpline
210
0
220
0
230
0
 70
    8
 71
    3
 72
    8
 73
    4
 74
    0
 42
1e-07
 43
1e-07
 40
0
 40
0
 40
0
 40
0
 40
1
 40
1
 40
1
 40
1
 10
240.3581245832819
 20
239.1836227366114
 30
0
 10
240.4071826339674
 20
239.1454955309083
 30
0
 10
240.4601632366798
 20
239.1167301493764
 30
0
 10
240.5126208324551
 20
239.0868141525833
 30
0
  0
SPLINE
  5
BF
100
AcDbEntity
  8
Capa 1
  6
ByLayer
 62
  256
370
    5
100
AcDbSpline
210
0
220
0
230
0
 70
    8
 71
    3
 72
    8
 73
    4
 74
    0
 42
1e-07
 43
1e-07
 40
0
 40
0
 40
0
 40
0
 40
1
 40
1
 40
1
 40
1
 10
239.9079725126554
 20
239.8745672010064
 30
0
 10
239.9769571276381
 20
239.6100302923009
 30
0
 10
240.1255433984236
 20
239.3642693326316
 30
0
 10
240.3581245832819
 20
239.1836227366114
 30
0
  0
LINE
  5
C0
100
AcDbEntity
  8
Capa 1
  6
ByLayer
 62
  256
370
    5
100
AcDbLine
 10
240.5126208324551
 20
239.0868141525833
 11
237.3776126510335
 21
230.4895215217335
  0
SPLINE
  5
C1
100
AcDbEntity
  8
Capa 1
  6
ByLayer
 62
  256
370
    5
100
AcDbSpline
210
0
220
0
230
0
 70
    8
 71
    3
 72
    8
 73
    4
 74
    0
 42
1e-07
 43
1e-07
 40
0
 40
0
 40
0
 40
0
 40
1
 40
1
 40
1
 40
1
 10
237.9828362784634
 20
230.1883741274421
 30
0
 10
237.9160482926164
 20
230.2402564155868
 30
0
 10
237.8440302373992
 20
230.2795865372447
 30
0
 10
237.7725874898131
 20
230.3201195748579
 30
0
  0
LINE
  5
C2
100
AcDbEntity
  8
Capa 1
  6
ByLayer
 62
  256
370
    5
100
AcDbLine
 10
237.7725874898131
 20
230.3201195748579
 11
240.7090622379708
 21
238.373014285044
  0
SPLINE
  5
C3
100
AcDbEntity
  8
Capa 1
  6
ByLayer
 62
  256
370
    5
100
AcDbSpline
210
0
220
0
230
0
 70
    8
 71
    3
 72
   11
 73
    7
 74
    0
 42
1e-07
 43
1e-07
 40
0
 40
0
 40
0
 40
0
 40
0.25
 40
0.5
 40
0.75
 40
1
 40
1
 40
1
 40
1
 10
237.0923646676251
 20
216.4999750703116
 30
0
 10
237.6530281040275
 20
216.0645717953074
 30
0
 10
238.4604985139734
 20
216.1661397424611
 30
0
 10
238.8959017889784
 20
216.726803178864
 30
0
 10
239.3313050639824
 20
217.287466615266
 30
0
 10
239.2297371168286
 20
218.0949370252119
 30
0
 10
238.6690213797325
 20
218.530340300217
 30
0
  0
SPLINE
  5
C4
100
AcDbEntity
  8
Capa 1
  6
ByLayer
 62
  256
370
    5
100
AcDbSpline
210
0
220
0
230
0
 70
    8
 71
    3
 72
    8
 73
    4
 74
    0
 42
1e-07
 43
1e-07
 40
0
 40
0
 40
0
 40
0
 40
1
 40
1
 40
1
 40
1
 10
238.6690213797325
 20
218.530340300217
 30
0
 10
238.5585623146498
 20
218.6161134378756
 30
0
 10
238.4370678031984
 20
218.6751086203629
 30
0
 10
238.3122260473498
 20
218.7197734127774
 30
0
  0
LINE
  5
C5
100
AcDbEntity
  8
Capa 1
  6
ByLayer
 62
  256
370
    5
100
AcDbLine
 10
238.3122260473498
 20
218.7197734127774
 11
241.220144616751
 21
238.9209686528787
  0
SPLINE
  5
C6
100
AcDbEntity
  8
Capa 1
  6
ByLayer
 62
  256
370
    5
100
AcDbSpline
210
0
220
0
230
0
 70
    8
 71
    3
 72
    8
 73
    4
 74
    0
 42
1e-07
 43
1e-07
 40
0
 40
0
 40
0
 40
0
 40
1
 40
1
 40
1
 40
1
 10
237.2925194223932
 20
227.1673291575802
 30
0
 10
237.6724316613886
 20
227.2492843445992
 30
0
 10
238.0282855812841
 20
227.4526294416825
 30
0
 10
238.2853434907909
 20
227.7836405320735
 30
0
  0
SPLINE
  5
C7
100
AcDbEntity
  8
Capa 1
  6
ByLayer
 62
  256
370
    5
100
AcDbSpline
210
0
220
0
230
0
 70
    8
 71
    3
 72
    8
 73
    4
 74
    0
 42
1e-07
 43
1e-07
 40
0
 40
0
 40
0
 40
0
 40
1
 40
1
 40
1
 40
1
 10
238.2853434907909
 20
227.7836405320735
 30
0
 10
238.8658288901035
 20
228.5312266477395
 30
0
 10
238.7304223941292
 20
229.6078364274354
 30
0
 10
237.9828362784634
 20
230.1883741274421
 30
0
  0
LINE
  5
C8
100
AcDbEntity
  8
Capa 1
  6
ByLayer
 62
  256
370
    5
100
AcDbLine
 10
240.7090622379708
 20
238.373014285044
 11
237.9566336309233
 21
219.2513576634863
  0
LINE
  5
C9
100
AcDbEntity
  8
Capa 1
  6
ByLayer
 62
  256
370
    5
100
AcDbLine
 10
237.9566336309233
 20
219.2513576634863
 11
237.2925194223932
 21
227.1673291575802
  0
SPLINE
  5
CA
100
AcDbEntity
  8
Capa 1
  6
ByLayer
 62
  256
370
    5
100
AcDbSpline
210
0
220
0
230
0
 70
    8
 71
    3
 72
    8
 73
    4
 74
    0
 42
1e-07
 43
1e-07
 40
0
 40
0
 40
0
 40
0
 40
1
 40
1
 40
1
 40
1
 10
229.462896373588
 20
212.0318745073174
 30
0
 10
229.3761295227487
 20
212.0933801231017
 30
0
 10
229.2867476372252
 20
212.1477205438503
 30
0
 10
229.1932339969
 20
212.1910255182296
 30
0
  0
LINE
  5
CB
100
AcDbEntity
  8
Capa 1
  6
ByLayer
 62
  256
370
    5
100
AcDbLine
 10
228.2762982350521
 20
212.3391933834649
 11
226.4237030630143
 21
218.6787173682276
  0
SPLINE
  5
CC
100
AcDbEntity
  8
Capa 1
  6
ByLayer
 62
  256
370
    5
100
AcDbSpline
210
0
220
0
230
0
 70
    8
 71
    3
 72
    8
 73
    4
 74
    0
 42
1e-07
 43
1e-07
 40
0
 40
0
 40
0
 40
0
 40
1
 40
1
 40
1
 40
1
 10
237.0496350008767
 20
216.5406650100063
 30
0
 10
237.0647499013544
 20
216.5277467386638
 30
0
 10
237.0764652567421
 20
216.5123180340238
 30
0
 10
237.0923646676251
 20
216.4999750703116
 30
0
  0
SPLINE
  5
CD
100
AcDbEntity
  8
Capa 1
  6
ByLayer
 62
  256
370
    5
100
AcDbSpline
210
0
220
0
230
0
 70
    8
 71
    3
 72
    8
 73
    4
 74
    0
 42
1e-07
 43
1e-07
 40
0
 40
0
 40
0
 40
0
 40
1
 40
1
 40
1
 40
1
 10
237.5684578823242
 20
218.7563838983634
 30
0
 10
237.2993708132675
 20
218.6889160034978
 30
0
 10
237.0488504904715
 20
218.5395975230004
 30
0
 10
236.8654842583792
 20
218.3035121916647
 30
0
  0
LINE
  5
CE
100
AcDbEntity
  8
Capa 1
  6
ByLayer
 62
  256
370
    5
100
AcDbLine
 10
229.1932339969
 20
212.1910255182296
 11
236.4604676864108
 21
227.1895569524006
  0
LINE
  5
CF
100
AcDbEntity
  8
Capa 1
  6
ByLayer
 62
  256
370
    5
100
AcDbLine
 10
236.069101595497
 20
227.3630383533845
 11
228.7788033000667
 21
212.3174885955819
  0
LINE
  5
D0
100
AcDbEntity
  8
Capa 1
  6
ByLayer
 62
  256
370
    5
100
AcDbLine
 10
236.8661641673975
 20
227.1261162109492
 11
237.5684578823242
 21
218.7563838983634
  0
SPLINE
  5
D1
100
AcDbEntity
  8
Capa 1
  6
ByLayer
 62
  256
370
    5
100
AcDbSpline
210
0
220
0
230
0
 70
    8
 71
    3
 72
    8
 73
    4
 74
    0
 42
1e-07
 43
1e-07
 40
0
 40
0
 40
0
 40
0
 40
1
 40
1
 40
1
 40
1
 10
236.4604676864108
 20
227.1895569524006
 30
0
 10
236.5937821546381
 20
227.1513774460038
 30
0
 10
236.7295547554679
 20
227.1311893782377
 30
0
 10
236.8661641673975
 20
227.1261162109492
 30
0
  0
SPLINE
  5
D2
100
AcDbEntity
  8
Capa 1
  6
ByLayer
 62
  256
370
    5
100
AcDbSpline
210
0
220
0
230
0
 70
    8
 71
    3
 72
    8
 73
    4
 74
    0
 42
1e-07
 43
1e-07
 40
0
 40
0
 40
0
 40
0
 40
1
 40
1
 40
1
 40
1
 10
236.8654842583792
 20
218.3035121916647
 30
0
 10
236.5343685666013
 20
217.8770523352813
 30
0
 10
236.5155926175648
 20
217.3087529976003
 30
0
 10
236.7713430097297
 20
216.8691133664059
 30
0
  0
SPLINE
  5
D3
100
AcDbEntity
  8
Capa 1
  6
ByLayer
 62
  256
370
    5
100
AcDbSpline
210
0
220
0
230
0
 70
    8
 71
    3
 72
    8
 73
    4
 74
    0
 42
1e-07
 43
1e-07
 40
0
 40
0
 40
0
 40
0
 40
1
 40
1
 40
1
 40
1
 10
226.8098913852527
 20
210.2694980319024
 30
0
 10
226.8931017889204
 20
209.8926192331416
 30
0
 10
227.0957146762917
 20
209.5400079562548
 30
0
 10
227.4243722354666
 20
209.2847805710269
 30
0
  0
SPLINE
  5
D4
100
AcDbEntity
  8
Capa 1
  6
ByLayer
 62
  256
370
    5
100
AcDbSpline
210
0
220
0
230
0
 70
    8
 71
    3
 72
    8
 73
    4
 74
    0
 42
1e-07
 43
1e-07
 40
0
 40
0
 40
0
 40
0
 40
1
 40
1
 40
1
 40
1
 10
227.4243722354666
 20
209.2847805710268
 30
0
 10
228.1719060504385
 20
208.7042951717142
 30
0
 10
229.2485681308285
 20
208.8397016676883
 30
0
 10
229.829053530141
 20
209.5872877833543
 30
0
  0
SPLINE
  5
D5
100
AcDbEntity
  8
Capa 1
  6
ByLayer
 62
  256
370
    5
100
AcDbSpline
210
0
220
0
230
0
 70
    8
 71
    3
 72
    8
 73
    4
 74
    0
 42
1e-07
 43
1e-07
 40
0
 40
0
 40
0
 40
0
 40
1
 40
1
 40
1
 40
1
 10
229.829053530141
 20
209.5872877833543
 30
0
 10
230.3325523083361
 20
210.2356071823879
 30
0
 10
230.2957849206688
 20
211.1305766528847
 30
0
 10
229.7899326112574
 20
211.7356433782332
 30
0
  0
LINE
  5
D6
100
AcDbEntity
  8
Capa 1
  6
ByLayer
 62
  256
370
    5
100
AcDbLine
 10
229.7899326112574
 20
211.7356433782332
 11
237.0496350008767
 21
216.5406650100063
  0
LINE
  5
D7
100
AcDbEntity
  8
Capa 1
  6
ByLayer
 62
  256
370
    5
100
AcDbLine
 10
236.7713430097297
 20
216.8691133664059
 11
229.462896373588
 21
212.0318745073174
  0
SPLINE
  5
D8
100
AcDbEntity
  8
Capa 1
  6
ByLayer
 62
  256
370
    5
100
AcDbSpline
210
0
220
0
230
0
 70
    8
 71
    3
 72
    8
 73
    4
 74
    0
 42
1e-07
 43
1e-07
 40
0
 40
0
 40
0
 40
0
 40
1
 40
1
 40
1
 40
1
 10
241.934833596083
 20
241.2140402672098
 30
0
 10
241.3741701596804
 20
241.6493912415208
 30
0
 10
240.5666997497348
 20
241.5478232943668
 30
0
 10
240.1312964747305
 20
240.987159857964
 30
0
  0
SPLINE
  5
D9
100
AcDbEntity
  8
Capa 1
  6
ByLayer
 62
  256
370
    5
100
AcDbSpline
210
0
220
0
230
0
 70
    8
 71
    3
 72
    8
 73
    4
 74
    0
 42
1e-07
 43
1e-07
 40
0
 40
0
 40
0
 40
0
 40
1
 40
1
 40
1
 40
1
 10
241.220144616751
 20
238.9209686528787
 30
0
 10
241.5776198581515
 20
238.9417320282755
 30
0
 10
241.9248441635876
 20
239.105485500232
 30
0
 10
242.1616617046345
 20
239.4105031458571
 30
0
  0
SPLINE
  5
DA
100
AcDbEntity
  8
Capa 1
  6
ByLayer
 62
  256
370
    5
100
AcDbSpline
210
0
220
0
230
0
 70
    8
 71
    3
 72
    8
 73
    4
 74
    0
 42
1e-07
 43
1e-07
 40
0
 40
0
 40
0
 40
0
 40
1
 40
1
 40
1
 40
1
 10
242.161661704635
 20
239.4105031458571
 30
0
 10
242.5970649796398
 20
239.9711665822595
 30
0
 10
242.4954970324856
 20
240.7786369922052
 30
0
 10
241.934833596083
 20
241.2140402672098
 30
0
  0
LINE
  5
DB
100
AcDbEntity
  8
Capa 1
  6
ByLayer
 62
  256
370
    5
100
AcDbLine
 10
226.0442092295686
 20
241.8860518804873
 11
221.2270015361652
 21
245.6268066962757
  0
SPLINE
  5
DC
100
AcDbEntity
  8
Capa 1
  6
ByLayer
 62
  256
370
    5
100
AcDbSpline
210
0
220
0
230
0
 70
    8
 71
    3
 72
    8
 73
    4
 74
    0
 42
1e-07
 43
1e-07
 40
0
 40
0
 40
0
 40
0
 40
1
 40
1
 40
1
 40
1
 10
221.2270015361652
 20
245.6268066962757
 30
0
 10
221.2298257736248
 20
245.6310953531584
 30
0
 10
221.2323362069218
 20
245.6354886114288
 30
0
 10
221.2351081436879
 20
245.639777268312
 30
0
  0
SPLINE
  5
DD
100
AcDbEntity
  8
Capa 1
  6
ByLayer
 62
  256
370
    5
100
AcDbSpline
210
0
220
0
230
0
 70
    8
 71
    3
 72
    8
 73
    4
 74
    0
 42
1e-07
 43
1e-07
 40
0
 40
0
 40
0
 40
0
 40
1
 40
1
 40
1
 40
1
 10
240.1312964747305
 20
240.987159857964
 30
0
 10
240.0442681204231
 20
240.8750794713774
 30
0
 10
239.9845407282241
 20
240.7517021349527
 30
0
 10
239.9398236351151
 20
240.6248729527441
 30
0
  0
LINE
  5
DE
100
AcDbEntity
  8
Capa 1
  6
ByLayer
 62
  256
370
    5
100
AcDbLine
 10
239.9398236351151
 20
240.6248729527441
 11
221.4052423002752
 21
246.035955023046
  0
LINE
  5
DF
100
AcDbEntity
  8
Capa 1
  6
ByLayer
 62
  256
370
    5
100
AcDbLine
 10
221.2351081436879
 20
245.639777268312
 11
239.4574543371733
 21
240.3196461043441
  0
SPLINE
  5
E0
100
AcDbEntity
  8
Capa 1
  6
ByLayer
 62
  256
370
    5
100
AcDbSpline
210
0
220
0
230
0
 70
    8
 71
    3
 72
    8
 73
    4
 74
    0
 42
1e-07
 43
1e-07
 40
0
 40
0
 40
0
 40
0
 40
1
 40
1
 40
1
 40
1
 10
229.1016554822411
 20
240.6907195261051
 30
0
 10
229.1476800926923
 20
241.2485587250481
 30
0
 10
228.9222118021768
 20
241.8176948738292
 30
0
 10
228.4471646013513
 20
242.1866239671484
 30
0
  0
SPLINE
  5
E1
100
AcDbEntity
  8
Capa 1
  6
ByLayer
 62
  256
370
    5
100
AcDbSpline
210
0
220
0
230
0
 70
    8
 71
    3
 72
    8
 73
    4
 74
    0
 42
1e-07
 43
1e-07
 40
0
 40
0
 40
0
 40
0
 40
1
 40
1
 40
1
 40
1
 10
228.4471646013513
 20
242.1866239671484
 30
0
 10
227.7002583947038
 20
242.7666386602176
 30
0
 10
226.6251653351246
 20
242.631807471874
 30
0
 10
226.0442092295686
 20
241.8860518804873
 30
0
  0
SPLINE
  5
E2
100
AcDbEntity
  8
Capa 1
  6
ByLayer
 62
  256
370
    5
100
AcDbSpline
210
0
220
0
230
0
 70
    8
 71
    3
 72
    8
 73
    4
 74
    0
 42
1e-07
 43
1e-07
 40
0
 40
0
 40
0
 40
0
 40
1
 40
1
 40
1
 40
1
 10
221.4052423002752
 20
246.035955023046
 30
0
 10
221.5149691556458
 20
246.509276300979
 30
0
 10
221.3535692149052
 20
247.0243335324801
 30
0
 10
220.94463009091
 20
247.3418510438979
 30
0
  0
SPLINE
  5
E3
100
AcDbEntity
  8
Capa 1
  6
ByLayer
 62
  256
370
    5
100
AcDbSpline
210
0
220
0
230
0
 70
    8
 71
    3
 72
    8
 73
    4
 74
    0
 42
1e-07
 43
1e-07
 40
0
 40
0
 40
0
 40
0
 40
1
 40
1
 40
1
 40
1
 10
220.94463009091
 20
247.3418510438979
 30
0
 10
220.3839666545073
 20
247.7772543189027
 30
0
 10
219.5764962445618
 20
247.6756863717483
 30
0
 10
219.1411452702508
 20
247.1150229353458
 30
0
  0
SPLINE
  5
E4
100
AcDbEntity
  8
Capa 1
  6
ByLayer
 62
  256
370
    5
100
AcDbSpline
210
0
220
0
230
0
 70
    8
 71
    3
 72
    8
 73
    4
 74
    0
 42
1e-07
 43
1e-07
 40
0
 40
0
 40
0
 40
0
 40
1
 40
1
 40
1
 40
1
 10
219.1411452702508
 20
247.1150229353458
 30
0
 10
218.7782830573997
 20
246.6477685378812
 30
0
 10
218.7932933564904
 20
246.0117921025593
 30
0
 10
219.1312604391427
 20
245.5599141090406
 30
0
  0
SPLINE
  5
E5
100
AcDbEntity
  8
Capa 1
  6
ByLayer
 62
  256
370
    5
100
AcDbSpline
210
0
220
0
230
0
 70
    8
 71
    3
 72
    8
 73
    4
 74
    0
 42
1e-07
 43
1e-07
 40
0
 40
0
 40
0
 40
0
 40
1
 40
1
 40
1
 40
1
 10
219.4441754895154
 20
245.2637352806502
 30
0
 10
219.9076642370335
 20
244.9531214608
 30
0
 10
220.5067686833018
 20
244.98115463262
 30
0
 10
220.936052777144
 20
245.3106490028939
 30
0
  0
LINE
  5
E6
100
AcDbEntity
  8
Capa 1
  6
ByLayer
 62
  256
370
    5
100
AcDbLine
 10
208.1508867001136
 20
234.7423001287887
 11
225.9731848875314
 21
239.8910942202135
  0
LINE
  5
E7
100
AcDbEntity
  8
Capa 1
  6
ByLayer
 62
  256
370
    5
100
AcDbLine
 10
225.7756451674489
 20
240.280054479218
 11
207.9236924867056
 21
235.1227353747204
  0
LINE
  5
E8
100
AcDbEntity
  8
Capa 1
  6
ByLayer
 62
  256
370
    5
100
AcDbLine
 10
207.7755246214702
 20
235.2782776377672
 11
219.4441754895154
 21
245.2637352806502
  0
LINE
  5
E9
100
AcDbEntity
  8
Capa 1
  6
ByLayer
 62
  256
370
    5
100
AcDbLine
 10
219.1312604391427
 20
245.5599141090406
 11
207.4244300647006
 21
235.5418208332927
  0
SPLINE
  5
EA
100
AcDbEntity
  8
Capa 1
  6
ByLayer
 62
  256
370
    5
100
AcDbSpline
210
0
220
0
230
0
 70
    8
 71
    3
 72
    8
 73
    4
 74
    0
 42
1e-07
 43
1e-07
 40
0
 40
0
 40
0
 40
0
 40
1
 40
1
 40
1
 40
1
 10
227.9214903290308
 20
223.0069135755892
 30
0
 10
227.3263084347895
 20
222.2400808046441
 30
0
 10
226.534057526709
 20
221.6821893050079
 30
0
 10
225.6349040007172
 20
221.3780084704819
 30
0
  0
SPLINE
  5
EB
100
AcDbEntity
  8
Capa 1
  6
ByLayer
 62
  256
370
    5
100
AcDbSpline
210
0
220
0
230
0
 70
    8
 71
    3
 72
    8
 73
    4
 74
    0
 42
1e-07
 43
1e-07
 40
0
 40
0
 40
0
 40
0
 40
1
 40
1
 40
1
 40
1
 10
224.7223614971401
 20
220.7291137638172
 30
0
 10
224.9333424955024
 20
220.7556825162138
 30
0
 10
225.1394595293515
 20
220.7980460781064
 30
0
 10
225.3428046264352
 20
220.8482547440524
 30
0
  0
LINE
  5
EC
100
AcDbEntity
  8
Capa 1
  6
ByLayer
 62
  256
370
    5
100
AcDbLine
 10
224.7380517052482
 20
222.9177931935349
 11
225.2171260594873
 21
221.2782710476069
  0
LINE
  5
ED
100
AcDbEntity
  8
Capa 1
  6
ByLayer
 62
  256
370
    5
100
AcDbLine
 10
225.6349040007172
 20
221.3780084704819
 11
225.1514886889016
 21
223.0322794120312
  0
SPLINE
  5
EE
100
AcDbEntity
  8
Capa 1
  6
ByLayer
 62
  256
370
    5
100
AcDbSpline
210
0
220
0
230
0
 70
    8
 71
    3
 72
    8
 73
    4
 74
    0
 42
1e-07
 43
1e-07
 40
0
 40
0
 40
0
 40
0
 40
1
 40
1
 40
1
 40
1
 10
225.5915990263389
 20
233.5515179347578
 30
0
 10
224.7799445608972
 20
233.7160036164261
 30
0
 10
223.9405707277979
 20
233.7561705491832
 30
0
 10
223.0972743426722
 20
233.6490587284976
 30
0
  0
SPLINE
  5
EF
100
AcDbEntity
  8
Capa 1
  6
ByLayer
 62
  256
370
    5
100
AcDbSpline
210
0
220
0
230
0
 70
    8
 71
    3
 72
   11
 73
    7
 74
    0
 42
1e-07
 43
1e-07
 40
0
 40
0
 40
0
 40
0
 40
0.25
 40
0.5
 40
0.75
 40
1
 40
1
 40
1
 40
1
 10
223.1508302530149
 20
233.2239586901505
 30
0
 10
223.4596135485855
 20
233.2628704062591
 30
0
 10
223.767560033058
 20
233.2821170615387
 30
0
 10
224.0729960842316
 20
233.2821170615387
 30
0
 10
224.5542670676063
 20
233.2821170615387
 30
0
 10
225.0292096670443
 20
233.2289795567452
 30
0
 10
225.4949996450857
 20
233.1355705178073
 30
0
  0
SPLINE
  5
F0
100
AcDbEntity
  8
Capa 1
  6
ByLayer
 62
  256
370
    5
100
AcDbSpline
210
0
220
0
230
0
 70
    8
 71
    3
 72
    8
 73
    4
 74
    0
 42
1e-07
 43
1e-07
 40
0
 40
0
 40
0
 40
0
 40
1
 40
1
 40
1
 40
1
 10
225.0518035667197
 20
231.2275889111469
 30
0
 10
223.1519808682763
 20
231.5853779567091
 30
0
 10
221.1218248411462
 20
230.8976238346301
 30
0
 10
219.857141766925
 20
229.269607841315
 30
0
  0
SPLINE
  5
F1
100
AcDbEntity
  8
Capa 1
  6
ByLayer
 62
  256
370
    5
100
AcDbSpline
210
0
220
0
230
0
 70
    8
 71
    3
 72
    8
 73
    4
 74
    0
 42
1e-07
 43
1e-07
 40
0
 40
0
 40
0
 40
0
 40
1
 40
1
 40
1
 40
1
 10
217.8777697133723
 20
221.417024787978
 30
0
 10
218.2901083824578
 20
220.8636834486923
 30
0
 10
218.7745697081477
 20
220.3589294538492
 30
0
 10
219.3345532355323
 20
219.9241014864752
 30
0
  0
SPLINE
  5
F2
100
AcDbEntity
  8
Capa 1
  6
ByLayer
 62
  256
370
    5
100
AcDbSpline
210
0
220
0
230
0
 70
    8
 71
    3
 72
   11
 73
    7
 74
    0
 42
1e-07
 43
1e-07
 40
0
 40
0
 40
0
 40
0
 40
0.25
 40
0.5
 40
0.75
 40
1
 40
1
 40
1
 40
1
 10
219.3345532355323
 20
219.9241014864752
 30
0
 10
220.6993921381774
 20
218.8638618239049
 30
0
 10
222.3420523257268
 20
218.3031983875021
 30
0
 10
224.0428708846644
 20
218.3031983875023
 30
0
 10
224.3667167800189
 20
218.3031983875021
 30
0
 10
224.6930731086712
 20
218.3241186649801
 30
0
 10
225.0194294373232
 20
218.3651224088367
 30
0
  0
SPLINE
  5
F3
100
AcDbEntity
  8
Capa 1
  6
ByLayer
 62
  256
370
    5
100
AcDbSpline
210
0
220
0
230
0
 70
    8
 71
    3
 72
    8
 73
    4
 74
    0
 42
1e-07
 43
1e-07
 40
0
 40
0
 40
0
 40
0
 40
1
 40
1
 40
1
 40
1
 10
213.9485231975099
 20
217.2055637289414
 30
0
 10
213.9581465251493
 20
217.6258521034684
 30
0
 10
213.8175622604993
 20
218.0444668557969
 30
0
 10
213.5301699486494
 20
218.3727583101159
 30
0
  0
LINE
  5
F4
100
AcDbEntity
  8
Capa 1
  6
ByLayer
 62
  256
370
    5
100
AcDbLine
 10
213.5301699486494
 20
218.3727583101159
 11
217.8777697133723
 21
221.417024787978
  0
SPLINE
  5
F5
100
AcDbEntity
  8
Capa 1
  6
ByLayer
 62
  256
370
    5
100
AcDbSpline
210
0
220
0
230
0
 70
    8
 71
    3
 72
    8
 73
    4
 74
    0
 42
1e-07
 43
1e-07
 40
0
 40
0
 40
0
 40
0
 40
1
 40
1
 40
1
 40
1
 10
211.1895047030566
 20
215.8925025130533
 30
0
 10
211.6988611589449
 20
215.4969523666434
 30
0
 10
212.3583729064295
 20
215.4413567292461
 30
0
 10
212.9122372526518
 20
215.6777558647441
 30
0
  0
SPLINE
  5
F6
100
AcDbEntity
  8
Capa 1
  6
ByLayer
 62
  256
370
    5
100
AcDbSpline
210
0
220
0
230
0
 70
    8
 71
    3
 72
    8
 73
    4
 74
    0
 42
1e-07
 43
1e-07
 40
0
 40
0
 40
0
 40
0
 40
1
 40
1
 40
1
 40
1
 10
210.7914964240432
 20
218.1448318869963
 30
0
 10
210.3349636687861
 20
217.4090657281054
 30
0
 10
210.4903490297518
 20
216.4354360142932
 30
0
 10
211.1895047030566
 20
215.8925025130533
 30
0
  0
SPLINE
  5
F7
100
AcDbEntity
  8
Capa 1
  6
ByLayer
 62
  256
370
    5
100
AcDbSpline
210
0
220
0
230
0
 70
    8
 71
    3
 72
    8
 73
    4
 74
    0
 42
1e-07
 43
1e-07
 40
0
 40
0
 40
0
 40
0
 40
1
 40
1
 40
1
 40
1
 10
221.5487031030789
 20
227.9560759191835
 30
0
 10
221.4550325606722
 20
227.8354705195247
 30
0
 10
221.3844266241849
 20
227.7052417922259
 30
0
 10
221.3107349467697
 20
227.5763728829632
 30
0
  0
SPLINE
  5
F8
100
AcDbEntity
  8
Capa 1
  6
ByLayer
 62
  256
370
    5
100
AcDbSpline
210
0
220
0
230
0
 70
    8
 71
    3
 72
   11
 73
    7
 74
    0
 42
1e-07
 43
1e-07
 40
0
 40
0
 40
0
 40
0
 40
0.25
 40
0.5
 40
0.75
 40
1
 40
1
 40
1
 40
1
 10
220.195213450965
 20
229.006849156195
 30
0
 10
221.1583830260385
 20
230.2470032050731
 30
0
 10
222.6035557941982
 20
230.8963686179813
 30
0
 10
224.0637911621414
 20
230.8963686179813
 30
0
 10
224.3616959134243
 20
230.8963686179813
 30
0
 10
224.6590253570764
 20
230.8617455587554
 30
0
 10
224.9541581715928
 20
230.8071436345386
 30
0
  0
SPLINE
  5
F9
100
AcDbEntity
  8
Capa 1
  6
ByLayer
 62
  256
370
    5
100
AcDbSpline
210
0
220
0
230
0
 70
    8
 71
    3
 72
    8
 73
    4
 74
    0
 42
1e-07
 43
1e-07
 40
0
 40
0
 40
0
 40
0
 40
1
 40
1
 40
1
 40
1
 10
224.5645180035703
 20
229.1297557863768
 30
0
 10
223.4551156889283
 20
229.3082580539551
 30
0
 10
222.286561289717
 20
228.9062226215272
 30
0
 10
221.5487031030789
 20
227.9560759191835
 30
0
  0
LINE
  5
FA
100
AcDbEntity
  8
Capa 1
  6
ByLayer
 62
  256
370
    5
100
AcDbLine
 10
224.9541581715928
 20
230.8071436345386
 11
224.5645180035703
 21
229.1297557863768
  0
SPLINE
  5
FB
100
AcDbEntity
  8
Capa 1
  6
ByLayer
 62
  256
370
    5
100
AcDbSpline
210
0
220
0
230
0
 70
    8
 71
    3
 72
    8
 73
    4
 74
    0
 42
1e-07
 43
1e-07
 40
0
 40
0
 40
0
 40
0
 40
1
 40
1
 40
1
 40
1
 10
223.0972743426722
 20
233.6490587284976
 30
0
 10
221.0558736663979
 20
233.3925761266206
 30
0
 10
219.2366463369364
 20
232.3561855803752
 30
0
 10
217.9751536050307
 20
230.7310984259071
 30
0
  0
SPLINE
  5
FC
100
AcDbEntity
  8
Capa 1
  6
ByLayer
 62
  256
370
    5
100
AcDbSpline
210
0
220
0
230
0
 70
    8
 71
    3
 72
    8
 73
    4
 74
    0
 42
1e-07
 43
1e-07
 40
0
 40
0
 40
0
 40
0
 40
1
 40
1
 40
1
 40
1
 10
217.9751536050307
 20
230.7310984259071
 30
0
 10
217.6862968737574
 20
230.3591881930474
 30
0
 10
217.4393329981332
 20
229.9645271584305
 30
0
 10
217.2259461678609
 20
229.5557972372097
 30
0
  0
SPLINE
  5
FD
100
AcDbEntity
  8
Capa 1
  6
ByLayer
 62
  256
370
    5
100
AcDbSpline
210
0
220
0
230
0
 70
    8
 71
    3
 72
    8
 73
    4
 74
    0
 42
1e-07
 43
1e-07
 40
0
 40
0
 40
0
 40
0
 40
1
 40
1
 40
1
 40
1
 10
217.6116637838558
 20
229.3688745579466
 30
0
 10
217.811975440705
 20
229.7510357267705
 30
0
 10
218.0429353040587
 20
230.1203309249458
 30
0
 10
218.3132252890708
 20
230.4683397407875
 30
0
  0
SPLINE
  5
FE
100
AcDbEntity
  8
Capa 1
  6
ByLayer
 62
  256
370
    5
100
AcDbSpline
210
0
220
0
230
0
 70
    8
 71
    3
 72
    8
 73
    4
 74
    0
 42
1e-07
 43
1e-07
 40
0
 40
0
 40
0
 40
0
 40
1
 40
1
 40
1
 40
1
 10
218.3132252890708
 20
230.4683397407875
 30
0
 10
219.5048442942007
 20
232.0030512965519
 30
0
 10
221.2228174806694
 20
232.9817018769585
 30
0
 10
223.1508302530149
 20
233.2239586901505
 30
0
  0
SPLINE
  5
FF
100
AcDbEntity
  8
Capa 1
  6
ByLayer
 62
  256
370
    5
100
AcDbSpline
210
0
220
0
230
0
 70
    8
 71
    3
 72
    8
 73
    4
 74
    0
 42
1e-07
 43
1e-07
 40
0
 40
0
 40
0
 40
0
 40
1
 40
1
 40
1
 40
1
 10
227.3253670223036
 20
239.1242614492683
 30
0
 10
227.6098827959997
 20
239.1128075973493
 30
0
 10
227.892777248192
 20
239.1744178145214
 30
0
 10
228.1505150667178
 20
239.3009854932614
 30
0
  0
SPLINE
  5
100
100
AcDbEntity
  8
Capa 1
  6
ByLayer
 62
  256
370
    5
100
AcDbSpline
210
0
220
0
230
0
 70
    8
 71
    3
 72
    8
 73
    4
 74
    0
 42
1e-07
 43
1e-07
 40
0
 40
0
 40
0
 40
0
 40
1
 40
1
 40
1
 40
1
 10
228.5137433844245
 20
239.5340896850568
 30
0
 10
228.5987843123713
 20
239.6074152576159
 30
0
 10
228.6781244647054
 20
239.6898411508782
 30
0
 10
228.7496195129854
 20
239.7819426724737
 30
0
  0
SPLINE
  5
101
100
AcDbEntity
  8
Capa 1
  6
ByLayer
 62
  256
370
    5
100
AcDbSpline
210
0
220
0
230
0
 70
    8
 71
    3
 72
    8
 73
    4
 74
    0
 42
1e-07
 43
1e-07
 40
0
 40
0
 40
0
 40
0
 40
1
 40
1
 40
1
 40
1
 10
228.7496195129854
 20
239.7819426724737
 30
0
 10
228.865727052987
 20
239.931418055052
 30
0
 10
228.9453287087892
 20
240.0960083381077
 30
0
 10
229.005003800294
 20
240.2652010822088
 30
0
  0
SPLINE
  5
102
100
AcDbEntity
  8
Capa 1
  6
ByLayer
 62
  256
370
    5
100
AcDbSpline
210
0
220
0
230
0
 70
    8
 71
    3
 72
    8
 73
    4
 74
    0
 42
1e-07
 43
1e-07
 40
0
 40
0
 40
0
 40
0
 40
1
 40
1
 40
1
 40
1
 10
225.9731848875314
 20
239.8910942202135
 30
0
 10
226.0736022194251
 20
239.7393176071128
 30
0
 10
226.1931616052098
 20
239.5973212237329
 30
0
 10
226.3448859176174
 20
239.4794877608396
 30
0
  0
SPLINE
  5
103
100
AcDbEntity
  8
Capa 1
  6
ByLayer
 62
  256
370
    5
100
AcDbSpline
210
0
220
0
230
0
 70
    8
 71
    3
 72
    8
 73
    4
 74
    0
 42
1e-07
 43
1e-07
 40
0
 40
0
 40
0
 40
0
 40
1
 40
1
 40
1
 40
1
 10
226.3448859176174
 20
239.4794877608396
 30
0
 10
226.5164844936278
 20
239.3462255933067
 30
0
 10
226.706492913819
 20
239.2551700855852
 30
0
 10
226.9027774172534
 20
239.1961226024043
 30
0
  0
LINE
  5
104
100
AcDbEntity
  8
Capa 1
  6
ByLayer
 62
  256
370
    5
100
AcDbLine
 10
226.9027774172534
 20
239.1961226024043
 11
225.5915990263389
 21
233.5515179347578
  0
LINE
  5
105
100
AcDbEntity
  8
Capa 1
  6
ByLayer
 62
  256
370
    5
100
AcDbLine
 10
226.0093769675686
 20
233.4588411055314
 11
227.3253670223036
 21
239.1242614492683
  0
SPLINE
  5
106
100
AcDbEntity
  8
Capa 1
  6
ByLayer
 62
  256
370
    5
100
AcDbSpline
210
0
220
0
230
0
 70
    8
 71
    3
 72
    8
 73
    4
 74
    0
 42
1e-07
 43
1e-07
 40
0
 40
0
 40
0
 40
0
 40
1
 40
1
 40
1
 40
1
 10
207.9443512607151
 20
233.0007916301571
 30
0
 10
208.0544965216352
 20
233.1426311114559
 30
0
 10
208.1306986323478
 20
233.2983302765836
 30
0
 10
208.1900076189971
 20
233.458213497207
 30
0
  0
SPLINE
  5
107
100
AcDbEntity
  8
Capa 1
  6
ByLayer
 62
  256
370
    5
100
AcDbSpline
210
0
220
0
230
0
 70
    8
 71
    3
 72
    8
 73
    4
 74
    0
 42
1e-07
 43
1e-07
 40
0
 40
0
 40
0
 40
0
 40
1
 40
1
 40
1
 40
1
 10
207.9236924867056
 20
235.1227353747204
 30
0
 10
207.8792368970659
 20
235.1780172079557
 30
0
 10
207.8276161123896
 20
235.2280166711271
 30
0
 10
207.7755246214702
 20
235.2782776377672
 30
0
  0
SPLINE
  5
108
100
AcDbEntity
  8
Capa 1
  6
ByLayer
 62
  256
370
    5
100
AcDbSpline
210
0
220
0
230
0
 70
    8
 71
    3
 72
    8
 73
    4
 74
    0
 42
1e-07
 43
1e-07
 40
0
 40
0
 40
0
 40
0
 40
1
 40
1
 40
1
 40
1
 10
208.2923077758631
 20
233.8848302556711
 30
0
 10
208.3208116539262
 20
234.1779756438273
 30
0
 10
208.2701322817366
 20
234.4719055423892
 30
0
 10
208.1508867001136
 20
234.7423001287887
 30
0
  0
LINE
  5
109
100
AcDbEntity
  8
Capa 1
  6
ByLayer
 62
  256
370
    5
100
AcDbLine
 10
217.2259461678609
 20
229.5557972372097
 11
208.2923077758631
 21
233.8848302556711
  0
LINE
  5
10A
100
AcDbEntity
  8
Capa 1
  6
ByLayer
 62
  256
370
    5
100
AcDbLine
 10
208.1900076189971
 20
233.4582134972067
 11
217.0416908239754
 21
229.1691382087283
  0
LINE
  5
10B
100
AcDbEntity
  8
Capa 1
  6
ByLayer
 62
  256
370
    5
100
AcDbLine
 10
220.936052777144
 20
245.3106490028939
 11
225.8285211687739
 21
241.511369710862
  0
SPLINE
  5
10C
100
AcDbEntity
  8
Capa 1
  6
ByLayer
 62
  256
370
    5
100
AcDbSpline
210
0
220
0
230
0
 70
    8
 71
    3
 72
    8
 73
    4
 74
    0
 42
1e-07
 43
1e-07
 40
0
 40
0
 40
0
 40
0
 40
1
 40
1
 40
1
 40
1
 10
225.8285211687739
 20
241.511369710862
 30
0
 10
225.6572886976185
 20
241.1158718651457
 30
0
 10
225.6405001749427
 20
240.6771736464384
 30
0
 10
225.7756451674489
 20
240.280054479218
 30
0
  0
SPLINE
  5
10D
100
AcDbEntity
  8
Capa 1
  6
ByLayer
 62
  256
370
    5
100
AcDbSpline
210
0
220
0
230
0
 70
    8
 71
    3
 72
    8
 73
    4
 74
    0
 42
1e-07
 43
1e-07
 40
0
 40
0
 40
0
 40
0
 40
1
 40
1
 40
1
 40
1
 10
231.2118315707239
 20
227.2768991108697
 30
0
 10
231.2331179530573
 20
227.1561891098235
 30
0
 10
231.260000509616
 20
227.0373096330566
 30
0
 10
231.2754292142562
 20
226.9148214084245
 30
0
  0
LINE
  5
10E
100
AcDbEntity
  8
Capa 1
  6
ByLayer
 62
  256
370
    5
100
AcDbLine
 10
229.2975738808206
 20
226.8784201256137
 11
231.2118315707239
 21
227.2768991108697
  0
SPLINE
  5
10F
100
AcDbEntity
  8
Capa 1
  6
ByLayer
 62
  256
370
    5
100
AcDbSpline
210
0
220
0
230
0
 70
    8
 71
    3
 72
    8
 73
    4
 74
    0
 42
1e-07
 43
1e-07
 40
0
 40
0
 40
0
 40
0
 40
1
 40
1
 40
1
 40
1
 10
204.6600768994908
 20
222.9798741169491
 30
0
 10
204.5743560625255
 20
223.0464529000224
 30
0
 10
204.4816792332992
 20
223.0962431604195
 30
0
 10
204.3866488728567
 20
223.1379791139873
 30
0
  0
SPLINE
  5
110
100
AcDbEntity
  8
Capa 1
  6
ByLayer
 62
  256
370
    5
100
AcDbSpline
210
0
220
0
230
0
 70
    8
 71
    3
 72
    8
 73
    4
 74
    0
 42
1e-07
 43
1e-07
 40
0
 40
0
 40
0
 40
0
 40
1
 40
1
 40
1
 40
1
 10
205.0532212139899
 20
221.4715744115005
 30
0
 10
205.2712105053077
 20
221.9939014394256
 30
0
 10
205.1285342129096
 20
222.6160704916122
 30
0
 10
204.6600768994908
 20
222.9798741169491
 30
0
  0
SPLINE
  5
111
100
AcDbEntity
  8
Capa 1
  6
ByLayer
 62
  256
370
    5
100
AcDbSpline
210
0
220
0
230
0
 70
    8
 71
    3
 72
    8
 73
    4
 74
    0
 42
1e-07
 43
1e-07
 40
0
 40
0
 40
0
 40
0
 40
1
 40
1
 40
1
 40
1
 10
204.8191233090147
 20
221.1050511500913
 30
0
 10
204.8201170221949
 20
221.1061494646595
 30
0
 10
204.8211630360685
 20
221.1071954785324
 30
0
 10
204.8221567492488
 20
221.1082937931009
 30
0
  0
SPLINE
  5
112
100
AcDbEntity
  8
Capa 1
  6
ByLayer
 62
  256
370
    5
100
AcDbSpline
210
0
220
0
230
0
 70
    8
 71
    3
 72
    8
 73
    4
 74
    0
 42
1e-07
 43
1e-07
 40
0
 40
0
 40
0
 40
0
 40
1
 40
1
 40
1
 40
1
 10
203.9715905676991
 20
223.245038633979
 30
0
 10
203.5554339479739
 20
223.2771512599078
 30
0
 10
203.1317460283568
 20
223.1073832081764
 30
0
 10
202.8565397781376
 20
222.7530460083975
 30
0
  0
SPLINE
  5
113
100
AcDbEntity
  8
Capa 1
  6
ByLayer
 62
  256
370
    5
100
AcDbSpline
210
0
220
0
230
0
 70
    8
 71
    3
 72
    8
 73
    4
 74
    0
 42
1e-07
 43
1e-07
 40
0
 40
0
 40
0
 40
0
 40
1
 40
1
 40
1
 40
1
 10
202.8565397781376
 20
222.7530460083975
 30
0
 10
202.4211365031328
 20
222.1923825719949
 30
0
 10
202.5227044502869
 20
221.3849121620494
 30
0
 10
203.0834201873833
 20
220.9495088870451
 30
0
  0
SPLINE
  5
114
100
AcDbEntity
  8
Capa 1
  6
ByLayer
 62
  256
370
    5
100
AcDbSpline
210
0
220
0
230
0
 70
    8
 71
    3
 72
    8
 73
    4
 74
    0
 42
1e-07
 43
1e-07
 40
0
 40
0
 40
0
 40
0
 40
1
 40
1
 40
1
 40
1
 10
203.0834201873833
 20
220.9495088870451
 30
0
 10
203.4991061008653
 20
220.626709005564
 30
0
 10
204.0498847061597
 20
220.600506358023
 30
0
 10
204.4846603728398
 20
220.8362778851966
 30
0
  0
SPLINE
  5
115
100
AcDbEntity
  8
Capa 1
  6
ByLayer
 62
  256
370
    5
100
AcDbSpline
210
0
220
0
230
0
 70
    8
 71
    3
 72
    8
 73
    4
 74
    0
 42
1e-07
 43
1e-07
 40
0
 40
0
 40
0
 40
0
 40
1
 40
1
 40
1
 40
1
 10
216.2159674719306
 20
207.9005904117142
 30
0
 10
215.839925484269
 20
207.3444248349696
 30
0
 10
215.9498092417206
 20
206.5864308812589
 30
0
 10
216.487721876366
 20
206.1687052407225
 30
0
  0
SPLINE
  5
116
100
AcDbEntity
  8
Capa 1
  6
ByLayer
 62
  256
370
    5
100
AcDbSpline
210
0
220
0
230
0
 70
    8
 71
    3
 72
    8
 73
    4
 74
    0
 42
1e-07
 43
1e-07
 40
0
 40
0
 40
0
 40
0
 40
1
 40
1
 40
1
 40
1
 10
216.487721876366
 20
206.1687052407225
 30
0
 10
217.0483853127687
 20
205.733301965718
 30
0
 10
217.8558557227142
 20
205.8348699128724
 30
0
 10
218.2912589977189
 20
206.3955333492748
 30
0
  0
SPLINE
  5
117
100
AcDbEntity
  8
Capa 1
  6
ByLayer
 62
  256
370
    5
100
AcDbSpline
210
0
220
0
230
0
 70
    8
 71
    3
 72
    8
 73
    4
 74
    0
 42
1e-07
 43
1e-07
 40
0
 40
0
 40
0
 40
0
 40
1
 40
1
 40
1
 40
1
 10
218.2912589977189
 20
206.3955333492748
 30
0
 10
218.4901585358383
 20
206.6517021469893
 30
0
 10
218.5716430166138
 20
206.9590733238305
 30
0
 10
218.5538607807582
 20
207.259227004942
 30
0
  0
LINE
  5
118
100
AcDbEntity
  8
Capa 1
  6
ByLayer
 62
  256
370
    5
100
AcDbLine
 10
204.4846603728398
 20
220.8362778851966
 11
216.2159674719306
 21
207.9005904117141
  0
SPLINE
  5
119
100
AcDbEntity
  8
Capa 1
  6
ByLayer
 62
  256
370
    5
100
AcDbSpline
210
0
220
0
230
0
 70
    8
 71
    3
 72
    8
 73
    4
 74
    0
 42
1e-07
 43
1e-07
 40
0
 40
0
 40
0
 40
0
 40
1
 40
1
 40
1
 40
1
 10
213.2841474855118
 20
215.8941761352516
 30
0
 10
213.3965416762605
 20
215.9809429860902
 30
0
 10
213.5030258886221
 20
216.0776469687306
 30
0
 10
213.594185997731
 20
216.1950097253806
 30
0
  0
SPLINE
  5
11A
100
AcDbEntity
  8
Capa 1
  6
ByLayer
 62
  256
370
    5
100
AcDbSpline
210
0
220
0
230
0
 70
    8
 71
    3
 72
    8
 73
    4
 74
    0
 42
1e-07
 43
1e-07
 40
0
 40
0
 40
0
 40
0
 40
1
 40
1
 40
1
 40
1
 10
213.594185997731
 20
216.1950097253806
 30
0
 10
213.7312661159038
 20
216.3715245665991
 30
0
 10
213.8251981617788
 20
216.5671291610153
 30
0
 10
213.88382723941
 20
216.7694805449184
 30
0
  0
LINE
  5
11B
100
AcDbEntity
  8
Capa 1
  6
ByLayer
 62
  256
370
    5
100
AcDbLine
 10
216.4671154030506
 20
208.2612036947365
 11
204.8191233090147
 21
221.1050511500913
  0
LINE
  5
11C
100
AcDbEntity
  8
Capa 1
  6
ByLayer
 62
  256
370
    5
100
AcDbLine
 10
204.8221567492488
 20
221.1082937931009
 11
210.7914964240432
 21
218.1448318869963
  0
SPLINE
  5
11D
100
AcDbEntity
  8
Capa 1
  6
ByLayer
 62
  256
370
    5
100
AcDbSpline
210
0
220
0
230
0
 70
    8
 71
    3
 72
    8
 73
    4
 74
    0
 42
1e-07
 43
1e-07
 40
0
 40
0
 40
0
 40
0
 40
1
 40
1
 40
1
 40
1
 10
218.4556400780004
 20
207.6801952884864
 30
0
 10
218.3729526812695
 20
207.8773689037143
 30
0
 10
218.2453389886555
 20
208.0585908073647
 30
0
 10
218.064430889167
 20
208.1990704706275
 30
0
  0
SPLINE
  5
11E
100
AcDbEntity
  8
Capa 1
  6
ByLayer
 62
  256
370
    5
100
AcDbSpline
210
0
220
0
230
0
 70
    8
 71
    3
 72
    8
 73
    4
 74
    0
 42
1e-07
 43
1e-07
 40
0
 40
0
 40
0
 40
0
 40
1
 40
1
 40
1
 40
1
 10
218.064430889167
 20
208.1990704706275
 30
0
 10
217.7136501365596
 20
208.471452483387
 30
0
 10
217.2663746040862
 20
208.5335334068022
 30
0
 10
216.8740147999921
 20
208.404716798233
 30
0
  0
LINE
  5
11F
100
AcDbEntity
  8
Capa 1
  6
ByLayer
 62
  256
370
    5
100
AcDbLine
 10
218.5538607807582
 20
207.259227004942
 11
226.8098913852527
 21
210.2694980319024
  0
LINE
  5
120
100
AcDbEntity
  8
Capa 1
  6
ByLayer
 62
  256
370
    5
100
AcDbLine
 10
226.7666387115676
 20
210.7107066839068
 11
218.4556400780004
 21
207.6801952884864
  0
LINE
  5
121
100
AcDbEntity
  8
Capa 1
  6
ByLayer
 62
  256
370
    5
100
AcDbLine
 10
213.88382723941
 20
216.7694805449184
 11
226.9681532843713
 21
211.4441716122756
  0
LINE
  5
122
100
AcDbEntity
  8
Capa 1
  6
ByLayer
 62
  256
370
    5
100
AcDbLine
 10
227.2280354313379
 20
211.801071546045
 11
213.9485231975099
 21
217.2055637289412
  0
LINE
  5
123
100
AcDbEntity
  8
Capa 1
  6
ByLayer
 62
  256
370
    5
100
AcDbLine
 10
226.0104752821358
 20
218.5635512407128
 11
227.8607692236513
 21
212.2317677586173
  0
SPLINE
  5
124
100
AcDbEntity
  8
Capa 1
  6
ByLayer
 62
  256
370
    5
100
AcDbSpline
210
0
220
0
230
0
 70
    8
 71
    3
 72
    8
 73
    4
 74
    0
 42
1e-07
 43
1e-07
 40
0
 40
0
 40
0
 40
0
 40
1
 40
1
 40
1
 40
1
 10
219.7651448467172
 20
228.3253711173589
 30
0
 10
219.8924970358627
 20
228.5601489313522
 30
0
 10
220.0281127346118
 20
228.7916841023368
 30
0
 10
220.195213450965
 20
229.006849156195
 30
0
  0
SPLINE
  5
125
100
AcDbEntity
  8
Capa 1
  6
ByLayer
 62
  256
370
    5
100
AcDbSpline
210
0
220
0
230
0
 70
    8
 71
    3
 72
    8
 73
    4
 74
    0
 42
1e-07
 43
1e-07
 40
0
 40
0
 40
0
 40
0
 40
1
 40
1
 40
1
 40
1
 10
219.2056843262694
 20
225.3968460746419
 30
0
 10
219.0948591563312
 20
226.2771190502104
 30
0
 10
219.2394182737024
 20
227.1445260551298
 30
0
 10
219.5829815305798
 20
227.9377706763906
 30
0
  0
LINE
  5
126
100
AcDbEntity
  8
Capa 1
  6
ByLayer
 62
  256
370
    5
100
AcDbLine
 10
219.5829815305798
 20
227.9377706763906
 11
221.1243352744432
 21
227.190864469743
  0
LINE
  5
127
100
AcDbEntity
  8
Capa 1
  6
ByLayer
 62
  256
370
    5
100
AcDbLine
 10
221.3107349467697
 20
227.5763728829632
 11
219.7651448467172
 21
228.3253711173589
  0
SPLINE
  5
128
100
AcDbEntity
  8
Capa 1
  6
ByLayer
 62
  256
370
    5
100
AcDbSpline
210
0
220
0
230
0
 70
    8
 71
    3
 72
    8
 73
    4
 74
    0
 42
1e-07
 43
1e-07
 40
0
 40
0
 40
0
 40
0
 40
1
 40
1
 40
1
 40
1
 10
221.1243352744432
 20
227.190864469743
 30
0
 10
220.7499669089797
 20
226.262474855976
 30
0
 10
220.8328635084853
 20
225.2172454924959
 30
0
 10
221.3449396004456
 20
224.3684575345328
 30
0
  0
LINE
  5
129
100
AcDbEntity
  8
Capa 1
  6
ByLayer
 62
  256
370
    5
100
AcDbLine
 10
220.1935398287668
 20
223.0385554952745
 11
221.5905436580341
 21
224.016735369438
  0
SPLINE
  5
12A
100
AcDbEntity
  8
Capa 1
  6
ByLayer
 62
  256
370
    5
100
AcDbSpline
210
0
220
0
230
0
 70
    8
 71
    3
 72
    8
 73
    4
 74
    0
 42
1e-07
 43
1e-07
 40
0
 40
0
 40
0
 40
0
 40
1
 40
1
 40
1
 40
1
 10
219.9454776385745
 20
223.3886040381703
 30
0
 10
219.5613290433905
 20
223.991108029528
 30
0
 10
219.2975766450903
 20
224.6668852927517
 30
0
 10
219.2056843262694
 20
225.3968460746419
 30
0
  0
LINE
  5
12B
100
AcDbEntity
  8
Capa 1
  6
ByLayer
 62
  256
370
    5
100
AcDbLine
 10
221.3449396004456
 20
224.3684575345326
 11
219.9454776385745
 21
223.3886040381703
  0
SPLINE
  5
12C
100
AcDbEntity
  8
Capa 1
  6
ByLayer
 62
  256
370
    5
100
AcDbSpline
210
0
220
0
230
0
 70
    8
 71
    3
 72
    8
 73
    4
 74
    0
 42
1e-07
 43
1e-07
 40
0
 40
0
 40
0
 40
0
 40
1
 40
1
 40
1
 40
1
 10
219.857141766925
 20
229.269607841315
 30
0
 10
219.6714743043103
 20
229.0305413704386
 30
0
 10
219.5129509017233
 20
228.7769876074086
 30
0
 10
219.372366637073
 20
228.5156933417121
 30
0
  0
SPLINE
  5
12D
100
AcDbEntity
  8
Capa 1
  6
ByLayer
 62
  256
370
    5
100
AcDbSpline
210
0
220
0
230
0
 70
    8
 71
    3
 72
    8
 73
    4
 74
    0
 42
1e-07
 43
1e-07
 40
0
 40
0
 40
0
 40
0
 40
1
 40
1
 40
1
 40
1
 10
222.109523441562
 20
223.4973371803609
 30
0
 10
222.8849858269669
 20
222.8951469931645
 30
0
 10
223.8485738075902
 20
222.722711606055
 30
0
 10
224.7380517052482
 20
222.9177931935349
 30
0
  0
SPLINE
  5
12E
100
AcDbEntity
  8
Capa 1
  6
ByLayer
 62
  256
370
    5
100
AcDbSpline
210
0
220
0
230
0
 70
    8
 71
    3
 72
    8
 73
    4
 74
    0
 42
1e-07
 43
1e-07
 40
0
 40
0
 40
0
 40
0
 40
1
 40
1
 40
1
 40
1
 10
221.5905436580341
 20
224.016735369438
 30
0
 10
221.7421110683602
 20
223.8289758790758
 30
0
 10
221.9106762041365
 20
223.6517288281457
 30
0
 10
222.109523441562
 20
223.4973371803609
 30
0
  0
SPLINE
  5
12F
100
AcDbEntity
  8
Capa 1
  6
ByLayer
 62
  256
370
    5
100
AcDbSpline
210
0
220
0
230
0
 70
    8
 71
    3
 72
    8
 73
    4
 74
    0
 42
1e-07
 43
1e-07
 40
0
 40
0
 40
0
 40
0
 40
1
 40
1
 40
1
 40
1
 10
221.0588025052444
 20
222.1441613324088
 30
0
 10
220.7242872683759
 20
222.4037819759076
 30
0
 10
220.4453676689046
 20
222.7116238589913
 30
0
 10
220.1935398287668
 20
223.0385554952745
 30
0
  0
SPLINE
  5
130
100
AcDbEntity
  8
Capa 1
  6
ByLayer
 62
  256
370
    5
100
AcDbSpline
210
0
220
0
230
0
 70
    8
 71
    3
 72
    8
 73
    4
 74
    0
 42
1e-07
 43
1e-07
 40
0
 40
0
 40
0
 40
0
 40
1
 40
1
 40
1
 40
1
 10
219.8310437207719
 20
222.7846879280826
 30
0
 10
220.1073482855583
 20
222.4235516381239
 30
0
 10
220.4273239295802
 20
222.0923313449578
 30
0
 10
220.7960438201246
 20
221.8060896483694
 30
0
  0
SPLINE
  5
131
100
AcDbEntity
  8
Capa 1
  6
ByLayer
 62
  256
370
    5
100
AcDbSpline
210
0
220
0
230
0
 70
    8
 71
    3
 72
    8
 73
    4
 74
    0
 42
1e-07
 43
1e-07
 40
0
 40
0
 40
0
 40
0
 40
1
 40
1
 40
1
 40
1
 10
224.6688055867966
 20
221.1542138021642
 30
0
 10
223.3725851942783
 20
220.991872448937
 30
0
 10
222.090590590445
 20
221.3433331105626
 30
0
 10
221.0588025052444
 20
222.1441613324088
 30
0
  0
SPLINE
  5
132
100
AcDbEntity
  8
Capa 1
  6
ByLayer
 62
  256
370
    5
100
AcDbSpline
210
0
220
0
230
0
 70
    8
 71
    3
 72
   11
 73
    7
 74
    0
 42
1e-07
 43
1e-07
 40
0
 40
0
 40
0
 40
0
 40
0.25
 40
0.5
 40
0.75
 40
1
 40
1
 40
1
 40
1
 10
220.7960438201246
 20
221.8060896483694
 30
0
 10
221.7387115232698
 20
221.0738799366497
 30
0
 10
222.8734273736598
 20
220.686436397763
 30
0
 10
224.0478917512589
 20
220.6864363977625
 30
0
 10
224.2713203147205
 20
220.6864363977624
 30
0
 10
224.4972593114801
 20
220.7006621864473
 30
0
 10
224.7223614971401
 20
220.7291137638172
 30
0
  0
SPLINE
  5
133
100
AcDbEntity
  8
Capa 1
  6
ByLayer
 62
  256
370
    5
100
AcDbSpline
210
0
220
0
230
0
 70
    8
 71
    3
 72
    8
 73
    4
 74
    0
 42
1e-07
 43
1e-07
 40
0
 40
0
 40
0
 40
0
 40
1
 40
1
 40
1
 40
1
 10
224.9658735269801
 20
218.7902224471837
 30
0
 10
223.0357687268877
 20
218.5450367951449
 30
0
 10
221.1316050708668
 20
219.0705541653844
 30
0
 10
219.597311920652
 20
220.2621731705146
 30
0
  0
SPLINE
  5
134
100
AcDbEntity
  8
Capa 1
  6
ByLayer
 62
  256
370
    5
100
AcDbSpline
210
0
220
0
230
0
 70
    8
 71
    3
 72
    8
 73
    4
 74
    0
 42
1e-07
 43
1e-07
 40
0
 40
0
 40
0
 40
0
 40
1
 40
1
 40
1
 40
1
 10
225.2171260594873
 20
221.2782710476069
 30
0
 10
225.0352242468193
 20
221.2339723600477
 30
0
 10
224.8573495875649
 20
221.1779583171011
 30
0
 10
224.6688055867966
 20
221.1542138021642
 30
0
  0
LINE
  5
135
100
AcDbEntity
  8
Capa 1
  6
ByLayer
 62
  256
370
    5
100
AcDbLine
 10
218.2289165708353
 20
221.6628903490341
 11
219.8310437207719
 21
222.7846879280826
  0
SPLINE
  5
136
100
AcDbEntity
  8
Capa 1
  6
ByLayer
 62
  256
370
    5
100
AcDbSpline
210
0
220
0
230
0
 70
    8
 71
    3
 72
    8
 73
    4
 74
    0
 42
1e-07
 43
1e-07
 40
0
 40
0
 40
0
 40
0
 40
1
 40
1
 40
1
 40
1
 10
219.597311920652
 20
220.2621731705146
 30
0
 10
219.0716899490246
 20
220.6702754834115
 30
0
 10
218.6168308159654
 20
221.1440151668943
 30
0
 10
218.2289165708353
 20
221.6628903490341
 30
0
  0
SPLINE
  5
137
100
AcDbEntity
  8
Capa 1
  6
ByLayer
 62
  256
370
    5
100
AcDbSpline
210
0
220
0
230
0
 70
    8
 71
    3
 72
    8
 73
    4
 74
    0
 42
1e-07
 43
1e-07
 40
0
 40
0
 40
0
 40
0
 40
1
 40
1
 40
1
 40
1
 10
216.8416929712891
 20
225.099778134459
 30
0
 10
216.672343325107
 20
226.445004276969
 30
0
 10
216.8836381276317
 20
227.7770506446684
 30
0
 10
217.4269900344216
 20
228.9824247322398
 30
0
  0
SPLINE
  5
138
100
AcDbEntity
  8
Capa 1
  6
ByLayer
 62
  256
370
    5
100
AcDbSpline
210
0
220
0
230
0
 70
    8
 71
    3
 72
    8
 73
    4
 74
    0
 42
1e-07
 43
1e-07
 40
0
 40
0
 40
0
 40
0
 40
1
 40
1
 40
1
 40
1
 10
217.0416908239754
 20
229.1691382087283
 30
0
 10
216.4623560399244
 20
227.8897063388856
 30
0
 10
216.2367831480213
 20
226.474867973068
 30
0
 10
216.4165929329419
 20
225.0462222241158
 30
0
  0
SPLINE
  5
139
100
AcDbEntity
  8
Capa 1
  6
ByLayer
 62
  256
370
    5
100
AcDbSpline
210
0
220
0
230
0
 70
    8
 71
    3
 72
    8
 73
    4
 74
    0
 42
1e-07
 43
1e-07
 40
0
 40
0
 40
0
 40
0
 40
1
 40
1
 40
1
 40
1
 10
218.7805842879226
 20
225.3432901642995
 30
0
 10
218.8813154239774
 20
224.542671145228
 30
0
 10
219.1610195338544
 20
223.7950327288682
 30
0
 10
219.5847597541655
 20
223.1359916876265
 30
0
  0
SPLINE
  5
13A
100
AcDbEntity
  8
Capa 1
  6
ByLayer
 62
  256
370
    5
100
AcDbSpline
210
0
220
0
230
0
 70
    8
 71
    3
 72
    8
 73
    4
 74
    0
 42
1e-07
 43
1e-07
 40
0
 40
0
 40
0
 40
0
 40
1
 40
1
 40
1
 40
1
 10
217.9833125132473
 20
222.0146648148221
 30
0
 10
217.3794487038532
 20
222.9318097794444
 30
0
 10
216.9826433407951
 20
223.9781897581857
 30
0
 10
216.841692971289
 20
225.099778134459
 30
0
  0
SPLINE
  5
13B
100
AcDbEntity
  8
Capa 1
  6
ByLayer
 62
  256
370
    5
100
AcDbSpline
210
0
220
0
230
0
 70
    8
 71
    3
 72
    8
 73
    4
 74
    0
 42
1e-07
 43
1e-07
 40
0
 40
0
 40
0
 40
0
 40
1
 40
1
 40
1
 40
1
 10
216.4165929329419
 20
225.0462222241158
 30
0
 10
216.5663298189886
 20
223.8540802120496
 30
0
 10
216.9888671233445
 20
222.7423766668839
 30
0
 10
217.6323225578652
 20
221.768851554459
 30
0
  0
LINE
  5
13C
100
AcDbEntity
  8
Capa 1
  6
ByLayer
 62
  256
370
    5
100
AcDbLine
 10
219.5847597541655
 20
223.1359916876265
 11
217.9833125132473
 21
222.0146648148221
  0
SPLINE
  5
13D
100
AcDbEntity
  8
Capa 1
  6
ByLayer
 62
  256
370
    5
100
AcDbSpline
210
0
220
0
230
0
 70
    8
 71
    3
 72
    8
 73
    4
 74
    0
 42
1e-07
 43
1e-07
 40
0
 40
0
 40
0
 40
0
 40
1
 40
1
 40
1
 40
1
 10
219.1857577619719
 20
228.1302372291855
 30
0
 10
218.8057932222832
 20
227.2624641194101
 30
0
 10
218.6592466785519
 20
226.3075057532467
 30
0
 10
218.7805842879226
 20
225.3432901642995
 30
0
  0
LINE
  5
13E
100
AcDbEntity
  8
Capa 1
  6
ByLayer
 62
  256
370
    5
100
AcDbLine
 10
219.372366637073
 20
228.5156933417121
 11
217.6116637838558
 21
229.3688745579466
  0
LINE
  5
13F
100
AcDbEntity
  8
Capa 1
  6
ByLayer
 62
  256
370
    5
100
AcDbLine
 10
217.4269900344216
 20
228.9824247322398
 11
219.1857577619719
 21
228.1302372291855
  0
LINE
  5
140
100
AcDbEntity
  8
Capa 1
  6
ByLayer
 62
  256
370
    5
100
AcDbLine
 10
217.6323225578652
 20
221.768851554459
 11
213.1938764881952
 21
218.6610397337591
  0
SPLINE
  5
141
100
AcDbEntity
  8
Capa 1
  6
ByLayer
 62
  256
370
    5
100
AcDbSpline
210
0
220
0
230
0
 70
    8
 71
    3
 72
    8
 73
    4
 74
    0
 42
1e-07
 43
1e-07
 40
0
 40
0
 40
0
 40
0
 40
1
 40
1
 40
1
 40
1
 10
213.1938764881952
 20
218.6610397337591
 30
0
 10
212.8286084434345
 20
218.9071144975902
 30
0
 10
212.4012071745652
 20
218.9988499143297
 30
0
 10
211.9914312394705
 20
218.9385995151945
 30
0
  0
SPLINE
  5
142
100
AcDbEntity
  8
Capa 1
  6
ByLayer
 62
  256
370
    5
100
AcDbSpline
210
0
220
0
230
0
 70
    8
 71
    3
 72
    8
 73
    4
 74
    0
 42
1e-07
 43
1e-07
 40
0
 40
0
 40
0
 40
0
 40
1
 40
1
 40
1
 40
1
 10
227.8607692236513
 20
212.2317677586173
 30
0
 10
227.6247884937028
 20
212.1410260550577
 30
0
 10
227.4094665377638
 20
211.9957870286688
 30
0
 10
227.2280354313379
 20
211.801071546045
 30
0
  0
SPLINE
  5
143
100
AcDbEntity
  8
Capa 1
  6
ByLayer
 62
  256
370
    5
100
AcDbSpline
210
0
220
0
230
0
 70
    8
 71
    3
 72
    8
 73
    4
 74
    0
 42
1e-07
 43
1e-07
 40
0
 40
0
 40
0
 40
0
 40
1
 40
1
 40
1
 40
1
 10
228.7788033000667
 20
212.3174885955819
 30
0
 10
228.6119640871823
 20
212.3474045923752
 30
0
 10
228.4431374479369
 20
212.3587538429065
 30
0
 10
228.2762982350521
 20
212.3391933834649
 30
0
  0
SPLINE
  5
144
100
AcDbEntity
  8
Capa 1
  6
ByLayer
 62
  256
370
    5
100
AcDbSpline
210
0
220
0
230
0
 70
    8
 71
    3
 72
    8
 73
    4
 74
    0
 42
1e-07
 43
1e-07
 40
0
 40
0
 40
0
 40
0
 40
1
 40
1
 40
1
 40
1
 10
226.9681532843713
 20
211.4441716122756
 30
0
 10
226.8440960389283
 20
211.212584140597
 30
0
 10
226.7770988503063
 20
210.9627960275129
 30
0
 10
226.7666387115676
 20
210.7107066839068
 30
0
  0
LINE
  5
145
100
AcDbEntity
  8
Capa 1
  6
ByLayer
 62
  256
370
    5
100
AcDbLine
 10
216.8740147999921
 20
208.404716798233
 11
213.2841474855118
 21
215.8941761352516
  0
LINE
  5
146
100
AcDbEntity
  8
Capa 1
  6
ByLayer
 62
  256
370
    5
100
AcDbLine
 10
212.9122372526518
 20
215.6777558647441
 11
216.4671154030506
 21
208.2612036947365
  0
SPLINE
  5
147
100
AcDbEntity
  8
Capa 1
  6
ByLayer
 62
  256
370
    5
100
AcDbSpline
210
0
220
0
230
0
 70
    8
 71
    3
 72
    8
 73
    4
 74
    0
 42
1e-07
 43
1e-07
 40
0
 40
0
 40
0
 40
0
 40
1
 40
1
 40
1
 40
1
 10
207.4244300647006
 20
235.5418208332927
 30
0
 10
206.6971889188819
 20
235.9494001392522
 30
0
 10
205.7640399419887
 20
235.7815149124935
 30
0
 10
205.2371627537128
 20
235.1030703138916
 30
0
  0
SPLINE
  5
148
100
AcDbEntity
  8
Capa 1
  6
ByLayer
 62
  256
370
    5
100
AcDbSpline
210
0
220
0
230
0
 70
    8
 71
    3
 72
    8
 73
    4
 74
    0
 42
1e-07
 43
1e-07
 40
0
 40
0
 40
0
 40
0
 40
1
 40
1
 40
1
 40
1
 10
205.2371627537128
 20
235.1030703138916
 30
0
 10
204.6566250537064
 20
234.3554841982258
 30
0
 10
204.7920838503748
 20
233.2788744185293
 30
0
 10
205.5396176653471
 20
232.6983367185231
 30
0
  0
SPLINE
  5
149
100
AcDbEntity
  8
Capa 1
  6
ByLayer
 62
  256
370
    5
100
AcDbSpline
210
0
220
0
230
0
 70
    8
 71
    3
 72
    8
 73
    4
 74
    0
 42
1e-07
 43
1e-07
 40
0
 40
0
 40
0
 40
0
 40
1
 40
1
 40
1
 40
1
 10
207.4153297439977
 20
232.5506395595304
 30
0
 10
207.6146999883602
 20
232.6600003100454
 30
0
 10
207.7959741927043
 20
232.8097371960918
 30
0
 10
207.9443512607151
 20
233.0007916301571
 30
0
  0
SPLINE
  5
14A
100
AcDbEntity
  8
Capa 1
  6
ByLayer
 62
  256
370
    5
100
AcDbSpline
210
0
220
0
230
0
 70
    8
 71
    3
 72
    8
 73
    4
 74
    0
 42
1e-07
 43
1e-07
 40
0
 40
0
 40
0
 40
0
 40
1
 40
1
 40
1
 40
1
 10
206.3097976806884
 20
232.3691561524116
 30
0
 10
206.5456738092496
 20
232.3300352335282
 30
0
 10
206.7845310773512
 20
232.3398677639427
 30
0
 10
207.0147064302997
 20
232.3986537436551
 30
0
  0
LINE
  5
14B
100
AcDbEntity
  8
Capa 1
  6
ByLayer
 62
  256
370
    5
100
AcDbLine
 10
211.0668072756498
 20
218.4861462140451
 11
205.0532212139899
 21
221.4715744115005
  0
SPLINE
  5
14C
100
AcDbEntity
  8
Capa 1
  6
ByLayer
 62
  256
370
    5
100
AcDbSpline
210
0
220
0
230
0
 70
    8
 71
    3
 72
    8
 73
    4
 74
    0
 42
1e-07
 43
1e-07
 40
0
 40
0
 40
0
 40
0
 40
1
 40
1
 40
1
 40
1
 10
211.579615577322
 20
218.8191970314903
 30
0
 10
211.3929021008337
 20
218.7410074944175
 30
0
 10
211.2194730005435
 20
218.6308622334967
 30
0
 10
211.0668072756498
 20
218.4861462140451
 30
0
  0
SPLINE
  5
14D
100
AcDbEntity
  8
Capa 1
>>>>>>> c1622fe70e42c65b35a0fb7d2d95cb2491693a92
  6
ByLayer
 62
  256
370
<<<<<<< HEAD
   -1
100
AcDbLine
 10
128.9523609061835
 20
175.6465257887303
 11
138.9523609061835
 21
175.6465257887303
  0
LINE
  5
86
100
AcDbEntity
  8
0
=======
    5
100
AcDbSpline
210
0
220
0
230
0
 70
    8
 71
    3
 72
    8
 73
    4
 74
    0
 42
1e-07
 43
1e-07
 40
0
 40
0
 40
0
 40
0
 40
1
 40
1
 40
1
 40
1
 10
205.5396176653471
 20
232.6983367185231
 30
0
 10
205.6519595554021
 20
232.6110991614411
 30
0
 10
205.7731925633852
 20
232.5453048887736
 30
0
 10
205.897615913684
 20
232.4900230555388
 30
0
  0
LINE
  5
14E
100
AcDbEntity
  8
Capa 1
>>>>>>> c1622fe70e42c65b35a0fb7d2d95cb2491693a92
  6
ByLayer
 62
  256
370
<<<<<<< HEAD
   50
100
AcDbLine
 10
181.6
 20
119.821
 11
181.6
 21
163.781
  0
LINE
  5
87
100
AcDbEntity
  8
Visible (ISO)
=======
    5
100
AcDbLine
 10
211.9914312394705
 20
218.9385995151945
 11
207.4153297439977
 21
232.5506395595304
  0
LINE
  5
14F
100
AcDbEntity
  8
Capa 1
>>>>>>> c1622fe70e42c65b35a0fb7d2d95cb2491693a92
  6
ByLayer
 62
  256
370
<<<<<<< HEAD
   -1
100
AcDbLine
 10
231.7460476170473
 20
120.8407306287644
 11
239.7860476171387
 21
120.8407306287644
  0
LINE
  5
88
100
AcDbEntity
  8
Visible (ISO)
=======
    5
100
AcDbLine
 10
207.0147064302997
 20
232.3986537436551
 11
211.579615577322
 21
218.8191970314903
  0
LINE
  5
150
100
AcDbEntity
  8
Capa 1
>>>>>>> c1622fe70e42c65b35a0fb7d2d95cb2491693a92
  6
ByLayer
 62
  256
370
<<<<<<< HEAD
   -1
100
AcDbLine
 10
239.7860476171387
 20
120.8407306287644
 11
239.7860476171387
 21
118.8007306287748
  0
LINE
  5
89
100
AcDbEntity
  8
Visible (ISO)
=======
    5
100
AcDbLine
 10
204.3866488728567
 20
223.1379791139873
 11
206.3097976806884
 21
232.3691561524116
  0
LINE
  5
151
100
AcDbEntity
  8
Capa 1
>>>>>>> c1622fe70e42c65b35a0fb7d2d95cb2491693a92
  6
ByLayer
 62
  256
370
<<<<<<< HEAD
   -1
100
AcDbLine
 10
239.7860476171387
 20
118.8007306287748
 11
231.7460476170473
 21
118.8007306287748
  0
LINE
  5
8A
=======
    5
100
AcDbLine
 10
205.897615913684
 20
232.4900230555388
 11
203.9715905676991
 21
223.245038633979
  0
LINE
  5
152
>>>>>>> c1622fe70e42c65b35a0fb7d2d95cb2491693a92
100
AcDbEntity
  8
Visible (ISO)
  6
ByLayer
 62
  256
370
   -1
100
AcDbLine
 10
<<<<<<< HEAD
231.7460476170473
 20
118.8007306287748
 11
231.7460476170473
 21
120.8407306287644
  0
CIRCLE
  5
8B
100
AcDbEntity
  8
Visible (ISO)
  6
ByLayer
 62
  256
370
   -1
100
AcDbCircle
 10
238.7660476171222
 20
113.8207306287987
 40
2.499999999999999
  0
LINE
  5
8C
=======
193.5476626752232
 20
102.8733414271016
 11
251.6528842717854
 21
102.8733414271016
  0
LINE
  5
153
>>>>>>> c1622fe70e42c65b35a0fb7d2d95cb2491693a92
100
AcDbEntity
  8
Visible (ISO)
  6
ByLayer
 62
  256
370
   -1
100
AcDbLine
 10
<<<<<<< HEAD
239.7860476171387
 20
162.7607306288145
 11
231.7460476170473
 21
162.7607306288145
  0
LINE
  5
8D
=======
251.6528842717854
 20
188.7681198304958
 11
193.5476626752232
 21
188.7681198304957
  0
LINE
  5
154
>>>>>>> c1622fe70e42c65b35a0fb7d2d95cb2491693a92
100
AcDbEntity
  8
Visible (ISO)
  6
ByLayer
 62
  256
370
   -1
100
AcDbLine
 10
<<<<<<< HEAD
231.7460476170473
 20
162.7607306288145
 11
231.7460476170473
 21
164.800730628804
  0
LINE
  5
8E
=======
251.6528842717854
 20
102.8733414271016
 11
263.6002734734825
 21
114.8207306287987
  0
LINE
  5
155
>>>>>>> c1622fe70e42c65b35a0fb7d2d95cb2491693a92
100
AcDbEntity
  8
Visible (ISO)
  6
ByLayer
 62
  256
370
   -1
100
AcDbLine
 10
<<<<<<< HEAD
231.7460476170473
 20
164.800730628804
 11
239.7860476171387
 21
164.800730628804
  0
LINE
  5
8F
=======
263.6002734734825
 20
176.8207306287987
 11
251.6528842717854
 21
188.7681198304958
  0
CIRCLE
  5
156
>>>>>>> c1622fe70e42c65b35a0fb7d2d95cb2491693a92
100
AcDbEntity
  8
Visible (ISO)
  6
ByLayer
 62
  256
370
   -1
100
<<<<<<< HEAD
AcDbLine
 10
239.7860476171387
 20
164.800730628804
 11
239.7860476171387
 21
162.7607306288145
  0
CIRCLE
  5
90
=======
AcDbCircle
 10
223.6002734734971
 20
113.8207306287987
 40
2.5
  0
CIRCLE
  5
157
>>>>>>> c1622fe70e42c65b35a0fb7d2d95cb2491693a92
100
AcDbEntity
  8
Visible (ISO)
  6
ByLayer
 62
  256
370
   -1
100
AcDbCircle
 10
<<<<<<< HEAD
238.7660476171222
 20
169.7807306287802
 40
2.499999999999999
  0
LINE
  5
91
=======
249.6002734734971
 20
108.8207306287987
 40
2.499999999999999
  0
CIRCLE
  5
158
>>>>>>> c1622fe70e42c65b35a0fb7d2d95cb2491693a92
100
AcDbEntity
  8
Visible (ISO)
  6
ByLayer
 62
  256
370
   -1
100
<<<<<<< HEAD
AcDbLine
 10
249.7860476171387
 20
147.7607306288144
 11
247.7460476171564
 21
147.7607306288144
  0
LINE
  5
92
=======
AcDbCircle
 10
195.6002734735262
 20
108.8207306287987
 40
2.499999999999999
  0
CIRCLE
  5
159
>>>>>>> c1622fe70e42c65b35a0fb7d2d95cb2491693a92
100
AcDbEntity
  8
Visible (ISO)
  6
ByLayer
 62
  256
370
   -1
100
<<<<<<< HEAD
AcDbLine
 10
247.7460476171564
 20
147.7607306288144
 11
247.7460476171564
 21
155.8007306288329
  0
LINE
  5
93
=======
AcDbCircle
 10
223.6002734734971
 20
177.8207306287987
 40
2.5
  0
CIRCLE
  5
15A
>>>>>>> c1622fe70e42c65b35a0fb7d2d95cb2491693a92
100
AcDbEntity
  8
Visible (ISO)
  6
ByLayer
 62
  256
370
   -1
100
<<<<<<< HEAD
AcDbLine
 10
247.7460476171564
 20
155.8007306288329
 11
249.7860476171387
 21
155.8007306288329
  0
LINE
  5
94
=======
AcDbCircle
 10
195.6002734735262
 20
182.8207306287987
 40
2.499999999999999
  0
CIRCLE
  5
15B
>>>>>>> c1622fe70e42c65b35a0fb7d2d95cb2491693a92
100
AcDbEntity
  8
Visible (ISO)
  6
ByLayer
 62
  256
370
   -1
100
<<<<<<< HEAD
AcDbLine
 10
249.7860476171387
 20
155.8007306288329
 11
249.7860476171387
 21
147.7607306288144
  0
LINE
  5
95
=======
AcDbCircle
 10
249.6002734734971
 20
182.8207306287987
 40
2.499999999999999
  0
LINE
  5
15C
>>>>>>> c1622fe70e42c65b35a0fb7d2d95cb2491693a92
100
AcDbEntity
  8
Visible (ISO)
  6
ByLayer
 62
  256
370
   -1
100
AcDbLine
 10
<<<<<<< HEAD
247.7460476171564
 20
133.8807306287831
 11
249.7860476171387
 21
133.8807306287831
  0
LINE
  5
96
=======
193.5476626752232
 20
188.7681198304957
 11
181.6002734735261
 21
176.8207306287986
  0
LINE
  5
15D
>>>>>>> c1622fe70e42c65b35a0fb7d2d95cb2491693a92
100
AcDbEntity
  8
Visible (ISO)
  6
ByLayer
 62
  256
370
   -1
100
AcDbLine
 10
<<<<<<< HEAD
249.7860476171387
 20
133.8807306287831
 11
249.7860476171387
 21
125.8407306287644
  0
LINE
  5
97
=======
181.6002734735261
 20
114.8207306287987
 11
193.5476626752232
 21
102.8733414271016
  0
LINE
  5
15E
>>>>>>> c1622fe70e42c65b35a0fb7d2d95cb2491693a92
100
AcDbEntity
  8
Visible (ISO)
  6
ByLayer
 62
  256
370
   -1
100
AcDbLine
 10
<<<<<<< HEAD
249.7860476171387
 20
125.8407306287644
 11
247.7460476171564
 21
125.8407306287644
  0
LINE
  5
98
=======
263.6002734734825
 20
114.8207306287987
 11
263.6002734734825
 21
176.8207306287987
  0
LINE
  5
15F
>>>>>>> c1622fe70e42c65b35a0fb7d2d95cb2491693a92
100
AcDbEntity
  8
Visible (ISO)
  6
ByLayer
 62
  256
370
   -1
100
AcDbLine
 10
<<<<<<< HEAD
247.7460476171564
 20
125.8407306287644
 11
247.7460476171564
 21
133.8807306287831
  0
LINE
  5
99
=======
181.6002734735261
 20
176.8207306287986
 11
181.6002734735261
 21
114.8207306287987
  0
LINE
  5
160
>>>>>>> c1622fe70e42c65b35a0fb7d2d95cb2491693a92
100
AcDbEntity
  8
Visible (ISO)
  6
ByLayer
 62
  256
370
   -1
100
AcDbLine
 10
<<<<<<< HEAD
252.7660476171075
 20
163.7807306287802
 11
240.8186584154105
 21
175.7281198304773
  0
LINE
  5
9A
=======
260.6202734735137
 20
154.800730628804
 11
258.5802734735314
 21
154.800730628804
  0
LINE
  5
161
>>>>>>> c1622fe70e42c65b35a0fb7d2d95cb2491693a92
100
AcDbEntity
  8
Visible (ISO)
  6
ByLayer
 62
  256
370
   -1
100
AcDbLine
 10
<<<<<<< HEAD
240.8186584154105
 20
107.8733414271016
 11
252.7660476171075
 21
119.8207306287987
  0
LINE
  5
9B
100
AcDbEntity
  8
0
=======
258.5802734735314
 20
154.800730628804
 11
258.5802734735314
 21
162.8407306288225
  0
LINE
  5
162
100
AcDbEntity
  8
Visible (ISO)
>>>>>>> c1622fe70e42c65b35a0fb7d2d95cb2491693a92
  6
ByLayer
 62
  256
370
<<<<<<< HEAD
   50
100
AcDbLine
 10
252.7657741436251
 20
119.821
 11
252.7657741436251
 21
163.781
  0
LINE
  5
9C
100
AcDbEntity
  8
Capa 12
=======
   -1
100
AcDbLine
 10
258.5802734735314
 20
162.8407306288225
 11
260.6202734735137
 21
162.8407306288225
  0
LINE
  5
163
100
AcDbEntity
  8
Visible (ISO)
>>>>>>> c1622fe70e42c65b35a0fb7d2d95cb2491693a92
  6
ByLayer
 62
  256
370
<<<<<<< HEAD
   50
100
AcDbLine
 10
240.8186584154105
 20
175.7281198304773
 11
193.5476626752232
 21
175.7281198304773
  0
LINE
  5
9D
100
AcDbEntity
  8
Capa 12
=======
   -1
100
AcDbLine
 10
260.6202734735137
 20
162.8407306288225
 11
260.6202734735137
 21
154.800730628804
  0
LINE
  5
164
100
AcDbEntity
  8
Visible (ISO)
>>>>>>> c1622fe70e42c65b35a0fb7d2d95cb2491693a92
  6
ByLayer
 62
  256
370
<<<<<<< HEAD
   50
100
AcDbLine
 10
193.5476626752232
 20
107.8733414271016
 11
240.8186584154105
 21
107.8733414271016
  0
LINE
  5
9E
=======
   -1
100
AcDbLine
 10
202.6202734735262
 20
172.8407306287987
 11
202.6202734735262
 21
170.8007306287986
  0
LINE
  5
165
>>>>>>> c1622fe70e42c65b35a0fb7d2d95cb2491693a92
100
AcDbEntity
  8
Visible (ISO)
  6
ByLayer
 62
  256
370
   -1
100
AcDbLine
 10
<<<<<<< HEAD
99.6973568122888
 20
125.7333499837815
 11
99.6973568122888
 21
133.7733499838001
  0
LINE
  5
9F
=======
202.6202734735262
 20
170.8007306287986
 11
194.5802734735262
 21
170.8007306287986
  0
LINE
  5
166
>>>>>>> c1622fe70e42c65b35a0fb7d2d95cb2491693a92
100
AcDbEntity
  8
Visible (ISO)
  6
ByLayer
 62
  256
370
   -1
100
AcDbLine
 10
<<<<<<< HEAD
99.6973568122888
 20
133.7733499838001
 11
101.737356812191
 21
133.7733499838729
  0
LINE
  5
A0
=======
194.5802734735262
 20
170.8007306287986
 11
194.5802734735262
 21
172.8407306287987
  0
LINE
  5
167
>>>>>>> c1622fe70e42c65b35a0fb7d2d95cb2491693a92
100
AcDbEntity
  8
Visible (ISO)
  6
ByLayer
 62
  256
370
   -1
100
AcDbLine
 10
<<<<<<< HEAD
101.737356812191
 20
133.7733499838729
 11
101.7373568122638
 21
125.7333499837815
  0
LINE
  5
A1
=======
194.5802734735262
 20
172.8407306287987
 11
202.6202734735262
 21
172.8407306287987
  0
LINE
  5
168
>>>>>>> c1622fe70e42c65b35a0fb7d2d95cb2491693a92
100
AcDbEntity
  8
Visible (ISO)
  6
ByLayer
 62
  256
370
   -1
100
AcDbLine
 10
<<<<<<< HEAD
117.7373568123127
 20
164.7733499838054
 11
117.7373568123127
 21
162.7333499838054
  0
LINE
  5
A2
=======
250.6202734735137
 20
170.800730628833
 11
242.5802734734223
 21
170.800730628833
  0
LINE
  5
169
>>>>>>> c1622fe70e42c65b35a0fb7d2d95cb2491693a92
100
AcDbEntity
  8
Visible (ISO)
  6
ByLayer
 62
  256
370
   -1
100
AcDbLine
 10
<<<<<<< HEAD
117.7373568123127
 20
162.7333499838054
 11
109.6973568123127
 21
162.7333499838054
  0
LINE
  5
A3
=======
242.5802734734223
 20
170.800730628833
 11
242.5802734734223
 21
172.8407306288225
  0
LINE
  5
16A
>>>>>>> c1622fe70e42c65b35a0fb7d2d95cb2491693a92
100
AcDbEntity
  8
Visible (ISO)
  6
ByLayer
 62
  256
370
   -1
100
AcDbLine
 10
<<<<<<< HEAD
109.6973568123127
 20
162.7333499838054
 11
109.6973568123127
 21
164.7733499838054
  0
LINE
  5
A4
=======
242.5802734734223
 20
172.8407306288225
 11
250.6202734735137
 21
172.8407306288225
  0
LINE
  5
16B
>>>>>>> c1622fe70e42c65b35a0fb7d2d95cb2491693a92
100
AcDbEntity
  8
Visible (ISO)
  6
ByLayer
 62
  256
370
   -1
100
AcDbLine
 10
<<<<<<< HEAD
109.6973568123127
 20
164.7733499838054
 11
117.7373568123127
 21
164.7733499838054
  0
LINE
  5
A5
=======
250.6202734735137
 20
172.8407306288225
 11
250.6202734735137
 21
170.800730628833
  0
LINE
  5
16C
>>>>>>> c1622fe70e42c65b35a0fb7d2d95cb2491693a92
100
AcDbEntity
  8
Visible (ISO)
  6
ByLayer
 62
  256
370
   -1
100
AcDbLine
 10
<<<<<<< HEAD
99.6973568122981
 20
155.8007306289058
 11
101.7373568122731
 21
155.8007306289058
  0
LINE
  5
A6
=======
184.5802734735023
 20
162.8407306288225
 11
186.6202734734773
 21
162.8407306288225
  0
LINE
  5
16D
>>>>>>> c1622fe70e42c65b35a0fb7d2d95cb2491693a92
100
AcDbEntity
  8
Visible (ISO)
  6
ByLayer
 62
  256
370
   -1
100
AcDbLine
 10
<<<<<<< HEAD
101.7373568122731
 20
155.8007306289058
 11
101.7373568122003
 21
147.7607306288144
  0
LINE
  5
A7
=======
186.6202734734773
 20
162.8407306288225
 11
186.6202734734045
 21
154.8007306287312
  0
LINE
  5
16E
>>>>>>> c1622fe70e42c65b35a0fb7d2d95cb2491693a92
100
AcDbEntity
  8
Visible (ISO)
  6
ByLayer
 62
  256
370
   -1
100
AcDbLine
 10
<<<<<<< HEAD
101.7373568122003
 20
147.7607306288144
 11
99.6973568122981
 21
147.7607306288872
  0
LINE
  5
A8
=======
186.6202734734045
 20
154.8007306287312
 11
184.5802734735023
 21
154.800730628804
  0
LINE
  5
16F
>>>>>>> c1622fe70e42c65b35a0fb7d2d95cb2491693a92
100
AcDbEntity
  8
Visible (ISO)
  6
ByLayer
 62
  256
370
   -1
100
AcDbLine
 10
<<<<<<< HEAD
99.6973568122981
 20
147.7607306288872
 11
99.6973568122981
 21
155.8007306289058
  0
LINE
  5
A9
=======
184.5802734735023
 20
154.800730628804
 11
184.5802734735023
 21
162.8407306288225
  0
LINE
  5
170
>>>>>>> c1622fe70e42c65b35a0fb7d2d95cb2491693a92
100
AcDbEntity
  8
Visible (ISO)
  6
ByLayer
 62
  256
370
   -1
100
AcDbLine
 10
<<<<<<< HEAD
117.7373568123127
 20
120.7333499838054
 11
117.7373568123127
 21
118.6933499838053
  0
LINE
  5
AA
=======
258.5802734735314
 20
136.8407306287935
 11
260.6202734735137
 21
136.8407306287935
  0
LINE
  5
171
>>>>>>> c1622fe70e42c65b35a0fb7d2d95cb2491693a92
100
AcDbEntity
  8
Visible (ISO)
  6
ByLayer
 62
  256
370
   -1
100
AcDbLine
 10
<<<<<<< HEAD
117.7373568123127
 20
118.6933499838053
 11
109.6973568123127
 21
118.6933499838053
  0
LINE
  5
AB
=======
260.6202734735137
 20
136.8407306287935
 11
260.6202734735137
 21
128.8007306287748
  0
LINE
  5
172
>>>>>>> c1622fe70e42c65b35a0fb7d2d95cb2491693a92
100
AcDbEntity
  8
Visible (ISO)
  6
ByLayer
 62
  256
370
   -1
100
AcDbLine
 10
<<<<<<< HEAD
109.6973568123127
 20
118.6933499838053
 11
109.6973568123127
 21
120.7333499838054
  0
LINE
  5
AC
=======
260.6202734735137
 20
128.8007306287748
 11
258.5802734735314
 21
128.8007306287748
  0
LINE
  5
173
>>>>>>> c1622fe70e42c65b35a0fb7d2d95cb2491693a92
100
AcDbEntity
  8
Visible (ISO)
  6
ByLayer
 62
  256
370
   -1
100
AcDbLine
 10
<<<<<<< HEAD
109.6973568123127
 20
120.7333499838054
 11
117.7373568123127
 21
120.7333499838054
  0
LINE
  5
AD
100
AcDbEntity
  8
Capa 12
  6
DOT
=======
258.5802734735314
 20
128.8007306287748
 11
258.5802734735314
 21
136.8407306287935
  0
LINE
  5
174
100
AcDbEntity
  8
Visible (ISO)
  6
ByLayer
>>>>>>> c1622fe70e42c65b35a0fb7d2d95cb2491693a92
 62
  256
370
   -1
100
AcDbLine
 10
<<<<<<< HEAD
96.97236090617301
 20
158.2194558523979
 11
96.97236090617301
 21
164.6809568088424
  0
LINE
  5
AE
100
AcDbEntity
  8
Capa 12
  6
DOT
=======
202.6202734735262
 20
120.8407306287987
 11
202.6202734735262
 21
118.8007306287987
  0
LINE
  5
175
100
AcDbEntity
  8
Visible (ISO)
  6
ByLayer
>>>>>>> c1622fe70e42c65b35a0fb7d2d95cb2491693a92
 62
  256
370
   -1
100
AcDbLine
 10
<<<<<<< HEAD
96.97236090617301
 20
118.9335494818939
 11
97.25529155027965
 21
118.9335494818939
  0
LINE
  5
AF
100
AcDbEntity
  8
Capa 12
  6
DOT
=======
202.6202734735262
 20
118.8007306287987
 11
194.5802734735262
 21
118.8007306287987
  0
LINE
  5
176
100
AcDbEntity
  8
Visible (ISO)
  6
ByLayer
>>>>>>> c1622fe70e42c65b35a0fb7d2d95cb2491693a92
 62
  256
370
   -1
100
AcDbLine
 10
<<<<<<< HEAD
97.25529155027965
 20
118.8015841045735
 11
96.97236090617301
 21
118.8015841045735
  0
LINE
  5
B0
100
AcDbEntity
  8
Capa 12
  6
DOT
=======
194.5802734735262
 20
118.8007306287987
 11
194.5802734735262
 21
120.8407306287987
  0
LINE
  5
177
100
AcDbEntity
  8
Visible (ISO)
  6
ByLayer
>>>>>>> c1622fe70e42c65b35a0fb7d2d95cb2491693a92
 62
  256
370
   -1
100
AcDbLine
 10
<<<<<<< HEAD
96.97236090617301
 20
118.8015841045735
 11
97.146996067158
 21
118.8015841045735
  0
LINE
  5
B1
100
AcDbEntity
  8
Capa 12
  6
DOT
=======
194.5802734735262
 20
120.8407306287987
 11
202.6202734735262
 21
120.8407306287987
  0
LINE
  5
178
100
AcDbEntity
  8
Visible (ISO)
  6
ByLayer
>>>>>>> c1622fe70e42c65b35a0fb7d2d95cb2491693a92
 62
  256
370
   -1
100
AcDbLine
 10
<<<<<<< HEAD
97.146996067158
 20
118.8015841045735
 11
97.146996067158
 21
119.1011797917609
  0
LINE
  5
B2
100
AcDbEntity
  8
Capa 12
  6
DOT
=======
242.5802734734223
 20
120.8407306287644
 11
250.6202734735137
 21
120.8407306287644
  0
LINE
  5
179
100
AcDbEntity
  8
Visible (ISO)
  6
ByLayer
>>>>>>> c1622fe70e42c65b35a0fb7d2d95cb2491693a92
 62
  256
370
   -1
100
AcDbLine
 10
<<<<<<< HEAD
97.146996067158
 20
119.1011797917609
 11
96.97236090617301
 21
119.1011797917609
  0
LINE
  5
B3
100
AcDbEntity
  8
Capa 12
=======
250.6202734735137
 20
120.8407306287644
 11
250.6202734735137
 21
118.8007306287748
  0
LINE
  5
17A
100
AcDbEntity
  8
Visible (ISO)
>>>>>>> c1622fe70e42c65b35a0fb7d2d95cb2491693a92
  6
ByLayer
 62
  256
370
<<<<<<< HEAD
   50
100
AcDbLine
 10
99.6973568122888
 20
125.843418043313
 11
101.7373568122614
 21
125.843418043313
  0
LINE
  5
B4
100
AcDbEntity
  8
Capa 12
=======
   -1
100
AcDbLine
 10
250.6202734735137
 20
118.8007306287748
 11
242.5802734734223
 21
118.8007306287748
  0
LINE
  5
17B
100
AcDbEntity
  8
Visible (ISO)
>>>>>>> c1622fe70e42c65b35a0fb7d2d95cb2491693a92
  6
ByLayer
 62
  256
370
<<<<<<< HEAD
   50
100
AcDbLine
 10
96.76322116559518
 20
119.1464370990352
 11
96.76322116559518
 21
164.4392760977407
  0
LINE
  5
B5
=======
   -1
100
AcDbLine
 10
242.5802734734223
 20
118.8007306287748
 11
242.5802734734223
 21
120.8407306287644
  0
LINE
  5
17C
>>>>>>> c1622fe70e42c65b35a0fb7d2d95cb2491693a92
100
AcDbEntity
  8
Visible (ISO)
  6
ByLayer
 62
  256
370
   -1
100
AcDbLine
 10
<<<<<<< HEAD
165.9323609062999
 20
133.7733499838001
 11
165.9323609062999
 21
125.7333499837815
  0
LINE
  5
B6
=======
186.6202734734773
 20
128.8007306287749
 11
184.5802734735023
 21
128.8007306287749
  0
LINE
  5
17D
>>>>>>> c1622fe70e42c65b35a0fb7d2d95cb2491693a92
100
AcDbEntity
  8
Visible (ISO)
  6
ByLayer
 62
  256
370
   -1
100
AcDbLine
 10
<<<<<<< HEAD
163.9123609063487
 20
133.7733499838001
 11
165.9323609062999
 21
133.7733499838001
  0
LINE
  5
B7
=======
184.5802734735023
 20
128.8007306287749
 11
184.5802734735023
 21
136.8407306287935
  0
LINE
  5
17E
>>>>>>> c1622fe70e42c65b35a0fb7d2d95cb2491693a92
100
AcDbEntity
  8
Visible (ISO)
  6
ByLayer
 62
  256
370
   -1
100
AcDbLine
 10
<<<<<<< HEAD
163.9123609063487
 20
125.7333499837815
 11
163.9123609063487
 21
133.7733499838001
  0
LINE
  5
B8
=======
184.5802734735023
 20
136.8407306287935
 11
186.6202734734045
 21
136.8407306288663
  0
LINE
  5
17F
>>>>>>> c1622fe70e42c65b35a0fb7d2d95cb2491693a92
100
AcDbEntity
  8
Visible (ISO)
  6
ByLayer
 62
  256
370
   -1
100
AcDbLine
 10
<<<<<<< HEAD
155.952360906331
 20
162.7333499838397
 11
147.9123609062396
 21
162.7333499838397
  0
LINE
  5
B9
100
AcDbEntity
  8
Visible (ISO)
=======
186.6202734734045
 20
136.8407306288663
 11
186.6202734734773
 21
128.8007306287749
  0
LINE
  5
180
100
AcDbEntity
  8
0
>>>>>>> c1622fe70e42c65b35a0fb7d2d95cb2491693a92
  6
ByLayer
 62
  256
370
   -1
100
AcDbLine
 10
<<<<<<< HEAD
147.9123609062396
 20
162.7333499838397
 11
147.9123609062396
 21
164.7733499838293
  0
LINE
  5
BA
100
AcDbEntity
  8
Visible (ISO)
=======
258.3261262191619
 20
0
 11
256.3261262191619
 21
0
  0
LINE
  5
181
100
AcDbEntity
  8
0
>>>>>>> c1622fe70e42c65b35a0fb7d2d95cb2491693a92
  6
ByLayer
 62
  256
370
   -1
100
AcDbLine
 10
<<<<<<< HEAD
147.9123609062396
 20
164.7733499838293
 11
155.952360906331
 21
164.7733499838293
  0
LINE
  5
BB
100
AcDbEntity
  8
Visible (ISO)
=======
258.3936448093917
 20
0
 11
256.3936448093917
 21
0
  0
LINE
  5
182
100
AcDbEntity
  8
0
>>>>>>> c1622fe70e42c65b35a0fb7d2d95cb2491693a92
  6
ByLayer
 62
  256
370
   -1
100
AcDbLine
 10
<<<<<<< HEAD
155.952360906331
 20
164.7733499838293
 11
155.952360906331
 21
162.7333499838397
  0
LINE
  5
BC
100
AcDbEntity
  8
Visible (ISO)
=======
256.2330499220386
 20
0
 11
254.2330499220386
 21
0
  0
LINE
  5
183
100
AcDbEntity
  8
0
>>>>>>> c1622fe70e42c65b35a0fb7d2d95cb2491693a92
  6
ByLayer
 62
  256
370
   -1
100
AcDbLine
 10
<<<<<<< HEAD
165.9323609063092
 20
155.8007306289058
 11
165.9323609063092
 21
147.7607306288872
  0
LINE
  5
BD
100
AcDbEntity
  8
Visible (ISO)
=======
254.0049364444556
 20
0
 11
252.0049364444556
 21
0
  0
LINE
  5
184
100
AcDbEntity
  8
0
>>>>>>> c1622fe70e42c65b35a0fb7d2d95cb2491693a92
  6
ByLayer
 62
  256
370
   -1
100
AcDbLine
 10
<<<<<<< HEAD
165.9323609063092
 20
147.7607306288872
 11
163.912360906358
 21
147.7607306288872
  0
LINE
  5
BE
100
AcDbEntity
  8
Visible (ISO)
=======
254.6126037565237
 20
0
 11
252.6126037565237
 21
0
  0
LINE
  5
185
100
AcDbEntity
  8
0
>>>>>>> c1622fe70e42c65b35a0fb7d2d95cb2491693a92
  6
ByLayer
 62
  256
370
   -1
100
AcDbLine
 10
<<<<<<< HEAD
163.912360906358
 20
147.7607306288872
 11
163.912360906358
 21
155.8007306289058
  0
LINE
  5
BF
100
AcDbEntity
  8
Visible (ISO)
=======
255.2877896588215
 20
0
 11
253.2877896588215
 21
0
  0
LINE
  5
186
100
AcDbEntity
  8
0
>>>>>>> c1622fe70e42c65b35a0fb7d2d95cb2491693a92
  6
ByLayer
 62
  256
370
   -1
100
AcDbLine
 10
<<<<<<< HEAD
163.912360906358
 20
155.8007306289058
 11
165.9323609063092
 21
155.8007306289058
  0
LINE
  5
C0
100
AcDbEntity
  8
Visible (ISO)
=======
258.0560518582428
 20
0
 11
249.0560518582428
 21
0
  0
LINE
  5
187
100
AcDbEntity
  8
0
>>>>>>> c1622fe70e42c65b35a0fb7d2d95cb2491693a92
  6
ByLayer
 62
  256
370
   -1
100
AcDbLine
 10
<<<<<<< HEAD
147.9123609062396
 20
120.7333499837711
 11
155.952360906331
 21
120.7333499837711
  0
LINE
  5
C1
100
AcDbEntity
  8
Visible (ISO)
=======
254.4775665760641
 20
0
 11
245.4775665760641
 21
0
  0
LINE
  5
188
100
AcDbEntity
  8
0
>>>>>>> c1622fe70e42c65b35a0fb7d2d95cb2491693a92
  6
ByLayer
 62
  256
370
   -1
100
AcDbLine
 10
<<<<<<< HEAD
155.952360906331
 20
120.7333499837711
 11
155.952360906331
 21
118.6933499837814
  0
LINE
  5
C2
100
AcDbEntity
  8
Visible (ISO)
=======
253.5323063128471
 20
0
 11
244.5323063128471
 21
0
  0
LINE
  5
189
100
AcDbEntity
  8
0
>>>>>>> c1622fe70e42c65b35a0fb7d2d95cb2491693a92
  6
ByLayer
 62
  256
370
   -1
100
AcDbLine
 10
<<<<<<< HEAD
155.952360906331
 20
118.6933499837814
 11
147.9123609062396
 21
118.6933499837814
  0
LINE
  5
C3
100
AcDbEntity
  8
Visible (ISO)
=======
281.6791186148893
 20
0
 11
272.6791186148893
 21
0
  0
LINE
  5
18A
100
AcDbEntity
  8
0
>>>>>>> c1622fe70e42c65b35a0fb7d2d95cb2491693a92
  6
ByLayer
 62
  256
370
   -1
100
AcDbLine
 10
<<<<<<< HEAD
147.9123609062396
 20
118.6933499837814
 11
147.9123609062396
 21
120.7333499837711
  0
LINE
  5
C4
100
AcDbEntity
  8
Capa 12
  6
DOT
=======
257.8102419906875
 20
0
 11
255.8102419906875
 21
0
  0
LINE
  5
18B
100
AcDbEntity
  8
0
  6
ByLayer
>>>>>>> c1622fe70e42c65b35a0fb7d2d95cb2491693a92
 62
  256
370
   -1
100
AcDbLine
 10
<<<<<<< HEAD
128.7505333146307
 20
164.6809568088424
 11
128.7505333146307
 21
164.3316864868724
  0
LINE
  5
C5
100
AcDbEntity
  8
Capa 12
  6
DOT
=======
285.899030504251
 20
0
 11
283.899030504251
 21
0
  0
LINE
  5
18C
100
AcDbEntity
  8
0
  6
ByLayer
>>>>>>> c1622fe70e42c65b35a0fb7d2d95cb2491693a92
 62
  256
370
   -1
100
AcDbLine
 10
<<<<<<< HEAD
128.7505333146307
 20
164.3316864868724
 11
128.7505333146307
 21
158.2194558523979
  0
LINE
  5
C6
100
AcDbEntity
  8
Capa 12
=======
290.5145591332403
 20
0
 11
288.5145591332403
 21
0
  0
LINE
  5
18D
100
AcDbEntity
  8
0
>>>>>>> c1622fe70e42c65b35a0fb7d2d95cb2491693a92
  6
ByLayer
 62
  256
370
<<<<<<< HEAD
   35
100
AcDbLine
 10
165.9323609062999
 20
125.843418043313
 11
165.9323609062999
 21
125.7333499837815
  0
LINE
  5
C7
100
AcDbEntity
  8
Capa 12
=======
   -1
100
AcDbLine
 10
288.9320921747296
 20
0
 11
281.1378635406697
 21
-4.499999999999999
  0
LINE
  5
18E
100
AcDbEntity
  8
0
>>>>>>> c1622fe70e42c65b35a0fb7d2d95cb2491693a92
  6
ByLayer
 62
  256
370
<<<<<<< HEAD
   50
100
AcDbLine
 10
168.9323609062271
 20
119.146437099108
 11
168.9323609062271
 21
164.653906433705
  0
LINE
  5
C8
100
AcDbEntity
  8
Capa 12
=======
   -1
100
AcDbLine
 10
283.9209468061127
 20
0
 11
276.1267181720527
 21
-4.499999999999999
  0
LINE
  5
18F
100
AcDbEntity
  8
0
>>>>>>> c1622fe70e42c65b35a0fb7d2d95cb2491693a92
  6
ByLayer
 62
  256
370
<<<<<<< HEAD
   50
100
AcDbLine
 10
163.9123609063487
 20
125.843418043313
 11
165.9323609062999
 21
125.843418043313
  0
LINE
  5
C9
100
AcDbEntity
  8
Capa 12
=======
   -1
100
AcDbLine
 10
310.0316516215378
 20
0
 11
302.2374229874779
 21
-4.499999999999999
  0
LINE
  5
190
100
AcDbEntity
  8
0
>>>>>>> c1622fe70e42c65b35a0fb7d2d95cb2491693a92
  6
ByLayer
 62
  256
370
<<<<<<< HEAD
   50
100
AcDbLine
 10
96.97236090617301
 20
164.6809568088424
 11
128.9523609061835
 21
175.6465257887303
  0
LINE
  5
CA
100
AcDbEntity
  8
Capa 12
=======
   -1
100
AcDbLine
 10
257.9421142372302
 20
0
 11
254.3551891312729
 21
0
  0
LINE
  5
191
100
AcDbEntity
  8
0
>>>>>>> c1622fe70e42c65b35a0fb7d2d95cb2491693a92
  6
ByLayer
 62
  256
370
<<<<<<< HEAD
   50
100
AcDbLine
 10
128.9523609061835
 20
175.6465257887303
 11
138.9523609061835
 21
175.6465257887303
  0
LINE
  5
CB
100
AcDbEntity
  8
Capa 12
=======
   -1
100
AcDbLine
 10
254.3551891312729
 20
0
 11
281.2571274259533
 21
0
  0
LINE
  5
192
100
AcDbEntity
  8
0
>>>>>>> c1622fe70e42c65b35a0fb7d2d95cb2491693a92
  6
ByLayer
 62
  256
370
<<<<<<< HEAD
   50
100
AcDbLine
 10
138.9523609061835
 20
175.6465257887303
 11
168.9323609062271
 21
164.653906433705
  0
LINE
  5
CC
100
AcDbEntity
  8
Capa 12
=======
   -1
100
AcDbLine
 10
281.2571274259533
 20
0
 11
282.5231009927618
 21
0
  0
LINE
  5
193
100
AcDbEntity
  8
0
>>>>>>> c1622fe70e42c65b35a0fb7d2d95cb2491693a92
  6
ByLayer
 62
  256
370
<<<<<<< HEAD
   50
100
AcDbLine
 10
168.9323609062271
 20
119.146437099108
 11
138.9523609061835
 21
107.9391874080456
  0
LINE
  5
CD
100
AcDbEntity
  8
Capa 12
=======
   -1
100
AcDbLine
 10
258.2586076289323
 20
0
 11
256.2586076289323
 21
0
  0
LINE
  5
194
100
AcDbEntity
  8
0
>>>>>>> c1622fe70e42c65b35a0fb7d2d95cb2491693a92
  6
ByLayer
 62
  256
370
<<<<<<< HEAD
   50
100
AcDbLine
 10
138.9523609061835
 20
107.9391874080456
 11
128.9523609061835
 21
107.9391874080456
  0
LINE
  5
CE
100
AcDbEntity
  8
Capa 12
=======
   -1
100
AcDbLine
 10
254.0386957395707
 20
0
 11
252.0386957395707
 21
0
  0
LINE
  5
195
100
AcDbEntity
  8
0
>>>>>>> c1622fe70e42c65b35a0fb7d2d95cb2491693a92
  6
ByLayer
 62
  256
370
<<<<<<< HEAD
   50
100
AcDbLine
 10
128.9523609061835
 20
107.9391874080456
 11
96.76322116559518
 21
119.1464370990352
  0
CIRCLE
  5
CF
100
AcDbEntity
  8
Visible (ISO)
=======
   -1
100
AcDbLine
 10
279.9911538591448
 20
0
 11
277.9911538591448
 21
0
  0
LINE
  5
196
100
AcDbEntity
  8
0
>>>>>>> c1622fe70e42c65b35a0fb7d2d95cb2491693a92
  6
ByLayer
 62
  256
370
   -1
100
<<<<<<< HEAD
AcDbCircle
 10
133.9119057931397
 20
113.6050990080049
 40
2.5
  0
DIMENSION
  5
D0
100
AcDbEntity
  8
Capa 12
=======
AcDbLine
 10
279.9911538591448
 20
0
 11
277.9911538591448
 21
0
  0
LINE
  5
197
100
AcDbEntity
  8
0
>>>>>>> c1622fe70e42c65b35a0fb7d2d95cb2491693a92
  6
ByLayer
 62
  256
370
<<<<<<< HEAD
   50
100
AcDbDimension
  2
*D1
 10
240.8186584154105
 20
183.8101569093333
 30
0
 11
217.1831605453168
 21
183.8101569093333
 31
0
 70
   32
 71
    5
  3
Standard
 53
0
210
0
220
0
230
1
100
AcDbAlignedDimension
 13
193.5476626752232
 23
175.7281198304772
 33
0
 14
240.8186584154105
 24
175.7281198304773
 34
0
100
AcDbRotatedDimension
  0
CIRCLE
  5
D1
100
AcDbEntity
  8
Visible (ISO)
=======
   -1
100
AcDbLine
 10
279.9911538591448
 20
0
 11
277.9911538591448
 21
0
  0
LINE
  5
198
100
AcDbEntity
  8
0
>>>>>>> c1622fe70e42c65b35a0fb7d2d95cb2491693a92
  6
ByLayer
 62
  256
370
   -1
100
<<<<<<< HEAD
AcDbCircle
 10
217.2516300122241
 20
169.609026066359
 40
2.5
  0
CIRCLE
  5
D2
100
AcDbEntity
  8
Visible (ISO)
=======
AcDbLine
 10
279.9911538591448
 20
0
 11
277.9911538591448
 21
0
  0
CIRCLE
  5
199
100
AcDbEntity
  8
0
>>>>>>> c1622fe70e42c65b35a0fb7d2d95cb2491693a92
  6
ByLayer
 62
  256
370
   -1
100
AcDbCircle
 10
<<<<<<< HEAD
217.410358546655
 20
113.7165005297894
 40
2.5
=======
256.0909908081954
 20
210.9432000420638
 40
1.5
>>>>>>> c1622fe70e42c65b35a0fb7d2d95cb2491693a92
  0
ENDSEC
  0
SECTION
  2
OBJECTS
  0
DICTIONARY
  5
C
330
0
100
AcDbDictionary
281
    1
  3
ACAD_GROUP
350
D
  0
DICTIONARY
  5
D
330
C
100
AcDbDictionary
281
    1
  0
ENDSEC
  0
EOF
